<?xml version="1.0" standalone="no"?>
<!DOCTYPE svg PUBLIC "-//W3C//DTD SVG 1.1//EN" "http://www.w3.org/Graphics/SVG/1.1/DTD/svg11.dtd" >
<svg xmlns="http://www.w3.org/2000/svg" xmlns:xlink="http://www.w3.org/1999/xlink" version="1.1">
<metadata>
Created by FontForge 20170731 at Mon Oct 12 08:08:44 2020
 By Aleksey,,,
Copyright (c) 2017 by Ramiz Guseynov. All rights reserved. |DCNT
</metadata>
<defs>
<font id="DecimaMonoCyr" horiz-adv-x="1228" >
  <font-face 
    font-family="Decima Mono Cyr"
    font-weight="400"
    font-stretch="normal"
    units-per-em="2048"
    panose-1="2 0 5 9 0 0 0 2 0 4"
    ascent="1616"
    descent="-432"
    x-height="1024"
    cap-height="1434"
    bbox="0 -428 1491 1863"
    underline-thickness="102"
    underline-position="-307"
    unicode-range="U+0020-FB02"
  />
<missing-glyph 
 />
    <glyph glyph-name="fi" unicode="fi" 
d="M432 877v-877h-160v877h-159v147h159v145q0 118 80 201q82 82 207 82q92 0 184 -63l-94 -123q-49 34 -90 34q-55 0 -91 -35t-36 -89v-152h537v-877h147v-147h-450v147h141v730h-375zM979 1192h-188v184h188v-184z" />
    <glyph glyph-name="fl" unicode="fl" 
d="M430 877v-877h-160v877h-159v147h159v127q0 119 82 201t205 82h412v-1287h149v-147h-452v147h141v1139h-250q-55 0 -91 -37t-36 -92v-133h260v-147h-260z" />
    <glyph glyph-name=".notdef" 
 />
    <glyph glyph-name=".null" horiz-adv-x="0" 
 />
    <glyph glyph-name="nonmarkingreturn" horiz-adv-x="682" 
 />
    <glyph glyph-name="space" unicode=" " 
 />
    <glyph glyph-name="exclam" unicode="!" 
d="M530 1434h166v-1082h-166v1082zM715 0h-203v201h203v-201z" />
    <glyph glyph-name="quotedbl" unicode="&#x22;" 
d="M512 950h-104v484h159zM780 950h-104v484h160z" />
    <glyph glyph-name="numbersign" unicode="#" 
d="M852 547h174v-154h-197l-55 -393h-149l53 393h-217l-55 -393h-154l55 393h-172v154h195l45 323h-174v154h196l58 410h153l-59 -410h219l59 410h152l-59 -410h172v-154h-193zM528 870l-47 -323h219l45 323h-217z" />
    <glyph glyph-name="dollar" unicode="$" 
d="M692 -145h-162v147q-146 24 -231.5 128.5t-85.5 246.5v41h170v-45q0 -95 65.5 -157t172.5 -62q98 0 161.5 56.5t63.5 137.5q0 185 -217 291q-10 5 -31 15q-48 23 -74 36t-71.5 39.5t-71 47.5t-58.5 54.5t-50.5 67t-29.5 78t-12 94.5q0 128 84 229q86 103 215 130v147h162
v-143q144 -24 226 -131q83 -109 83 -226v-10h-165q0 86 -61.5 147.5t-151.5 61.5q-89 0 -154.5 -57t-65.5 -138q0 -31 8 -57.5t27 -50t37 -41t51 -38t55.5 -33.5t65 -35.5t64.5 -34.5q84 -47 149 -95q71 -50 115.5 -136.5t44.5 -194.5q0 -131 -88 -238q-89 -106 -240 -127
v-145z" />
    <glyph glyph-name="percent" unicode="%" 
d="M647 1239v-186q0 -91 -67 -152t-162 -61h-15q-91 0 -161 61q-68 65 -68 152v186q0 90 68 152q66 63 161 63h15q96 0 162 -63q67 -61 67 -152zM518 1053v186q0 43 -31.5 72.5t-78.5 29.5q-43 0 -74 -30t-31 -72v-186q0 -43 32.5 -73t76.5 -30q43 0 74.5 30.5t31.5 72.5z
M102 457v116l1024 396v-113zM1055 379v-186q0 -90 -68 -152q-67 -61 -162 -61h-14q-92 0 -162 61q-67 64 -67 152v186q0 90 67 151q67 64 162 64h14q95 0 162 -64q68 -62 68 -151zM926 193v186q0 43 -32 72.5t-79 29.5q-43 0 -73.5 -29.5t-30.5 -72.5v-186q0 -43 32 -73
t76 -30q43 0 75 30.5t32 72.5z" />
    <glyph glyph-name="ampersand" unicode="&#x26;" 
d="M1155 834v-154h-190v-328q0 -155 -109 -264q-108 -108 -270 -108q-165 0 -273 108q-106 109 -106 270v158q0 150 127 250q-50 38 -82.5 109t-32.5 143v57q0 159 103 268q105 111 268 111q166 0 276 -113q111 -114 111 -266h-168q-5 97 -62.5 159t-144.5 62
q-95 0 -153 -62t-58 -157v-57q0 -73 46.5 -129.5t123.5 -56.5h594zM586 139q96 0 154.5 59.5t58.5 151.5v330h-256q-67 0 -115.5 -49t-48.5 -117v-160q0 -93 58.5 -154t148.5 -61z" />
    <glyph glyph-name="quotesingle" unicode="'" 
d="M645 950h-104v484h159z" />
    <glyph glyph-name="parenleft" unicode="(" 
d="M815 -227v-162q-168 0 -287 110q-116 110 -116 269v1089q0 157 116 267q119 110 287 110v-166q-100 0 -166.5 -61t-66.5 -152v-1089q0 -92 66.5 -153.5t166.5 -61.5z" />
    <glyph glyph-name="parenright" unicode=")" 
d="M412 -389v162q100 0 165.5 61.5t65.5 153.5v1089q0 92 -65.5 152.5t-165.5 60.5v166q167 0 286 -110t119 -267v-1089q0 -156 -119 -266q-119 -113 -286 -113z" />
    <glyph glyph-name="asterisk" unicode="*" 
d="M545 1280v152h139v-148l150 47l40 -125l-151 -55l94 -123l-112 -80l-91 119l-79 -119l-115 76l84 125l-150 43l41 131z" />
    <glyph glyph-name="plus" unicode="+" 
d="M694 176h-159v344h-345v160h345v344h159v-344h344v-160h-344v-344z" />
    <glyph glyph-name="comma" unicode="," 
d="M582 0h-70v201h207v-187l-88 -254h-119z" />
    <glyph glyph-name="hyphen" unicode="-" 
d="M365 680h499v-160h-499v160z" />
    <glyph glyph-name="period" unicode="." 
d="M717 0h-203v201h203v-201z" />
    <glyph glyph-name="slash" unicode="/" 
d="M356 -369h-170l684 1803h172z" />
    <glyph glyph-name="zero" unicode="0" 
d="M987 1077v-721q0 -157 -108 -268q-108 -108 -267 -108t-266 110q-104 110 -104 268v719q0 159 104 266q108 111 266 111q159 0 267 -111q108 -108 108 -266zM817 354v721q0 91 -59.5 154t-145.5 63q-85 0 -143.5 -63t-58.5 -154v-719q0 -91 59 -153t145 -62
q85 0 144 61.5t59 151.5z" />
    <glyph glyph-name="one" unicode="1" 
d="M1006 0h-785v158h305v1114l-278 -43v162l268 43h182v-1276h308v-158z" />
    <glyph glyph-name="two" unicode="2" 
d="M410 1044h-172q0 178 112 293q114 117 277 117q159 0 270 -108t111 -267q0 -112 -60 -217.5t-157 -189.5q-22 -18 -75.5 -62t-80.5 -67.5t-72 -65.5t-69.5 -73.5t-51 -73t-38 -84t-11.5 -86.5h615v-160h-787v150q0 128 60 242.5t157 199.5q31 28 88.5 76.5t93 79t81.5 77
t72 84.5t44.5 86.5t18.5 96.5q0 84 -62 142t-149 58q-92 0 -153.5 -71.5t-61.5 -176.5z" />
    <glyph glyph-name="three" unicode="3" 
d="M750 1272h-449v162h668v-152l-244 -317q112 -15 195 -107q84 -90 84 -213v-287q0 -158 -113 -268q-110 -110 -270 -110h-15q-158 0 -272 108q-111 111 -111 268v41h172v-43q0 -91 63.5 -152t155.5 -61q91 0 154 62t63 153v287q0 66 -47 114t-114 48h-154v153z" />
    <glyph glyph-name="four" unicode="4" 
d="M733 309h-530v154l459 971h184l-447 -965h334v369h172v-369h119v-160h-119v-309h-172v309z" />
    <glyph glyph-name="five" unicode="5" 
d="M225 356v41h172v-43q0 -93 61.5 -153t157.5 -60q94 0 154.5 60.5t60.5 154.5v234q0 92 -62 153.5t-153 61.5q-68 0 -117.5 -32t-70.5 -77l-158 47l60 691h624v-162h-460l-35 -357q64 52 182 52q152 0 258 -109q105 -108 105 -266v-234q0 -157 -111 -268
q-110 -110 -277 -110q-171 0 -282 108q-109 109 -109 268z" />
    <glyph glyph-name="six" unicode="6" 
d="M604 1454q156 0 266 -104q111 -105 111 -277h-170q0 94 -56 155.5t-151 61.5q-88 0 -148.5 -63t-60.5 -154v-201l27 25q20 17 80 43q64 27 133 27q153 0 260 -107q109 -109 109 -268v-234q0 -158 -113 -268q-110 -110 -277 -110q-164 0 -278 108q-111 111 -111 268v719
q0 156 109 268q108 111 270 111zM614 805q-95 0 -157 -59.5t-62 -155.5v-236q0 -91 63.5 -152t155.5 -61q91 0 154 62t63 153v234q0 93 -62 154t-155 61z" />
    <glyph glyph-name="seven" unicode="7" 
d="M653 0h-176q0 205 78 483q76 261 160 494q83 222 86 295h-545v162h717v-150q0 -78 -51 -237q-42 -134 -109 -322q-60 -168 -111 -367q-49 -203 -49 -358z" />
    <glyph glyph-name="eight" unicode="8" 
d="M985 1096v-76q0 -170 -129 -275q148 -115 148 -301v-88q0 -157 -111 -268q-108 -108 -268 -108h-19q-160 0 -270 110q-111 111 -111 268v86q0 184 150 301q-133 103 -133 277v74q0 150 104 254q107 104 258 104h19q152 0 256 -104q106 -103 106 -254zM831 354v88
q0 91 -63 154t-154 63t-154 -63t-63 -154v-86q0 -91 64.5 -153t156.5 -62q88 0 150.5 61.5t62.5 151.5zM813 1018v69q0 86 -58.5 145.5t-144.5 59.5q-82 0 -139 -59.5t-57 -145.5v-67q0 -81 54.5 -140t137.5 -59h19q79 0 133.5 56.5t54.5 140.5z" />
    <glyph glyph-name="nine" unicode="9" 
d="M625 -20q-157 0 -267 104t-110 276h170q0 -94 56 -155.5t151 -61.5q88 0 148.5 63t60.5 154v201q-21 -21 -27 -26q-29 -21 -91 -44.5t-122 -23.5q-154 0 -260 106q-109 109 -109 269v233q0 157 111 268q114 111 278 111q166 0 277 -111q113 -107 113 -266v-719
q0 -156 -109 -268q-107 -110 -270 -110zM614 629q95 0 157.5 59.5t62.5 155.5v235q0 90 -63.5 151.5t-156.5 61.5q-91 0 -154 -62t-63 -153v-233q0 -93 62 -154t155 -61z" />
    <glyph glyph-name="colon" unicode=":" 
d="M715 0h-201v201h201v-201zM715 823h-201v201h201v-201z" />
    <glyph glyph-name="semicolon" unicode=";" 
d="M717 823h-201v201h201v-201zM582 0h-66v201h201v-187l-86 -254h-119z" />
    <glyph glyph-name="less" unicode="&#x3c;" 
d="M1038 137l-848 385v150l848 383v-176l-643 -283l643 -281v-178z" />
    <glyph glyph-name="equal" unicode="=" 
d="M190 694v160h848v-160h-848zM190 342v160h848v-160h-848z" />
    <glyph glyph-name="greater" unicode="&#x3e;" 
d="M190 1055l848 -383v-150l-848 -385v178l644 281l-644 283v176z" />
    <glyph glyph-name="question" unicode="?" 
d="M397 1065h-170q0 176 111 281q109 106 274 106q167 0 277 -104q110 -101 110 -271q0 -189 -116 -305q-5 -5 -31 -30.5t-34 -34t-30.5 -33.5t-31.5 -40.5t-26.5 -43t-25 -52t-17.5 -56.5t-13.5 -68t-3.5 -76h-170q0 128 31.5 229t82.5 160q20 25 55.5 62t58 63.5t47 63
t36.5 79t12 92.5q0 85 -61 142t-150 57q-95 0 -155 -61t-60 -160zM688 0h-207v203h207v-203z" />
    <glyph glyph-name="at" unicode="@" 
d="M604 729v-436q0 -66 47.5 -115t110.5 -49q72 0 121 48t49 116v436q0 66 -49.5 113t-118.5 47q-64 0 -112 -47.5t-48 -112.5zM762 1036q93 0 170 -71q-3 144 -84 237q-82 98 -211 98h-31q-131 0 -225 -104q-92 -103 -92 -242v-811q0 -138 86 -241t213 -103h37v-153h-31
q-195 0 -324 147q-127 145 -127 350v811q0 208 133 353q135 147 330 147h31q193 0 319 -141q127 -142 127 -348v-965h-145v55q-77 -71 -176 -71q-131 0 -221 84q-88 85 -88 217v448q0 127 88 215t221 88z" />
    <glyph glyph-name="A" unicode="A" 
d="M221 612l260 822h269l260 -826v-608h-172v457h-447v-457h-170v612zM399 616h435l-199 662h-39z" />
    <glyph glyph-name="B" unicode="B" 
d="M635 1272h-197v-441h207q78 0 123 43.5t45 118.5v119q0 69 -49 114.5t-129 45.5zM635 676h-197v-514h187q91 0 143.5 50.5t52.5 131.5v148q0 75 -49 129.5t-137 54.5zM266 0v1434h359q162 0 258 -93t96 -227v-113q0 -135 -117 -243q131 -107 131 -266v-148
q0 -156 -108 -250q-107 -94 -275 -94h-344z" />
    <glyph glyph-name="C" unicode="C" 
d="M852 397h174v-41q0 -158 -113 -268q-114 -108 -280 -108q-171 0 -285 108q-110 110 -110 270v719q0 155 114 266q117 111 281 111q168 0 276 -111q109 -109 109 -268h-172q0 91 -61.5 154t-151.5 63q-92 0 -156.5 -63t-64.5 -154v-719q0 -91 63.5 -153t157.5 -62
q88 0 153 62q66 66 66 151v43z" />
    <glyph glyph-name="D" unicode="D" 
d="M610 0h-377v1434h377q161 0 275 -111q112 -106 112 -266v-680q0 -159 -112 -268q-115 -109 -275 -109zM823 375v684q0 91 -63.5 152t-155.5 61h-201v-1110h201q92 0 155.5 61t63.5 152z" />
    <glyph glyph-name="E" unicode="E" 
d="M283 0v1434h700v-162h-528v-436h479v-160h-479v-514h544v-162h-716z" />
    <glyph glyph-name="F" unicode="F" 
d="M311 0v1434h701v-162h-531v-436h482v-160h-482v-676h-170z" />
    <glyph glyph-name="G" unicode="G" 
d="M637 737h385v-381q0 -151 -115 -266q-113 -110 -291 -110q-184 0 -297 110q-110 113 -110 268v719q0 156 110 266q114 111 297 111q197 0 299 -117q105 -117 105 -262h-174q0 91 -66 154t-164 63q-105 0 -169 -60t-64 -153v-723q0 -92 64.5 -153.5t168.5 -61.5
q101 0 165.5 61.5t64.5 151.5v224h-209v159z" />
    <glyph glyph-name="H" unicode="H" 
d="M834 836v598h174v-1434h-174v676h-443v-676h-172v1434h172v-598h443z" />
    <glyph glyph-name="I" unicode="I" 
d="M528 1274h-309v160h791v-160h-310v-1114h310v-160h-791v160h309v1114z" />
    <glyph glyph-name="J" unicode="J" 
d="M809 1274h-530v160h704v-1076q0 -156 -115 -268q-113 -110 -274 -110h-10q-161 0 -275 108q-112 109 -112 268v109h172v-111q0 -88 63 -151q65 -62 156 -62q94 0 157.5 62t63.5 153v918z" />
    <glyph glyph-name="K" unicode="K" 
d="M238 1434h174v-660l454 660h201l-483 -674l506 -760h-199l-479 743v-743h-174v1434z" />
    <glyph glyph-name="L" unicode="L" 
d="M358 0v1434h174v-1272h555v-162h-729z" />
    <glyph glyph-name="M" unicode="M" 
d="M866 680l6 494l-182 -496h-151l-185 496q6 -194 6 -498v-676h-163v1434h213l208 -590l199 590h215v-1434h-166v680z" />
    <glyph glyph-name="N" unicode="N" 
d="M850 676v758h160v-1434h-166l-473 1087q10 -208 10 -337v-750h-160v1434h166l473 -1090q-10 163 -10 332z" />
    <glyph glyph-name="O" unicode="O" 
d="M1022 1077v-721q0 -151 -113 -264q-109 -112 -293 -112q-188 0 -297 112q-110 113 -110 266v719q0 151 110 264t297 113q181 0 293 -115q113 -113 113 -262zM848 354v725q0 89 -64.5 151t-167.5 62q-105 0 -169 -62t-64 -151v-723q0 -91 63.5 -153t169.5 -62
q103 0 167.5 62t64.5 151z" />
    <glyph glyph-name="P" unicode="P" 
d="M680 498h-219v-498h-172v1434h391q136 0 231 -95q97 -94 97 -225v-295q0 -132 -97 -229q-95 -92 -231 -92zM834 813v303q0 66 -47 111t-115 45h-211v-613h211q67 0 114.5 45.5t47.5 108.5z" />
    <glyph glyph-name="Q" unicode="Q" 
d="M1001 1077v-721q0 -135 -90 -239l99 -97l-103 -106l-112 111q-86 -45 -199 -45q-188 0 -297 112q-111 114 -111 266v719q0 150 111 264q110 113 297 113q181 0 293 -115q112 -112 112 -262zM668 150l-72 71l102 107l97 -95q32 35 32 121v725q0 89 -64 151t-167 62
q-106 0 -170 -62t-64 -151v-723q0 -91 64 -153t170 -62q42 0 72 9z" />
    <glyph glyph-name="R" unicode="R" 
d="M799 551l237 -551h-190l-217 522h-191v-522h-172v1434h391q137 0 232 -95q96 -93 96 -225v-272q0 -98 -49 -175.5t-137 -115.5zM811 836v280q0 63 -47 109.5t-113 46.5h-213v-590h213q66 0 113 45.5t47 108.5z" />
    <glyph glyph-name="S" unicode="S" 
d="M623 -20q-193 0 -299 112q-109 115 -109 279v41h174v-45q0 -100 63 -163t171 -63q101 0 165 57.5t64 141.5q0 98 -59.5 172.5t-157.5 122.5l-32 16q-49 24 -74.5 37.5t-71.5 41t-71.5 49t-58.5 56t-50.5 68.5t-29.5 80t-11 96q0 161 112 267q114 108 277 108
q175 0 280 -117q107 -116 107 -252v-12h-170q0 87 -63 151t-154 64t-153 -57t-62 -141q0 -137 217 -250q46 -21 78.5 -38t77.5 -44.5t77 -53.5t66 -64t55 -78.5t34 -93.5t13 -112q0 -151 -110 -264q-106 -112 -295 -112z" />
    <glyph glyph-name="T" unicode="T" 
d="M528 1272h-317v162h809v-162h-320v-1272h-172v1272z" />
    <glyph glyph-name="U" unicode="U" 
d="M846 1434h172v-1078q0 -155 -111 -266q-110 -110 -291 -110t-294 110q-111 111 -111 268v1076h172v-1078q0 -90 63.5 -152.5t169.5 -62.5q103 0 166.5 62.5t63.5 150.5v1080z" />
    <glyph glyph-name="V" unicode="V" 
d="M219 1434h172v-592l203 -680h39l201 680v592h174v-609l-252 -825h-285l-252 821v613z" />
    <glyph glyph-name="W" unicode="W" 
d="M831 133l52 705v596h168v-611l-97 -823h-235l-105 590h-8l-112 -590h-228l-90 823v611h170v-596l51 -705h9l106 569h205l106 -569h8z" />
    <glyph glyph-name="X" unicode="X" 
d="M184 1434h191l237 -519l240 519h188l-333 -689l362 -745h-188l-269 565l-266 -565h-188l360 745z" />
    <glyph glyph-name="Y" unicode="Y" 
d="M152 1434h190l272 -564l271 564h192l-377 -756v-678h-172v678z" />
    <glyph glyph-name="Z" unicode="Z" 
d="M1010 1434v-170l-590 -1102h588v-162h-791v170l588 1102h-557v162h762z" />
    <glyph glyph-name="bracketleft" unicode="[" 
d="M582 -205h233v-162h-403v1801h403v-166h-233v-1473z" />
    <glyph glyph-name="backslash" unicode="\" 
d="M178 1434h170l701 -1803h-172z" />
    <glyph glyph-name="bracketright" unicode="]" 
d="M815 -367h-403v162h233v1473h-233v166h403v-1801z" />
    <glyph glyph-name="asciicircum" unicode="^" 
d="M236 676l309 756h139l309 -756h-151l-232 551l-223 -551h-151z" />
    <glyph glyph-name="underscore" unicode="_" 
d="M0 -295v141h1229v-141h-1229z" />
    <glyph glyph-name="grave" unicode="`" 
d="M610 1421l250 -301h-172l-311 301h233z" />
    <glyph glyph-name="a" unicode="a" 
d="M995 0h-159v94q-6 -8 -31 -33q-19 -16 -90 -51q-71 -30 -148 -30q-159 0 -257.5 88.5t-98.5 230.5q0 133 89.5 220t248.5 110q133 18 237 18h43v53q0 82 -55 138.5t-145 56.5q-84 0 -141 -41t-68 -109h-162q15 129 121 213q109 86 250 86q172 0 269 -92t97 -239v-713z
M829 322v182q-154 -3 -268 -21q-83 -12 -134.5 -61.5t-51.5 -120.5q0 -75 55 -124.5t145 -49.5q113 0 183 61q71 65 71 134z" />
    <glyph glyph-name="b" unicode="b" 
d="M862 365v292q0 109 -63 173.5t-164 64.5q-99 0 -176 -68q-76 -67 -76 -168v-303q0 -95 74 -163t178 -68q101 0 164 65.5t63 174.5zM219 1434h164v-502q6 8 29 31q25 21 90 49q65 32 153 32q157 0 265 -108q110 -107 110 -268v-303q0 -160 -110 -273q-106 -112 -271 -112
q-78 0 -148 28.5t-100 61.5l-28 30l-6 -100h-148v1434z" />
    <glyph glyph-name="c" unicode="c" 
d="M629 897q-104 0 -172 -64.5t-68 -158.5v-326q0 -95 67.5 -159t174.5 -64q104 0 166 65q61 67 61 150h168q0 -113 -90 -229q-46 -59 -128 -95t-179 -36q-183 0 -295 112q-111 114 -111 266v310q0 156 113 266t293 110q83 0 151 -23.5t110.5 -61t72 -86.5t41.5 -97t12 -96
h-168q0 21 -2 35q-3 21 -9 41.5t-22 47t-38.5 46t-61 33.5t-86.5 14z" />
    <glyph glyph-name="d" unicode="d" 
d="M365 657v-292q0 -109 63 -174.5t164 -65.5q104 0 178 68t74 163v303q0 101 -76 168q-77 68 -176 68q-101 0 -164 -64.5t-63 -173.5zM815 965l29 -27v496h164v-1434h-148l-6 100q-4 -8 -31 -34q-20 -20 -90 -54q-65 -32 -155 -32q-164 0 -273 112q-108 114 -108 273v297
q0 161 108 272q110 110 266 110q76 0 145.5 -25t98.5 -54z" />
    <glyph glyph-name="e" unicode="e" 
d="M836 313h168q1 -49 -21.5 -104t-66.5 -107.5t-122 -87t-176 -34.5q-183 0 -296 110q-111 114 -111 268v312q0 153 111 264q113 110 296 110q184 0 291 -110q109 -112 109 -264v-209h-641v-113q0 -94 67 -158.5t174 -64.5q88 0 153 55t65 133zM377 676v-68h479v68
q0 94 -65.5 157.5t-172.5 63.5t-174 -63.5t-67 -157.5z" />
    <glyph glyph-name="f" unicode="f" 
d="M238 1024h227v84q0 149 100 246q100 100 260 100q77 0 143 -16t93 -37l22 -17l-90 -122q-52 43 -166 43q-87 0 -140.5 -54t-53.5 -137v-90h383v-147h-383v-877h-168v877h-227v147z" />
    <glyph glyph-name="g" unicode="g" 
d="M842 -10h-424q-51 0 -87 -34t-36 -81t36 -80t87 -33h422q51 0 87 34t36 81t-35 80t-86 33zM778 598v137q0 71 -50.5 118.5t-123.5 47.5q-76 0 -128 -47.5t-52 -118.5v-137q0 -69 52.5 -117.5t127.5 -48.5q70 0 122 49t52 117zM997 1110h37v-141h-35q-77 0 -104 -41
l-16 -23q57 -63 57 -170v-135q0 -124 -102 -219q-101 -94 -230 -94v-164h260q105 0 177.5 -71.5t72.5 -176.5t-72.5 -174.5t-179.5 -69.5h-469q-106 0 -178 69.5t-72 174.5q0 108 71.5 178t178.5 70h53v205q-59 21 -118 92q-60 72 -60 180v135q0 129 99 217q103 92 237 92
q96 0 178 -49l27 31q40 47 79.5 65.5t108.5 18.5z" />
    <glyph glyph-name="h" unicode="h" 
d="M1026 678v-678h-164v666q0 231 -221 231q-98 0 -178 -68t-80 -143v-686h-164v1434h164v-510q5 6 35 32q20 17 98 54q75 34 154 34q165 0 260.5 -99t95.5 -267z" />
    <glyph glyph-name="i" unicode="i" 
d="M578 877h-349v147h512v-877h314v-147h-826v147h349v730zM745 1194h-188v182h188v-182z" />
    <glyph glyph-name="j" unicode="j" 
d="M895 1194h-182v182h182v-182zM729 877h-485v147h653v-1067q0 -149 -100 -246q-100 -100 -260 -100q-77 0 -143 16.5t-91 36.5l-24 17l90 122q52 -43 166 -43q87 0 140.5 54t53.5 137v926z" />
    <glyph glyph-name="k" unicode="k" 
d="M1102 0h-209l-461 530v-530h-164v1434h164v-885l438 475h209l-456 -485z" />
    <glyph glyph-name="l" unicode="l" 
d="M547 1288h-258v146h422v-1287h327v-147h-807v147h316v1141z" />
    <glyph glyph-name="m" unicode="m" 
d="M1094 0h-164v772q0 56 -29.5 90.5t-73.5 34.5q-60 0 -94.5 -47.5t-34.5 -122.5v-727h-159v770q0 60 -28.5 93.5t-78.5 33.5q-60 0 -96.5 -48t-36.5 -122v-727h-164v1024h148l6 -84q3 3 10 12.5t12 14.5q22 24 70 48.5t92 24.5q58 0 102 -27t56 -59l12 -28l23 30
q17 25 73 54.5t113 29.5q113 0 177.5 -75.5t64.5 -196.5v-768z" />
    <glyph glyph-name="n" unicode="n" 
d="M1026 678v-678h-164v666q0 231 -221 231q-98 0 -178 -68t-80 -143v-686h-164v1024h148l6 -113q8 10 35 37q22 22 100 60q73 36 162 36q165 0 260.5 -99t95.5 -267z" />
    <glyph glyph-name="o" unicode="o" 
d="M1020 668v-312q0 -156 -115 -268q-114 -108 -291 -108q-181 0 -295 108q-112 109 -112 270v310q0 160 112 266q113 110 295 110q178 0 291 -110q115 -112 115 -266zM852 346v332q0 94 -65.5 157.5t-172.5 63.5t-174 -63.5t-67 -157.5v-330q0 -94 67 -158.5t174 -64.5
t172.5 63.5t65.5 157.5z" />
    <glyph glyph-name="p" unicode="p" 
d="M862 350v309q0 112 -64 176t-173 64q-100 0 -172 -72q-70 -70 -70 -165v-312q0 -94 69 -157.5t173 -63.5q106 0 171.5 61t65.5 160zM408 66l-25 26v-461h-164v1393h148l6 -104q3 4 28 34q21 21 93 56q69 34 155 34q166 0 273 -110q108 -108 108 -266v-312
q0 -154 -115 -266q-113 -110 -274 -110q-74 0 -139.5 26.5t-93.5 59.5z" />
    <glyph glyph-name="q" unicode="q" 
d="M365 659v-309q0 -99 65.5 -160t171.5 -61q104 0 173 63.5t69 157.5v312q0 100 -70 167q-70 70 -172 70q-109 0 -173 -64t-64 -176zM1008 -369h-164v467q-9 -12 -29 -32q-16 -19 -88 -54q-65 -32 -154 -32q-146 0 -262 110q-114 114 -114 266v312q0 158 108 266
q107 110 273 110q79 0 147.5 -26.5t97.5 -59.5l27 -28l10 94h148v-1393z" />
    <glyph glyph-name="r" unicode="r" 
d="M811 1044q149 0 225 -94q80 -92 80 -219h-162q0 68 -45 117t-112 49q-88 0 -152 -70q-65 -71 -65 -168v-512h428v-147h-807v147h215v877h149l6 -109q2 4 29 35q22 25 80 58q62 36 131 36z" />
    <glyph glyph-name="s" unicode="s" 
d="M616 -20q-81 0 -146 22t-106 57t-68.5 79.5t-38.5 87t-11 83.5v15h164v-19q0 -72 54.5 -125t151.5 -53q86 0 141.5 43t55.5 109q0 104 -186 167q-37 12 -52.5 17.5t-51.5 19t-53.5 22.5t-47.5 25.5t-46 30.5t-37 35t-31 42.5t-17.5 49t-7.5 57.5q0 133 96 216t250 83
q167 0 254 -96q88 -94 88 -200v-17h-168q0 69 -47.5 117.5t-126.5 48.5q-77 0 -125.5 -39t-48.5 -100q0 -86 184 -150q57 -17 95.5 -32t89.5 -43.5t82 -61t53 -84t22 -113.5q0 -123 -107 -208q-109 -86 -258 -86z" />
    <glyph glyph-name="t" unicode="t" 
d="M342 1292h166v-268h520v-147h-520v-551q0 -90 54.5 -144.5t150.5 -54.5q82 0 138 56.5t56 138.5h156q0 -155 -95.5 -248.5t-258.5 -93.5q-177 0 -272 91t-95 238v568h-186v147h186v268z" />
    <glyph glyph-name="u" unicode="u" 
d="M209 360v664h164v-670q0 -101 60.5 -164t166.5 -63q96 0 174 66q78 69 78 145v686h164v-1024h-148l-6 109q-8 -10 -35 -37q-18 -18 -96 -58q-69 -34 -149 -34q-171 0 -272 106t-101 274z" />
    <glyph glyph-name="v" unicode="v" 
d="M246 1024h164v-381l188 -520h33l186 520v381h164v-387l-244 -637h-248l-243 637v387z" />
    <glyph glyph-name="w" unicode="w" 
d="M840 129l49 514v381h164v-397l-90 -627h-240l-107 500h-10l-102 -500h-238l-90 627v397h164v-381l49 -514h17l104 500h205l108 -500h17z" />
    <glyph glyph-name="x" unicode="x" 
d="M205 1024h188l221 -356l220 356h190l-313 -500l323 -524h-186l-234 379l-233 -379h-186l321 524z" />
    <glyph glyph-name="y" unicode="y" 
d="M158 1024h178l280 -793l279 793h176l-526 -1393h-166l145 402z" />
    <glyph glyph-name="z" unicode="z" 
d="M993 1024v-158l-573 -719h581v-147h-776v154l576 723h-547v147h739z" />
    <glyph glyph-name="braceleft" unicode="{" 
d="M870 -227v-162q-168 0 -284 110q-117 111 -117 269v387q0 37 -33.5 63.5t-77.5 26.5v154q44 0 77.5 26.5t33.5 61.5v370q0 159 117 267q116 110 284 110v-166q-98 0 -163.5 -61t-65.5 -152v-348q0 -118 -119 -188q119 -64 119 -187v-366q0 -92 65.5 -153.5t163.5 -61.5z
" />
    <glyph glyph-name="bar" unicode="|" 
d="M539 1434h151v-1803h-151v1803z" />
    <glyph glyph-name="braceright" unicode="}" 
d="M358 -389v162q98 0 164 61.5t66 153.5v366q0 123 119 187q-119 70 -119 188v348q0 91 -66 152t-164 61v166q169 0 285 -110q117 -108 117 -267v-370q0 -35 33 -61.5t77 -26.5v-154q-44 0 -77 -26.5t-33 -63.5v-387q0 -158 -117 -269q-116 -110 -285 -110z" />
    <glyph glyph-name="asciitilde" unicode="~" 
d="M319 479h-155q0 101 69 176q72 78 181 78q86 0 215 -57q131 -58 190 -58q42 0 65 29.5t23 69.5h158q0 -111 -67.5 -182.5t-178.5 -71.5q-91 0 -225 57q-137 58 -180 58t-69 -28.5t-26 -70.5z" />
    <glyph glyph-name="exclamdown" unicode="&#xa1;" 
d="M715 823h-201v201h201v-201zM530 686h166v-1079h-166v1079z" />
    <glyph glyph-name="cent" unicode="&#xa2;" 
d="M715 -154h-164v150q-148 24 -234 127q-86 106 -86 237v304q0 136 87.5 236.5t232.5 125.5v150h164v-150q149 -24 219 -129q74 -106 74 -221h-164q0 21 -2 35q-3 20 -9 39.5t-21.5 45.5t-37.5 45.5t-60 33.5t-85 14q-103 0 -169.5 -63.5t-66.5 -155.5v-318q0 -93 67 -156
t171 -63q99 0 162 66q61 64 61 145h164q0 -103 -78 -213q-75 -105 -225 -133v-152z" />
    <glyph glyph-name="sterling" unicode="&#xa3;" 
d="M1020 1120v-57h-176v67q0 66 -48 113t-114 47q-72 0 -121 -47t-49 -113v-391h270v-161h-270v-416h508v-162h-811v162h125v416h-125v161h125v381q0 141 100 234q101 98 244 98q141 0 242 -98q100 -93 100 -234z" />
    <glyph glyph-name="currency" unicode="&#xa4;" 
d="M1071 258l-117 -117l-98 97q-112 -74 -242 -74q-131 0 -243 74l-99 -97l-114 117l96 98q-74 115 -74 240q0 130 76 246l-98 98l114 115l99 -99q115 74 243 74q127 0 242 -74l98 99l117 -115l-98 -98q74 -115 74 -246q0 -130 -72 -240zM614 326q111 0 191 80q80 83 80 192
q0 110 -80 190q-79 82 -191 82q-110 0 -192 -82q-82 -79 -82 -190q0 -112 80 -192t194 -80z" />
    <glyph glyph-name="yen" unicode="&#xa5;" 
d="M700 557h320v-160h-320v-397h-172v397h-321v160h321v117l-12 20h-309v160h239l-266 580h187l247 -568l250 568h185l-267 -580h238v-160h-309l-11 -20v-117z" />
    <glyph glyph-name="brokenbar" unicode="&#xa6;" 
d="M539 1434h151v-723h-151v723zM539 354h151v-723h-151v723z" />
    <glyph glyph-name="section" unicode="&#xa7;" 
d="M279 299h167q0 -154 158 -154h10q71 0 110.5 32.5t39.5 78.5q0 38 -30 70.5t-77.5 58.5t-105 52.5t-115 59.5t-105 72t-77 98t-29.5 130q0 143 105 231q-41 59 -41 150q0 122 86.5 198t238.5 76h15q160 0 240.5 -83.5t80.5 -233.5h-170q0 151 -157 151h-9
q-74 0 -112.5 -32t-38.5 -78q0 -87 190 -175q45 -18 80.5 -35t79 -42t75 -53.5t60 -63.5t42.5 -78.5t14 -91.5q0 -140 -107 -234q43 -70 43 -149q0 -120 -88 -197t-238 -77h-14q-160 0 -240.5 83.5t-80.5 235.5zM831 621q0 66 -55 112q-54 48 -170 103q-119 60 -157 82
q-54 -45 -54 -107q0 -68 56 -115q62 -49 172 -100q113 -52 155 -80q53 44 53 105z" />
    <glyph glyph-name="dieresis" unicode="&#xa8;" 
d="M528 1194h-174v174h174v-174zM874 1194h-174v174h174v-174z" />
    <glyph glyph-name="copyright" unicode="&#xa9;" 
d="M1042 530v371q0 171 -127 295q-126 123 -301 123q-179 0 -305 -123q-127 -124 -127 -295v-371q0 -170 127 -297q125 -122 305 -122q176 0 301 122q127 127 127 297zM1182 885v-340q0 -234 -166 -400q-165 -165 -402 -165q-238 0 -403 165q-166 166 -166 400v340
q0 233 166 399t403 166q236 0 402 -166t166 -399zM748 565v23h141v-23q0 -123 -73.5 -197.5t-192.5 -74.5q-122 0 -197.5 74t-75.5 188v334q0 111 76 185.5t197 74.5q113 0 184.5 -79.5t71.5 -203.5v-26h-142v26q0 59 -33 97t-83 38q-59 0 -95.5 -38t-36.5 -99v-286
q0 -64 37.5 -102t96.5 -38q53 0 89 34.5t36 92.5z" />
    <glyph glyph-name="ordfeminine" unicode="&#xaa;" 
d="M874 799h-135v41q-54 -54 -151 -54q-97 2 -166.5 63t-69.5 148q0 83 69.5 140.5t174.5 68.5l139 13v14q0 40 -30 71t-76 31q-86 0 -101 -78h-143q13 96 76.5 146.5t167.5 50.5q113 0 179 -59.5t66 -155.5v-440zM604 907q49 0 90 27.5t41 58.5v105l-133 -13
q-49 -5 -81 -28.5t-32 -57.5q0 -38 32.5 -65t82.5 -27zM369 696h505v-118h-505v118z" />
    <glyph glyph-name="guillemotleft" unicode="&#xab;" 
d="M397 596l254 -324h-192l-250 324l250 326h190zM764 596l254 -324h-193l-250 324l250 326h191z" />
    <glyph glyph-name="logicalnot" unicode="&#xac;" 
d="M1038 342h-159v352h-689v160h848v-512z" />
    <glyph glyph-name="uni00AD" unicode="&#xad;" 
 />
    <glyph glyph-name="registered" unicode="&#xae;" 
d="M965 698v306q0 137 -105 239q-103 103 -246 103t-249 -103q-105 -102 -105 -239v-306q0 -139 105 -241q106 -103 249 -103t246 103q105 102 105 241zM1079 989v-278q0 -194 -137 -328q-135 -135 -328 -135t-331 135q-136 136 -136 328v278q0 192 136 328q138 135 331 135
t328 -135q137 -134 137 -328zM844 530h-125l-94 224h-84v-224h-115v662h227q63 0 110.5 -50t47.5 -116v-102q0 -40 -21 -81t-53 -65zM694 909v111q0 19 -14 33t-31 14h-112v-203h112q19 0 32 13t13 32z" />
    <glyph glyph-name="overscore" unicode="&#xaf;" 
d="M924 1192h-619v151h619v-151z" />
    <glyph glyph-name="degree" unicode="&#xb0;" 
d="M403 946q-88 88 -88 211t88 211t211 88t211 -88t88 -211t-88 -211t-211 -88t-211 88zM612 991q69 0 117.5 49t48.5 117t-48.5 117t-117.5 49q-67 0 -115 -49t-48 -117t48 -117t115 -49z" />
    <glyph glyph-name="plusminus" unicode="&#xb1;" 
d="M530 778v258h164v-258h344v-157h-344v-256h-164v256h-342v157h342zM188 307h852v-160h-852v160z" />
    <glyph glyph-name="twosuperior" unicode="&#xb2;" 
d="M530 1466h-139q0 109 64 177.5t166 68.5q95 0 162 -62t67 -155q0 -65 -44.5 -129.5t-107.5 -110.5q-156 -116 -168 -204h320v-131h-471v73q0 84 47.5 163t114.5 132q164 126 164 211q0 37 -23.5 59.5t-60.5 22.5q-39 0 -65 -31t-26 -84z" />
    <glyph glyph-name="threesuperior" unicode="&#xb3;" 
d="M825 1692v-107l-110 -153q5 -1 14 -4.5t31.5 -17t40 -32t31.5 -53t14 -76.5v-123q0 -89 -66 -154t-164 -65q-100 0 -167.5 61t-67.5 181h139q0 -53 25 -81t69 -28q40 0 64 24t24 62v113q0 32 -19.5 52t-51.5 20h-96v88l122 162h-235v131h403z" />
    <glyph glyph-name="acute" unicode="&#xb4;" 
d="M860 1421l-311 -301h-172l250 301h233z" />
    <glyph glyph-name="mu" unicode="&#xb5;" 
d="M401 -369h-157v1393h159v-698q0 -82 56.5 -140.5t134.5 -58.5q88 0 151 57q66 60 66 135v705h160v-813q1 -25 21.5 -42t47.5 -17h21v-152h-21q-117 0 -192 100q-94 -120 -268 -120q-110 0 -179 69v-418z" />
    <glyph glyph-name="paragraph" unicode="&#xb6;" 
d="M618 1434h398v-1803h-160v1651h-127v-1651h-160v1010q-150 24 -256 133q-102 108 -102 260q0 170 119 283q120 117 288 117z" />
    <glyph glyph-name="middot" unicode="&#xb7;" 
d="M715 496h-201v200h201v-200z" />
    <glyph glyph-name="cedilla" unicode="&#xb8;" 
d="M604 -369h-141v107h123q26 0 36.5 24t0 48t-36.5 24h-103v166h119v-57q66 0 115 -46.5t49 -109.5q0 -65 -47.5 -110.5t-114.5 -45.5z" />
    <glyph glyph-name="onesuperior" unicode="&#xb9;" 
d="M453 1536v127l155 29h140v-772h-144v641z" />
    <glyph glyph-name="ordmasculine" unicode="&#xba;" 
d="M850 1239v-238q0 -93 -66 -154t-168 -61q-104 0 -171.5 61t-67.5 154v238q0 93 67.5 154t171.5 61q102 0 168 -61t66 -154zM723 1001v238q0 37 -32.5 65.5t-76.5 28.5q-42 0 -73 -28.5t-31 -65.5v-238q0 -37 32 -67.5t74 -30.5t74.5 30.5t32.5 67.5zM383 696h459v-118
h-459v118z" />
    <glyph glyph-name="guillemotright" unicode="&#xbb;" 
d="M1018 596l-250 -324h-193l254 324l-251 326h190zM651 596l-250 -324h-192l254 324l-252 326h190z" />
    <glyph glyph-name="onequarter" unicode="&#xbc;" 
d="M842 772h145l-233 -485h153v143h144v-143h71v-133h-71v-154h-144v154h-313v108zM872 1434h111l-727 -1434h-111zM90 1278v127l156 29h139v-772h-143v641z" />
    <glyph glyph-name="onehalf" unicode="&#xbd;" 
d="M854 1434h111l-727 -1434h-111zM72 1278v127l155 29h140v-772h-144v641zM803 547h-139q0 109 63.5 177.5t165.5 68.5q95 0 162 -62.5t67 -155.5q0 -65 -44 -129t-107 -110q-156 -116 -168 -205h319v-131h-471v74q0 84 47.5 163t114.5 132q164 126 164 211
q0 37 -23.5 59.5t-60.5 22.5q-39 0 -64.5 -31t-25.5 -84z" />
    <glyph glyph-name="threequarters" unicode="&#xbe;" 
d="M872 772h146l-234 -485h154v143h143v-143h72v-133h-72v-154h-143v154h-313v108zM954 1434h111l-727 -1434h-111zM520 1434v-107l-110 -153q5 -1 14 -4.5t31.5 -17t40 -32t31.5 -53t14 -76.5v-123q0 -89 -66 -154t-164 -65q-100 0 -167.5 61t-67.5 181h139q0 -53 25 -81
t69 -28q40 0 64 24t24 62v113q0 32 -19.5 52t-51.5 20h-97v88l123 162h-235v131h403z" />
    <glyph glyph-name="questiondown" unicode="&#xbf;" 
d="M829 -41h170q0 -177 -110 -281q-109 -106 -275 -106t-276 104q-111 102 -111 271q0 187 115 307q6 6 36 35t39 39t34.5 39t35 47.5t27 51.5t24.5 63t13 71t6 86h170q0 -128 -32 -229t-83 -162q-18 -21 -55.5 -59.5t-59 -63.5t-46.5 -62.5t-36.5 -80t-11.5 -92.5
q0 -85 61 -142t150 -57q95 0 155 61t60 160zM539 1024h206v-203h-206v203z" />
    <glyph glyph-name="Agrave" unicode="&#xc0;" 
d="M221 612l260 822h269l260 -826v-608h-172v457h-447v-457h-170v612zM399 616h435l-199 662h-39zM514 1831l250 -301h-172l-311 301h233z" />
    <glyph glyph-name="Aacute" unicode="&#xc1;" 
d="M221 612l260 822h269l260 -826v-608h-172v457h-447v-457h-170v612zM399 616h435l-199 662h-39zM954 1831l-311 -301h-172l250 301h233z" />
    <glyph glyph-name="Acircumflex" unicode="&#xc2;" 
d="M221 612l260 822h269l260 -826v-608h-172v457h-447v-457h-170v612zM399 616h435l-199 662h-39zM692 1831l217 -301h-147l-146 168l-151 -168h-150l222 301h155z" />
    <glyph glyph-name="Atilde" unicode="&#xc3;" 
d="M221 612l260 822h269l260 -826v-608h-172v457h-447v-457h-170v612zM399 616h435l-199 662h-39zM485 1782q58 0 138 -45t104 -45q30 0 48 14.5t18 38.5v31h141v-37q0 -85 -52.5 -137t-138.5 -52q-55 0 -135 45q-77 45 -106 45q-30 0 -48 -14.5t-18 -38.5v-31h-141v37
q0 85 52 137t138 52z" />
    <glyph glyph-name="Adieresis" unicode="&#xc4;" 
d="M221 612l260 822h269l260 -826v-608h-172v457h-447v-457h-170v612zM399 616h435l-199 662h-39zM528 1604h-174v174h174v-174zM874 1604h-174v174h174v-174z" />
    <glyph glyph-name="Aring" unicode="&#xc5;" 
d="M221 612l260 822h269l260 -826v-608h-172v457h-447v-457h-170v612zM399 616h435l-199 662h-39zM567 1739q-19 -19 -19 -47t19 -47t47.5 -19t47.5 19q20 19 20 47t-20 47q-19 20 -47.5 20t-47.5 -20zM492 1567q-51 51 -51 122.5t51 122.5t122.5 51t122.5 -51t51 -122.5
t-51 -122.5t-122.5 -51t-122.5 51z" />
    <glyph glyph-name="AE" unicode="&#xc6;" 
d="M150 612l253 822h676v-162h-329v-436h280v-160h-280v-514h335v-162h-507v457h-261v-457h-167v612zM578 1272h-64l-188 -656h252v656z" />
    <glyph glyph-name="Ccedilla" unicode="&#xc7;" 
d="M854 397h172v-41q0 -150 -102 -258q-101 -107 -256 -116v-39q66 0 114.5 -46.5t48.5 -109.5q0 -66 -47.5 -111t-113.5 -45h-142v107h123q26 0 36.5 24t0 48t-36.5 24h-102v154q-135 27 -223 131q-86 106 -86 239v719q0 160 112 266q114 111 277 111h10q162 0 270 -111
q111 -108 111 -268h-172q0 91 -61 152t-152 61q-94 0 -157.5 -61t-63.5 -152v-719q0 -91 63.5 -153t157.5 -62q88 0 153 62q66 66 66 151v43z" />
    <glyph glyph-name="Egrave" unicode="&#xc8;" 
d="M283 0v1434h700v-162h-528v-436h479v-160h-479v-514h544v-162h-716zM553 1831l250 -301h-172l-312 301h234z" />
    <glyph glyph-name="Eacute" unicode="&#xc9;" 
d="M283 0v1434h700v-162h-528v-436h479v-160h-479v-514h544v-162h-716zM993 1831l-311 -301h-172l250 301h233z" />
    <glyph glyph-name="Ecircumflex" unicode="&#xca;" 
d="M283 0v1434h700v-162h-528v-436h479v-160h-479v-514h544v-162h-716zM719 1831l217 -301h-148l-145 168l-151 -168h-150l221 301h156z" />
    <glyph glyph-name="Edieresis" unicode="&#xcb;" 
d="M283 0v1434h700v-162h-528v-436h479v-160h-479v-514h544v-162h-716zM555 1604h-174v174h174v-174zM901 1604h-174v174h174v-174z" />
    <glyph glyph-name="Igrave" unicode="&#xcc;" 
d="M528 1274h-309v160h791v-160h-310v-1114h310v-160h-791v160h309v1114zM489 1831l250 -301h-172l-311 301h233z" />
    <glyph glyph-name="Iacute" unicode="&#xcd;" 
d="M528 1274h-309v160h791v-160h-310v-1114h310v-160h-791v160h309v1114zM971 1831l-312 -301h-172l250 301h234z" />
    <glyph glyph-name="Icircumflex" unicode="&#xce;" 
d="M528 1274h-309v160h791v-160h-310v-1114h310v-160h-791v160h309v1114zM692 1831l217 -301h-147l-146 168l-151 -168h-150l222 301h155z" />
    <glyph glyph-name="Idieresis" unicode="&#xcf;" 
d="M528 1274h-309v160h791v-160h-310v-1114h310v-160h-791v160h309v1114zM528 1604h-174v174h174v-174zM874 1604h-174v174h174v-174z" />
    <glyph glyph-name="Eth" unicode="&#xd0;" 
d="M133 676v160h139v598h377q161 0 275 -111q112 -106 112 -266v-680q0 -159 -112 -268q-115 -109 -275 -109h-377v676h-139zM862 375v684q0 91 -63.5 152t-155.5 61h-201v-436h205v-160h-205v-514h201q92 0 155.5 61t63.5 152z" />
    <glyph glyph-name="Ntilde" unicode="&#xd1;" 
d="M850 676v758h160v-1434h-166l-473 1087q10 -208 10 -337v-750h-160v1434h166l473 -1090q-10 163 -10 332zM485 1782q58 0 138 -45t104 -45q30 0 48 14.5t18 38.5v31h141v-37q0 -85 -52.5 -137t-138.5 -52q-55 0 -135 45q-77 45 -106 45q-30 0 -48 -14.5t-18 -38.5v-31
h-141v37q0 85 52 137t138 52z" />
    <glyph glyph-name="Ograve" unicode="&#xd2;" 
d="M1020 1077v-721q0 -151 -113 -264q-109 -112 -293 -112q-188 0 -297 112q-110 113 -110 266v719q0 151 110 264t297 113q181 0 293 -115q113 -113 113 -262zM846 354v725q0 89 -64.5 151t-167.5 62q-105 0 -169 -62t-64 -151v-723q0 -91 63.5 -153t169.5 -62
q103 0 167.5 62t64.5 151zM489 1831l250 -301h-172l-311 301h233z" />
    <glyph glyph-name="Oacute" unicode="&#xd3;" 
d="M1020 1077v-721q0 -151 -113 -264q-109 -112 -293 -112q-188 0 -297 112q-110 113 -110 266v719q0 151 110 264t297 113q181 0 293 -115q113 -113 113 -262zM846 354v725q0 89 -64.5 151t-167.5 62q-105 0 -169 -62t-64 -151v-723q0 -91 63.5 -153t169.5 -62
q103 0 167.5 62t64.5 151zM983 1831l-311 -301h-172l250 301h233z" />
    <glyph glyph-name="Ocircumflex" unicode="&#xd4;" 
d="M1020 1077v-721q0 -151 -113 -264q-109 -112 -293 -112q-188 0 -297 112q-110 113 -110 266v719q0 151 110 264t297 113q181 0 293 -115q113 -113 113 -262zM846 354v725q0 89 -64.5 151t-167.5 62q-105 0 -169 -62t-64 -151v-723q0 -91 63.5 -153t169.5 -62
q103 0 167.5 62t64.5 151zM692 1831l217 -301h-147l-146 168l-151 -168h-150l222 301h155z" />
    <glyph glyph-name="Otilde" unicode="&#xd5;" 
d="M1020 1077v-721q0 -151 -113 -264q-109 -112 -293 -112q-188 0 -297 112q-110 113 -110 266v719q0 151 110 264t297 113q181 0 293 -115q113 -113 113 -262zM846 354v725q0 89 -64.5 151t-167.5 62q-105 0 -169 -62t-64 -151v-723q0 -91 63.5 -153t169.5 -62
q103 0 167.5 62t64.5 151zM485 1782q58 0 138 -45t104 -45q30 0 48 14.5t18 38.5v31h141v-37q0 -85 -52.5 -137t-138.5 -52q-55 0 -135 45q-77 45 -106 45q-30 0 -48 -14.5t-18 -38.5v-31h-141v37q0 85 52 137t138 52z" />
    <glyph glyph-name="Odieresis" unicode="&#xd6;" 
d="M1020 1077v-721q0 -151 -113 -264q-109 -112 -293 -112q-188 0 -297 112q-110 113 -110 266v719q0 151 110 264t297 113q181 0 293 -115q113 -113 113 -262zM846 354v725q0 89 -64.5 151t-167.5 62q-105 0 -169 -62t-64 -151v-723q0 -91 63.5 -153t169.5 -62
q103 0 167.5 62t64.5 151zM528 1604h-174v174h174v-174zM874 1604h-174v174h174v-174z" />
    <glyph glyph-name="multiply" unicode="&#xd7;" 
d="M498 596l-281 285l115 114l282 -282l283 282l115 -114l-283 -285l283 -281l-115 -116l-283 284l-280 -282l-117 114z" />
    <glyph glyph-name="Oslash" unicode="&#xd8;" 
d="M270 -31l-86 45l80 150q-55 88 -55 194v719q0 151 110 264t297 113q164 0 281 -102l57 108l88 -45l-77 -143q57 -89 57 -195v-721q0 -151 -113 -264q-109 -112 -293 -112q-169 0 -286 102zM848 354v697l-432 -809q61 -101 200 -101q103 0 167.5 62t64.5 151zM383 1079
v-692l430 807q-64 98 -197 98q-105 0 -169 -62t-64 -151z" />
    <glyph glyph-name="Ugrave" unicode="&#xd9;" 
d="M846 1434h172v-1078q0 -155 -111 -266q-110 -110 -291 -110t-294 110q-111 111 -111 268v1076h172v-1078q0 -90 63.5 -152.5t169.5 -62.5q103 0 166.5 62.5t63.5 150.5v1080zM608 1831l250 -301h-172l-311 301h233z" />
    <glyph glyph-name="Uacute" unicode="&#xda;" 
d="M846 1434h172v-1078q0 -155 -111 -266q-110 -110 -291 -110t-294 110q-111 111 -111 268v1076h172v-1078q0 -90 63.5 -152.5t169.5 -62.5q103 0 166.5 62.5t63.5 150.5v1080zM981 1831l-311 -301h-172l250 301h233z" />
    <glyph glyph-name="Ucircumflex" unicode="&#xdb;" 
d="M846 1434h172v-1078q0 -155 -111 -266q-110 -110 -291 -110t-294 110q-111 111 -111 268v1076h172v-1078q0 -90 63.5 -152.5t169.5 -62.5q103 0 166.5 62.5t63.5 150.5v1080zM694 1831l217 -301h-147l-146 168l-151 -168h-150l222 301h155z" />
    <glyph glyph-name="Udieresis" unicode="&#xdc;" 
d="M846 1434h172v-1078q0 -155 -111 -266q-110 -110 -291 -110t-294 110q-111 111 -111 268v1076h172v-1078q0 -90 63.5 -152.5t169.5 -62.5q103 0 166.5 62.5t63.5 150.5v1080zM530 1604h-174v174h174v-174zM877 1604h-175v174h175v-174z" />
    <glyph glyph-name="Yacute" unicode="&#xdd;" 
d="M152 1434h190l272 -564l271 564h192l-377 -756v-678h-172v678zM948 1831l-311 -301h-172l250 301h233z" />
    <glyph glyph-name="Thorn" unicode="&#xde;" 
d="M471 0h-172v1434h172v-207h219q142 0 234 -92q94 -88 94 -228v-297q0 -139 -94 -227q-93 -90 -234 -90h-219v-293zM844 606v299q0 69 -45.5 115.5t-114.5 46.5h-213v-614h213q69 0 114.5 43t45.5 110z" />
    <glyph glyph-name="germandbls" unicode="&#xdf;" 
d="M348 1073v-1073h-160v1075q0 160 105 268q109 109 268 109q158 0 260 -102q105 -102 105 -242v-164q-91 -4 -154 -43t-63 -90q0 -47 34 -92.5t82 -87.5t96.5 -88.5t82.5 -114.5t34 -147q0 -123 -90 -213q-88 -88 -217 -88q-127 0 -215 88t-88 213v30h164v-41
q0 -60 41.5 -101.5t101.5 -41.5q44 -1 78.5 25.5t50.5 64t11.5 82.5t-33.5 78q-22 33 -63 70t-79 70t-75 73t-59 95t-21 120q0 95 62.5 164t158.5 90v14q0 99 -59 166.5t-146 67.5q-88 0 -150.5 -68t-62.5 -166z" />
    <glyph glyph-name="agrave" unicode="&#xe0;" 
d="M995 0h-159v94q-6 -8 -31 -33q-19 -16 -90 -51q-71 -30 -148 -30q-159 0 -257.5 88.5t-98.5 230.5q0 133 89.5 220t248.5 110q133 18 237 18h43v53q0 82 -55 138.5t-145 56.5q-84 0 -141 -41t-68 -109h-162q15 129 121 213q109 86 250 86q172 0 269 -92t97 -239v-713z
M829 322v182q-154 -3 -268 -21q-83 -12 -134.5 -61.5t-51.5 -120.5q0 -75 55 -124.5t145 -49.5q113 0 183 61q71 65 71 134zM543 1421l250 -301h-172l-312 301h234z" />
    <glyph glyph-name="aacute" unicode="&#xe1;" 
d="M995 0h-159v94q-6 -8 -31 -33q-19 -16 -90 -51q-71 -30 -148 -30q-159 0 -257.5 88.5t-98.5 230.5q0 133 89.5 220t248.5 110q133 18 237 18h43v53q0 82 -55 138.5t-145 56.5q-84 0 -141 -41t-68 -109h-162q15 129 121 213q109 86 250 86q172 0 269 -92t97 -239v-713z
M829 322v182q-154 -3 -268 -21q-83 -12 -134.5 -61.5t-51.5 -120.5q0 -75 55 -124.5t145 -49.5q113 0 183 61q71 65 71 134zM973 1421l-311 -301h-173l250 301h234z" />
    <glyph glyph-name="acircumflex" unicode="&#xe2;" 
d="M995 0h-159v94q-6 -8 -31 -33q-19 -16 -90 -51q-71 -30 -148 -30q-159 0 -257.5 88.5t-98.5 230.5q0 133 89.5 220t248.5 110q133 18 237 18h43v53q0 82 -55 138.5t-145 56.5q-84 0 -141 -41t-68 -109h-162q15 129 121 213q109 86 250 86q172 0 269 -92t97 -239v-713z
M829 322v182q-154 -3 -268 -21q-83 -12 -134.5 -61.5t-51.5 -120.5q0 -75 55 -124.5t145 -49.5q113 0 183 61q71 65 71 134zM713 1421l217 -301h-148l-145 168l-152 -168h-149l221 301h156z" />
    <glyph glyph-name="atilde" unicode="&#xe3;" 
d="M995 0h-159v94q-6 -8 -31 -33q-19 -16 -90 -51q-71 -30 -148 -30q-159 0 -257.5 88.5t-98.5 230.5q0 133 89.5 220t248.5 110q133 18 237 18h43v53q0 82 -55 138.5t-145 56.5q-84 0 -141 -41t-68 -109h-162q15 129 121 213q109 86 250 86q172 0 269 -92t97 -239v-713z
M829 322v182q-154 -3 -268 -21q-83 -12 -134.5 -61.5t-51.5 -120.5q0 -75 55 -124.5t145 -49.5q113 0 183 61q71 65 71 134zM510 1372q57 0 137 -45t105 -45q30 0 47.5 14.5t17.5 38.5v31h141v-37q0 -85 -52 -136.5t-138 -51.5q-55 0 -135 45q-77 45 -107 45t-47.5 -14.5
t-17.5 -38.5v-31h-142v37q0 85 52.5 136.5t138.5 51.5z" />
    <glyph glyph-name="adieresis" unicode="&#xe4;" 
d="M995 0h-159v94q-6 -8 -31 -33q-19 -16 -90 -51q-71 -30 -148 -30q-159 0 -257.5 88.5t-98.5 230.5q0 133 89.5 220t248.5 110q133 18 237 18h43v53q0 82 -55 138.5t-145 56.5q-84 0 -141 -41t-68 -109h-162q15 129 121 213q109 86 250 86q172 0 269 -92t97 -239v-713z
M829 322v182q-154 -3 -268 -21q-83 -12 -134.5 -61.5t-51.5 -120.5q0 -75 55 -124.5t145 -49.5q113 0 183 61q71 65 71 134zM553 1194h-174v174h174v-174zM899 1194h-174v174h174v-174z" />
    <glyph glyph-name="aring" unicode="&#xe5;" 
d="M995 0h-159v94q-6 -8 -31 -33q-19 -16 -90 -51q-71 -30 -148 -30q-159 0 -257.5 88.5t-98.5 230.5q0 133 89.5 220t248.5 110q133 18 237 18h43v53q0 82 -55 138.5t-145 56.5q-84 0 -141 -41t-68 -109h-162q15 129 121 213q109 86 250 86q172 0 269 -92t97 -239v-713z
M829 322v182q-154 -3 -268 -21q-83 -12 -134.5 -61.5t-51.5 -120.5q0 -75 55 -124.5t145 -49.5q113 0 183 61q71 65 71 134zM594 1329q-19 -19 -19 -47t19 -47t47 -19t47 19q20 19 20 47t-20 47q-19 20 -47 20t-47 -20zM518 1157q-51 51 -51 123t51 123t123 51t123 -51
t51 -123t-51 -123t-123 -51t-123 51z" />
    <glyph glyph-name="ae" unicode="&#xe6;" 
d="M948 260v53h150v-53q0 -115 -84 -199q-81 -81 -191 -81q-72 0 -117.5 24.5t-87.5 83.5q-70 -108 -223 -108q-112 0 -190 90q-76 91 -76 229q0 136 78 229t194 93h142v139q0 57 -35.5 96t-85.5 39q-121 0 -121 -152h-147q0 135 73 218t195 83q120 0 196 -110
q43 58 88.5 84t116.5 26q117 0 195 -81q80 -83 80 -201v-289h-406v-215q0 -56 36 -92.5t91 -36.5t92 37.5t37 93.5zM406 129q55 0 96 38t41 91v215h-137q-60 0 -92.5 -47.5t-32.5 -124.5t32.5 -124.5t92.5 -47.5zM821 895q-59 0 -94 -37.5t-35 -95.5v-141h256v141
q0 55 -38 94t-89 39z" />
    <glyph glyph-name="ccedilla" unicode="&#xe7;" 
d="M629 897q-104 0 -172 -64.5t-68 -158.5v-326q0 -95 67.5 -159t174.5 -64q104 0 166 65q61 67 61 150h168q0 -42 -13.5 -87.5t-43.5 -93t-72.5 -86t-107.5 -64.5t-142 -29v-37q66 0 115 -46.5t49 -109.5q0 -65 -47.5 -110.5t-114.5 -45.5h-141v107h123q26 0 36.5 24t0 48
t-36.5 24h-103v156q-139 30 -222 132.5t-83 235.5v310q0 156 113 266t293 110q83 0 151 -23.5t110.5 -61t72 -86.5t41.5 -97t12 -96h-168q0 21 -2 35q-3 21 -9 41.5t-22 47t-38.5 46t-61 33.5t-86.5 14z" />
    <glyph glyph-name="egrave" unicode="&#xe8;" 
d="M836 313h168q1 -49 -21.5 -104t-66.5 -107.5t-122 -87t-176 -34.5q-183 0 -296 110q-111 114 -111 268v312q0 153 111 264q113 110 296 110q184 0 291 -110q109 -112 109 -264v-209h-641v-113q0 -94 67 -158.5t174 -64.5q88 0 153 55t65 133zM377 676v-68h479v68
q0 94 -65.5 157.5t-172.5 63.5t-174 -63.5t-67 -157.5zM522 1421l250 -301h-172l-311 301h233z" />
    <glyph glyph-name="eacute" unicode="&#xe9;" 
d="M836 313h168q1 -49 -21.5 -104t-66.5 -107.5t-122 -87t-176 -34.5q-183 0 -296 110q-111 114 -111 268v312q0 153 111 264q113 110 296 110q184 0 291 -110q109 -112 109 -264v-209h-641v-113q0 -94 67 -158.5t174 -64.5q88 0 153 55t65 133zM377 676v-68h479v68
q0 94 -65.5 157.5t-172.5 63.5t-174 -63.5t-67 -157.5zM983 1421l-311 -301h-172l250 301h233z" />
    <glyph glyph-name="ecircumflex" unicode="&#xea;" 
d="M836 313h168q1 -49 -21.5 -104t-66.5 -107.5t-122 -87t-176 -34.5q-183 0 -296 110q-111 114 -111 268v312q0 153 111 264q113 110 296 110q184 0 291 -110q109 -112 109 -264v-209h-641v-113q0 -94 67 -158.5t174 -64.5q88 0 153 55t65 133zM377 676v-68h479v68
q0 94 -65.5 157.5t-172.5 63.5t-174 -63.5t-67 -157.5zM696 1421l217 -301h-147l-145 168l-152 -168h-150l222 301h155z" />
    <glyph glyph-name="edieresis" unicode="&#xeb;" 
d="M836 313h168q1 -49 -21.5 -104t-66.5 -107.5t-122 -87t-176 -34.5q-183 0 -296 110q-111 114 -111 268v312q0 153 111 264q113 110 296 110q184 0 291 -110q109 -112 109 -264v-209h-641v-113q0 -94 67 -158.5t174 -64.5q88 0 153 55t65 133zM377 676v-68h479v68
q0 94 -65.5 157.5t-172.5 63.5t-174 -63.5t-67 -157.5zM535 1194h-175v174h175v-174zM881 1194h-174v174h174v-174z" />
    <glyph glyph-name="igrave" unicode="&#xec;" 
d="M578 877h-349v147h512v-877h314v-147h-826v147h349v730zM559 1421l250 -301h-172l-311 301h233z" />
    <glyph glyph-name="iacute" unicode="&#xed;" 
d="M578 877h-349v147h512v-877h314v-147h-826v147h349v730zM1012 1421l-312 -301h-172l250 301h234z" />
    <glyph glyph-name="icircumflex" unicode="&#xee;" 
d="M578 877h-349v147h512v-877h314v-147h-826v147h349v730zM735 1421l217 -301h-147l-146 168l-151 -168h-150l222 301h155z" />
    <glyph glyph-name="idieresis" unicode="&#xef;" 
d="M578 877h-349v147h512v-877h314v-147h-826v147h349v730zM573 1194h-174v174h174v-174zM920 1194h-175v174h175v-174z" />
    <glyph glyph-name="eth" unicode="&#xf0;" 
d="M639 1114l-238 -82l-49 123l189 64q-84 75 -181 131l84 106q160 -97 246 -186l184 63l39 -125l-131 -47q142 -198 142 -420v-417q0 -148 -107 -246q-104 -98 -266 -98q-165 0 -272 98q-105 99 -105 246v299q0 144 105 243q107 101 256 101q63 0 121.5 -23t84.5 -51
l25 -25q-18 109 -127 246zM764 324v290q0 90 -63.5 148.5t-155.5 58.5q-89 0 -148 -58t-59 -149v-290q0 -87 59 -143t150 -56q90 0 153.5 56.5t63.5 142.5z" />
    <glyph glyph-name="ntilde" unicode="&#xf1;" 
d="M1026 678v-678h-164v666q0 231 -221 231q-98 0 -178 -68t-80 -143v-686h-164v1024h148l6 -113q8 10 35 37q22 22 100 60q73 36 162 36q165 0 260.5 -99t95.5 -267zM508 1372q57 0 137 -45t105 -45q30 0 47.5 14.5t17.5 38.5v31h141v-37q0 -85 -52 -136.5t-138 -51.5
q-55 0 -135 45q-77 45 -107 45t-47.5 -14.5t-17.5 -38.5v-31h-142v37q0 85 52.5 136.5t138.5 51.5z" />
    <glyph glyph-name="ograve" unicode="&#xf2;" 
d="M1020 668v-312q0 -156 -115 -268q-114 -108 -291 -108q-181 0 -295 108q-112 109 -112 270v310q0 160 112 266q113 110 295 110q178 0 291 -110q115 -112 115 -266zM852 346v332q0 94 -65.5 157.5t-172.5 63.5t-174 -63.5t-67 -157.5v-330q0 -94 67 -158.5t174 -64.5
t172.5 63.5t65.5 157.5zM500 1421l250 -301h-172l-312 301h234z" />
    <glyph glyph-name="oacute" unicode="&#xf3;" 
d="M1020 668v-312q0 -156 -115 -268q-114 -108 -291 -108q-181 0 -295 108q-112 109 -112 270v310q0 160 112 266q113 110 295 110q178 0 291 -110q115 -112 115 -266zM852 346v332q0 94 -65.5 157.5t-172.5 63.5t-174 -63.5t-67 -157.5v-330q0 -94 67 -158.5t174 -64.5
t172.5 63.5t65.5 157.5zM969 1421l-312 -301h-172l250 301h234z" />
    <glyph glyph-name="ocircumflex" unicode="&#xf4;" 
d="M1020 668v-312q0 -156 -115 -268q-114 -108 -291 -108q-181 0 -295 108q-112 109 -112 270v310q0 160 112 266q113 110 295 110q178 0 291 -110q115 -112 115 -266zM852 346v332q0 94 -65.5 157.5t-172.5 63.5t-174 -63.5t-67 -157.5v-330q0 -94 67 -158.5t174 -64.5
t172.5 63.5t65.5 157.5zM688 1421l217 -301h-147l-146 168l-151 -168h-150l221 301h156z" />
    <glyph glyph-name="otilde" unicode="&#xf5;" 
d="M1020 668v-312q0 -156 -115 -268q-114 -108 -291 -108q-181 0 -295 108q-112 109 -112 270v310q0 160 112 266q113 110 295 110q178 0 291 -110q115 -112 115 -266zM852 346v332q0 94 -65.5 157.5t-172.5 63.5t-174 -63.5t-67 -157.5v-330q0 -94 67 -158.5t174 -64.5
t172.5 63.5t65.5 157.5zM485 1372q58 0 138 -45t104 -45q30 0 48 14.5t18 38.5v31h141v-37q0 -85 -52.5 -136.5t-138.5 -51.5q-55 0 -135 45q-77 45 -106 45q-30 0 -48 -14.5t-18 -38.5v-31h-141v37q0 85 52 136.5t138 51.5z" />
    <glyph glyph-name="odieresis" unicode="&#xf6;" 
d="M1020 668v-312q0 -156 -115 -268q-114 -108 -291 -108q-181 0 -295 108q-112 109 -112 270v310q0 160 112 266q113 110 295 110q178 0 291 -110q115 -112 115 -266zM852 346v332q0 94 -65.5 157.5t-172.5 63.5t-174 -63.5t-67 -157.5v-330q0 -94 67 -158.5t174 -64.5
t172.5 63.5t65.5 157.5zM528 1194h-174v174h174v-174zM874 1194h-174v174h174v-174z" />
    <glyph glyph-name="divide" unicode="&#xf7;" 
d="M510 379h209v-207h-209v207zM510 1024h209v-207h-209v207zM1067 678v-160h-907v160h907z" />
    <glyph glyph-name="oslash" unicode="&#xf8;" 
d="M1020 668v-312q0 -156 -115 -268q-114 -108 -291 -108q-117 0 -211 49l-45 -84l-82 45l50 92q-119 107 -119 276v310q0 160 112 266q113 110 295 110q113 0 207 -49l43 80l82 -45l-49 -90q123 -111 123 -272zM373 678v-330q0 -66 33 -119l344 633q-58 37 -136 37
q-107 0 -174 -63.5t-67 -157.5zM852 346v332q0 64 -33 117l-344 -633q58 -37 139 -37q107 0 172.5 63.5t65.5 157.5z" />
    <glyph glyph-name="ugrave" unicode="&#xf9;" 
d="M209 360v664h164v-670q0 -101 60.5 -164t166.5 -63q96 0 174 66q78 69 78 145v686h164v-1024h-148l-6 109q-8 -10 -35 -37q-18 -18 -96 -58q-69 -34 -149 -34q-171 0 -272 106t-101 274zM547 1421l250 -301h-172l-312 301h234z" />
    <glyph glyph-name="uacute" unicode="&#xfa;" 
d="M209 360v664h164v-670q0 -101 60.5 -164t166.5 -63q96 0 174 66q78 69 78 145v686h164v-1024h-148l-6 109q-8 -10 -35 -37q-18 -18 -96 -58q-69 -34 -149 -34q-171 0 -272 106t-101 274zM961 1421l-312 -301h-172l250 301h234z" />
    <glyph glyph-name="ucircumflex" unicode="&#xfb;" 
d="M209 360v664h164v-670q0 -101 60.5 -164t166.5 -63q96 0 174 66q78 69 78 145v686h164v-1024h-148l-6 109q-8 -10 -35 -37q-18 -18 -96 -58q-69 -34 -149 -34q-171 0 -272 106t-101 274zM696 1421l217 -301h-147l-145 168l-152 -168h-150l222 301h155z" />
    <glyph glyph-name="udieresis" unicode="&#xfc;" 
d="M209 360v664h164v-670q0 -101 60.5 -164t166.5 -63q96 0 174 66q78 69 78 145v686h164v-1024h-148l-6 109q-8 -10 -35 -37q-18 -18 -96 -58q-69 -34 -149 -34q-171 0 -272 106t-101 274zM537 1194h-175v174h175v-174zM883 1194h-174v174h174v-174z" />
    <glyph glyph-name="yacute" unicode="&#xfd;" 
d="M158 1024h178l280 -793l279 793h176l-526 -1393h-166l145 402zM969 1421l-312 -301h-172l250 301h234z" />
    <glyph glyph-name="thorn" unicode="&#xfe;" 
d="M377 -369h-158v1803h160v-490q103 100 262 100q161 0 274 -110q115 -109 115 -264v-314q0 -154 -115 -266q-113 -110 -274 -110q-160 0 -264 98v-447zM862 354v322q0 92 -69.5 157.5t-167.5 65.5q-108 0 -175 -62.5t-67 -160.5v-322q0 -99 67 -162t175 -63q99 0 168 64.5
t69 160.5z" />
    <glyph glyph-name="ydieresis" unicode="&#xff;" 
d="M158 1024h178l280 -793l279 793h176l-526 -1393h-166l145 402zM530 1194h-174v174h174v-174zM877 1194h-175v174h175v-174z" />
    <glyph glyph-name="Amacron" unicode="&#x100;" 
d="M221 612l260 822h269l260 -826v-608h-172v457h-447v-457h-170v612zM399 616h435l-199 662h-39zM924 1602h-619v151h619v-151z" />
    <glyph glyph-name="amacron" unicode="&#x101;" 
d="M995 0h-159v94q-6 -8 -31 -33q-19 -16 -90 -51q-71 -30 -148 -30q-159 0 -257.5 88.5t-98.5 230.5q0 133 89.5 220t248.5 110q133 18 237 18h43v53q0 82 -55 138.5t-145 56.5q-84 0 -141 -41t-68 -109h-162q15 129 121 213q109 86 250 86q172 0 269 -92t97 -239v-713z
M829 322v182q-154 -3 -268 -21q-83 -12 -134.5 -61.5t-51.5 -120.5q0 -75 55 -124.5t145 -49.5q113 0 183 61q71 65 71 134zM938 1192h-619v151h619v-151z" />
    <glyph glyph-name="Abreve" unicode="&#x102;" 
d="M221 612l260 822h269l260 -826v-608h-172v457h-447v-457h-170v612zM399 616h435l-199 662h-39zM338 1812h154q0 -16 3 -31t13 -40.5t37.5 -41.5t68.5 -16q121 0 121 129h154q0 -107 -74 -184q-70 -76 -170 -76h-63q-102 0 -172 76q-72 78 -72 184z" />
    <glyph glyph-name="abreve" unicode="&#x103;" 
d="M995 0h-159v94q-6 -8 -31 -33q-19 -16 -90 -51q-71 -30 -148 -30q-159 0 -257.5 88.5t-98.5 230.5q0 133 89.5 220t248.5 110q133 18 237 18h43v53q0 82 -55 138.5t-145 56.5q-84 0 -141 -41t-68 -109h-162q15 129 121 213q109 86 250 86q172 0 269 -92t97 -239v-713z
M829 322v182q-154 -3 -268 -21q-83 -12 -134.5 -61.5t-51.5 -120.5q0 -75 55 -124.5t145 -49.5q113 0 183 61q71 65 71 134zM354 1403h154q0 -15 3 -31t13.5 -41t38 -41t68.5 -16q121 0 121 129h153q0 -107 -74 -184q-70 -76 -169 -76h-64q-102 0 -172 76q-72 78 -72 184z
" />
    <glyph glyph-name="Aogonek" unicode="&#x104;" 
d="M221 612l260 822h269l260 -826v-608l-52 -25q-30 -20 -77 -67q-50 -50 -50 -98q0 -52 48 -52h129v-127h-152q-71 0 -116.5 43.5t-45.5 102.5q0 40 16.5 78t42 65t47.5 44t42 28l16 8h-20v457h-447v-457h-170v612zM399 616h435l-199 662h-39z" />
    <glyph glyph-name="aogonek" unicode="&#x105;" 
d="M870 0h-34v94q-6 -8 -31 -33q-19 -16 -90 -51q-71 -30 -148 -30q-159 0 -257.5 88.5t-98.5 230.5q0 133 89.5 220t248.5 110q133 18 237 18h43v53q0 82 -55 138.5t-145 56.5q-84 0 -141 -41t-68 -109h-162q15 129 121 213q109 86 250 86q172 0 269 -92t97 -239v-713
l-41 -33q-27 -23 -65 -73q-41 -53 -41 -84q0 -52 47 -52h100v-127h-123q-71 0 -116 43.5t-45 102.5q0 61 37 116.5t83 81.5zM829 322v182q-154 -3 -268 -21q-83 -12 -134.5 -61.5t-51.5 -120.5q0 -75 55 -124.5t145 -49.5q113 0 183 61q71 65 71 134z" />
    <glyph glyph-name="Cacute" unicode="&#x106;" 
d="M852 397h174v-41q0 -158 -113 -268q-114 -108 -280 -108q-171 0 -285 108q-110 110 -110 270v719q0 155 114 266q117 111 281 111q168 0 276 -111q109 -109 109 -268h-172q0 91 -61.5 154t-151.5 63q-92 0 -156.5 -63t-64.5 -154v-719q0 -91 63.5 -153t157.5 -62
q88 0 153 62q66 66 66 151v43zM993 1831l-311 -301h-172l250 301h233z" />
    <glyph glyph-name="cacute" unicode="&#x107;" 
d="M629 897q-104 0 -172 -64.5t-68 -158.5v-326q0 -95 67.5 -159t174.5 -64q104 0 166 65q61 67 61 150h168q0 -113 -90 -229q-46 -59 -128 -95t-179 -36q-183 0 -295 112q-111 114 -111 266v310q0 156 113 266t293 110q83 0 151 -23.5t110.5 -61t72 -86.5t41.5 -97t12 -96
h-168q0 21 -2 35q-3 21 -9 41.5t-22 47t-38.5 46t-61 33.5t-86.5 14zM967 1421l-312 -301h-172l250 301h234z" />
    <glyph glyph-name="Ccircumflex" unicode="&#x108;" 
d="M852 397h174v-41q0 -158 -113 -268q-114 -108 -280 -108q-171 0 -285 108q-110 110 -110 270v719q0 155 114 266q117 111 281 111q168 0 276 -111q109 -109 109 -268h-172q0 91 -61.5 154t-151.5 63q-92 0 -156.5 -63t-64.5 -154v-719q0 -91 63.5 -153t157.5 -62
q88 0 153 62q66 66 66 151v43zM711 1831l217 -301h-148l-145 168l-152 -168h-149l221 301h156z" />
    <glyph glyph-name="ccircumflex" unicode="&#x109;" 
d="M629 897q-104 0 -172 -64.5t-68 -158.5v-326q0 -95 67.5 -159t174.5 -64q104 0 166 65q61 67 61 150h168q0 -113 -90 -229q-46 -59 -128 -95t-179 -36q-183 0 -295 112q-111 114 -111 266v310q0 156 113 266t293 110q83 0 151 -23.5t110.5 -61t72 -86.5t41.5 -97t12 -96
h-168q0 21 -2 35q-3 21 -9 41.5t-22 47t-38.5 46t-61 33.5t-86.5 14zM707 1421l217 -301h-148l-145 168l-152 -168h-149l221 301h156z" />
    <glyph glyph-name="Cdotaccent" unicode="&#x10a;" 
d="M852 397h174v-41q0 -158 -113 -268q-114 -108 -280 -108q-171 0 -285 108q-110 110 -110 270v719q0 155 114 266q117 111 281 111q168 0 276 -111q109 -109 109 -268h-172q0 91 -61.5 154t-151.5 63q-92 0 -156.5 -63t-64.5 -154v-719q0 -91 63.5 -153t157.5 -62
q88 0 153 62q66 66 66 151v43zM723 1602h-182v182h182v-182z" />
    <glyph glyph-name="cdotaccent" unicode="&#x10b;" 
d="M629 897q-104 0 -172 -64.5t-68 -158.5v-326q0 -95 67.5 -159t174.5 -64q104 0 166 65q61 67 61 150h168q0 -113 -90 -229q-46 -59 -128 -95t-179 -36q-183 0 -295 112q-111 114 -111 266v310q0 156 113 266t293 110q83 0 151 -23.5t110.5 -61t72 -86.5t41.5 -97t12 -96
h-168q0 21 -2 35q-3 21 -9 41.5t-22 47t-38.5 46t-61 33.5t-86.5 14zM725 1192h-182v182h182v-182z" />
    <glyph glyph-name="Ccaron" unicode="&#x10c;" 
d="M852 397h174v-41q0 -158 -113 -268q-114 -108 -280 -108q-171 0 -285 108q-110 110 -110 270v719q0 155 114 266q117 111 281 111q168 0 276 -111q109 -109 109 -268h-172q0 91 -61.5 154t-151.5 63q-92 0 -156.5 -63t-64.5 -154v-719q0 -91 63.5 -153t157.5 -62
q88 0 153 62q66 66 66 151v43zM557 1530l-217 301h147l146 -168l151 168h150l-221 -301h-156z" />
    <glyph glyph-name="ccaron" unicode="&#x10d;" 
d="M629 897q-104 0 -172 -64.5t-68 -158.5v-326q0 -95 67.5 -159t174.5 -64q104 0 166 65q61 67 61 150h168q0 -113 -90 -229q-46 -59 -128 -95t-179 -36q-183 0 -295 112q-111 114 -111 266v310q0 156 113 266t293 110q83 0 151 -23.5t110.5 -61t72 -86.5t41.5 -97t12 -96
h-168q0 21 -2 35q-3 21 -9 41.5t-22 47t-38.5 46t-61 33.5t-86.5 14zM553 1120l-217 301h147l146 -168l151 168h150l-221 -301h-156z" />
    <glyph glyph-name="Dcaron" unicode="&#x10e;" 
d="M610 0h-377v1434h377q161 0 275 -111q112 -106 112 -266v-680q0 -159 -112 -268q-115 -109 -275 -109zM823 375v684q0 91 -63.5 152t-155.5 61h-201v-1110h201q92 0 155.5 61t63.5 152zM483 1530l-217 301h148l145 -168l152 168h149l-221 -301h-156z" />
    <glyph glyph-name="dcaron" unicode="&#x10f;" horiz-adv-x="1230" 
d="M365 657v-292q0 -109 63 -174.5t164 -65.5q104 0 178 68t74 163v303q0 101 -76 168q-77 68 -176 68q-101 0 -164 -64.5t-63 -173.5zM815 965l29 -27v496h164v-1434h-148l-6 100q-4 -8 -31 -34q-20 -20 -90 -54q-65 -32 -155 -32q-164 0 -273 112q-108 114 -108 273v297
q0 161 108 272q110 110 266 110q76 0 145.5 -25t98.5 -54zM1491 1434l-197 -310h-139l133 310h203z" />
    <glyph glyph-name="Dcroat" unicode="&#x110;" 
d="M133 676v160h139v598h377q161 0 275 -111q112 -106 112 -266v-680q0 -159 -112 -268q-115 -109 -275 -109h-377v676h-139zM862 375v684q0 91 -63.5 152t-155.5 61h-201v-436h205v-160h-205v-514h201q92 0 155.5 61t63.5 152z" />
    <glyph glyph-name="dslash" unicode="&#x111;" 
d="M846 1151h-258v137h258v146h164v-146h118v-137h-118v-1151h-148l-6 84q-12 -16 -27 -31q-25 -23 -94.5 -48t-146.5 -25q-163 0 -277 108q-112 109 -112 268v291q0 157 112 266q114 111 277 111q74 0 139.5 -25t93.5 -55l25 -26v233zM367 653v-307q0 -95 67 -158t170 -63
q104 0 173 64.5t69 158.5v305q0 94 -69 157.5t-173 63.5q-103 0 -170 -63t-67 -158z" />
    <glyph glyph-name="Emacron" unicode="&#x112;" 
d="M283 0v1434h700v-162h-528v-436h479v-160h-479v-514h544v-162h-716zM950 1602h-618v151h618v-151z" />
    <glyph glyph-name="emacron" unicode="&#x113;" 
d="M836 313h168q1 -49 -21.5 -104t-66.5 -107.5t-122 -87t-176 -34.5q-183 0 -296 110q-111 114 -111 268v312q0 153 111 264q113 110 296 110q184 0 291 -110q109 -112 109 -264v-209h-641v-113q0 -94 67 -158.5t174 -64.5q88 0 153 55t65 133zM377 676v-68h479v68
q0 94 -65.5 157.5t-172.5 63.5t-174 -63.5t-67 -157.5zM936 1192h-619v151h619v-151z" />
    <glyph glyph-name="Ebreve" unicode="&#x114;" 
d="M283 0v1434h700v-162h-528v-436h479v-160h-479v-514h544v-162h-716zM367 1812h153q0 -15 3 -31t13.5 -41t38 -41t68.5 -16q121 0 121 129h154q0 -107 -74 -184q-70 -76 -170 -76h-64q-102 0 -172 76q-71 77 -71 184z" />
    <glyph glyph-name="ebreve" unicode="&#x115;" 
d="M836 313h168q1 -49 -21.5 -104t-66.5 -107.5t-122 -87t-176 -34.5q-183 0 -296 110q-111 114 -111 268v312q0 153 111 264q113 110 296 110q184 0 291 -110q109 -112 109 -264v-209h-641v-113q0 -94 67 -158.5t174 -64.5q88 0 153 55t65 133zM377 676v-68h479v68
q0 94 -65.5 157.5t-172.5 63.5t-174 -63.5t-67 -157.5zM348 1403h154q0 -15 3 -31t13.5 -41t38 -41t68.5 -16q120 0 120 129h154q0 -107 -74 -184q-70 -76 -170 -76h-63q-102 0 -172 76q-72 78 -72 184z" />
    <glyph glyph-name="Edotaccent" unicode="&#x116;" 
d="M283 0v1434h700v-162h-528v-436h479v-160h-479v-514h544v-162h-716zM731 1602h-182v182h182v-182z" />
    <glyph glyph-name="edotaccent" unicode="&#x117;" 
d="M836 313h168q1 -49 -21.5 -104t-66.5 -107.5t-122 -87t-176 -34.5q-183 0 -296 110q-111 114 -111 268v312q0 153 111 264q113 110 296 110q184 0 291 -110q109 -112 109 -264v-209h-641v-113q0 -94 67 -158.5t174 -64.5q88 0 153 55t65 133zM377 676v-68h479v68
q0 94 -65.5 157.5t-172.5 63.5t-174 -63.5t-67 -157.5zM715 1192h-183v182h183v-182z" />
    <glyph glyph-name="Eogonek" unicode="&#x118;" 
d="M283 0v1434h700v-162h-528v-436h479v-160h-479v-514h544v-162l-41 -33q-27 -23 -65 -73q-41 -53 -41 -84q0 -52 47 -52h100v-127h-122q-71 0 -116.5 43.5t-45.5 102.5q0 61 37.5 116.5t83.5 81.5l38 25h-591z" />
    <glyph glyph-name="eogonek" unicode="&#x119;" 
d="M836 313h168q0 -152 -158 -274q-152 -122 -152 -229q0 -52 47 -52h101v-127h-123q-71 0 -116.5 43.5t-45.5 102.5q0 127 131 209q-34 -6 -70 -6q-183 0 -296 110q-111 114 -111 268v312q0 153 111 264q113 110 296 110q184 0 291 -110q109 -112 109 -264v-209h-641v-113
q0 -94 67 -158.5t174 -64.5q88 0 153 55t65 133zM377 676v-68h479v68q0 94 -65.5 157.5t-172.5 63.5t-174 -63.5t-67 -157.5z" />
    <glyph glyph-name="Ecaron" unicode="&#x11a;" 
d="M283 0v1434h700v-162h-528v-436h479v-160h-479v-514h544v-162h-716zM565 1530l-217 301h148l145 -168l152 168h149l-221 -301h-156z" />
    <glyph glyph-name="ecaron" unicode="&#x11b;" 
d="M836 313h168q1 -49 -21.5 -104t-66.5 -107.5t-122 -87t-176 -34.5q-183 0 -296 110q-111 114 -111 268v312q0 153 111 264q113 110 296 110q184 0 291 -110q109 -112 109 -264v-209h-641v-113q0 -94 67 -158.5t174 -64.5q88 0 153 55t65 133zM377 676v-68h479v68
q0 94 -65.5 157.5t-172.5 63.5t-174 -63.5t-67 -157.5zM545 1120l-217 301h147l146 -168l151 168h150l-222 -301h-155z" />
    <glyph glyph-name="Gcircumflex" unicode="&#x11c;" 
d="M637 737h385v-381q0 -151 -115 -266q-113 -110 -291 -110q-184 0 -297 110q-110 113 -110 268v719q0 156 110 266q114 111 297 111q197 0 299 -117q105 -117 105 -262h-174q0 91 -66 154t-164 63q-105 0 -169 -60t-64 -153v-723q0 -92 64.5 -153.5t168.5 -61.5
q101 0 165.5 61.5t64.5 151.5v224h-209v159zM715 1831l217 -301h-148l-145 168l-152 -168h-149l221 301h156z" />
    <glyph glyph-name="gcircumflex" unicode="&#x11d;" 
d="M842 -10h-424q-51 0 -87 -34t-36 -81t36 -80t87 -33h422q51 0 87 34t36 81t-35 80t-86 33zM778 598v137q0 71 -50.5 118.5t-123.5 47.5q-76 0 -128 -47.5t-52 -118.5v-137q0 -69 52.5 -117.5t127.5 -48.5q70 0 122 49t52 117zM997 1110h37v-141h-35q-77 0 -104 -41
l-16 -23q57 -63 57 -170v-135q0 -124 -102 -219q-101 -94 -230 -94v-164h260q105 0 177.5 -71.5t72.5 -176.5t-72.5 -174.5t-179.5 -69.5h-469q-106 0 -178 69.5t-72 174.5q0 108 71.5 178t178.5 70h53v205q-59 21 -118 92q-60 72 -60 180v135q0 129 99 217q103 92 237 92
q96 0 178 -49l27 31q40 47 79.5 65.5t108.5 18.5zM676 1421l217 -301h-148l-145 168l-151 -168h-150l221 301h156z" />
    <glyph glyph-name="Gbreve" unicode="&#x11e;" 
d="M637 737h385v-381q0 -151 -115 -266q-113 -110 -291 -110q-184 0 -297 110q-110 113 -110 268v719q0 156 110 266q114 111 297 111q197 0 299 -117q105 -117 105 -262h-174q0 91 -66 154t-164 63q-105 0 -169 -60t-64 -153v-723q0 -92 64.5 -153.5t168.5 -61.5
q101 0 165.5 61.5t64.5 151.5v224h-209v159zM356 1812h154q0 -15 3 -31t13.5 -41t38 -41t68.5 -16q121 0 121 129h153q0 -108 -73 -184q-70 -76 -170 -76h-64q-102 0 -172 76q-72 78 -72 184z" />
    <glyph glyph-name="gbreve" unicode="&#x11f;" 
d="M842 -10h-424q-51 0 -87 -34t-36 -81t36 -80t87 -33h422q51 0 87 34t36 81t-35 80t-86 33zM778 598v137q0 71 -50.5 118.5t-123.5 47.5q-76 0 -128 -47.5t-52 -118.5v-137q0 -69 52.5 -117.5t127.5 -48.5q70 0 122 49t52 117zM997 1110h37v-141h-35q-77 0 -104 -41
l-16 -23q57 -63 57 -170v-135q0 -124 -102 -219q-101 -94 -230 -94v-164h260q105 0 177.5 -71.5t72.5 -176.5t-72.5 -174.5t-179.5 -69.5h-469q-106 0 -178 69.5t-72 174.5q0 108 71.5 178t178.5 70h53v205q-59 21 -118 92q-60 72 -60 180v135q0 129 99 217q103 92 237 92
q96 0 178 -49l27 31q40 47 79.5 65.5t108.5 18.5zM338 1403h154q0 -16 3 -31t13 -40.5t37.5 -41.5t68.5 -16q121 0 121 129h154q0 -107 -74 -184q-70 -76 -170 -76h-63q-102 0 -172 76q-72 78 -72 184z" />
    <glyph glyph-name="Gdotaccent" unicode="&#x120;" 
d="M637 737h385v-381q0 -151 -115 -266q-113 -110 -291 -110q-184 0 -297 110q-110 113 -110 268v719q0 156 110 266q114 111 297 111q197 0 299 -117q105 -117 105 -262h-174q0 91 -66 154t-164 63q-105 0 -169 -60t-64 -153v-723q0 -92 64.5 -153.5t168.5 -61.5
q101 0 165.5 61.5t64.5 151.5v224h-209v159zM725 1602h-182v182h182v-182z" />
    <glyph glyph-name="gdotaccent" unicode="&#x121;" 
d="M842 -10h-424q-51 0 -87 -34t-36 -81t36 -80t87 -33h422q51 0 87 34t36 81t-35 80t-86 33zM778 598v137q0 71 -50.5 118.5t-123.5 47.5q-76 0 -128 -47.5t-52 -118.5v-137q0 -69 52.5 -117.5t127.5 -48.5q70 0 122 49t52 117zM997 1110h37v-141h-35q-77 0 -104 -41
l-16 -23q57 -63 57 -170v-135q0 -124 -102 -219q-101 -94 -230 -94v-164h260q105 0 177.5 -71.5t72.5 -176.5t-72.5 -174.5t-179.5 -69.5h-469q-106 0 -178 69.5t-72 174.5q0 108 71.5 178t178.5 70h53v205q-59 21 -118 92q-60 72 -60 180v135q0 129 99 217q103 92 237 92
q96 0 178 -49l27 31q40 47 79.5 65.5t108.5 18.5zM692 1192h-182v182h182v-182z" />
    <glyph glyph-name="uni0122" unicode="&#x122;" 
d="M637 737h385v-381q0 -151 -115 -266q-113 -110 -291 -110q-184 0 -297 110q-110 113 -110 268v719q0 156 110 266q114 111 297 111q197 0 299 -117q105 -117 105 -262h-174q0 91 -66 154t-164 63q-105 0 -169 -60t-64 -153v-723q0 -92 64.5 -153.5t168.5 -61.5
q101 0 165.5 61.5t64.5 151.5v224h-209v159zM745 -111l-196 -309h-139l133 309h202z" />
    <glyph glyph-name="uni0123" unicode="&#x123;" 
d="M842 -10h-424q-51 0 -87 -34t-36 -81t36 -80t87 -33h422q51 0 87 34t36 81t-35 80t-86 33zM778 598v137q0 71 -50.5 118.5t-123.5 47.5q-76 0 -128 -47.5t-52 -118.5v-137q0 -69 52.5 -117.5t127.5 -48.5q70 0 122 49t52 117zM997 1110h37v-141h-35q-77 0 -104 -41
l-16 -23q57 -63 57 -170v-135q0 -124 -102 -219q-101 -94 -230 -94v-164h260q105 0 177.5 -71.5t72.5 -176.5t-72.5 -174.5t-179.5 -69.5h-469q-106 0 -178 69.5t-72 174.5q0 108 71.5 178t178.5 70h53v205q-59 21 -118 92q-60 72 -60 180v135q0 129 99 217q103 92 237 92
q96 0 178 -49l27 31q40 47 79.5 65.5t108.5 18.5zM489 1141l197 309h139l-133 -309h-203z" />
    <glyph glyph-name="Hcircumflex" unicode="&#x124;" 
d="M834 836v598h174v-1434h-174v676h-443v-676h-172v1434h172v-598h443zM692 1831l217 -301h-147l-146 168l-151 -168h-150l222 301h155z" />
    <glyph glyph-name="hcircumflex" unicode="&#x125;" 
d="M1026 678v-678h-164v666q0 231 -221 231q-98 0 -178 -68t-80 -143v-686h-164v1434h164v-510q5 6 35 32q20 17 98 54q75 34 154 34q165 0 260.5 -99t95.5 -267zM670 1829l217 -301h-148l-145 168l-152 -168h-149l221 301h156z" />
    <glyph glyph-name="Hbar" unicode="&#x126;" 
d="M219 1049h-106v143h106v242h168v-242h451v242h170v-242h108v-143h-108v-1049h-170v676h-451v-676h-168v1049zM387 1049v-218h451v218h-451z" />
    <glyph glyph-name="hbar" unicode="&#x127;" 
d="M637 1288v-139h-254v-246q8 10 35 33q17 15 98 53q78 35 154 35q165 0 260.5 -99.5t95.5 -267.5v-657h-164v645q0 232 -221 232q-98 0 -178 -68t-80 -143v-666h-164v1149h-113v139h113v146h164v-146h254z" />
    <glyph glyph-name="Itilde" unicode="&#x128;" 
d="M528 1274h-309v160h791v-160h-310v-1114h310v-160h-791v160h309v1114zM485 1782q58 0 138 -45t104 -45q30 0 48 14.5t18 38.5v31h141v-37q0 -85 -52.5 -137t-138.5 -52q-55 0 -135 45q-77 45 -106 45q-30 0 -48 -14.5t-18 -38.5v-31h-141v37q0 85 52 137t138 52z" />
    <glyph glyph-name="itilde" unicode="&#x129;" 
d="M578 877h-349v147h512v-877h314v-147h-826v147h349v730zM537 1372q57 0 137 -45t104 -45q30 0 48 14.5t18 38.5v31h141v-37q0 -85 -52 -136.5t-138 -51.5q-56 0 -136 45q-77 45 -106 45q-30 0 -48 -14.5t-18 -38.5v-31h-141v37q0 85 52.5 136.5t138.5 51.5z" />
    <glyph glyph-name="Imacron" unicode="&#x12a;" 
d="M528 1274h-309v160h791v-160h-310v-1114h310v-160h-791v160h309v1114zM924 1602h-619v151h619v-151z" />
    <glyph glyph-name="imacron" unicode="&#x12b;" 
d="M578 877h-349v147h512v-877h314v-147h-826v147h349v730zM973 1192h-619v151h619v-151z" />
    <glyph glyph-name="Iogonek" unicode="&#x12e;" 
d="M528 1274h-309v160h791v-160h-310v-1114h310v-160l-41 -33q-30 -26 -66 -73q-41 -53 -41 -84q0 -52 47 -52h101v-127h-123q-71 0 -116.5 43.5t-45.5 102.5q0 61 37.5 116t81.5 82l41 25h-666v160h309v1114z" />
    <glyph glyph-name="iogonek" unicode="&#x12f;" 
d="M578 877h-349v147h512v-877h314v-147l-41 -33q-30 -26 -66 -73q-41 -53 -41 -84q0 -52 47 -52h101v-127h-123q-71 0 -116.5 43.5t-45.5 102.5q0 61 37.5 116t81.5 82l41 25h-701v147h349v730zM745 1223h-188v182h188v-182z" />
    <glyph glyph-name="Idot" unicode="&#x130;" 
d="M528 1274h-309v160h791v-160h-310v-1114h310v-160h-791v160h309v1114zM705 1602h-183v182h183v-182z" />
    <glyph glyph-name="dotlessi" unicode="&#x131;" 
d="M578 877h-349v147h512v-877h314v-147h-826v147h349v730z" />
    <glyph glyph-name="IJ" unicode="&#x132;" 
d="M500 162v-162h-437v162h132v1110h-132v162h437v-162h-133v-1110h133zM727 1434h365v-1166q0 -122 -86 -205q-83 -83 -203 -83q-119 0 -205 83q-84 84 -84 205v178h172v-186q0 -49 34.5 -84t82.5 -35q47 0 82 35t35 82v1014h-193v162z" />
    <glyph glyph-name="ij" unicode="&#x133;" horiz-adv-x="1230" 
d="M422 -98h156q0 -64 36.5 -104t98.5 -40q61 0 101 41.5t40 102.5v975h-162v147h330v-1112q0 -125 -88 -213q-85 -88 -219 -88q-132 0 -212.5 81t-80.5 210zM281 877h-168v147h331v-877h166v-147h-497v147h168v730zM449 1194h-189v182h189v-182zM1020 1194h-189v182h189
v-182z" />
    <glyph glyph-name="Jcircumflex" unicode="&#x134;" 
d="M834 1274h-531v160h705v-1076q0 -156 -115 -268q-113 -110 -275 -110h-10q-160 0 -274 108q-113 110 -113 268v109h172v-111q0 -87 64 -151q65 -62 155 -62q94 0 158 62t64 153v918zM752 1831l217 -301h-148l-145 168l-152 -168h-149l221 301h156z" />
    <glyph glyph-name="jcircumflex" unicode="&#x135;" 
d="M811 1421l217 -301h-147l-146 168l-151 -168h-150l221 301h156zM729 877h-485v147h653v-1067q0 -149 -100 -246q-100 -100 -260 -100q-77 0 -143 16.5t-91 36.5l-24 17l90 122q52 -43 166 -43q87 0 140.5 54t53.5 137v926z" />
    <glyph glyph-name="uni0136" unicode="&#x136;" 
d="M238 1434h174v-660l454 660h201l-483 -674l506 -760h-199l-479 743v-743h-174v1434zM731 -111l-196 -309h-140l133 309h203z" />
    <glyph glyph-name="uni0137" unicode="&#x137;" 
d="M1102 0h-209l-461 530v-530h-164v1434h164v-885l438 475h209l-456 -485zM723 -111l-197 -309h-139l133 309h203z" />
    <glyph glyph-name="kgreenlandic" unicode="&#x138;" 
d="M1102 0h-209l-461 530v-530h-164v1024h164v-475l438 475h209l-456 -485z" />
    <glyph glyph-name="Lacute" unicode="&#x139;" 
d="M358 0v1434h174v-1272h555v-162h-729zM963 1831l-312 -301h-172l250 301h234z" />
    <glyph glyph-name="lacute" unicode="&#x13a;" 
d="M547 1288h-258v146h422v-1287h327v-147h-807v147h316v1141zM946 1827l-311 -301h-172l250 301h233z" />
    <glyph glyph-name="uni013B" unicode="&#x13b;" 
d="M358 0v1434h174v-1272h555v-162h-729zM854 -111l-197 -309h-139l133 309h203z" />
    <glyph glyph-name="uni013C" unicode="&#x13c;" 
d="M547 1288h-258v146h422v-1287h327v-147h-807v147h316v1141zM758 -111l-197 -309h-139l133 309h203z" />
    <glyph glyph-name="Lcaron" unicode="&#x13d;" 
d="M289 0v1434h174v-1272h555v-162h-729zM1120 1434l-196 -310h-140l134 310h202z" />
    <glyph glyph-name="lcaron" unicode="&#x13e;" 
d="M547 1288h-258v146h422v-1287h327v-147h-807v147h316v1141zM1260 1434l-197 -310h-139l133 310h203z" />
    <glyph glyph-name="Ldot" unicode="&#x13f;" 
d="M358 0v1434h174v-1272h555v-162h-729zM1081 496h-200v200h200v-200z" />
    <glyph glyph-name="ldot" unicode="&#x140;" 
d="M547 1288h-258v146h422v-1287h327v-147h-807v147h316v1141zM1200 496h-201v200h201v-200z" />
    <glyph glyph-name="Lslash" unicode="&#x141;" horiz-adv-x="1333" 
d="M651 811l299 170v-178l-299 -170v-471h541v-162h-711v537l-123 -68v176l123 68v721h170v-623z" />
    <glyph glyph-name="lslash" unicode="&#x142;" 
d="M547 627l-146 -80v172l146 80v487h-260v148h424v-545l172 98v-170l-172 -98v-572h327v-147h-807v147h316v480z" />
    <glyph glyph-name="Nacute" unicode="&#x143;" 
d="M850 676v758h160v-1434h-166l-473 1087q10 -208 10 -337v-750h-160v1434h166l473 -1090q-10 163 -10 332zM950 1831l-311 -301h-172l250 301h233z" />
    <glyph glyph-name="nacute" unicode="&#x144;" 
d="M1026 678v-678h-164v666q0 231 -221 231q-98 0 -178 -68t-80 -143v-686h-164v1024h148l6 -113q8 10 35 37q22 22 100 60q73 36 162 36q165 0 260.5 -99t95.5 -267zM991 1421l-311 -301h-172l250 301h233z" />
    <glyph glyph-name="uni0145" unicode="&#x145;" 
d="M850 676v758h160v-1434h-166l-473 1087q10 -208 10 -337v-750h-160v1434h166l473 -1090q-10 163 -10 332zM707 -111l-197 -309h-139l133 309h203z" />
    <glyph glyph-name="uni0146" unicode="&#x146;" 
d="M1026 678v-678h-164v666q0 231 -221 231q-98 0 -178 -68t-80 -143v-686h-164v1024h148l6 -113q8 10 35 37q22 22 100 60q73 36 162 36q165 0 260.5 -99t95.5 -267zM752 -111l-197 -309h-139l133 309h203z" />
    <glyph glyph-name="Ncaron" unicode="&#x147;" 
d="M850 676v758h160v-1434h-166l-473 1087q10 -208 10 -337v-750h-160v1434h166l473 -1090q-10 163 -10 332zM539 1530l-217 301h147l145 -168l152 168h149l-221 -301h-155z" />
    <glyph glyph-name="ncaron" unicode="&#x148;" 
d="M1026 678v-678h-164v666q0 231 -221 231q-98 0 -178 -68t-80 -143v-686h-164v1024h148l6 -113q8 10 35 37q22 22 100 60q73 36 162 36q165 0 260.5 -99t95.5 -267zM569 1120l-217 301h148l145 -168l152 168h149l-221 -301h-156z" />
    <glyph glyph-name="napostrophe" unicode="&#x149;" 
d="M1026 678v-678h-164v666q0 231 -221 231q-98 0 -178 -68t-80 -143v-686h-164v1024h148l6 -113q8 10 35 37q22 22 100 60q73 36 162 36q165 0 260.5 -99t95.5 -267zM344 1434l-197 -310h-139l133 310h203z" />
    <glyph glyph-name="Omacron" unicode="&#x14c;" 
d="M1020 1077v-721q0 -151 -113 -264q-109 -112 -293 -112q-188 0 -297 112q-110 113 -110 266v719q0 151 110 264t297 113q181 0 293 -115q113 -113 113 -262zM846 354v725q0 89 -64.5 151t-167.5 62q-105 0 -169 -62t-64 -151v-723q0 -91 63.5 -153t169.5 -62
q103 0 167.5 62t64.5 151zM924 1602h-619v151h619v-151z" />
    <glyph glyph-name="omacron" unicode="&#x14d;" 
d="M1020 668v-312q0 -156 -115 -268q-114 -108 -291 -108q-181 0 -295 108q-112 109 -112 270v310q0 160 112 266q113 110 295 110q178 0 291 -110q115 -112 115 -266zM852 346v332q0 94 -65.5 157.5t-172.5 63.5t-174 -63.5t-67 -157.5v-330q0 -94 67 -158.5t174 -64.5
t172.5 63.5t65.5 157.5zM924 1192h-619v151h619v-151z" />
    <glyph glyph-name="Obreve" unicode="&#x14e;" 
d="M1020 1077v-721q0 -151 -113 -264q-109 -112 -293 -112q-188 0 -297 112q-110 113 -110 266v719q0 151 110 264t297 113q181 0 293 -115q113 -113 113 -262zM846 354v725q0 89 -64.5 151t-167.5 62q-105 0 -169 -62t-64 -151v-723q0 -91 63.5 -153t169.5 -62
q103 0 167.5 62t64.5 151zM338 1812h154q0 -16 3 -31t13 -40.5t37.5 -41.5t68.5 -16q121 0 121 129h154q0 -107 -74 -184q-70 -76 -170 -76h-63q-102 0 -172 76q-72 78 -72 184z" />
    <glyph glyph-name="obreve" unicode="&#x14f;" 
d="M1020 668v-312q0 -156 -115 -268q-114 -108 -291 -108q-181 0 -295 108q-112 109 -112 270v310q0 160 112 266q113 110 295 110q178 0 291 -110q115 -112 115 -266zM852 346v332q0 94 -65.5 157.5t-172.5 63.5t-174 -63.5t-67 -157.5v-330q0 -94 67 -158.5t174 -64.5
t172.5 63.5t65.5 157.5zM338 1403h154q0 -16 3 -31t13 -40.5t37.5 -41.5t68.5 -16q121 0 121 129h154q0 -107 -74 -184q-70 -76 -170 -76h-63q-102 0 -172 76q-72 78 -72 184z" />
    <glyph glyph-name="Ohungarumlaut" unicode="&#x150;" 
d="M1020 1077v-721q0 -151 -113 -264q-109 -112 -293 -112q-188 0 -297 112q-110 113 -110 266v719q0 151 110 264t297 113q181 0 293 -115q113 -113 113 -262zM846 354v725q0 89 -64.5 151t-167.5 62q-105 0 -169 -62t-64 -151v-723q0 -91 63.5 -153t169.5 -62
q103 0 167.5 62t64.5 151zM797 1833l-275 -287h-149l202 287h222zM1133 1833l-275 -287h-149l202 287h222z" />
    <glyph glyph-name="ohungarumlaut" unicode="&#x151;" 
d="M1020 668v-312q0 -156 -115 -268q-114 -108 -291 -108q-181 0 -295 108q-112 109 -112 270v310q0 160 112 266q113 110 295 110q178 0 291 -110q115 -112 115 -266zM852 346v332q0 94 -65.5 157.5t-172.5 63.5t-174 -63.5t-67 -157.5v-330q0 -94 67 -158.5t174 -64.5
t172.5 63.5t65.5 157.5zM815 1423l-274 -286h-150l203 286h221zM1151 1423l-274 -286h-150l203 286h221z" />
    <glyph glyph-name="OE" unicode="&#x152;" 
d="M313 1051v-670q0 -93 61.5 -156t153.5 -63h58v1110h-58q-92 0 -153.5 -64t-61.5 -157zM1096 162v-162h-574q-161 0 -272 111q-111 114 -111 272v670q0 159 111 270t272 111h574v-162h-334v-436h303v-160h-303v-514h334z" />
    <glyph glyph-name="oe" unicode="&#x153;" 
d="M948 258v55h150v-55q0 -115 -82 -197q-81 -81 -195 -81q-72 0 -118 23.5t-91 80.5q-45 -57 -90.5 -80.5t-115.5 -23.5q-112 0 -193 81q-82 82 -82 197v508q0 116 78 197t197 81q70 0 115 -24.5t91 -83.5q46 59 91.5 83.5t117.5 24.5q119 0 197 -81q80 -80 80 -197v-305
h-410v-203q0 -54 37 -91.5t94 -37.5q54 0 91.5 37.5t37.5 91.5zM537 258v508q0 54 -40 91.5t-94 37.5q-51 0 -89 -37.5t-38 -91.5v-508q0 -54 37.5 -91.5t92.5 -37.5q54 0 92.5 37.5t38.5 91.5zM688 766v-156h260v156q0 53 -38.5 91t-90.5 38q-55 0 -93 -37.5t-38 -91.5z
" />
    <glyph glyph-name="Racute" unicode="&#x154;" 
d="M799 551l237 -551h-190l-217 522h-191v-522h-172v1434h391q137 0 232 -95q96 -93 96 -225v-272q0 -98 -49 -175.5t-137 -115.5zM811 836v280q0 63 -47 109.5t-113 46.5h-213v-590h213q66 0 113 45.5t47 108.5zM932 1831l-311 -301h-172l249 301h234z" />
    <glyph glyph-name="racute" unicode="&#x155;" 
d="M811 1044q149 0 225 -94q80 -92 80 -219h-162q0 68 -45 117t-112 49q-88 0 -152 -70q-65 -71 -65 -168v-512h428v-147h-807v147h215v877h149l6 -109q2 4 29 35q22 25 80 58q62 36 131 36zM1143 1421l-312 -301h-172l250 301h234z" />
    <glyph glyph-name="uni0156" unicode="&#x156;" 
d="M799 551l237 -551h-190l-217 522h-191v-522h-172v1434h391q137 0 232 -95q96 -93 96 -225v-272q0 -98 -49 -175.5t-137 -115.5zM811 836v280q0 63 -47 109.5t-113 46.5h-213v-590h213q66 0 113 45.5t47 108.5zM741 -111l-196 -309h-139l133 309h202z" />
    <glyph glyph-name="uni0157" unicode="&#x157;" 
d="M811 1044q149 0 225 -94q80 -92 80 -219h-162q0 68 -45 117t-112 49q-88 0 -152 -70q-65 -71 -65 -168v-512h428v-147h-807v147h215v877h149l6 -109q2 4 29 35q22 25 80 58q62 36 131 36zM760 -111l-197 -309h-139l133 309h203z" />
    <glyph glyph-name="Rcaron" unicode="&#x158;" 
d="M799 551l237 -551h-190l-217 522h-191v-522h-172v1434h391q137 0 232 -95q96 -93 96 -225v-272q0 -98 -49 -175.5t-137 -115.5zM811 836v280q0 63 -47 109.5t-113 46.5h-213v-590h213q66 0 113 45.5t47 108.5zM506 1530l-217 301h147l146 -168l151 168h150l-221 -301
h-156z" />
    <glyph glyph-name="rcaron" unicode="&#x159;" 
d="M811 1044q149 0 225 -94q80 -92 80 -219h-162q0 68 -45 117t-112 49q-88 0 -152 -70q-65 -71 -65 -168v-512h428v-147h-807v147h215v877h149l6 -109q2 4 29 35q22 25 80 58q62 36 131 36zM698 1120l-217 301h148l145 -168l152 168h149l-221 -301h-156z" />
    <glyph glyph-name="Sacute" unicode="&#x15a;" 
d="M623 -20q-193 0 -299 112q-109 115 -109 279v41h174v-45q0 -100 63 -163t171 -63q101 0 165 57.5t64 141.5q0 98 -59.5 172.5t-157.5 122.5l-32 16q-49 24 -74.5 37.5t-71.5 41t-71.5 49t-58.5 56t-50.5 68.5t-29.5 80t-11 96q0 161 112 267q114 108 277 108
q175 0 280 -117q107 -116 107 -252v-12h-170q0 87 -63 151t-154 64t-153 -57t-62 -141q0 -137 217 -250q46 -21 78.5 -38t77.5 -44.5t77 -53.5t66 -64t55 -78.5t34 -93.5t13 -112q0 -151 -110 -264q-106 -112 -295 -112zM1001 1831l-311 -301h-172l250 301h233z" />
    <glyph glyph-name="sacute" unicode="&#x15b;" 
d="M616 -20q-81 0 -146 22t-106 57t-68.5 79.5t-38.5 87t-11 83.5v15h164v-19q0 -72 54.5 -125t151.5 -53q86 0 141.5 43t55.5 109q0 104 -186 167q-37 12 -52.5 17.5t-51.5 19t-53.5 22.5t-47.5 25.5t-46 30.5t-37 35t-31 42.5t-17.5 49t-7.5 57.5q0 133 96 216t250 83
q167 0 254 -96q88 -94 88 -200v-17h-168q0 69 -47.5 117.5t-126.5 48.5q-77 0 -125.5 -39t-48.5 -100q0 -86 184 -150q57 -17 95.5 -32t89.5 -43.5t82 -61t53 -84t22 -113.5q0 -123 -107 -208q-109 -86 -258 -86zM997 1421l-311 -301h-172l250 301h233z" />
    <glyph glyph-name="Scircumflex" unicode="&#x15c;" 
d="M623 -20q-193 0 -299 112q-109 115 -109 279v41h174v-45q0 -100 63 -163t171 -63q101 0 165 57.5t64 141.5q0 98 -59.5 172.5t-157.5 122.5l-32 16q-49 24 -74.5 37.5t-71.5 41t-71.5 49t-58.5 56t-50.5 68.5t-29.5 80t-11 96q0 161 112 267q114 108 277 108
q175 0 280 -117q107 -116 107 -252v-12h-170q0 87 -63 151t-154 64t-153 -57t-62 -141q0 -137 217 -250q46 -21 78.5 -38t77.5 -44.5t77 -53.5t66 -64t55 -78.5t34 -93.5t13 -112q0 -151 -110 -264q-106 -112 -295 -112zM700 1831l218 -301h-148l-145 168l-152 -168h-149
l221 301h155z" />
    <glyph glyph-name="scircumflex" unicode="&#x15d;" 
d="M616 -20q-81 0 -146 22t-106 57t-68.5 79.5t-38.5 87t-11 83.5v15h164v-19q0 -72 54.5 -125t151.5 -53q86 0 141.5 43t55.5 109q0 104 -186 167q-37 12 -52.5 17.5t-51.5 19t-53.5 22.5t-47.5 25.5t-46 30.5t-37 35t-31 42.5t-17.5 49t-7.5 57.5q0 133 96 216t250 83
q167 0 254 -96q88 -94 88 -200v-17h-168q0 69 -47.5 117.5t-126.5 48.5q-77 0 -125.5 -39t-48.5 -100q0 -86 184 -150q57 -17 95.5 -32t89.5 -43.5t82 -61t53 -84t22 -113.5q0 -123 -107 -208q-109 -86 -258 -86zM705 1421l217 -301h-148l-145 168l-152 -168h-149l221 301
h156z" />
    <glyph glyph-name="Scedilla" unicode="&#x15e;" 
d="M670 -369h-142v107h123q26 0 36.5 24t0 48t-36.5 24h-102v152q-155 20 -244.5 127t-89.5 258v41h174v-45q0 -100 63 -163t171 -63q101 0 165 57.5t64 141.5q0 98 -59.5 172.5t-157.5 122.5l-32 16q-49 24 -74.5 37.5t-71.5 41t-71.5 49t-58.5 56t-50.5 68.5t-29.5 80
t-11 96q0 161 112 267q114 108 277 108q175 0 280 -117q107 -116 107 -252v-12h-170q0 87 -63 151t-154 64t-153 -57t-62 -141q0 -137 217 -250q46 -21 78.5 -38t77.5 -44.5t77 -53.5t66 -64t55 -78.5t34 -93.5t13 -112q0 -137 -96 -250q-93 -109 -264 -124v-39
q66 0 114.5 -46.5t48.5 -109.5q0 -66 -47.5 -111t-113.5 -45z" />
    <glyph glyph-name="scedilla" unicode="&#x15f;" 
d="M655 -369h-141v107h123q26 0 36.5 24t0 48t-36.5 24h-102v154q-148 21 -220 118q-69 97 -69 203v15h164v-19q0 -72 54.5 -125t151.5 -53q86 0 141.5 43t55.5 109q0 104 -186 167q-37 12 -52.5 17.5t-51.5 19t-53.5 22.5t-47.5 25.5t-46 30.5t-37 35t-31 42.5t-17.5 49
t-7.5 57.5q0 133 96 216t250 83q167 0 254 -96q88 -94 88 -200v-17h-168q0 69 -47.5 117.5t-126.5 48.5q-77 0 -125.5 -39t-48.5 -100q0 -86 184 -150q57 -17 95.5 -32t89.5 -43.5t82 -61t53 -84t22 -113.5q0 -116 -94 -198q-97 -85 -234 -94v-39q66 0 115 -46.5t49 -109.5
q0 -65 -47.5 -110.5t-114.5 -45.5z" />
    <glyph glyph-name="Scaron" unicode="&#x160;" 
d="M623 -20q-193 0 -299 112q-109 115 -109 279v41h174v-45q0 -100 63 -163t171 -63q101 0 165 57.5t64 141.5q0 98 -59.5 172.5t-157.5 122.5l-32 16q-49 24 -74.5 37.5t-71.5 41t-71.5 49t-58.5 56t-50.5 68.5t-29.5 80t-11 96q0 161 112 267q114 108 277 108
q175 0 280 -117q107 -116 107 -252v-12h-170q0 87 -63 151t-154 64t-153 -57t-62 -141q0 -137 217 -250q46 -21 78.5 -38t77.5 -44.5t77 -53.5t66 -64t55 -78.5t34 -93.5t13 -112q0 -151 -110 -264q-106 -112 -295 -112zM547 1530l-217 301h147l146 -168l151 168h150
l-222 -301h-155z" />
    <glyph glyph-name="scaron" unicode="&#x161;" 
d="M616 -20q-81 0 -146 22t-106 57t-68.5 79.5t-38.5 87t-11 83.5v15h164v-19q0 -72 54.5 -125t151.5 -53q86 0 141.5 43t55.5 109q0 104 -186 167q-37 12 -52.5 17.5t-51.5 19t-53.5 22.5t-47.5 25.5t-46 30.5t-37 35t-31 42.5t-17.5 49t-7.5 57.5q0 133 96 216t250 83
q167 0 254 -96q88 -94 88 -200v-17h-168q0 69 -47.5 117.5t-126.5 48.5q-77 0 -125.5 -39t-48.5 -100q0 -86 184 -150q57 -17 95.5 -32t89.5 -43.5t82 -61t53 -84t22 -113.5q0 -123 -107 -208q-109 -86 -258 -86zM549 1120l-217 301h147l146 -168l151 168h150l-221 -301
h-156z" />
    <glyph glyph-name="uni0162" unicode="&#x162;" 
d="M528 1272h-317v162h809v-162h-320v-1272h-172v1272zM729 -111l-197 -309h-139l133 309h203z" />
    <glyph glyph-name="uni0163" unicode="&#x163;" 
d="M342 1292h166v-268h520v-147h-520v-551q0 -90 54.5 -144.5t150.5 -54.5q82 0 138 56.5t56 138.5h156q0 -155 -95.5 -248.5t-258.5 -93.5q-177 0 -272 91t-95 238v568h-186v147h186v268zM782 -111l-196 -309h-140l134 309h202z" />
    <glyph glyph-name="Tcaron" unicode="&#x164;" 
d="M528 1272h-317v162h809v-162h-320v-1272h-172v1272zM539 1530l-217 301h147l145 -168l152 168h149l-221 -301h-155z" />
    <glyph glyph-name="tcaron" unicode="&#x165;" 
d="M342 1292h166v-268h520v-147h-520v-551q0 -90 54.5 -144.5t150.5 -54.5q82 0 138 56.5t56 138.5h156q0 -155 -95.5 -248.5t-258.5 -93.5q-177 0 -272 91t-95 238v568h-186v147h186v268zM1110 1436l-197 -310h-139l133 310h203z" />
    <glyph glyph-name="Tbar" unicode="&#x166;" 
d="M528 678h-223v156h223v438h-319v162h813v-162h-322v-438h226v-156h-226v-678h-172v678z" />
    <glyph glyph-name="tbar" unicode="&#x167;" 
d="M342 500h-176v141h176v236h-186v147h186v268h166v-268h520v-147h-520v-236h274v-141h-274v-174q0 -90 54.5 -144.5t150.5 -54.5q82 0 138 56.5t56 138.5h156q0 -155 -95.5 -248.5t-258.5 -93.5q-177 0 -272 91t-95 238v191z" />
    <glyph glyph-name="Utilde" unicode="&#x168;" 
d="M846 1434h172v-1078q0 -155 -111 -266q-110 -110 -291 -110t-294 110q-111 111 -111 268v1076h172v-1078q0 -90 63.5 -152.5t169.5 -62.5q103 0 166.5 62.5t63.5 150.5v1080zM487 1782q58 0 138 -45t104 -45q30 0 48 14.5t18 38.5v31h141v-37q0 -85 -52.5 -137
t-138.5 -52q-55 0 -135 45q-77 45 -106 45q-30 0 -48 -14.5t-18 -38.5v-31h-141v37q0 85 52 137t138 52z" />
    <glyph glyph-name="utilde" unicode="&#x169;" 
d="M209 360v664h164v-670q0 -101 60.5 -164t166.5 -63q96 0 174 66q78 69 78 145v686h164v-1024h-148l-6 109q-8 -10 -35 -37q-18 -18 -96 -58q-69 -34 -149 -34q-171 0 -272 106t-101 274zM485 1372q58 0 138 -45t104 -45q30 0 48 14.5t18 38.5v31h141v-37
q0 -85 -52.5 -136.5t-138.5 -51.5q-55 0 -135 45q-77 45 -106 45q-30 0 -48 -14.5t-18 -38.5v-31h-141v37q0 85 52 136.5t138 51.5z" />
    <glyph glyph-name="Umacron" unicode="&#x16a;" 
d="M846 1434h172v-1078q0 -155 -111 -266q-110 -110 -291 -110t-294 110q-111 111 -111 268v1076h172v-1078q0 -90 63.5 -152.5t169.5 -62.5q103 0 166.5 62.5t63.5 150.5v1080zM926 1602h-619v151h619v-151z" />
    <glyph glyph-name="umacron" unicode="&#x16b;" 
d="M209 360v664h164v-670q0 -101 60.5 -164t166.5 -63q96 0 174 66q78 69 78 145v686h164v-1024h-148l-6 109q-8 -10 -35 -37q-18 -18 -96 -58q-69 -34 -149 -34q-171 0 -272 106t-101 274zM924 1192h-619v151h619v-151z" />
    <glyph glyph-name="Ubreve" unicode="&#x16c;" 
d="M846 1434h172v-1078q0 -155 -111 -266q-110 -110 -291 -110t-294 110q-111 111 -111 268v1076h172v-1078q0 -90 63.5 -152.5t169.5 -62.5q103 0 166.5 62.5t63.5 150.5v1080zM340 1812h154q0 -16 3 -31t13 -40.5t37.5 -41.5t68.5 -16q121 0 121 129h154q0 -107 -74 -184
q-70 -76 -170 -76h-63q-102 0 -172 76q-72 78 -72 184z" />
    <glyph glyph-name="ubreve" unicode="&#x16d;" 
d="M209 360v664h164v-670q0 -101 60.5 -164t166.5 -63q96 0 174 66q78 69 78 145v686h164v-1024h-148l-6 109q-8 -10 -35 -37q-18 -18 -96 -58q-69 -34 -149 -34q-171 0 -272 106t-101 274zM338 1403h154q0 -16 3 -31t13 -40.5t37.5 -41.5t68.5 -16q121 0 121 129h154
q0 -107 -74 -184q-70 -76 -170 -76h-63q-102 0 -172 76q-72 78 -72 184z" />
    <glyph glyph-name="Uring" unicode="&#x16e;" 
d="M846 1434h172v-1078q0 -155 -111 -266q-110 -110 -291 -110t-294 110q-111 111 -111 268v1076h172v-1078q0 -90 63.5 -152.5t169.5 -62.5q103 0 166.5 62.5t63.5 150.5v1080zM569 1739q-19 -19 -19 -47t19 -47t47.5 -19t47.5 19q20 19 20 47t-20 47q-19 20 -47.5 20
t-47.5 -20zM494 1567q-51 51 -51 122.5t51 122.5t122.5 51t122.5 -51t51 -122.5t-51 -122.5t-122.5 -51t-122.5 51z" />
    <glyph glyph-name="uring" unicode="&#x16f;" 
d="M209 360v664h164v-670q0 -101 60.5 -164t166.5 -63q96 0 174 66q78 69 78 145v686h164v-1024h-148l-6 109q-8 -10 -35 -37q-18 -18 -96 -58q-69 -34 -149 -34q-171 0 -272 106t-101 274zM567 1329q-19 -19 -19 -47t19 -47t47.5 -19t47.5 19q20 19 20 47t-20 47
q-19 20 -47.5 20t-47.5 -20zM492 1157q-51 51 -51 123t51 123t122.5 51t122.5 -51t51 -123t-51 -123t-122.5 -51t-122.5 51z" />
    <glyph glyph-name="Uhungarumlaut" unicode="&#x170;" 
d="M846 1434h172v-1078q0 -155 -111 -266q-110 -110 -291 -110t-294 110q-111 111 -111 268v1076h172v-1078q0 -90 63.5 -152.5t169.5 -62.5q103 0 166.5 62.5t63.5 150.5v1080zM784 1833l-274 -287h-150l203 287h221zM1120 1833l-274 -287h-150l203 287h221z" />
    <glyph glyph-name="uhungarumlaut" unicode="&#x171;" 
d="M209 360v664h164v-670q0 -101 60.5 -164t166.5 -63q96 0 174 66q78 69 78 145v686h164v-1024h-148l-6 109q-8 -10 -35 -37q-18 -18 -96 -58q-69 -34 -149 -34q-171 0 -272 106t-101 274zM791 1423l-275 -286h-149l202 286h222zM1126 1423l-274 -286h-150l203 286h221z
" />
    <glyph glyph-name="Uogonek" unicode="&#x172;" 
d="M846 1434h172v-1078q0 -173 -129 -284l-58 -49q-22 -19 -90 -101q-57 -69 -57 -112q0 -52 66 -52h96v-127h-127q-80 0 -126 41.5t-46 104.5q0 47 29 100t63 82l31 25q-46 -4 -54 -4q-181 0 -294 110q-111 111 -111 268v1076h172v-1078q0 -90 63.5 -152.5t169.5 -62.5
q103 0 166.5 62.5t63.5 150.5v1080z" />
    <glyph glyph-name="uogonek" unicode="&#x173;" 
d="M209 360v664h164v-670q0 -101 60.5 -164t166.5 -63q96 0 174 66q78 69 78 145v686h164v-1024l-41 -33q-30 -26 -66 -73q-41 -53 -41 -84q0 -52 47 -52h101v-127h-123q-71 0 -116.5 43.5t-45.5 102.5q0 61 37.5 116.5t83.5 81.5l39 25h-23l-6 109q-8 -10 -35 -37
q-18 -18 -96 -58q-69 -34 -149 -34q-171 0 -272 106t-101 274z" />
    <glyph glyph-name="Wcircumflex" unicode="&#x174;" 
d="M831 133l52 705v596h168v-611l-97 -823h-235l-105 590h-8l-112 -590h-228l-90 823v611h170v-596l51 -705h9l106 569h205l106 -569h8zM692 1831l217 -301h-147l-146 168l-151 -168h-150l222 301h155z" />
    <glyph glyph-name="wcircumflex" unicode="&#x175;" 
d="M840 129l49 514v381h164v-397l-90 -627h-240l-107 500h-10l-102 -500h-238l-90 627v397h164v-381l49 -514h17l104 500h205l108 -500h17zM692 1421l217 -301h-147l-146 168l-151 -168h-150l222 301h155z" />
    <glyph glyph-name="Ycircumflex" unicode="&#x176;" 
d="M152 1434h190l272 -564l271 564h192l-377 -756v-678h-172v678zM692 1831l217 -301h-147l-146 168l-151 -168h-150l222 301h155z" />
    <glyph glyph-name="ycircumflex" unicode="&#x177;" 
d="M158 1024h178l280 -793l279 793h176l-526 -1393h-166l145 402zM696 1421l217 -301h-147l-145 168l-152 -168h-150l222 301h155z" />
    <glyph glyph-name="Ydieresis" unicode="&#x178;" 
d="M152 1434h190l272 -564l271 564h192l-377 -756v-678h-172v678zM528 1604h-174v174h174v-174zM874 1604h-174v174h174v-174z" />
    <glyph glyph-name="Zacute" unicode="&#x179;" 
d="M1010 1434v-170l-590 -1102h588v-162h-791v170l588 1102h-557v162h762zM977 1831l-311 -301h-172l249 301h234z" />
    <glyph glyph-name="zacute" unicode="&#x17a;" 
d="M993 1024v-158l-573 -719h581v-147h-776v154l576 723h-547v147h739zM963 1421l-312 -301h-172l250 301h234z" />
    <glyph glyph-name="Zdotaccent" unicode="&#x17b;" 
d="M1010 1434v-170l-590 -1102h588v-162h-791v170l588 1102h-557v162h762zM705 1602h-183v182h183v-182z" />
    <glyph glyph-name="zdotaccent" unicode="&#x17c;" 
d="M993 1024v-158l-573 -719h581v-147h-776v154l576 723h-547v147h739zM721 1192h-182v182h182v-182z" />
    <glyph glyph-name="Zcaron" unicode="&#x17d;" 
d="M1010 1434v-170l-590 -1102h588v-162h-791v170l588 1102h-557v162h762zM539 1530l-217 301h147l145 -168l152 168h149l-221 -301h-155z" />
    <glyph glyph-name="zcaron" unicode="&#x17e;" 
d="M993 1024v-158l-573 -719h581v-147h-776v154l576 723h-547v147h739zM563 1120l-217 301h148l145 -168l152 168h149l-221 -301h-156z" />
    <glyph glyph-name="florin" unicode="&#x192;" 
d="M655 1085v-249h416v-156h-416v-1049h-159v1049h-332v156h332v272q0 156 93.5 251t252.5 95q75 0 141.5 -16.5t93.5 -36.5l27 -17l-90 -122q-67 43 -174 43q-185 0 -185 -220z" />
    <glyph glyph-name="uni01F4" unicode="&#x1f4;" 
d="M637 737h385v-381q0 -151 -115 -266q-113 -110 -291 -110q-184 0 -297 110q-110 113 -110 268v719q0 156 110 266q114 111 297 111q197 0 299 -117q105 -117 105 -262h-174q0 91 -66 154t-164 63q-105 0 -169 -60t-64 -153v-723q0 -92 64.5 -153.5t168.5 -61.5
q101 0 165.5 61.5t64.5 151.5v224h-209v159zM940 1831l-311 -301h-172l250 301h233z" />
    <glyph glyph-name="uni01F5" unicode="&#x1f5;" 
d="M842 -10h-424q-51 0 -87 -34t-36 -81t36 -80t87 -33h422q51 0 87 34t36 81t-35 80t-86 33zM778 598v137q0 71 -50.5 118.5t-123.5 47.5q-76 0 -128 -47.5t-52 -118.5v-137q0 -69 52.5 -117.5t127.5 -48.5q70 0 122 49t52 117zM997 1110h37v-141h-35q-77 0 -104 -41
l-16 -23q57 -63 57 -170v-135q0 -124 -102 -219q-101 -94 -230 -94v-164h260q105 0 177.5 -71.5t72.5 -176.5t-72.5 -174.5t-179.5 -69.5h-469q-106 0 -178 69.5t-72 174.5q0 108 71.5 178t178.5 70h53v205q-59 21 -118 92q-60 72 -60 180v135q0 129 99 217q103 92 237 92
q96 0 178 -49l27 31q40 47 79.5 65.5t108.5 18.5zM932 1421l-311 -301h-172l249 301h234z" />
    <glyph glyph-name="uni0218" unicode="&#x218;" 
d="M623 -20q-193 0 -299 112q-109 115 -109 279v41h174v-45q0 -100 63 -163t171 -63q101 0 165 57.5t64 141.5q0 98 -59.5 172.5t-157.5 122.5l-32 16q-49 24 -74.5 37.5t-71.5 41t-71.5 49t-58.5 56t-50.5 68.5t-29.5 80t-11 96q0 161 112 267q114 108 277 108
q175 0 280 -117q107 -116 107 -252v-12h-170q0 87 -63 151t-154 64t-153 -57t-62 -141q0 -137 217 -250q46 -21 78.5 -38t77.5 -44.5t77 -53.5t66 -64t55 -78.5t34 -93.5t13 -112q0 -151 -110 -264q-106 -112 -295 -112zM745 -111l-196 -309h-139l133 309h202z" />
    <glyph glyph-name="uni0219" unicode="&#x219;" 
d="M616 -20q-81 0 -146 22t-106 57t-68.5 79.5t-38.5 87t-11 83.5v15h164v-19q0 -72 54.5 -125t151.5 -53q86 0 141.5 43t55.5 109q0 104 -186 167q-37 12 -52.5 17.5t-51.5 19t-53.5 22.5t-47.5 25.5t-46 30.5t-37 35t-31 42.5t-17.5 49t-7.5 57.5q0 133 96 216t250 83
q167 0 254 -96q88 -94 88 -200v-17h-168q0 69 -47.5 117.5t-126.5 48.5q-77 0 -125.5 -39t-48.5 -100q0 -86 184 -150q57 -17 95.5 -32t89.5 -43.5t82 -61t53 -84t22 -113.5q0 -123 -107 -208q-109 -86 -258 -86zM752 -111l-197 -309h-139l133 309h203z" />
    <glyph glyph-name="uni021A" unicode="&#x21a;" 
d="M727 -111l-197 -309h-139l133 309h203zM528 1272h-317v162h809v-162h-320v-1272h-172v1272z" />
    <glyph glyph-name="uni021B" unicode="&#x21b;" 
d="M342 1292h166v-268h520v-147h-520v-551q0 -90 54.5 -144.5t150.5 -54.5q82 0 138 56.5t56 138.5h156q0 -155 -95.5 -248.5t-258.5 -93.5q-177 0 -272 91t-95 238v568h-186v147h186v268zM782 -111l-196 -309h-140l134 309h202z" />
    <glyph glyph-name="uni02BC" unicode="&#x2bc;" 
d="M557 1118h-137l182 309h207z" />
    <glyph glyph-name="circumflex" unicode="&#x2c6;" 
d="M688 1421l217 -301h-147l-146 168l-151 -168h-150l221 301h156z" />
    <glyph glyph-name="caron" unicode="&#x2c7;" 
d="M535 1120l-218 301h148l145 -168l152 168h149l-221 -301h-155z" />
    <glyph glyph-name="breve" unicode="&#x2d8;" 
d="M338 1403h154q0 -16 3 -31t13 -40.5t37.5 -41.5t68.5 -16q121 0 121 129h154q0 -107 -74 -184q-70 -76 -170 -76h-63q-102 0 -172 76q-72 78 -72 184z" />
    <glyph glyph-name="dotaccent" unicode="&#x2d9;" 
d="M705 1192h-183v182h183v-182z" />
    <glyph glyph-name="ring" unicode="&#x2da;" 
d="M565 1329q-19 -19 -19 -47t19 -47t47 -19t47 19q20 19 20 47t-20 47q-19 20 -47 20t-47 -20zM489 1157q-51 51 -51 123t51 123t123 51t123 -51t51 -123t-51 -123t-123 -51t-123 51z" />
    <glyph glyph-name="ogonek" unicode="&#x2db;" 
d="M573 -25l39 25h125l-41 -33q-27 -23 -65 -73q-41 -53 -41 -84q0 -52 47 -52h100v-127h-123q-71 0 -116 43.5t-45 102.5q0 61 37 116.5t83 81.5z" />
    <glyph glyph-name="tilde" unicode="&#x2dc;" 
d="M485 1372q58 0 138 -45t104 -45q30 0 48 14.5t18 38.5v31h141v-37q0 -85 -52.5 -136.5t-138.5 -51.5q-55 0 -135 45q-77 45 -106 45q-30 0 -48 -14.5t-18 -38.5v-31h-141v37q0 85 52 136.5t138 51.5z" />
    <glyph glyph-name="hungarumlaut" unicode="&#x2dd;" 
d="M676 1423l-275 -286h-149l203 286h221zM1012 1423l-275 -286h-149l203 286h221z" />
    <glyph glyph-name="acutecomb" unicode="&#x301;" 
d="M860 1421l-311 -301h-172l250 301h233z" />
    <glyph glyph-name="uni0394" unicode="&#x394;" 
d="M1036 0h-846l279 1434h289zM629 1284h-31l-207 -1124h445z" />
    <glyph glyph-name="uni03A9" unicode="&#x3a9;" 
d="M739 274q46 24 77.5 76t31.5 111v618q0 89 -64.5 151t-167.5 62q-105 0 -169 -62t-64 -151v-616q0 -62 32 -113.5t83 -75.5q34 -15 34 -43v-231h-329v160h192q-90 47 -138 127t-48 178v612q0 151 110 264t297 113q181 0 293 -115q113 -113 113 -262v-614
q0 -95 -49 -175.5t-139 -127.5h200v-160h-329v231q0 28 34 43z" />
    <glyph glyph-name="uni03BC" unicode="&#x3bc;" 
d="M401 -369h-157v1393h159v-698q0 -82 56.5 -140.5t134.5 -58.5q88 0 151 57q66 60 66 135v705h160v-813q1 -25 21.5 -42t47.5 -17h21v-152h-21q-129 0 -192 100q-94 -120 -268 -120q-110 0 -179 69v-418z" />
    <glyph glyph-name="pi" unicode="&#x3c0;" 
d="M772 0v877h-317v-877h-164v877h-127v147h899v-147h-127v-877h-164z" />
    <glyph glyph-name="uni0401" unicode="&#x401;" 
d="M276 0v1434h701v-162h-528v-436h479v-160h-479v-514h544v-162h-717zM563 1604h-174v174h174v-174zM909 1604h-174v174h174v-174z" />
    <glyph glyph-name="uni0402" unicode="&#x402;" 
d="M1067 600v-272q0 -142 -98 -236q-95 -92 -258 -92h-19v162h17q88 0 137 46.5t49 131.5v246q0 88 -50 138t-136 50q-52 0 -100 -13.5t-70 -29.5l-19 -14v-717h-172v1276h-254v158h735v-158h-309v-381q65 41 219 41q143 0 235.5 -92t92.5 -244z" />
    <glyph glyph-name="uni0403" unicode="&#x403;" 
d="M563 1272v-1272h-174v1434h709v-162h-535zM1108 1831l-311 -301h-172l249 301h234z" />
    <glyph glyph-name="uni0404" unicode="&#x404;" 
d="M406 836h352v-160h-352v-320q0 -91 63.5 -153t157.5 -62q88 0 153 62q66 66 66 151v43h174v-41q0 -158 -113 -268q-114 -108 -280 -108q-171 0 -285 108q-111 111 -111 270v719q0 158 111 266q111 111 279 111t276 -111q109 -109 109 -268h-172q0 91 -61.5 154t-151.5 63
q-93 0 -154 -62t-61 -155v-239z" />
    <glyph glyph-name="uni0405" unicode="&#x405;" 
d="M623 -20q-193 0 -299 112q-109 115 -109 279v41h174v-45q0 -100 63 -163t171 -63q101 0 165 57.5t64 141.5q0 98 -59.5 172.5t-157.5 122.5l-32 16q-49 24 -74.5 37.5t-71.5 41t-71.5 49t-58.5 56t-50.5 68.5t-29.5 80t-11 96q0 161 112 267q114 108 277 108
q175 0 280 -117q107 -116 107 -252v-12h-170q0 87 -63 151t-154 64t-153 -57t-62 -141q0 -137 217 -250q46 -21 78.5 -38t77.5 -44.5t77 -53.5t66 -64t55 -78.5t34 -93.5t13 -112q0 -151 -110 -264q-106 -112 -295 -112z" />
    <glyph glyph-name="uni0406" unicode="&#x406;" 
d="M528 1274h-309v160h791v-160h-310v-1114h310v-160h-791v160h309v1114z" />
    <glyph glyph-name="uni0407" unicode="&#x407;" 
d="M528 1274h-309v160h791v-160h-310v-1114h310v-160h-791v160h309v1114zM528 1604h-174v174h174v-174zM874 1604h-174v174h174v-174z" />
    <glyph glyph-name="uni0408" unicode="&#x408;" 
d="M817 1274h-530v160h704v-1076q0 -157 -114 -268q-113 -110 -275 -110h-10q-161 0 -275 108q-112 109 -112 268v109h172v-111q0 -88 63 -151q65 -62 156 -62q94 0 157.5 62t63.5 153v918z" />
    <glyph glyph-name="uni0409" unicode="&#x409;" 
d="M264 1434h484v-598h102q135 0 225 -93t90 -227v-197q0 -134 -90 -227q-89 -92 -225 -92h-275v1272h-159l-51 -996q-11 -128 -93.5 -208t-214.5 -80h-22v151q20 0 47 6q51 10 84.5 60.5t38.5 120.5q8 110 26 440q8 139 23 471zM991 317v205q0 67 -41.5 110.5t-107.5 43.5
h-94v-514h94q65 0 107 44t42 111z" />
    <glyph glyph-name="uni040A" unicode="&#x40a;" 
d="M575 1434h173v-598h102q135 0 225 -93t90 -227v-197q0 -134 -90 -227q-89 -92 -225 -92h-275v676h-284v-676h-172v1434h172v-598h284v598zM991 317v205q0 67 -41.5 110.5t-107.5 43.5h-94v-514h94q65 0 107 44t42 111z" />
    <glyph glyph-name="uni040B" unicode="&#x40b;" 
d="M76 1276v158h715v-158h-289v-381q65 41 219 41q143 0 235.5 -92t92.5 -244v-600h-172v586q0 88 -50.5 138t-136.5 50q-52 0 -100 -13.5t-70 -29.5l-18 -14v-717h-172v1276h-254z" />
    <glyph glyph-name="uni040C" unicode="&#x40c;" 
d="M285 1434h174v-600h69l385 600h201l-448 -672l471 -762h-199l-416 676h-63v-676h-174v1434zM1020 1841l-311 -301h-172l249 301h234z" />
    <glyph glyph-name="uni040E" unicode="&#x40e;" 
d="M354 1817h154q0 -142 96 -142h53q95 0 95 142h153q0 -119 -65.5 -190t-177.5 -71h-64q-114 0 -179 70.5t-65 190.5zM899 1434h180l-583 -1434h-179l222 541l-369 893h192l265 -703z" />
    <glyph glyph-name="uni040F" unicode="&#x40f;" 
d="M528 -307v307h-309v1434h172v-1276h445v1276h172v-1434h-312v-307h-168z" />
    <glyph glyph-name="uni0410" unicode="&#x410;" 
d="M221 612l260 822h269l260 -826v-608h-172v457h-447v-457h-170v612zM399 616h435l-199 662h-39z" />
    <glyph glyph-name="uni0411" unicode="&#x411;" 
d="M276 0v1434h631v-162h-458v-418h219q137 0 231 -94q96 -93 96 -228v-213q0 -131 -96 -227q-95 -92 -231 -92h-392zM821 317v222q0 63 -47.5 108t-114.5 45h-210v-530h210q68 0 115 44.5t47 110.5z" />
    <glyph glyph-name="uni0412" unicode="&#x412;" 
d="M629 1272h-197v-441h207q78 0 123 43.5t45 118.5v119q0 69 -49 114.5t-129 45.5zM629 676h-197v-514h186q91 0 144 50.5t53 131.5v148q0 75 -49 129.5t-137 54.5zM260 0v1434h358q163 0 259 -93t96 -227v-113q0 -135 -117 -243q131 -107 131 -266v-148q0 -156 -108 -250
q-107 -94 -275 -94h-344z" />
    <glyph glyph-name="uni0413" unicode="&#x413;" 
d="M563 1272v-1272h-174v1434h709v-162h-535z" />
    <glyph glyph-name="uni0414" unicode="&#x414;" horiz-adv-x="1230" 
d="M123 -307v469h57q96 0 117 164q12 91 123 1108h557v-1272h119v-469h-172v307h-629v-307h-172zM459 313q-16 -103 -45 -137l-8 -14h399v1110h-242q-84 -813 -104 -959z" />
    <glyph glyph-name="uni0415" unicode="&#x415;" 
d="M276 0v1434h701v-162h-528v-436h479v-160h-479v-514h544v-162h-717z" />
    <glyph glyph-name="uni0416" unicode="&#x416;" 
d="M66 0l294 758l-266 676h170l230 -600h45v600h153v-600h45l232 600h168l-267 -676l295 -758h-172l-254 676h-47v-676h-153v676h-47l-254 -676h-172z" />
    <glyph glyph-name="uni0417" unicode="&#x417;" 
d="M659 676h-174v160h156q77 0 123.5 55.5t46.5 128.5v57q0 95 -58 156t-153 61q-88 0 -145 -61t-62 -158h-168q0 152 111 266q110 113 276 113q164 0 269 -111q104 -107 104 -268v-57q0 -71 -33.5 -142t-83.5 -110q129 -102 129 -250v-158q0 -157 -114 -268
q-113 -110 -279 -110q-168 0 -282 114q-111 114 -111 303h170q0 -118 61 -187t162 -69q91 0 155 62.5t64 152.5v158q0 66 -48.5 114t-115.5 48z" />
    <glyph glyph-name="uni0418" unicode="&#x418;" 
d="M1008 1434v-1434h-160v768l10 342l-473 -1110h-166v1434h160v-760l-10 -348l473 1108h166z" />
    <glyph glyph-name="uni0419" unicode="&#x419;" 
d="M340 1812h154q0 -141 122 -141q69 0 95 34.5t26 106.5h154q0 -119 -66 -189.5t-178 -70.5h-63q-114 0 -179 70t-65 190zM1008 1434v-1434h-160v768l10 342l-473 -1110h-166v1434h160v-760l-10 -348l473 1108h166z" />
    <glyph glyph-name="uni041A" unicode="&#x41a;" 
d="M285 1434h174v-600h69l385 600h201l-448 -672l471 -762h-199l-416 676h-63v-676h-174v1434z" />
    <glyph glyph-name="uni041B" unicode="&#x41b;" 
d="M156 -12h-41v157q2 0 47 5q106 21 127 176q12 91 123 1108h557v-1434h-172v1272h-240q-12 -102 -55 -502q-24 -221 -58 -494q-19 -136 -94.5 -212t-193.5 -76z" />
    <glyph glyph-name="uni041C" unicode="&#x41c;" 
d="M866 680l6 494l-182 -496h-151l-185 496q6 -194 6 -498v-676h-163v1434h213l208 -590l199 590h215v-1434h-166v680z" />
    <glyph glyph-name="uni041D" unicode="&#x41d;" 
d="M834 836v598h174v-1434h-174v676h-443v-676h-172v1434h172v-598h443z" />
    <glyph glyph-name="uni041E" unicode="&#x41e;" 
d="M1020 1077v-721q0 -151 -113 -264q-109 -112 -293 -112q-188 0 -297 112q-110 113 -110 266v719q0 151 110 264t297 113q181 0 293 -115q113 -113 113 -262zM846 354v725q0 89 -64.5 151t-167.5 62q-105 0 -169 -62t-64 -151v-723q0 -91 63.5 -153t169.5 -62
q103 0 167.5 62t64.5 151z" />
    <glyph glyph-name="uni041F" unicode="&#x41f;" 
d="M219 1434h789v-1434h-172v1276h-445v-1276h-172v1434z" />
    <glyph glyph-name="uni0420" unicode="&#x420;" 
d="M680 498h-219v-498h-172v1434h391q136 0 231 -95q97 -94 97 -225v-295q0 -132 -97 -229q-95 -92 -231 -92zM834 813v303q0 66 -47 111t-115 45h-211v-613h211q67 0 114.5 45.5t47.5 108.5z" />
    <glyph glyph-name="uni0421" unicode="&#x421;" 
d="M852 397h174v-41q0 -158 -113 -268q-114 -108 -280 -108q-171 0 -285 108q-110 110 -110 270v719q0 155 114 266q117 111 281 111q168 0 276 -111q109 -109 109 -268h-172q0 91 -61.5 154t-151.5 63q-92 0 -156.5 -63t-64.5 -154v-719q0 -91 63.5 -153t157.5 -62
q88 0 153 62q66 66 66 151v43z" />
    <glyph glyph-name="uni0422" unicode="&#x422;" 
d="M528 1272h-317v162h809v-162h-320v-1272h-172v1272z" />
    <glyph glyph-name="uni0423" unicode="&#x423;" 
d="M899 1434h180l-583 -1434h-179l222 541l-369 893h192l265 -703z" />
    <glyph glyph-name="uni0424" unicode="&#x424;" 
d="M526 1454h172v-133q175 -9 277 -123q104 -110 104 -254v-422q0 -146 -102 -260q-101 -110 -279 -119v-163h-172v163q-175 9 -278 121q-101 113 -101 258v422q0 142 103 254q102 114 276 123v133zM909 510v446q0 82 -58.5 143t-152.5 68v-872q94 7 152.5 69t58.5 146z
M317 956v-446q0 -84 57.5 -146t151.5 -69v872q-94 -7 -151.5 -68t-57.5 -143z" />
    <glyph glyph-name="uni0425" unicode="&#x425;" 
d="M184 1434h191l237 -519l240 519h188l-333 -689l362 -745h-188l-269 565l-266 -565h-188l360 745z" />
    <glyph glyph-name="uni0426" unicode="&#x426;" 
d="M924 -307v307h-705v1434h172v-1276h410v1276h172v-1276h123v-465h-172z" />
    <glyph glyph-name="uni0427" unicode="&#x427;" 
d="M209 1434h172v-586q0 -88 50 -138.5t136 -50.5q52 0 108 13.5t91 29.5l29 15v717h172v-1434h-172v539q-103 -41 -258 -41q-143 0 -235.5 92t-92.5 244v600z" />
    <glyph glyph-name="uni0428" unicode="&#x428;" 
d="M528 1434h172v-1276h191v1276h172v-1434h-899v1434h172v-1276h192v1276z" />
    <glyph glyph-name="uni0429" unicode="&#x429;" 
d="M528 1432h172v-1274h191v1274h172v-1274h123v-465h-172v307h-850v1432h172v-1274h192v1274z" />
    <glyph glyph-name="uni042A" unicode="&#x42a;" 
d="M934 317v205q0 63 -47.5 108.5t-114.5 45.5h-270v-514h270q68 0 115 44.5t47 110.5zM111 1272v162h391v-598h278q136 0 232 -93t96 -227v-197q0 -131 -96 -227q-95 -92 -232 -92h-450v1272h-219z" />
    <glyph glyph-name="uni042B" unicode="&#x42b;" 
d="M125 1434h172v-598h168q135 0 231 -93q97 -94 97 -227v-197q0 -130 -97 -227q-95 -92 -231 -92h-340v1434zM618 317v205q0 63 -47 108.5t-114 45.5h-160v-514h160q68 0 114.5 44.5t46.5 110.5zM956 1434h172v-1434h-172v1434z" />
    <glyph glyph-name="uni042C" unicode="&#x42c;" 
d="M279 1434h172v-598h278q136 0 232 -93t96 -227v-197q0 -131 -96 -227q-95 -92 -232 -92h-450v1434zM883 317v205q0 63 -47.5 108.5t-114.5 45.5h-270v-514h270q68 0 115 44.5t47 110.5z" />
    <glyph glyph-name="uni042D" unicode="&#x42d;" 
d="M823 676h-352v160h352v239q0 93 -61 155t-154 62q-90 0 -151.5 -63t-61.5 -154h-172q0 159 109 268q108 111 276 111t279 -111q110 -107 110 -266v-719q0 -161 -112 -270q-111 -108 -283 -108q-166 0 -280 108q-113 110 -113 268v41h174v-43q0 -88 63 -151
q65 -62 156 -62q94 0 157.5 62t63.5 153v320z" />
    <glyph glyph-name="uni042E" unicode="&#x42e;" 
d="M115 1434h168v-598h174v282q0 146 94 240q96 96 237 96q140 0 236 -96t96 -240v-803q0 -143 -96 -239t-236 -96q-141 0 -237 96q-94 94 -94 239v361h-174v-676h-168v1434zM954 307v819q0 70 -47.5 118t-118.5 48t-117 -48t-46 -118v-819q0 -70 46 -118t117 -48t118.5 48
t47.5 118z" />
    <glyph glyph-name="uni042F" unicode="&#x42f;" 
d="M379 0h-191l238 551q-88 38 -137 115.5t-49 175.5v272q0 134 94 225q95 95 233 95h391v-1434h-172v522h-190zM414 1116v-280q0 -63 46.5 -108.5t112.5 -45.5h213v590h-213q-66 0 -112.5 -46.5t-46.5 -109.5z" />
    <glyph glyph-name="uni0430" unicode="&#x430;" 
d="M995 0h-159v94q-6 -8 -31 -33q-19 -16 -90 -51q-71 -30 -148 -30q-159 0 -257.5 88.5t-98.5 230.5q0 133 89.5 220t248.5 110q133 18 237 18h43v53q0 82 -55 138.5t-145 56.5q-84 0 -141 -41t-68 -109h-162q15 129 121 213q109 86 250 86q172 0 269 -92t97 -239v-713z
M829 322v182q-154 -3 -268 -21q-83 -12 -134.5 -61.5t-51.5 -120.5q0 -75 55 -124.5t145 -49.5q113 0 183 61q71 65 71 134z" />
    <glyph glyph-name="uni0431" unicode="&#x431;" 
d="M862 346v299q0 103 -63.5 162t-173.5 59q-104 0 -173 -64.5t-69 -156.5v-297q0 -94 67.5 -158.5t174.5 -64.5q106 0 171.5 63.5t65.5 157.5zM1030 651v-295q0 -156 -115 -268q-114 -108 -290 -108q-181 0 -295 108q-113 110 -113 270v506q0 260 150 404q151 145 366 157
q96 3 193 23v-137q-61 -20 -178 -29q-171 -12 -268 -109t-97 -272q12 16 27 31q19 19 84 49q67 31 143 31q170 0 281 -105q112 -100 112 -256z" />
    <glyph glyph-name="uni0432" unicode="&#x432;" 
d="M606 0h-389v1024h424q161 0 245.5 -70.5t84.5 -201.5q0 -56 -23 -103.5t-44 -68t-44 -35.5l-14 -6q6 -2 16 -7t35 -24.5t44.5 -44.5t35.5 -68.5t16 -95.5q0 -299 -387 -299zM649 877h-268v-273h260q81 0 125.5 37.5t44.5 108.5q0 58 -42.5 92.5t-119.5 34.5zM641 459
h-260v-312h254q194 0 194 154q0 158 -188 158z" />
    <glyph glyph-name="uni0433" unicode="&#x433;" 
d="M395 1024h654v-147h-490v-877h-164v1024z" />
    <glyph glyph-name="uni0434" unicode="&#x434;" 
d="M152 -215v362h57q40 0 58.5 29t31.5 100l98 748h541v-877h111v-362h-164v215h-572v-215h-161zM780 147v730h-248q-67 -546 -79 -621l-31 -109h358z" />
    <glyph glyph-name="uni0435" unicode="&#x435;" 
d="M836 313h168q1 -49 -21.5 -104t-66.5 -107.5t-122 -87t-176 -34.5q-183 0 -296 110q-111 114 -111 268v312q0 153 111 264q113 110 296 110q184 0 291 -110q109 -112 109 -264v-209h-641v-113q0 -94 67 -158.5t174 -64.5q88 0 153 55t65 133zM377 676v-68h479v68
q0 94 -65.5 157.5t-172.5 63.5t-174 -63.5t-67 -157.5z" />
    <glyph glyph-name="uni0436" unicode="&#x436;" 
d="M965 1024h178l-289 -485l301 -539h-176l-248 467h-37v-467h-157v467h-39l-246 -467h-178l301 539l-289 485h180l228 -410h43v410h157v-410h41z" />
    <glyph glyph-name="uni0437" unicode="&#x437;" 
d="M637 459h-129v145h110q79 0 120.5 40t41.5 104q0 66 -52 106.5t-138 40.5q-77 0 -133.5 -36.5t-63.5 -100.5h-157v18q0 89 92 178q96 90 264 90q161 0 256 -83q98 -82 98 -203q0 -149 -110 -213q122 -70 122 -238q0 -139 -104 -233t-270 -94q-170 0 -273 92
q-100 93 -100 219v31h164v-31q0 -67 54 -116.5t155 -49.5q97 0 153 48t56 134q0 75 -42 113.5t-114 38.5z" />
    <glyph glyph-name="uni0438" unicode="&#x438;" 
d="M842 1024h172v-1024h-156v504l10 303l-487 -807h-168v1024h156v-504l-11 -303z" />
    <glyph glyph-name="uni0439" unicode="&#x439;" 
d="M842 1024h172v-1024h-156v504l10 303l-487 -807h-168v1024h156v-504l-11 -303zM338 1405h154q0 -141 122 -141q69 0 95 34.5t26 106.5h154q0 -119 -66 -189.5t-178 -70.5h-63q-114 0 -179 70t-65 190z" />
    <glyph glyph-name="uni043A" unicode="&#x43a;" 
d="M1098 0h-209l-406 467h-57v-467h-158v1024h158v-410h68l374 410h191l-445 -481z" />
    <glyph glyph-name="uni043B" unicode="&#x43b;" 
d="M182 -12h-35v137q126 0 150 133q24 124 43 301q25 204 39 330l14 135h594v-1024h-164v877h-288q-53 -463 -93 -682q-19 -99 -85.5 -153t-174.5 -54z" />
    <glyph glyph-name="uni043C" unicode="&#x43c;" 
d="M891 797l-201 -348h-153l-199 348q6 -175 6 -355v-442h-151v1024h159l262 -449l260 449h160v-1024h-151v442q0 355 8 355z" />
    <glyph glyph-name="uni043D" unicode="&#x43d;" 
d="M850 1024h164v-1024h-164v467h-473v-467h-164v1024h164v-410h473v410z" />
    <glyph glyph-name="uni043E" unicode="&#x43e;" 
d="M1020 668v-312q0 -156 -115 -268q-114 -108 -291 -108q-181 0 -295 108q-112 109 -112 270v310q0 160 112 266q113 110 295 110q178 0 291 -110q115 -112 115 -266zM852 346v332q0 94 -65.5 157.5t-172.5 63.5t-174 -63.5t-67 -157.5v-330q0 -94 67 -158.5t174 -64.5
t172.5 63.5t65.5 157.5z" />
    <glyph glyph-name="uni043F" unicode="&#x43f;" 
d="M213 1024h801v-1024h-164v877h-473v-877h-164v1024z" />
    <glyph glyph-name="uni0440" unicode="&#x440;" 
d="M862 350v309q0 112 -64 176t-173 64q-100 0 -172 -72q-70 -70 -70 -165v-312q0 -94 69 -157.5t173 -63.5q106 0 171.5 61t65.5 160zM408 66l-25 26v-461h-164v1393h148l6 -104q3 4 28 34q21 21 93 56q69 34 155 34q166 0 273 -110q108 -108 108 -266v-312
q0 -154 -115 -266q-113 -110 -274 -110q-74 0 -139.5 26.5t-93.5 59.5z" />
    <glyph glyph-name="uni0441" unicode="&#x441;" 
d="M629 897q-104 0 -172 -64.5t-68 -158.5v-326q0 -95 67.5 -159t174.5 -64q104 0 166 65q61 67 61 150h168q0 -113 -90 -229q-46 -59 -128 -95t-179 -36q-183 0 -295 112q-111 114 -111 266v310q0 156 113 266t293 110q83 0 151 -23.5t110.5 -61t72 -86.5t41.5 -97t12 -96
h-168q0 21 -2 35q-3 21 -9 41.5t-22 47t-38.5 46t-61 33.5t-86.5 14z" />
    <glyph glyph-name="uni0442" unicode="&#x442;" 
d="M184 877v147h860v-147h-348v-877h-164v877h-348z" />
    <glyph glyph-name="uni0443" unicode="&#x443;" 
d="M385 -369h-119v148h109q84 0 121 100l59 154l-369 991h181l280 -782l279 782h174l-449 -1192q-34 -89 -101 -145t-165 -56z" />
    <glyph glyph-name="uni0444" unicode="&#x444;" 
d="M532 1434h164v-410q185 -3 293 -102q113 -101 113 -254v-310q0 -155 -113 -256q-108 -99 -293 -102v-369h-164v369q-184 0 -296 100q-111 102 -111 258v310q0 153 113 254q114 102 294 102v410zM291 678v-330q0 -91 65.5 -147t175.5 -56v734q-109 0 -175 -56t-66 -145z
M936 348v330q0 88 -66 144t-174 57v-734q108 0 174 56t66 147z" />
    <glyph glyph-name="uni0445" unicode="&#x445;" 
d="M205 1024h188l228 -373l219 373h184l-313 -500l323 -524h-186l-238 393l-235 -393h-180l321 524z" />
    <glyph glyph-name="uni0446" unicode="&#x446;" 
d="M940 -215v215h-715v1024h164v-877h440v877h164v-877h111v-362h-164z" />
    <glyph glyph-name="uni0447" unicode="&#x447;" 
d="M225 604v420h164v-424q0 -75 40.5 -120.5t113.5 -45.5q63 0 131 19.5t104 42.5l35 22v506h164v-1024h-164v360q-131 -73 -278 -73q-139 0 -224.5 87t-85.5 230z" />
    <glyph glyph-name="uni0448" unicode="&#x448;" 
d="M530 1024h164v-877h221v877h164v-1024h-932v1024h164v-877h219v877z" />
    <glyph glyph-name="uni0449" unicode="&#x449;" 
d="M520 1024h164v-877h221v877h164v-877h111v-362h-164v215h-879v1024h164v-877h219v877z" />
    <glyph glyph-name="uni044A" unicode="&#x44a;" 
d="M121 1024h385v-410h207q151 0 237 -92q88 -88 88 -215q0 -126 -88 -217q-87 -90 -237 -90h-369v877h-223v147zM707 467h-201v-320h201q64 -2 108 31t54 81t0 96t-54 81t-108 31z" />
    <glyph glyph-name="uni044B" unicode="&#x44b;" 
d="M152 1024h161v-410h170q152 0 238 -92q88 -88 88 -215q0 -126 -88 -217q-87 -90 -238 -90h-331v1024zM477 467h-164v-320h164q64 -2 108 31t54 81t0 96t-54 81t-108 31zM913 1024h164v-1024h-164v1024z" />
    <glyph glyph-name="uni044C" unicode="&#x44c;" 
d="M322 1024h161v-410h207q152 0 238 -92q88 -88 88 -215q0 -126 -88 -217q-87 -90 -238 -90h-368v1024zM684 467h-201v-320h201q64 -2 108 31t54 81t0 96t-54 81t-108 31z" />
    <glyph glyph-name="uni044D" unicode="&#x44d;" 
d="M502 457v147h327v76q0 92 -62.5 153.5t-158.5 61.5q-98 0 -150 -49t-52 -121h-166q0 139 104 227q106 92 266 92q171 0 279 -108q106 -106 106 -262v-316q0 -153 -110 -266q-106 -112 -283 -112q-156 0 -268 81q-113 82 -113 261h166q0 -78 45 -138q47 -59 170 -59
q98 0 162.5 64.5t64.5 158.5v109h-327z" />
    <glyph glyph-name="uni044E" unicode="&#x44e;" 
d="M1094 727v-432q0 -135 -93 -225t-225 -90t-225 90q-92 89 -92 227v170h-160v-467h-164v1024h164v-410h160v113q0 134 92 223q92 92 225 92t225 -92q93 -90 93 -223zM930 287v448q0 71 -45 117.5t-109 46.5q-67 0 -110 -45.5t-43 -118.5v-448q0 -71 44.5 -117.5
t108.5 -46.5t109 46.5t45 117.5z" />
    <glyph glyph-name="uni044F" unicode="&#x44f;" 
d="M383 0h-190l245 397q-192 91 -192 299q0 140 98 234q101 94 246 94h387v-1024h-164v369h-211zM406 696q0 -82 53 -133t149 -51h205v365h-205q-94 0 -148 -50.5t-54 -130.5z" />
    <glyph glyph-name="uni0451" unicode="&#x451;" 
d="M836 313h168q1 -49 -21.5 -104t-66.5 -107.5t-122 -87t-176 -34.5q-183 0 -296 110q-111 114 -111 268v312q0 153 111 264q113 110 296 110q184 0 291 -110q109 -112 109 -264v-209h-641v-113q0 -94 67 -158.5t174 -64.5q88 0 153 55t65 133zM377 676v-68h479v68
q0 94 -65.5 157.5t-172.5 63.5t-174 -63.5t-67 -157.5zM535 1194h-175v174h175v-174zM881 1194h-174v174h174v-174z" />
    <glyph glyph-name="uni0452" unicode="&#x452;" 
d="M1026 657v-647q0 -174 -99 -273t-257 -99h-37v149h37q90 0 141 62t51 163v633q0 232 -221 232q-98 0 -178 -68t-80 -143v-666h-164v1149h-115v139h115v146h164v-146h254v-139h-254v-246q8 10 35 33q17 15 98 53q78 35 154 35q165 0 260.5 -99.5t95.5 -267.5z" />
    <glyph glyph-name="uni0453" unicode="&#x453;" 
d="M395 1024h654v-147h-490v-877h-164v1024zM1034 1421l-311 -301h-172l250 301h233z" />
    <glyph glyph-name="uni0454" unicode="&#x454;" 
d="M397 680v-76h328v-147h-328v-109q0 -94 65 -158.5t163 -64.5q121 0 168 59q47 62 47 138h166q0 -178 -115 -261q-112 -81 -266 -81q-176 0 -285 112q-109 115 -109 266v316q0 155 107 262q108 108 278 108q161 0 267 -92q104 -88 104 -227h-166q0 72 -52.5 121t-150.5 49
q-94 0 -157.5 -62t-63.5 -153z" />
    <glyph glyph-name="uni0455" unicode="&#x455;" 
d="M616 -20q-81 0 -146 22t-106 57t-68.5 79.5t-38.5 87t-11 83.5v15h164v-19q0 -72 54.5 -125t151.5 -53q86 0 139.5 43t53.5 109q0 104 -186 167q-141 52 -196 84q-143 87 -144 230q0 127 95.5 205.5t250.5 78.5q170 0 258 -98q90 -96 90 -198v-17h-168q0 68 -50.5 117
t-129.5 49q-57 4 -101 -19t-62 -57t-8.5 -74t50.5 -69q43 -30 150.5 -72.5t134.5 -54.5q80 -35 132 -107t52 -170q0 -122 -105 -208q-106 -86 -256 -86z" />
    <glyph glyph-name="uni0456" unicode="&#x456;" 
d="M578 877h-349v147h512v-877h314v-147h-826v147h349v730zM745 1194h-188v182h188v-182z" />
    <glyph glyph-name="uni0457" unicode="&#x457;" 
d="M578 877h-349v147h512v-877h314v-147h-826v147h349v730zM575 1194h-174v174h174v-174zM922 1194h-174v174h174v-174z" />
    <glyph glyph-name="uni0458" unicode="&#x458;" 
d="M281 -51h163v-37q0 -68 39.5 -111t104.5 -43q61 0 101 41.5t40 102.5v975h-485v147h653v-1112q0 -123 -90 -213q-88 -88 -223 -88q-129 0 -217 88q-86 89 -86 213v37zM895 1192h-182v182h182v-182z" />
    <glyph glyph-name="uni0459" unicode="&#x459;" 
d="M213 260l55 764h482v-410h84q151 0 237 -92q88 -88 88 -215q0 -126 -88 -217q-87 -90 -237 -90h-246v877h-176q-34 -483 -54 -682q-10 -96 -79 -151.5t-175 -55.5h-34v141l41 4q93 9 102 127zM827 467h-77v-320h77q64 -2 108 31t54 81t0 96t-54 81t-108 31z" />
    <glyph glyph-name="uni045A" unicode="&#x45a;" 
d="M575 1024h162v-410h84q152 0 238 -92q88 -88 88 -215q0 -126 -88 -217q-87 -90 -238 -90h-246v467h-268v-467h-164v1024h164v-410h268v410zM815 467h-78v-320h78q64 -2 108 31t54 81t0 96t-54 81t-108 31z" />
    <glyph glyph-name="uni045B" unicode="&#x45b;" 
d="M637 1288v-139h-254v-246q8 10 35 33q17 15 98 53q78 35 154 35q165 0 260.5 -99.5t95.5 -267.5v-657h-164v645q0 232 -221 232q-98 0 -178 -68t-80 -143v-666h-164v1149h-113v139h113v146h164v-146h254z" />
    <glyph glyph-name="uni045C" unicode="&#x45c;" 
d="M1098 0h-209l-406 467h-57v-467h-158v1024h158v-410h68l374 410h191l-445 -481zM1012 1421l-312 -301h-172l250 301h234z" />
    <glyph glyph-name="uni045E" unicode="&#x45e;" 
d="M369 1405h153q0 -141 117 -141q74 0 100.5 34.5t26.5 106.5h154q0 -119 -66 -189.5t-178 -70.5h-64q-114 0 -178.5 70t-64.5 190zM385 -369h-119v148h109q84 0 121 100l59 154l-369 991h181l280 -782l279 782h174l-449 -1192q-34 -89 -101 -145t-165 -56z" />
    <glyph glyph-name="uni045F" unicode="&#x45f;" 
d="M532 -215v215h-319v1024h164v-877h473v877h164v-1024h-320v-215h-162z" />
    <glyph glyph-name="uni0462" unicode="&#x462;" 
d="M330 1108h-221v152h221v174h172v-174h284v-152h-284v-272h219q135 0 231 -93q97 -94 97 -227v-197q0 -130 -97 -227q-95 -92 -231 -92h-391v1108zM874 317v205q0 63 -47 108.5t-114 45.5h-211v-514h211q68 0 114.5 44.5t46.5 110.5z" />
    <glyph glyph-name="uni0463" unicode="&#x463;" 
d="M135 881v143h209v410h162v-410h262v-143h-262v-267h207q151 0 237 -92q88 -88 88 -215q0 -126 -88 -217q-87 -90 -237 -90h-369v881h-209zM707 467h-201v-320h201q64 -2 108 31t54 81t0 96t-54 81t-108 31z" />
    <glyph glyph-name="uni0472" unicode="&#x472;" 
d="M1020 1077v-721q0 -151 -113 -264q-109 -112 -293 -112q-188 0 -297 112q-110 113 -110 266v719q0 151 110 264t297 113q181 0 293 -115q113 -113 113 -262zM850 354v305q-45 -45 -107 -45q-57 0 -137 45q-82 46 -108 46q-32 0 -62.5 -17t-46.5 -37l-12 -18v-277
q0 -91 65 -153t172 -62q103 0 169.5 62.5t66.5 150.5zM498 866q54 0 131 -45t112 -45q30 0 57.5 16t41.5 35l10 19v233q0 88 -66.5 150.5t-169.5 62.5q-106 0 -171.5 -62t-65.5 -151v-260q62 47 121 47z" />
    <glyph glyph-name="uni0473" unicode="&#x473;" 
d="M1016 668v-312q0 -158 -113 -268q-111 -108 -289 -108t-292 108q-111 111 -111 270v310q0 158 111 266q113 110 292 110q176 0 289 -110t113 -266zM852 346v94q-57 -45 -115 -45q-56 0 -133 39t-106 39q-30 0 -62.5 -14.5t-46.5 -32.5l-16 -16v-62q0 -94 67 -158.5
t174 -64.5t172.5 63.5t65.5 157.5zM373 678v-94q62 45 123 45q54 0 131 -39q79 -39 114 -39q25 0 54 14.5t43 32.5l14 16v64q0 94 -65.5 157.5t-172.5 63.5t-174 -63.5t-67 -157.5z" />
    <glyph glyph-name="uni0474" unicode="&#x474;" 
d="M977 1135l-221 -1135h-281l-280 1434h182l229 -1272h19l190 1018q46 264 270 264h35v-152q-116 0 -143 -157z" />
    <glyph glyph-name="uni0475" unicode="&#x475;" 
d="M913 817l-196 -817h-260l-254 1024h170l202 -895h25l156 721q43 190 245 190h33v-129q-55 0 -81.5 -19.5t-39.5 -74.5z" />
    <glyph glyph-name="uni0490" unicode="&#x490;" 
d="M563 1272v-1272h-174v1434h557v219h162v-381h-545z" />
    <glyph glyph-name="uni0491" unicode="&#x491;" 
d="M891 1219h145v-342h-479v-877h-164v1024h498v195z" />
    <glyph glyph-name="uni0492" unicode="&#x492;" 
d="M412 676h-185v155h185v603h708v-162h-534v-441h327v-155h-327v-676h-174v676z" />
    <glyph glyph-name="uni0493" unicode="&#x493;" 
d="M416 467h-189v143h189v414h643v-147h-479v-267h286v-143h-286v-467h-164v467z" />
    <glyph glyph-name="uni0494" unicode="&#x494;" 
d="M549 -379l4 158q155 3 244 170q90 166 90 370q0 196 -73 284.5t-257 88.5h-65v-692h-175v1434h631v-162h-456v-418h67q265 0 382.5 -133t117.5 -410q0 -266 -135 -469q-132 -206 -375 -221z" />
    <glyph glyph-name="uni0495" unicode="&#x495;" 
d="M522 -340l2 143q94 0 168 74q72 70 109 163t37 183q0 129 -69.5 186.5t-229.5 57.5h-82v-467h-162v1024h559v-150h-397v-260h92q239 0 342.5 -96.5t103.5 -296.5q0 -130 -51 -252q-55 -133 -164 -217q-112 -92 -258 -92z" />
    <glyph glyph-name="uni0496" unicode="&#x496;" 
d="M1030 -307v307h-59l-232 676h-47v-676h-153v676h-47l-234 -676h-172l274 758l-245 676h170l209 -600h45v600h153v-600h45l209 600h168l-266 -676l233 -600h107v-465h-158z" />
    <glyph glyph-name="uni0497" unicode="&#x497;" 
d="M987 -215v215h-41l-227 467h-37v-467h-156v467h-41l-227 -467h-178l282 539l-268 485h180l209 -410h43v410h156v-410h43l209 410h178l-270 -485l198 -392h111v-362h-164z" />
    <glyph glyph-name="uni0498" unicode="&#x498;" 
d="M702 -307h-170v293q-145 25 -233 135.5t-88 275.5h170q0 -118 61 -187t162 -69q91 0 155 62.5t64 152.5v158q0 66 -48.5 114t-115.5 48h-174v160h156q77 0 123.5 55.5t46.5 128.5v57q0 95 -58 156t-153 61q-88 0 -145 -61t-62 -158h-168q0 152 111 266q110 113 276 113
q164 0 269 -111q104 -107 104 -268v-57q0 -71 -33.5 -142t-83.5 -110q129 -102 129 -250v-158q0 -131 -84 -235q-82 -101 -211 -131v-299z" />
    <glyph glyph-name="uni0499" unicode="&#x499;" 
d="M682 -215h-166v199q-138 18 -221.5 106t-83.5 201v31h164v-31q0 -67 54 -116.5t155 -49.5q97 0 153 48t56 134q0 75 -42 113.5t-114 38.5h-129v145h110q79 0 120.5 40t41.5 104q0 66 -52 106.5t-138 40.5q-77 0 -133.5 -36.5t-63.5 -100.5h-157v18q0 89 92 178
q96 90 264 90q161 0 256 -83q98 -82 98 -203q0 -149 -110 -213q122 -70 122 -238q0 -118 -74.5 -204.5t-201.5 -112.5v-205z" />
    <glyph glyph-name="uni049A" unicode="&#x49a;" 
d="M262 1434h174v-600h70l385 600h201l-449 -672l371 -604h104v-465h-170v307h-35l-411 676h-66v-676h-174v1434z" />
    <glyph glyph-name="uni049B" unicode="&#x49b;" 
d="M901 0h-53l-363 467h-59v-467h-158v1024h158v-410h70l327 410h197l-406 -481l312 -396h139v-362h-164v215z" />
    <glyph glyph-name="uni049C" unicode="&#x49c;" 
d="M600 475h-121v201h-53v-676h-164v1434h164v-598h53v190h121v-190h27l307 598h184l-360 -678l391 -756h-197l-329 676h-23v-201z" />
    <glyph glyph-name="uni049D" unicode="&#x49d;" 
d="M594 276h-113v191h-67v-467h-158v1024h156v-410h69v185h113v-185h35l268 410h186l-327 -481l346 -543h-197l-280 467h-31v-191z" />
    <glyph glyph-name="uni04A0" unicode="&#x4a0;" 
d="M27 1434h452v-600h70l385 600h201l-449 -672l471 -762h-199l-413 676h-66v-676h-174v1276h-278v158z" />
    <glyph glyph-name="uni04A1" unicode="&#x4a1;" 
d="M29 1024h422v-410h67l373 410h192l-442 -481l481 -543h-202l-412 467h-57v-467h-158v881h-264v143z" />
    <glyph glyph-name="uni04A2" unicode="&#x4a2;" 
d="M950 -307v307h-127v676h-442v-676h-172v1434h172v-598h442v598h174v-1276h119v-465h-166z" />
    <glyph glyph-name="uni04A3" unicode="&#x4a3;" 
d="M944 -215v215h-110v467h-474v-467h-163v1024h163v-410h474v410h163v-877h111v-362h-164z" />
    <glyph glyph-name="uni04A4" unicode="&#x4a4;" 
d="M782 836v598h435v-158h-261v-1276h-174v676h-381v-676h-172v1434h172v-598h381z" />
    <glyph glyph-name="uni04A5" unicode="&#x4a5;" 
d="M788 1024h392v-143h-226v-881h-163v467h-414v-467h-164v1024h164v-410h411v410z" />
    <glyph glyph-name="uni04AA" unicode="&#x4aa;" 
d="M735 -307h-170v293q-147 21 -237 125q-90 107 -90 247v719q0 155 114 266q117 111 281 111q168 0 276 -111q109 -109 109 -268h-172q0 91 -61.5 154t-151.5 63q-92 0 -156.5 -63t-64.5 -154v-719q0 -91 63.5 -153t157.5 -62q88 0 153 62q66 66 66 151v43h174v-41
q0 -131 -81 -232t-210 -132v-299z" />
    <glyph glyph-name="uni04AB" unicode="&#x4ab;" 
d="M729 -215h-164v199q-154 18 -250 127q-92 109 -92 247v310q0 156 113 266t293 110q83 0 151 -23.5t110.5 -61t72 -86.5t41.5 -97t12 -96h-168q0 21 -2 35q-3 21 -9 41.5t-22 47t-38.5 46t-61 33.5t-86.5 14q-104 0 -172 -64.5t-68 -158.5v-326q0 -95 67.5 -159t174.5 -64
q104 0 166 65q61 67 61 150h168q0 -103 -78 -213q-76 -107 -219 -137v-205z" />
    <glyph glyph-name="uni04AC" unicode="&#x4ac;" 
d="M528 1272h-317v162h809v-162h-320v-1114h119v-465h-166v307h-125v1272z" />
    <glyph glyph-name="uni04AD" unicode="&#x4ad;" 
d="M643 -215v215h-111v877h-348v147h860v-147h-348v-730h111v-362h-164z" />
    <glyph glyph-name="uni04AE" unicode="&#x4ae;" 
d="M152 1434h190l272 -564l271 564h192l-377 -756v-678h-172v678z" />
    <glyph glyph-name="uni04AF" unicode="&#x4af;" 
d="M707 -369h-162v514l-361 879h176l269 -694l268 694h168l-358 -879v-514z" />
    <glyph glyph-name="uni04B0" unicode="&#x4b0;" 
d="M528 526h-335v152h335l-376 756h190l272 -564l271 564h192l-377 -756h336v-152h-336v-526h-172v526z" />
    <glyph glyph-name="uni04B1" unicode="&#x4b1;" 
d="M545 0h-279v147h279l-361 877h176l269 -692l266 692h168l-356 -877h280v-147h-280v-369h-162v369z" />
    <glyph glyph-name="uni04B2" unicode="&#x4b2;" 
d="M938 -307v307h-57l-275 567l-260 -567h-188l360 745l-334 689h191l243 -531l234 531h188l-329 -701l280 -575h117v-465h-170z" />
    <glyph glyph-name="uni04B3" unicode="&#x4b3;" 
d="M889 -215v215h-41l-238 393l-235 -393h-180l321 524l-311 500h188l228 -373l219 373h184l-313 -500l231 -377h111v-362h-164z" />
    <glyph glyph-name="uni04B6" unicode="&#x4b6;" 
d="M918 -307v307h-123v539q-103 -41 -258 -41q-143 0 -235.5 92t-92.5 244v600h174v-586q0 -88 49 -138.5t135 -50.5q52 0 108 13.5t91 29.5l29 15v717h172v-1276h120v-465h-169z" />
    <glyph glyph-name="uni04B7" unicode="&#x4b7;" 
d="M930 -215v215h-117v360q-131 -73 -278 -73q-139 0 -224.5 87t-85.5 230v420h164v-424q0 -75 40.5 -120.5t113.5 -45.5q63 0 131 19.5t104 42.5l35 22v506h164v-877h113v-362h-160z" />
    <glyph glyph-name="uni04B8" unicode="&#x4b8;" 
d="M641 305h-119v193q-137 5 -225 97t-88 239v600h172v-586q0 -157 141 -184v192h119v-190q79 11 135 43l19 8v717h172v-1434h-172v545q-63 -32 -154 -41v-199z" />
    <glyph glyph-name="uni04B9" unicode="&#x4b9;" 
d="M643 102h-113v185q-139 1 -222 87.5t-83 229.5v420h164v-424q0 -72 37 -118.5t104 -47.5v191h113v-179q87 21 150 58l20 14v506h164v-1024h-164v360q-76 -40 -170 -61v-197z" />
    <glyph glyph-name="uni04BA" unicode="&#x4ba;" 
d="M1042 670l-2 -670h-176v676q0 96 -57.5 158.5t-153.5 62.5q-95 0 -172 -68q-73 -64 -73 -143v-686h-172v1434h172v-500q9 12 28 31q24 21 88 49q68 30 146 30q169 0 270 -104q102 -105 102 -270z" />
    <glyph glyph-name="uni04BB" unicode="&#x4bb;" 
d="M1026 608v-608h-164v596q0 231 -221 231q-99 0 -178 -67q-80 -68 -80 -144v-616h-164v1434h164v-580q8 10 35 33q17 15 98 53q78 35 154 35q165 0 260.5 -99.5t95.5 -267.5z" />
    <glyph glyph-name="uni04C0" unicode="&#x4c0;" 
d="M528 1274h-309v160h791v-160h-310v-1114h310v-160h-791v160h309v1114z" />
    <glyph glyph-name="uni04C3" unicode="&#x4c3;" 
d="M432 1434v-600l76 2l360 598h201l-383 -617q188 -49 273 -175t85 -349q0 -261 -133 -459q-132 -200 -376 -215v158q155 3 245 162q92 157 92 362q0 92 -19.5 159t-64 116t-120 73.5t-183.5 24.5h-53v-674h-174v1434h174z" />
    <glyph glyph-name="uni04C4" unicode="&#x4c4;" 
d="M522 -356l2 139q142 0 228 129q86 127 86 276q0 143 -70 211t-229 68h-76v-467h-158v1024h158v-410h84l301 410h192l-321 -428q278 -76 278 -391q0 -210 -129 -385q-129 -176 -346 -176z" />
    <glyph glyph-name="uni04C7" unicode="&#x4c7;" 
d="M834 1434h174v-1424q0 -174 -99.5 -273t-257.5 -99h-37v149h37q89 0 136 61.5t47 163.5v664h-443v-676h-172v1434h172v-598h443v598z" />
    <glyph glyph-name="uni04C8" unicode="&#x4c8;" 
d="M850 1024h164v-1014q0 -176 -98.5 -274t-256.5 -98h-36v149h36q90 0 140.5 62t50.5 163v455h-473v-467h-164v1024h164v-410h473v410z" />
    <glyph glyph-name="uni04D0" unicode="&#x4d0;" 
d="M221 612l260 822h269l260 -826v-608h-172v457h-447v-457h-170v612zM399 616h435l-199 662h-39zM338 1817h154q0 -142 122 -142q69 0 95 35t26 107h154q0 -119 -66 -190t-178 -71h-63q-114 0 -179 70.5t-65 190.5z" />
    <glyph glyph-name="uni04D1" unicode="&#x4d1;" 
d="M995 0h-159v94q-6 -8 -31 -33q-19 -16 -90 -51q-71 -30 -148 -30q-159 0 -257.5 88.5t-98.5 230.5q0 133 89.5 220t248.5 110q133 18 237 18h43v53q0 82 -55 138.5t-145 56.5q-84 0 -141 -41t-68 -109h-162q15 129 121 213q109 86 250 86q172 0 269 -92t97 -239v-713z
M829 322v182q-154 -3 -268 -21q-83 -12 -134.5 -61.5t-51.5 -120.5q0 -75 55 -124.5t145 -49.5q113 0 183 61q71 65 71 134zM338 1405h154q0 -141 122 -141q69 0 95 34.5t26 106.5h154q0 -119 -66 -189.5t-178 -70.5h-63q-114 0 -179 70t-65 190z" />
    <glyph glyph-name="uni04D2" unicode="&#x4d2;" 
d="M221 612l260 822h269l260 -826v-608h-172v457h-447v-457h-170v612zM399 616h435l-199 662h-39zM530 1604h-174v174h174v-174zM877 1604h-175v174h175v-174z" />
    <glyph glyph-name="uni04D3" unicode="&#x4d3;" 
d="M995 0h-159v94q-6 -8 -31 -33q-19 -16 -90 -51q-71 -30 -148 -30q-159 0 -257.5 88.5t-98.5 230.5q0 133 89.5 220t248.5 110q133 18 237 18h43v53q0 82 -55 138.5t-145 56.5q-84 0 -141 -41t-68 -109h-162q15 129 121 213q109 86 250 86q172 0 269 -92t97 -239v-713z
M829 322v182q-154 -3 -268 -21q-83 -12 -134.5 -61.5t-51.5 -120.5q0 -75 55 -124.5t145 -49.5q113 0 183 61q71 65 71 134zM537 1194h-175v174h175v-174zM883 1194h-174v174h174v-174z" />
    <glyph glyph-name="uni04D4" unicode="&#x4d4;" 
d="M150 612l253 822h676v-162h-329v-436h280v-160h-280v-514h335v-162h-507v457h-261v-457h-167v612zM578 1272h-64l-188 -656h252v656z" />
    <glyph glyph-name="uni04D5" unicode="&#x4d5;" 
d="M948 260v53h150v-53q0 -115 -84 -199q-81 -81 -191 -81q-72 0 -117.5 24.5t-87.5 83.5q-70 -108 -223 -108q-112 0 -190 90q-76 91 -76 229q0 136 78 229t194 93h142v139q0 57 -35.5 96t-85.5 39q-121 0 -121 -152h-147q0 135 73 218t195 83q120 0 196 -110
q43 58 88.5 84t116.5 26q117 0 195 -81q80 -83 80 -201v-289h-406v-215q0 -56 36 -92.5t91 -36.5t92 37.5t37 93.5zM406 129q55 0 96 38t41 91v215h-137q-60 0 -92.5 -47.5t-32.5 -124.5t32.5 -124.5t92.5 -47.5zM821 895q-59 0 -94 -37.5t-35 -95.5v-141h256v141
q0 55 -38 94t-89 39z" />
    <glyph glyph-name="uni04D6" unicode="&#x4d6;" 
d="M285 0v1434h700v-162h-528v-436h479v-160h-479v-514h544v-162h-716zM389 1817h154q0 -142 123 -142q69 0 94.5 35t25.5 107h154q0 -119 -66 -190t-178 -71h-63q-114 0 -179 70.5t-65 190.5z" />
    <glyph glyph-name="uni04D7" unicode="&#x4d7;" 
d="M836 313h168q1 -49 -21.5 -104t-66.5 -107.5t-122 -87t-176 -34.5q-183 0 -296 110q-111 114 -111 268v312q0 153 111 264q113 110 296 110q184 0 291 -110q109 -112 109 -264v-209h-641v-113q0 -94 67 -158.5t174 -64.5q88 0 153 55t65 133zM377 676v-68h479v68
q0 94 -65.5 157.5t-172.5 63.5t-174 -63.5t-67 -157.5zM356 1405h154q0 -141 123 -141q69 0 95 34.5t26 106.5h153q0 -119 -65.5 -189.5t-177.5 -70.5h-64q-114 0 -179 70t-65 190z" />
    <glyph glyph-name="uni04D8" unicode="&#x4d8;" 
d="M399 1075h-170q0 149 115 264t295 115q148 0 262 -102q117 -102 117 -275v-719q0 -168 -115 -274q-114 -102 -285 -102q-180 0 -294 102q-113 101 -113 272v328q0 44 28 73t72 29h535v289q0 17 -4 37q-10 79 -69.5 129.5t-141.5 50.5q-99 0 -165.5 -63t-66.5 -154z
M846 627h-463l-2 -260q0 -103 65.5 -165.5t169.5 -62.5q103 0 166.5 63t63.5 167v258z" />
    <glyph glyph-name="uni04D9" unicode="&#x4d9;" 
d="M393 711h-168q-1 38 12 81t43.5 88.5t74 81.5t110 59t145.5 23q186 0 295 -112q113 -110 113 -266v-312q0 -154 -113 -264q-110 -110 -295 -110q-186 0 -293 110q-106 109 -106 264v209h641v113q0 94 -67.5 158.5t-174.5 64.5q-88 0 -152.5 -55t-64.5 -133zM852 348v68
h-479v-68q0 -94 65.5 -157.5t171.5 -63.5q107 0 174.5 63.5t67.5 157.5z" />
    <glyph glyph-name="uni04DA" unicode="&#x4da;" 
d="M555 1602h-184l2 182h182v-182zM901 1602h-184l2 182h182v-182zM399 1075h-170q0 149 115 264t295 115q148 0 262 -102q117 -102 117 -275v-719q0 -168 -115 -274q-114 -102 -285 -102q-180 0 -294 102q-113 101 -113 272v328q0 44 28 73t72 29h535v289q0 17 -4 37
q-10 79 -69.5 129.5t-141.5 50.5q-99 0 -165.5 -63t-66.5 -154zM846 627h-463l-2 -260q0 -103 65.5 -165.5t169.5 -62.5q103 0 166.5 63t63.5 167v258z" />
    <glyph glyph-name="uni04DB" unicode="&#x4db;" 
d="M528 1190h-184l2 182h182v-182zM874 1190h-184l2 182h182v-182zM393 711h-168q-1 38 12 81t43.5 88.5t74 81.5t110 59t145.5 23q186 0 295 -112q113 -110 113 -266v-312q0 -154 -113 -264q-110 -110 -295 -110q-186 0 -293 110q-106 109 -106 264v209h641v113
q0 94 -67.5 158.5t-174.5 64.5q-88 0 -152.5 -55t-64.5 -133zM852 348v68h-479v-68q0 -94 65.5 -157.5t171.5 -63.5q107 0 174.5 63.5t67.5 157.5z" />
    <glyph glyph-name="uni04DC" unicode="&#x4dc;" 
d="M532 1602h-182v182h182v-182zM879 1602h-183v182h183v-182zM66 0l294 758l-266 676h170l230 -600h45v600h153v-600h45l232 600h168l-267 -676l295 -758h-172l-254 676h-47v-676h-153v676h-47l-254 -676h-172z" />
    <glyph glyph-name="uni04DD" unicode="&#x4dd;" 
d="M532 1190h-182v182h182v-182zM879 1190h-183v182h183v-182zM965 1024h178l-289 -485l301 -539h-176l-248 467h-37v-467h-157v467h-39l-246 -467h-178l301 539l-289 485h180l228 -410h43v410h157v-410h41z" />
    <glyph glyph-name="uni04DE" unicode="&#x4de;" 
d="M659 676h-174v160h156q77 0 123.5 55.5t46.5 128.5v57q0 95 -58 156t-153 61q-88 0 -145 -61t-62 -158h-168q0 152 111 266q110 113 276 113q164 0 269 -111q104 -107 104 -268v-57q0 -71 -33.5 -142t-83.5 -110q129 -102 129 -250v-158q0 -157 -114 -268
q-113 -110 -279 -110q-168 0 -282 114q-111 114 -111 303h170q0 -118 61 -187t162 -69q91 0 155 62.5t64 152.5v158q0 66 -48.5 114t-115.5 48zM520 1604h-174v174h174v-174zM866 1604h-174v174h174v-174z" />
    <glyph glyph-name="uni04DF" unicode="&#x4df;" 
d="M637 459h-129v145h110q79 0 120.5 40t41.5 104q0 66 -52 106.5t-138 40.5q-77 0 -133.5 -36.5t-63.5 -100.5h-157v18q0 89 92 178q96 90 264 90q161 0 256 -83q98 -82 98 -203q0 -149 -110 -213q122 -70 122 -238q0 -139 -104 -233t-270 -94q-170 0 -273 92
q-100 93 -100 219v31h164v-31q0 -67 54 -116.5t155 -49.5q97 0 153 48t56 134q0 75 -42 113.5t-114 38.5zM504 1194h-174v174h174v-174zM850 1194h-174v174h174v-174z" />
    <glyph glyph-name="uni04E2" unicode="&#x4e2;" 
d="M928 1597h-619l-2 152h621v-152zM1008 1434v-1434h-160v768l10 342l-473 -1110h-166v1434h160v-760l-10 -348l473 1108h166z" />
    <glyph glyph-name="uni04E3" unicode="&#x4e3;" 
d="M928 1192h-617v151h617v-151zM842 1024h172v-1024h-156v504l10 303l-487 -807h-168v1024h156v-504l-11 -303z" />
    <glyph glyph-name="uni04E4" unicode="&#x4e4;" 
d="M530 1602h-182v182h182v-182zM877 1602h-183v182h183v-182zM1008 1434v-1434h-160v768l10 342l-473 -1110h-166v1434h160v-760l-10 -348l473 1108h166z" />
    <glyph glyph-name="uni04E5" unicode="&#x4e5;" 
d="M530 1190h-182v182h182v-182zM877 1190h-183v182h183v-182zM842 1024h172v-1024h-156v504l10 303l-487 -807h-168v1024h156v-504l-11 -303z" />
    <glyph glyph-name="uni04E6" unicode="&#x4e6;" 
d="M532 1602h-182v182h182v-182zM879 1602h-183v182h183v-182zM1020 1077v-721q0 -151 -113 -264q-109 -112 -293 -112q-188 0 -297 112q-110 113 -110 266v719q0 151 110 264t297 113q181 0 293 -115q113 -113 113 -262zM846 354v725q0 89 -64.5 151t-167.5 62
q-105 0 -169 -62t-64 -151v-723q0 -91 63.5 -153t169.5 -62q103 0 167.5 62t64.5 151z" />
    <glyph glyph-name="uni04E7" unicode="&#x4e7;" 
d="M1020 668v-312q0 -156 -115 -268q-114 -108 -291 -108q-181 0 -295 108q-112 109 -112 270v310q0 160 112 266q113 110 295 110q178 0 291 -110q115 -112 115 -266zM852 346v332q0 94 -65.5 157.5t-172.5 63.5t-174 -63.5t-67 -157.5v-330q0 -94 67 -158.5t174 -64.5
t172.5 63.5t65.5 157.5zM528 1194h-174v174h174v-174zM874 1194h-174v174h174v-174z" />
    <glyph glyph-name="uni04E8" unicode="&#x4e8;" 
d="M1020 1077v-721q0 -151 -113 -264q-109 -112 -293 -112q-188 0 -297 112q-110 113 -110 266v719q0 151 110 264t297 113q181 0 293 -115q113 -113 113 -262zM850 354v305q-45 -45 -107 -45q-57 0 -137 45q-82 46 -108 46q-32 0 -62.5 -17t-46.5 -37l-12 -18v-277
q0 -91 65 -153t172 -62q103 0 169.5 62.5t66.5 150.5zM498 866q54 0 131 -45t112 -45q30 0 57.5 16t41.5 35l10 19v233q0 88 -66.5 150.5t-169.5 62.5q-106 0 -171.5 -62t-65.5 -151v-260q62 47 121 47z" />
    <glyph glyph-name="uni04E9" unicode="&#x4e9;" 
d="M1016 668v-312q0 -158 -113 -268q-111 -108 -289 -108t-292 108q-111 111 -111 270v310q0 158 111 266q113 110 292 110q176 0 289 -110t113 -266zM852 346v94q-57 -45 -115 -45q-56 0 -133 39t-106 39q-30 0 -62.5 -14.5t-46.5 -32.5l-16 -16v-62q0 -94 67 -158.5
t174 -64.5t172.5 63.5t65.5 157.5zM373 678v-94q62 45 123 45q54 0 131 -39q79 -39 114 -39q25 0 54 14.5t43 32.5l14 16v64q0 94 -65.5 157.5t-172.5 63.5t-174 -63.5t-67 -157.5z" />
    <glyph glyph-name="uni04EA" unicode="&#x4ea;" 
d="M1020 1077v-721q0 -151 -113 -264q-109 -112 -293 -112q-188 0 -297 112q-110 113 -110 266v719q0 151 110 264t297 113q181 0 293 -115q113 -113 113 -262zM850 354v305q-45 -45 -107 -45q-57 0 -137 45q-82 46 -108 46q-32 0 -62.5 -17t-46.5 -37l-12 -18v-277
q0 -91 65 -153t172 -62q103 0 169.5 62.5t66.5 150.5zM498 866q54 0 131 -45t112 -45q30 0 57.5 16t41.5 35l10 19v233q0 88 -66.5 150.5t-169.5 62.5q-106 0 -171.5 -62t-65.5 -151v-260q62 47 121 47zM532 1602h-182v182h182v-182zM879 1602h-183v182h183v-182z" />
    <glyph glyph-name="uni04EB" unicode="&#x4eb;" 
d="M528 1194h-174v174h174v-174zM874 1194h-174v174h174v-174zM1016 668v-312q0 -158 -113 -268q-111 -108 -289 -108t-292 108q-111 111 -111 270v310q0 158 111 266q113 110 292 110q176 0 289 -110t113 -266zM852 346v94q-57 -45 -115 -45q-56 0 -133 39t-106 39
q-30 0 -62.5 -14.5t-46.5 -32.5l-16 -16v-62q0 -94 67 -158.5t174 -64.5t172.5 63.5t65.5 157.5zM373 678v-94q62 45 123 45q54 0 131 -39q79 -39 114 -39q25 0 54 14.5t43 32.5l14 16v64q0 94 -65.5 157.5t-172.5 63.5t-174 -63.5t-67 -157.5z" />
    <glyph glyph-name="uni04EC" unicode="&#x4ec;" 
d="M823 676h-352v160h352v239q0 93 -61 155t-154 62q-90 0 -151.5 -63t-61.5 -154h-172q0 159 109 268q108 111 276 111t279 -111q110 -107 110 -266v-719q0 -161 -112 -270q-111 -108 -283 -108q-166 0 -280 108q-113 110 -113 268v41h174v-43q0 -88 63 -151
q65 -62 156 -62q94 0 157.5 62t63.5 153v320zM532 1602h-182v182h182v-182zM879 1602h-183v182h183v-182z" />
    <glyph glyph-name="uni04ED" unicode="&#x4ed;" 
d="M502 457v147h327v76q0 92 -62.5 153.5t-158.5 61.5q-98 0 -150 -49t-52 -121h-166q0 139 104 227q106 92 266 92q171 0 279 -108q106 -106 106 -262v-316q0 -153 -110 -266q-106 -112 -283 -112q-156 0 -268 81q-113 82 -113 261h166q0 -78 45 -138q47 -59 170 -59
q98 0 162.5 64.5t64.5 158.5v109h-327zM528 1194h-174v174h174v-174zM874 1194h-174v174h174v-174z" />
    <glyph glyph-name="uni04EE" unicode="&#x4ee;" 
d="M899 1434h180l-583 -1434h-179l222 541l-369 893h192l265 -703zM924 1597h-619v152h619v-152z" />
    <glyph glyph-name="uni04EF" unicode="&#x4ef;" 
d="M969 1192h-619v151h619v-151zM406 -369h-119v148h108q84 0 121 100l59 154l-368 991h180l281 -782l278 782h174l-450 -1192q-34 -90 -100 -145.5t-164 -55.5z" />
    <glyph glyph-name="uni04F0" unicode="&#x4f0;" 
d="M563 1602h-182v182h182v-182zM909 1602h-182v182h182v-182zM899 1434h180l-583 -1434h-179l222 541l-369 893h192l265 -703z" />
    <glyph glyph-name="uni04F1" unicode="&#x4f1;" 
d="M408 -369h-119v148h108q84 0 121 100l60 154l-369 991h180l281 -782l278 782h174l-450 -1192q-34 -90 -100 -145.5t-164 -55.5zM598 1190h-184l2 182h182v-182zM944 1190h-184l2 182h182v-182z" />
    <glyph glyph-name="uni04F2" unicode="&#x4f2;" 
d="M899 1434h180l-583 -1434h-179l222 541l-369 893h192l265 -703zM807 1835l-275 -287h-149l203 287h221zM1143 1835l-275 -287h-149l203 287h221z" />
    <glyph glyph-name="uni04F3" unicode="&#x4f3;" 
d="M860 1423l-280 -286h-170l219 286h231zM1204 1423l-280 -286h-170l219 286h231zM412 -369h-119v148h108q84 0 121 100l58 154l-369 991h180l283 -782l276 782h174l-448 -1192q-34 -90 -100 -145.5t-164 -55.5z" />
    <glyph glyph-name="uni04F4" unicode="&#x4f4;" 
d="M522 1602h-182v182h182v-182zM868 1602h-182v182h182v-182zM209 1434h172v-586q0 -88 50 -138.5t136 -50.5q52 0 108 13.5t91 29.5l29 15v717h172v-1434h-172v547q-101 -49 -258 -49q-143 0 -235.5 92t-92.5 244v600z" />
    <glyph glyph-name="uni04F5" unicode="&#x4f5;" 
d="M541 1190h-183v182h183v-182zM887 1190h-182v182h182v-182zM225 604v420h164v-424q0 -75 40.5 -120.5t113.5 -45.5q63 0 131 19.5t104 42.5l35 22v506h164v-1024h-164v360q-131 -73 -278 -73q-139 0 -224.5 87t-85.5 230z" />
    <glyph glyph-name="uni04F8" unicode="&#x4f8;" 
d="M547 1602h-182v182h182v-182zM893 1602h-182v182h182v-182zM125 1434h172v-598h168q135 0 231 -93q97 -94 97 -227v-197q0 -130 -97 -227q-95 -92 -231 -92h-340v1434zM618 317v205q0 63 -47 108.5t-114 45.5h-160v-514h160q68 0 114.5 44.5t46.5 110.5zM956 1434h172
v-1434h-172v1434z" />
    <glyph glyph-name="uni04F9" unicode="&#x4f9;" 
d="M535 1190h-183v182h183v-182zM881 1190h-183v182h183v-182zM152 1024h161v-410h170q152 0 238 -92q88 -88 88 -215q0 -126 -88 -217q-87 -90 -238 -90h-331v1024zM477 467h-164v-320h164q64 -2 108 31t54 81t0 96t-54 81t-108 31zM913 1024h164v-1024h-164v1024z" />
    <glyph glyph-name="Wgrave" unicode="&#x1e80;" 
d="M831 133l52 705v596h168v-611l-97 -823h-235l-105 590h-8l-112 -590h-228l-90 823v611h170v-596l51 -705h9l106 569h205l106 -569h8zM492 1831l249 -301h-172l-311 301h234z" />
    <glyph glyph-name="wgrave" unicode="&#x1e81;" 
d="M840 129l49 514v381h164v-397l-90 -627h-240l-107 500h-10l-102 -500h-238l-90 627v397h164v-381l49 -514h17l104 500h205l108 -500h17zM502 1421l250 -301h-172l-312 301h234z" />
    <glyph glyph-name="Wacute" unicode="&#x1e82;" 
d="M831 133l52 705v596h168v-611l-97 -823h-235l-105 590h-8l-112 -590h-228l-90 823v611h170v-596l51 -705h9l106 569h205l106 -569h8zM967 1831l-312 -301h-172l250 301h234z" />
    <glyph glyph-name="wacute" unicode="&#x1e83;" 
d="M840 129l49 514v381h164v-397l-90 -627h-240l-107 500h-10l-102 -500h-238l-90 627v397h164v-381l49 -514h17l104 500h205l108 -500h17zM967 1421l-312 -301h-172l250 301h234z" />
    <glyph glyph-name="Wdieresis" unicode="&#x1e84;" 
d="M831 133l52 705v596h168v-611l-97 -823h-235l-105 590h-8l-112 -590h-228l-90 823v611h170v-596l51 -705h9l106 569h205l106 -569h8zM528 1604h-174v174h174v-174zM874 1604h-174v174h174v-174z" />
    <glyph glyph-name="wdieresis" unicode="&#x1e85;" 
d="M840 129l49 514v381h164v-397l-90 -627h-240l-107 500h-10l-102 -500h-238l-90 627v397h164v-381l49 -514h17l104 500h205l108 -500h17zM528 1194h-174v174h174v-174zM874 1194h-174v174h174v-174z" />
    <glyph glyph-name="endash" unicode="&#x2013;" 
d="M225 680h779v-160h-779v160z" />
    <glyph glyph-name="emdash" unicode="&#x2014;" 
d="M0 680h1229v-160h-1229v160z" />
    <glyph glyph-name="quoteleft" unicode="&#x2018;" 
d="M631 1434h114l-73 -439h-189z" />
    <glyph glyph-name="quoteright" unicode="&#x2019;" 
d="M598 995h-115l74 439h188z" />
    <glyph glyph-name="quotesinglbase" unicode="&#x201a;" 
d="M598 -238h-115l74 439h188z" />
    <glyph glyph-name="quotedblleft" unicode="&#x201c;" 
d="M786 1436h115l-74 -439h-188zM475 1436h115l-74 -439h-188z" />
    <glyph glyph-name="quotedblright" unicode="&#x201d;" 
d="M442 997h-114l73 439h189zM754 997h-115l74 439h188z" />
    <glyph glyph-name="quotedblbase" unicode="&#x201e;" 
d="M442 -238h-114l73 439h189zM754 -238h-115l74 439h188z" />
    <glyph glyph-name="dagger" unicode="&#x2020;" 
d="M225 872v152h314v410h151v-410h314v-152h-314v-1241h-151v1241h-314z" />
    <glyph glyph-name="daggerdbl" unicode="&#x2021;" 
d="M225 45v152h314v675h-314v152h314v410h151v-410h314v-152h-314v-675h314v-152h-314v-414h-151v414h-314z" />
    <glyph glyph-name="bullet" unicode="&#x2022;" 
d="M305 735q0 127 90 217q89 92 219 92q128 0 217 -92q93 -90 93 -217q0 -129 -93 -219q-90 -90 -217 -90q-129 0 -219 90t-90 219z" />
    <glyph glyph-name="ellipsis" unicode="&#x2026;" 
d="M307 0h-201v201h201v-201zM715 0h-201v201h201v-201zM1122 0h-200v201h200v-201z" />
    <glyph glyph-name="perthousand" unicode="&#x2030;" 
d="M575 1239v-186q0 -91 -67 -152t-162 -61h-14q-92 0 -162 61q-68 65 -68 152v186q0 90 68 152q66 63 162 63h14q96 0 162 -63q67 -61 67 -152zM446 1053v186q0 43 -31.5 72.5t-78.5 29.5q-43 0 -74 -30t-31 -72v-186q0 -43 32.5 -73t76.5 -30q43 0 74.5 30.5t31.5 72.5z
M575 379v-186q0 -91 -67 -152t-162 -61h-14q-92 0 -162 61q-68 65 -68 152v186q0 89 68 151q67 64 162 64h14q95 0 162 -64q67 -61 67 -151zM446 193v186q0 43 -31.5 72.5t-78.5 29.5q-43 0 -74 -30t-31 -72v-186q0 -43 32.5 -73t76.5 -30q43 0 74.5 30.5t31.5 72.5z
M1126 379v-186q0 -91 -67 -152t-162 -61h-14q-92 0 -162 61q-68 65 -68 152v186q0 89 68 151q67 64 162 64h14q95 0 162 -64q67 -61 67 -151zM997 193v186q0 43 -31.5 72.5t-78.5 29.5q-43 0 -74 -30t-31 -72v-186q0 -43 32.5 -73t76.5 -30q43 0 74.5 30.5t31.5 72.5z
M102 586v116l1024 322v-113z" />
    <glyph glyph-name="guilsinglleft" unicode="&#x2039;" 
d="M582 596l254 -324h-193l-250 324l250 326h191z" />
    <glyph glyph-name="guilsinglright" unicode="&#x203a;" 
d="M836 596l-250 -324h-191l252 324l-254 326h193z" />
    <glyph glyph-name="fraction" unicode="&#x2044;" 
d="M307 0h-110l727 1434h108z" />
    <glyph glyph-name="foursuperior" unicode="&#x2074;" 
d="M600 1434h145l-233 -486h154v144h143v-144h72v-133h-72v-153h-143v153h-314v109z" />
    <glyph glyph-name="uni2081" unicode="&#x2081;" 
d="M453 616v127l155 29h140v-772h-144v641z" />
    <glyph glyph-name="uni2082" unicode="&#x2082;" 
d="M530 547h-139q0 109 64 177.5t166 68.5q95 0 162 -62.5t67 -155.5q0 -64 -44.5 -128.5t-107.5 -110.5q-156 -116 -168 -205h320v-131h-471v74q0 84 47.5 163t114.5 132q164 126 164 211q0 37 -23.5 59.5t-60.5 22.5q-39 0 -65 -31t-26 -84z" />
    <glyph glyph-name="uni2083" unicode="&#x2083;" 
d="M825 768v-106l-110 -154q5 -1 14 -4t31.5 -17t40 -32t31.5 -52.5t14 -76.5v-123q0 -89 -66 -154t-164 -65q-101 0 -168 60.5t-67 180.5h139q0 -53 25 -80.5t69 -27.5q40 0 64 24t24 62v112q0 32 -19.5 52t-51.5 20h-96v88l122 162h-235v131h403z" />
    <glyph glyph-name="uni2084" unicode="&#x2084;" 
d="M600 772h145l-233 -485h154v143h143v-143h72v-133h-72v-154h-143v154h-314v108z" />
    <glyph glyph-name="Euro" unicode="&#x20ac;" 
d="M272 770h-118v162h118v145q0 159 113 266q114 111 281 111q168 0 276 -111q111 -108 111 -268h-168q0 91 -63 154t-154 63q-94 0 -159 -62.5t-65 -154.5v-143h437v-162h-437v-117h375v-161h-375v-136q0 -91 65 -153t159 -62q90 0 155 62q66 66 66 151v43h170v-41
q0 -156 -115 -268q-114 -108 -278 -108q-168 0 -281 110t-113 268v134h-118v161h118v117z" />
    <glyph glyph-name="trademark" unicode="&#x2122;" 
d="M827 1153l123 281h123v-689h-110v412l6 105l-97 -218h-90l-100 218l8 -107v-410h-108v689h120zM240 1329h-142v105h400v-105h-144v-584h-114v584z" />
    <glyph glyph-name="Omega" unicode="&#x2126;" 
d="M739 274q46 24 77.5 76t31.5 111v618q0 89 -64.5 151t-167.5 62q-105 0 -169 -62t-64 -151v-616q0 -62 32 -113.5t83 -75.5q34 -15 34 -43v-231h-329v160h192q-90 47 -138 127t-48 178v612q0 151 110 264t297 113q181 0 293 -115q113 -113 113 -262v-614
q0 -95 -49 -175.5t-139 -127.5h200v-160h-329v231q0 28 34 43z" />
    <glyph glyph-name="increment" unicode="&#x2206;" 
d="M1036 0h-846l273 1434h301zM633 1272h-39l-201 -1112h441z" />
    <glyph glyph-name="product" unicode="&#x220f;" 
d="M219 1434h789v-1616h-172v1458h-445v-1458h-172v1616z" />
    <glyph glyph-name="summation" unicode="&#x2211;" 
d="M1006 1272h-564l285 -582v-92l-309 -618h606v-162h-803v137l340 688l-319 653v138h764v-162z" />
    <glyph glyph-name="minus" unicode="&#x2212;" 
d="M1038 680v-160h-848v160h848z" />
    <glyph glyph-name="uni2215" unicode="&#x2215;" 
d="M307 0h-110l727 1434h108z" />
    <glyph glyph-name="uni2219" unicode="&#x2219;" 
d="M715 496h-201v200h201v-200z" />
    <glyph glyph-name="radical" unicode="&#x221a;" 
d="M670 -180h-260l-187 817q-22 63 -46.5 78.5t-82.5 13.5v129q6 2 41 2q202 0 242 -190l153 -721h23l469 1673h162z" />
    <glyph glyph-name="infinity" unicode="&#x221e;" 
d="M840 358q-116 0 -226 119q-101 -119 -225 -119q-97 0 -168 68q-71 71 -71 164q0 98 69 164q69 69 170 69q132 0 225 -118q103 118 226 118q96 0 166 -67q71 -68 71 -162q0 -98 -68.5 -167t-168.5 -69zM838 680q-57 0 -133 -88q78 -90 135 -90q37 0 65.5 27t28.5 63
q0 35 -29 61.5t-67 26.5zM391 506q61 0 129 86q-77 92 -131 92q-37 0 -65.5 -28.5t-28.5 -63.5q0 -37 27.5 -61.5t68.5 -24.5z" />
    <glyph glyph-name="integral" unicode="&#x222b;" 
d="M285 -369v150h118q57 0 94.5 38.5t37.5 98.5v1233q0 121 83 201q82 82 209 82h117v-150h-119q-57 0 -94 -38.5t-37 -98.5v-1233q0 -120 -84 -201q-82 -82 -209 -82h-116z" />
    <glyph glyph-name="approxequal" unicode="&#x2248;" 
d="M319 653h-155q0 101 69 176q72 78 181 78q86 0 215 -57t190 -57q42 0 65 29t23 69h158q0 -111 -67.5 -182.5t-178.5 -71.5q-91 0 -225 57q-137 58 -180 58t-69 -28.5t-26 -70.5zM319 303h-155q0 101 69 176q72 78 181 78q86 0 215 -57q131 -58 190 -58q42 0 65 29.5
t23 69.5h158q0 -111 -67.5 -182.5t-178.5 -71.5q-91 0 -225 57t-180 57q-43 0 -69 -28t-26 -70z" />
    <glyph glyph-name="notequal" unicode="&#x2260;" 
d="M190 342v160h332l72 192h-404v160h465l107 281h110l-106 -281h272v-160h-333l-72 -192h405v-160h-467l-106 -283h-111l107 283h-271z" />
    <glyph glyph-name="lessequal" unicode="&#x2264;" 
d="M190 0v160h848v-160h-848zM1038 244l-848 356v150l848 354v-176l-643 -254l643 -252v-178z" />
    <glyph glyph-name="greaterequal" unicode="&#x2265;" 
d="M190 0v160h848v-160h-848zM190 1104l848 -354v-150l-848 -356v178l644 252l-644 254v176z" />
    <glyph glyph-name="lozenge" unicode="&#x25ca;" 
d="M688 1434l318 -717l-318 -717h-149l-316 717l318 717h147zM623 1239h-15l-217 -522l217 -531h15l215 531z" />
    <glyph glyph-name="commaaccent" unicode="&#xf6c3;" 
d="M774 -111l-196 -309h-140l133 309h203z" />
    <glyph glyph-name="cyrbreve" unicode="&#xf6d4;" 
d="M338 1405h154q0 -141 122 -141q69 0 95 34.5t26 106.5h154q0 -119 -66 -189.5t-178 -70.5h-63q-114 0 -179 70t-65 190z" />
    <glyph glyph-name="NULL" horiz-adv-x="0" 
 />
    <glyph glyph-name="CR" horiz-adv-x="681" 
 />
  </font>
</defs>
</svg>
