<?xml version="1.0" standalone="no"?>
<!DOCTYPE svg PUBLIC "-//W3C//DTD SVG 1.1//EN" "http://www.w3.org/Graphics/SVG/1.1/DTD/svg11.dtd" >
<svg xmlns="http://www.w3.org/2000/svg" xmlns:xlink="http://www.w3.org/1999/xlink" version="1.1">
<metadata>
Created by FontForge 20170731 at Mon Oct 12 08:08:44 2020
 By Aleksey,,,
Copyright (c) 2017 by Ramiz Guseynov. All rights reserved. |DCNT
</metadata>
<defs>
<font id="DecimaMonoCyrLt" horiz-adv-x="1228" >
  <font-face 
    font-family="Decima Mono Cyr Lt"
    font-weight="300"
    font-stretch="normal"
    units-per-em="2048"
    panose-1="2 0 5 9 0 0 0 2 0 4"
    ascent="1616"
    descent="-432"
    x-height="1024"
    cap-height="1434"
    bbox="0 -430 1294 1851"
    underline-thickness="102"
    underline-position="-307"
    unicode-range="U+0020-FB02"
  />
<missing-glyph 
 />
    <glyph glyph-name="fi" unicode="fi" 
d="M377 936v-936h-101v936h-147v88h147v135q0 133 81.5 214t211.5 81q99 0 174 -35l-55 -73q-42 22 -119 22q-87 0 -139.5 -55t-52.5 -146v-143h555v-936h164v-88h-455v88h188v848h-452zM942 1270h-135v143h135v-143z" />
    <glyph glyph-name="fl" unicode="fl" 
d="M131 1024h145v131q0 128 80.5 203.5t212.5 75.5h361v-1346h166v-88h-455v88h186v1258h-258q-92 0 -142 -47.5t-50 -137.5v-137h270v-88h-270v-936h-101v936h-145v88z" />
    <glyph glyph-name=".notdef" 
 />
    <glyph glyph-name=".null" horiz-adv-x="0" 
 />
    <glyph glyph-name="nonmarkingreturn" horiz-adv-x="682" 
 />
    <glyph glyph-name="space" unicode=" " 
 />
    <glyph glyph-name="exclam" unicode="!" 
d="M686 0h-143v143h143v-143zM559 1434h107v-1127h-107v1127z" />
    <glyph glyph-name="quotedbl" unicode="&#x22;" 
d="M471 989h-72v465h140zM758 989h-70v465h139z" />
    <glyph glyph-name="numbersign" unicode="#" 
d="M420 932h-207v92h219l57 410h93l-58 -410h271l57 410h92l-57 -410h198v-92h-211l-59 -418h201v-92h-213l-60 -422h-92l60 422h-271l-59 -422h-92l59 422h-205v92h217zM782 932h-270l-59 -418h270z" />
    <glyph glyph-name="dollar" unicode="$" 
d="M664 -125h-101v125q-146 15 -237 117q-90 104 -90 239v50h106v-50q0 -111 77 -185.5t195 -74.5t194.5 72.5t76.5 183.5q0 66 -21.5 118.5t-58 89t-83.5 66.5t-99 54.5t-104.5 50t-99.5 57.5t-83.5 71t-58 96t-21.5 128q0 136 88 234q90 100 219 115v127h101v-127
q129 -15 221 -113q89 -95 92 -242h-105q-5 111 -77.5 185.5t-180.5 74.5q-104 0 -178 -71t-74 -176q0 -57 21.5 -103t58 -78.5t83.5 -60.5t99 -53.5t104.5 -52t99.5 -61.5t83.5 -77.5t58 -104.5t21.5 -137q0 -142 -92 -245q-92 -102 -235 -117v-125z" />
    <glyph glyph-name="percent" unicode="%" 
d="M616 1249v-207q0 -88 -64.5 -149.5t-156.5 -61.5q-91 0 -154 61.5t-63 149.5v207q0 87 63 145t154 58q94 0 157.5 -58t63.5 -145zM524 1049v184q0 56 -37 93.5t-92 37.5t-91 -37.5t-36 -93.5v-182q0 -56 37 -93.5t94 -37.5q51 0 88 37.5t37 91.5zM1059 397v-207
q0 -88 -64.5 -149t-156.5 -61q-91 0 -154 61t-63 149v207q0 87 63 145t154 58q94 0 157.5 -58t63.5 -145zM967 197v184q0 56 -37 93.5t-92 37.5t-91 -37.5t-36 -93.5v-182q0 -56 37 -93.5t94 -37.5q51 0 88 37.5t37 91.5zM102 469v96l1024 400v-97z" />
    <glyph glyph-name="ampersand" unicode="&#x26;" 
d="M608 1446q156 0 250 -98q98 -98 98 -224h-98q0 74 -65 148q-64 76 -179 76q-116 0 -188 -69.5t-72 -180.5v-47q0 -89 54 -168q55 -76 172 -76h565v-98h-184v-365q0 -155 -101 -256q-97 -100 -254 -100q-161 0 -266 102q-104 101 -104 254v164q0 53 15 98t39 76t43.5 49
t39.5 31l14 8l-8 6q-8 6 -20 17t-27.5 27t-30.5 39t-27 50t-20 63t-8 75v49q0 151 102 250q100 100 260 100zM856 340v369h-291q-102 0 -161.5 -59.5t-59.5 -155.5v-152q0 -114 71 -186t187 -72t185 71t69 185z" />
    <glyph glyph-name="quotesingle" unicode="'" 
d="M616 989h-71v465h139z" />
    <glyph glyph-name="parenleft" unicode="(" 
d="M788 -301v-98q-148 3 -247 108q-101 107 -101 256v1139q0 140 103 246q104 107 245 116v-102q-104 -4 -171.5 -78.5t-67.5 -183.5v-1141q0 -106 67 -182q68 -77 172 -80z" />
    <glyph glyph-name="parenright" unicode=")" 
d="M440 -399v98q104 3 172 80q70 76 70 182v1141q0 109 -69 183t-173 79v102q149 -3 248 -108q100 -103 100 -254v-1139q0 -141 -104 -248q-101 -107 -244 -116z" />
    <glyph glyph-name="asterisk" unicode="*" 
d="M578 1280v174h71v-174l170 55l19 -63l-170 -66l102 -139l-53 -41l-105 141l-94 -141l-59 41l94 143l-164 50l21 67z" />
    <glyph glyph-name="plus" unicode="+" 
d="M561 631v373h105v-373h372v-103h-372v-374h-105v374h-371v103h371z" />
    <glyph glyph-name="comma" unicode="," 
d="M612 0h-65v143h141v-153l-76 -236h-73z" />
    <glyph glyph-name="hyphen" unicode="-" 
d="M385 631h457v-103h-457v103z" />
    <glyph glyph-name="period" unicode="." 
d="M686 0h-143v143h143v-143z" />
    <glyph glyph-name="slash" unicode="/" 
d="M319 -371h-102l692 1805h101z" />
    <glyph glyph-name="zero" unicode="0" 
d="M965 1092v-750q0 -149 -103 -258q-101 -104 -248 -104q-149 0 -249 106q-103 109 -103 258v748q0 150 103 256q100 106 249 106q148 0 248 -106q103 -106 103 -256zM860 340v750q0 110 -72 188t-174 78q-105 0 -176 -76.5t-71 -189.5v-748q0 -113 69 -188q70 -76 178 -76
q104 0 174 76q72 78 72 186z" />
    <glyph glyph-name="one" unicode="1" 
d="M313 1296v99l232 39h112v-1336h291v-98h-667v98h270v1233z" />
    <glyph glyph-name="two" unicode="2" 
d="M365 1092h-107q3 160 109 260q108 102 260 102t256 -104q104 -101 104 -256q0 -103 -47 -195q-13 -26 -27.5 -49t-35.5 -47.5t-33.5 -39.5t-42 -42t-40 -36t-47.5 -41.5t-46 -39.5q-98 -83 -154 -135q-73 -65 -118.5 -153t-45.5 -181v-37h637v-98h-745v123
q0 128 62 243.5t163 200.5q25 22 79 66.5t83.5 71t75 69t71 76.5t52.5 77t39 87.5t12 91.5q0 106 -76 176q-74 74 -180 74q-108 0 -180.5 -75.5t-77.5 -188.5z" />
    <glyph glyph-name="three" unicode="3" 
d="M614 -20q-155 0 -262 104q-106 106 -106 258v8h106v-10q0 -110 76 -186t186 -76q111 0 187 76t76 188v281q0 100 -56.5 159.5t-150.5 59.5h-121v112l280 379h-503v101h622v-113l-286 -381q131 0 227 -84q94 -82 94 -233v-279q0 -149 -109 -258q-106 -106 -260 -106z" />
    <glyph glyph-name="four" unicode="4" 
d="M774 324h-551v125l463 985h115l-469 -1008h442v389h111v-389h121v-102h-121v-324h-111v324z" />
    <glyph glyph-name="five" unicode="5" 
d="M246 342v8h106v-10q0 -110 76 -186t186 -76q113 0 188 76t75 192v234q0 122 -72 198t-187 76q-70 0 -129 -32t-86 -74l-108 30l59 656h580v-101h-481l-39 -459q11 11 26 21q25 18 84 37.5t115 19.5q152 0 246 -104q98 -104 98 -266v-234q0 -156 -106 -262t-263 -106
q-155 0 -262 104q-106 106 -106 258z" />
    <glyph glyph-name="six" unicode="6" 
d="M610 1454q151 0 252 -104q101 -101 101 -230v-16h-105q0 16 -2 26q-9 87 -76 154q-64 70 -168 70q-113 0 -188 -78q-72 -78 -72 -189v-278q24 32 41 49q92 92 232 92q148 0 252 -104q106 -103 106 -258v-244q0 -152 -106 -258t-265 -106q-155 0 -262 104
q-106 106 -106 258v748q0 153 102 258q103 106 264 106zM618 852q-112 0 -189 -74.5t-77 -191.5v-246q0 -110 75 -186t185 -76q111 0 187 76q75 75 75 188v244q0 117 -73 191.5t-183 74.5z" />
    <glyph glyph-name="seven" unicode="7" 
d="M618 0h-110q3 174 55 383q51 210 115 379q57 145 115 325q51 159 51 246h-565v101h671v-123q0 -80 -51 -242q-57 -179 -113 -332q-62 -167 -114 -375q-51 -202 -54 -362z" />
    <glyph glyph-name="eight" unicode="8" 
d="M963 1114v-61q0 -84 -38.5 -159t-84.5 -108l-39 -26q37 -22 63 -47q119 -110 119 -269v-102q0 -152 -106 -258q-107 -104 -263 -104q-159 0 -266 104q-104 107 -104 260v100q0 62 18 116.5t47 92t53.5 60t47.5 37.5l18 10q-1 1 -8.5 5.5t-19.5 13.5t-29 24
q-107 103 -107 252v59q0 144 98 242q101 98 252 98q147 0 248 -98t101 -242zM872 340v102q0 112 -75 187q-75 78 -185 78q-106 0 -184 -78q-74 -77 -74 -187v-100q0 -113 74 -188.5t186 -75.5q110 0 183 76q75 75 75 186zM858 1051v55q0 106 -70.5 178t-175.5 72
q-102 0 -174 -72q-69 -69 -69 -178v-53q0 -102 68.5 -174t176.5 -72q105 0 174.5 69.5t69.5 174.5z" />
    <glyph glyph-name="nine" unicode="9" 
d="M616 -20q-149 0 -251 102q-101 104 -101 231v17h105q0 -17 2 -27q9 -86 73 -156q67 -67 170 -67q117 0 187 76q73 76 73 190v279q-1 -1 -5 -8t-12 -17t-23 -25q-92 -92 -232 -92q-146 0 -254 105q-104 104 -104 258v244q0 152 106 258t264 106q157 0 263 -106
q106 -103 106 -256v-748q0 -153 -104 -260q-101 -104 -263 -104zM608 582q112 0 189 74.5t77 191.5v246q0 110 -75 186t-185 76q-108 0 -186 -78q-76 -76 -76 -186v-244q0 -117 73 -191.5t183 -74.5z" />
    <glyph glyph-name="colon" unicode=":" 
d="M686 0h-143v143h143v-143zM686 881h-143v143h143v-143z" />
    <glyph glyph-name="semicolon" unicode=";" 
d="M690 881h-143v143h143v-143zM612 0h-65v143h141v-153l-76 -236h-73z" />
    <glyph glyph-name="less" unicode="&#x3c;" 
d="M1032 143l-835 377v119l835 377v-113l-729 -319v-9l729 -317v-115z" />
    <glyph glyph-name="equal" unicode="=" 
d="M190 469h846v-102h-846v102zM190 797h846v-103h-846v103z" />
    <glyph glyph-name="greater" unicode="&#x3e;" 
d="M197 1016l835 -377v-119l-835 -377v115l729 317v9l-729 319v113z" />
    <glyph glyph-name="question" unicode="?" 
d="M356 1092h-106q3 160 106 260q108 102 258 102q157 0 260 -100q105 -99 105 -260q0 -186 -121 -318q-2 -2 -29 -31t-31.5 -34t-28.5 -33.5t-30 -39t-25.5 -40t-25.5 -47.5t-19 -49.5t-17.5 -59t-9 -63t-5.5 -72.5h-105q1 128 34.5 229.5t86.5 165.5q17 21 57 65.5
t61.5 72t48 70.5t38.5 91t12 103q0 107 -75 176q-75 72 -181 72q-108 0 -180.5 -74.5t-77.5 -185.5zM657 0h-143v143h143v-143z" />
    <glyph glyph-name="at" unicode="@" 
d="M578 745v-481q0 -87 47.5 -141.5t122.5 -54.5q80 0 130 54.5t50 141.5v481q0 85 -48.5 134t-129.5 49q-79 0 -125.5 -49t-46.5 -134zM909 954l19 -22v121q0 129 -90 219q-88 88 -222 88q-139 0 -227 -88t-88 -219v-1016q0 -133 88 -221q90 -90 213 -90v-95
q-169 3 -287 121q-116 116 -116 285v1016q0 169 118 284q120 117 299 117q176 0 293 -117q119 -116 119 -284v-1053h-92l-4 86q-8 -16 -21 -29q-18 -22 -69 -47.5t-105 -25.5q-114 0 -186 75q-74 77 -74 193v508q0 107 74 184q78 78 186 78q56 0 103.5 -21t68.5 -47z" />
    <glyph glyph-name="A" unicode="A" 
d="M248 561l256 873h221l256 -873v-561h-107v489h-520v-489h-106v561zM365 588h499l-213 747h-73z" />
    <glyph glyph-name="B" unicode="B" 
d="M291 1434h348q133 0 221 -88q88 -85 88 -211v-119q0 -90 -46 -155.5t-91 -90.5l-16 -10q1 -1 8.5 -5t19.5 -13t29 -25q111 -89 111 -236v-155q0 -140 -101 -234q-100 -92 -231 -92h-340v1434zM645 1331h-248v-528h248q85 0 145 60t60 145v118q0 85 -60 145t-145 60z
M631 709h-234v-611h234q97 0 162 67t65 161v155q0 78 -59 152q-58 76 -168 76z" />
    <glyph glyph-name="C" unicode="C" 
d="M883 346h106v-8q0 -151 -106 -254q-107 -104 -258 -104q-153 0 -260 104q-107 107 -107 256v756q0 150 104 254t263 104q154 0 258 -104t104 -254h-104q-3 109 -78 184q-78 78 -182 78q-110 0 -184 -76.5t-74 -187.5v-752q0 -109 77 -186q78 -78 183 -78q108 0 182 74
q76 76 76 184v10z" />
    <glyph glyph-name="D" unicode="D" 
d="M979 1073v-713q0 -151 -105 -256q-101 -104 -256 -104h-350v1434h350q154 0 256 -105q105 -102 105 -256zM872 356v715q0 113 -74 186.5t-186 73.5h-237v-1233h237q113 0 186.5 73t73.5 185z" />
    <glyph glyph-name="E" unicode="E" 
d="M301 0v1434h643v-99h-536v-528h487v-98h-487v-611h555v-98h-662z" />
    <glyph glyph-name="F" unicode="F" 
d="M319 0v1434h644v-99h-537v-528h510v-98h-510v-709h-107z" />
    <glyph glyph-name="G" unicode="G" 
d="M682 702h319v-364q0 -153 -106 -256q-105 -102 -268 -102q-168 0 -275 104q-106 103 -106 256v756q0 154 106 254q107 104 275 104q162 0 264 -102q100 -100 100 -256h-106q-2 110 -74.5 183t-183.5 73q-122 0 -198.5 -73.5t-76.5 -184.5v-756q0 -112 76.5 -186
t198.5 -74q118 0 193 73.5t75 184.5v268h-213v98z" />
    <glyph glyph-name="H" unicode="H" 
d="M874 807v627h107v-1434h-107v709h-520v-709h-106v1434h106v-627h520z" />
    <glyph glyph-name="I" unicode="I" 
d="M563 1335h-319v99h741v-99h-315v-1237h315v-98h-741v98h319v1237z" />
    <glyph glyph-name="J" unicode="J" 
d="M238 338v129h106v-131q0 -107 74 -184q77 -74 184 -74q111 0 184 76q76 76 76 184v997h-555v99h662v-1094q0 -149 -107 -256q-104 -104 -252 -104h-14q-150 0 -254 104t-104 254z" />
    <glyph glyph-name="K" unicode="K" 
d="M287 1434h106v-664l506 664h123l-516 -672l547 -762h-127l-533 748v-748h-106v1434z" />
    <glyph glyph-name="L" unicode="L" 
d="M317 0v1434h107v-1336h596v-98h-703z" />
    <glyph glyph-name="M" unicode="M" 
d="M313 1434l301 -689l304 689h106v-1434h-102v735l10 522l-266 -606h-105l-264 606q8 -227 8 -520v-737h-100v1434h108z" />
    <glyph glyph-name="N" unicode="N" 
d="M979 0h-102l-537 1221q8 -177 8 -476v-745h-98v1434h102l539 -1225q-10 218 -10 479v746h98v-1434z" />
    <glyph glyph-name="O" unicode="O" 
d="M991 1096v-758q0 -153 -106 -256q-105 -102 -271 -102q-165 0 -272 104q-106 103 -106 256v756q0 154 106 254q107 104 272 104q167 0 271 -104q106 -100 106 -254zM885 336v758q0 112 -75.5 187t-195.5 75q-121 0 -196.5 -75t-75.5 -187v-756q0 -112 75.5 -186
t196.5 -74q120 0 195.5 73t75.5 185z" />
    <glyph glyph-name="P" unicode="P" 
d="M410 0h-107v1434h365q127 0 213 -86q86 -83 86 -213v-312q0 -131 -86 -217q-87 -84 -213 -84h-258v-522zM860 817v316q0 86 -56 142t-142 56h-252v-710h252q86 0 142 55t56 141z" />
    <glyph glyph-name="Q" unicode="Q" 
d="M973 1096v-758q0 -139 -92 -242l127 -125l-64 -63l-135 131q-82 -55 -213 -55q-164 0 -272 102q-107 101 -107 254v756q0 151 107 252q108 102 272 102q165 0 270 -102q107 -101 107 -252zM737 111l-141 139l66 63l145 -145q59 71 59 168v758q0 112 -75 186t-195 74
q-121 0 -196.5 -74t-75.5 -186v-756q0 -112 75.5 -185t196.5 -73q77 0 141 31z" />
    <glyph glyph-name="R" unicode="R" 
d="M991 0h-114l-228 547h-246v-547h-106v1434h344q145 0 232.5 -83.5t87.5 -215.5v-287q0 -98 -56 -177t-147 -108zM854 842v291q0 89 -58 143.5t-157 54.5h-236v-686h252q86 0 142.5 55.5t56.5 141.5z" />
    <glyph glyph-name="S" unicode="S" 
d="M977 1096h-105q-5 111 -77.5 185.5t-180.5 74.5q-103 0 -178 -72q-74 -71 -74 -176q0 -29 4.5 -55.5t17 -50t23.5 -42t34 -39t38.5 -33.5t46 -32.5t47 -29t52.5 -29.5t51 -29q72 -41 151 -96q75 -49 119.5 -135t44.5 -193q0 -152 -108 -260q-107 -104 -269 -104
q-164 0 -272 102q-106 103 -106 256v49h106v-49q0 -111 77 -185.5t195 -74.5t194.5 72.5t76.5 183.5q0 107 -61 188.5t-162 132.5q-16 9 -54 28.5t-57.5 30t-54.5 31t-54.5 35t-48.5 38t-46 43.5t-36.5 48.5t-30 56.5t-17.5 63t-7 73q0 149 104 250q108 102 254 102
q151 0 254 -100q106 -100 109 -258z" />
    <glyph glyph-name="T" unicode="T" 
d="M561 1335h-354v99h815v-99h-354v-1335h-107v1335z" />
    <glyph glyph-name="U" unicode="U" 
d="M885 336v1098h106v-1096q0 -150 -104 -254t-254 -104h-39q-147 0 -254 104q-104 107 -104 256v1094h106v-1096q0 -107 74 -184q76 -76 186 -76h25q108 0 182 74q76 76 76 184z" />
    <glyph glyph-name="V" unicode="V" 
d="M248 1434h106v-570l221 -766h78l221 766v570h107v-566l-256 -868h-221l-256 868v566z" />
    <glyph glyph-name="W" unicode="W" 
d="M856 98l70 772v564h106v-570l-86 -864h-196l-127 645h-19l-129 -645h-194l-86 864v570h106v-564l70 -772h28l142 680h147l139 -680h29z" />
    <glyph glyph-name="X" unicode="X" 
d="M221 1434h121l270 -580l273 580h121l-330 -689l362 -745h-125l-301 639l-299 -639h-125l361 745z" />
    <glyph glyph-name="Y" unicode="Y" 
d="M197 1434h118l301 -633l297 633h117l-362 -752v-682h-107v682z" />
    <glyph glyph-name="Z" unicode="Z" 
d="M983 1434v-109l-621 -1227h619v-98h-735v109l620 1226h-590v99h707z" />
    <glyph glyph-name="bracketleft" unicode="[" 
d="M549 -270h239v-99h-348v1803h348v-105h-239v-1599z" />
    <glyph glyph-name="backslash" unicode="\" 
d="M217 1434h100l693 -1805h-103z" />
    <glyph glyph-name="bracketright" unicode="]" 
d="M788 -369h-348v99h242v1599h-242v105h348v-1803z" />
    <glyph glyph-name="asciicircum" unicode="^" 
d="M256 721l309 713h101l311 -713h-94l-267 633l-268 -633h-92z" />
    <glyph glyph-name="underscore" unicode="_" horiz-adv-x="1224" 
d="M0 -264v76h1225v-76h-1225z" />
    <glyph glyph-name="grave" unicode="`" 
d="M575 1382l224 -249h-111l-260 249h147z" />
    <glyph glyph-name="a" unicode="a" 
d="M961 0h-101v109q0 -2 -10.5 -14t-34 -31.5t-55 -38t-81.5 -31.5t-106 -14q-136 0 -231 86q-94 85 -94 219t95 220t245 97l272 19v94q0 107 -62 174t-167 67q-85 0 -144.5 -48.5t-78.5 -127.5h-101q19 118 107 191t217 73q156 0 243 -90.5t87 -240.5v-713zM586 66
q107 0 190 65q84 66 84 152v249l-248 -14q-124 -8 -194 -68.5t-70 -162.5q0 -95 66.5 -158t171.5 -63z" />
    <glyph glyph-name="b" unicode="b" 
d="M885 326v372q0 121 -67 189.5t-179 68.5q-119 0 -195.5 -73t-76.5 -185v-372q0 -110 77.5 -184t194.5 -74q109 0 177.5 69t68.5 189zM266 1434h101v-516q0 2 10 14t32.5 31t53 37t77.5 31t99 13q157 0 251.5 -91t94.5 -234v-414q0 -137 -96 -233q-95 -92 -250 -92
q-92 0 -161.5 38t-100.5 76l-10 15v-109h-101v1434z" />
    <glyph glyph-name="c" unicode="c" 
d="M354 715v-406q0 -104 74.5 -172.5t185.5 -68.5q107 0 180.5 64t77.5 167h97q-9 -138 -107 -229q-96 -90 -248 -90q-162 0 -260 94t-98 239v398q0 143 98 237q101 96 260 96q148 0 244 -90t105 -223h-101q-4 98 -74.5 161.5t-173.5 63.5q-111 0 -185.5 -68.5t-74.5 -172.5
z" />
    <glyph glyph-name="d" unicode="d" 
d="M836 950l26 -32v516h101v-1434h-101v111q-9 -15 -31 -37q-19 -19 -92 -58q-68 -36 -149 -36q-155 0 -250 92q-96 96 -96 233v414q0 135 94 229q96 96 252 96q79 0 148.5 -29.5t97.5 -64.5zM344 711v-398q0 -106 71 -175.5t181 -69.5q106 0 186 71q80 74 80 170v406
q0 98 -78 170q-77 71 -186 71q-112 0 -183 -69.5t-71 -175.5z" />
    <glyph glyph-name="e" unicode="e" 
d="M872 299h99q-8 -141 -106 -230t-251 -89q-156 0 -260 90q-98 91 -98 227v430q0 137 98 225q103 92 260 92q156 0 256 -92q101 -91 101 -225v-244h-617v-170q0 -108 72.5 -176.5t185.5 -68.5t184.5 63.5t75.5 167.5zM354 709v-138h518v140q0 108 -74.5 176.5t-185.5 68.5
t-184.5 -69.5t-73.5 -177.5z" />
    <glyph glyph-name="f" unicode="f" 
d="M586 936v-936h-101v936h-209v88h209v135q0 133 81.5 214t211.5 81q99 0 174 -35l-55 -73q-42 22 -119 22q-87 0 -139.5 -55t-52.5 -146v-143h352v-88h-352z" />
    <glyph glyph-name="g" unicode="g" 
d="M840 37h-451q-63 0 -107 -45.5t-44 -112.5t43.5 -111t107.5 -44h451q64 0 109.5 45t45.5 110q0 67 -44.5 112.5t-110.5 45.5zM803 606v139q0 87 -64.5 149t-152.5 62q-93 0 -156 -60.5t-63 -150.5v-139q0 -89 63 -149q66 -60 156 -60q86 0 151 62q66 63 66 147z
M1006 1051h-23q-66 0 -92 -39l-55 -78q71 -89 71 -186v-142q0 -121 -96 -211q-94 -88 -225 -88l-29 2v-180h305q97 0 168 -74q70 -70 70 -176q0 -104 -69.5 -176t-168.5 -72h-497q-98 0 -167 72t-69 176t69 177t167 73h81v209q-59 21 -122 90q-62 71 -62 178v142
q0 120 94 208t230 88q107 0 178 -53l78 94q47 56 141 56h23v-90z" />
    <glyph glyph-name="h" unicode="h" 
d="M983 717v-717h-100v696q0 122 -67 192t-179 70q-113 0 -193 -71q-79 -70 -79 -170v-717h-101v1434h101v-525q9 14 28 37q24 24 92 60q66 38 156 38q157 0 248 -94q94 -94 94 -233z" />
    <glyph glyph-name="i" unicode="i" 
d="M244 936v88h430v-936h291v-88h-721v88h327v848h-327zM684 1223h-135v143h135v-143z" />
    <glyph glyph-name="j" unicode="j" 
d="M283 1024h587v-1106q0 -137 -84 -222t-225 -85q-136 0 -219 59l51 76q65 -47 168 -47q96 0 151.5 61t55.5 162v1014h-485v88zM874 1223h-131v143h131v-143z" />
    <glyph glyph-name="k" unicode="k" 
d="M1016 0h-129l-457 530v-530h-98v1434h98v-875l422 465h131l-442 -477z" />
    <glyph glyph-name="l" unicode="l" 
d="M346 1346v88h330v-1346h311v-88h-704v88h290v1258h-227z" />
    <glyph glyph-name="m" unicode="m" 
d="M203 1024h90l4 -80l18 27q17 22 63.5 45.5t92.5 23.5q52 0 96.5 -24t59.5 -53l14 -25q8 16 21 29q17 22 70 47.5t104 25.5q86 0 138 -56.5t52 -152.5v-831h-98v817q0 66 -30.5 101.5t-82.5 35.5q-57 0 -103 -48t-46 -115v-791h-99v817q0 59 -32 98t-80 39
q-61 0 -107.5 -50t-46.5 -116v-788h-98v1024z" />
    <glyph glyph-name="n" unicode="n" 
d="M983 717v-717h-100v696q0 122 -67 192t-179 70q-113 0 -193 -71q-79 -70 -79 -170v-717h-101v1024h96l5 -115q9 14 28 37q24 24 92 60q66 38 156 38q157 0 248 -94q94 -94 94 -233z" />
    <glyph glyph-name="o" unicode="o" 
d="M971 727v-430q0 -134 -101 -225q-100 -92 -256 -92t-260 90q-98 91 -98 227v430q0 137 98 225q103 92 260 92q156 0 256 -92q101 -91 101 -225zM872 309v406q0 103 -75 172t-185 69q-109 0 -184 -69q-74 -71 -74 -172v-406q0 -101 74 -172q75 -69 186 -69t183 69
q75 69 75 172z" />
    <glyph glyph-name="p" unicode="p" 
d="M885 326v372q0 120 -68.5 189t-177.5 69q-117 0 -194.5 -74t-77.5 -184v-372q0 -110 77.5 -184t194.5 -74q107 0 176.5 69.5t69.5 188.5zM393 80l-26 33v-482h-101v1393h96l5 -113q9 14 28 37q26 26 90 60q68 36 154 36q156 0 250 -94q96 -93 96 -231v-414
q0 -137 -96 -233q-95 -92 -250 -92q-76 0 -146 31.5t-100 68.5z" />
    <glyph glyph-name="q" unicode="q" 
d="M344 698v-372q0 -119 69.5 -188.5t176.5 -69.5q117 0 194.5 74t77.5 184v372q0 110 -77.5 184t-194.5 74q-109 0 -177.5 -69t-68.5 -189zM963 -369h-101v482q-9 -15 -31 -37q-19 -22 -90 -60q-68 -36 -151 -36q-155 0 -250 92q-96 96 -96 233v414q0 138 96 231
q94 94 250 94q75 0 143.5 -30.5t102.5 -67.5l26 -35l4 113h97v-1393z" />
    <glyph glyph-name="r" unicode="r" 
d="M397 88v936h97l4 -117l5 7q5 8 15 19.5t24.5 26t35.5 28.5t46 25.5t58.5 19t69.5 7.5q139 0 209 -82q72 -85 81 -186h-104q-5 81 -57.5 132.5t-137.5 51.5q-91 0 -168 -71q-75 -69 -75 -162v-635h407v-88h-723v88h213z" />
    <glyph glyph-name="s" unicode="s" 
d="M942 772h-104q-1 77 -65 130.5t-152 53.5q-78 0 -142 -49q-61 -46 -62 -116.5t54 -116.5q33 -26 78.5 -48.5t114 -50t98.5 -40.5q83 -34 134.5 -104.5t51.5 -168.5q0 -119 -94 -201q-93 -81 -233 -81q-155 0 -248 90q-92 92 -92 217h100q2 -93 70 -156t170 -63
q98 0 161.5 54.5t63.5 139.5q0 131 -187 201q-9 3 -26 10q-43 16 -65 25t-61 27.5t-61 33.5t-50 39t-43 49t-25.5 59t-10.5 72q0 117 91 193q88 73 221 73q138 0 221 -86t92 -186z" />
    <glyph glyph-name="t" unicode="t" 
d="M385 936h-158v88h158v287h98v-287h496v-88h-496v-647q0 -95 59 -157t160 -62q85 0 144 57t61 129h90q-3 -111 -88 -193q-86 -83 -209 -83q-146 0 -230.5 85.5t-84.5 227.5v643z" />
    <glyph glyph-name="u" unicode="u" 
d="M256 307v717h100v-696q0 -123 67 -192.5t179 -69.5q113 0 193 71q79 70 79 170v717h101v-1024h-96l-5 115q-10 -17 -30 -37q-17 -20 -90 -62q-68 -36 -156 -36q-154 0 -248 91.5t-94 235.5z" />
    <glyph glyph-name="v" unicode="v" 
d="M266 1024h103v-375l227 -563h37l227 563v375h101v-381l-259 -643h-176l-260 643v381z" />
    <glyph glyph-name="w" unicode="w" 
d="M838 86l104 565v373h98v-383l-125 -641h-182l-112 555h-15l-110 -555h-183l-125 641v383h99v-373l108 -565h29l119 573h145l121 -573h29z" />
    <glyph glyph-name="x" unicode="x" 
d="M258 1024h119l237 -416l238 416h119l-297 -500l309 -524h-117l-252 438l-252 -438h-118l309 524z" />
    <glyph glyph-name="y" unicode="y" 
d="M186 1024h113l311 -870l316 870h112l-526 -1393h-102l145 383z" />
    <glyph glyph-name="z" unicode="z" 
d="M934 1024v-96l-543 -840h551v-88h-655v98l544 838h-512v88h615z" />
    <glyph glyph-name="braceleft" unicode="{" 
d="M844 -291v-98q-147 3 -246 108q-100 106 -100 256v387q0 52 -33.5 92.5t-81.5 41.5v98q49 1 82 40t33 91v367q0 140 102 245q102 108 244 117v-102q-104 -4 -172 -78.5t-68 -183.5v-349q0 -66 -39 -122.5t-86 -69.5v-8q47 -14 86 -71.5t39 -123.5v-375q0 -105 68 -182
t172 -80z" />
    <glyph glyph-name="bar" unicode="|" 
d="M662 -369h-95v1803h95v-1803z" />
    <glyph glyph-name="braceright" unicode="}" 
d="M383 -389v98q104 3 172 80t68 182v375q0 66 39 123.5t86 71.5v8q-47 13 -86 69.5t-39 122.5v349q0 109 -68 183.5t-172 78.5v102q142 -9 244 -117q102 -105 102 -245v-367q0 -52 33 -91t82 -40v-98q-48 -1 -81.5 -41.5t-33.5 -92.5v-387q0 -150 -100 -256
q-99 -105 -246 -108z" />
    <glyph glyph-name="asciitilde" unicode="~" 
d="M416 713q78 0 211 -62q136 -59 186 -59q61 0 98 30t37 74h92q0 -83 -64.5 -141.5t-162.5 -58.5q-77 0 -213 59q-131 61 -184 61q-61 0 -98 -30t-37 -74h-93q0 83 65 142t163 59z" />
    <glyph glyph-name="exclamdown" unicode="&#xa1;" 
d="M686 881h-143v143h143v-143zM559 717h107v-1125h-107v1125z" />
    <glyph glyph-name="cent" unicode="&#xa2;" 
d="M662 -127h-95v125q-141 13 -226 105t-85 227v368q0 135 85 227t226 105v121h95v-121q127 -13 210 -100.5t91 -210.5h-101q-4 98 -74.5 161.5t-173.5 63.5q-111 0 -185.5 -69t-74.5 -173v-376q0 -104 74.5 -173t185.5 -69q107 0 180.5 64t77.5 167h97
q-8 -129 -91.5 -216.5t-215.5 -100.5v-125z" />
    <glyph glyph-name="sterling" unicode="&#xa3;" 
d="M463 98h541v-98h-758v98h110v508h-110v99h110v417q0 145 93 238q91 94 229 94q135 0 227 -92t92 -221v-60h-102v70q0 85 -64 143q-65 62 -149 62q-95 0 -157 -62.5t-62 -163.5v-425h291v-99h-291v-508z" />
    <glyph glyph-name="currency" unicode="&#xa4;" 
d="M1053 240l-74 -74l-100 100q-265 -187 -529 0l-100 -100l-74 74l98 102q-88 122 -88 260q0 132 90 266l-100 101l74 73l100 -100q124 88 264 88t265 -88l100 100l74 -73l-101 -101q90 -134 90 -266q0 -135 -88 -260zM614 276q131 0 228 97q98 98 98 231q0 134 -96 230
q-94 98 -230 98q-133 0 -231 -98q-96 -96 -96 -230q0 -135 96 -231q97 -97 231 -97z" />
    <glyph glyph-name="yen" unicode="&#xa5;" 
d="M999 537v-99h-331v-438h-107v438h-334v99h334v145l-10 20h-324v99h277l-307 633h118l299 -625l299 625h119l-307 -633h274v-99h-321l-10 -20v-145h331z" />
    <glyph glyph-name="brokenbar" unicode="&#xa6;" 
d="M662 727h-95v707h95v-707zM662 -369h-95v709h95v-709z" />
    <glyph glyph-name="section" unicode="&#xa7;" 
d="M874 621q0 85 -61 137q-59 53 -186 112q-126 59 -183 97q-92 -59 -92 -156q0 -83 60 -137q57 -49 184 -109q130 -60 186 -100q92 59 92 156zM608 -20q-147 0 -228 74t-81 204h107q0 -78 51 -127t151 -49q95 0 146 44t51 110q0 115 -199 198q-50 21 -71.5 31t-69 34
t-71 41t-58 47t-51.5 58.5t-29.5 67.5t-11.5 82q0 145 125 239q-60 85 -60 166q0 112 83 183t226 71q147 0 228.5 -74t81.5 -204h-107q0 78 -51.5 127t-151.5 49q-94 0 -145 -44.5t-51 -109.5q0 -49 31 -88t80.5 -67t109 -54.5t119.5 -57.5t109.5 -68t80.5 -94.5t31 -129.5
q0 -140 -123 -242q58 -82 58 -164q0 -111 -83.5 -182t-226.5 -71z" />
    <glyph glyph-name="dieresis" unicode="&#xa8;" 
d="M502 1223h-119v143h119v-143zM844 1223h-119v143h119v-143z" />
    <glyph glyph-name="copyright" unicode="&#xa9;" 
d="M186 899v-377q0 -195 123 -321q127 -127 305 -127t299 127q123 126 123 321v377q0 204 -123 330q-120 129 -299 129t-305 -129q-123 -126 -123 -330zM86 526v369q0 241 152 399q155 158 376 158t373 -158q154 -157 154 -399v-369q0 -234 -154 -391q-152 -155 -373 -155
q-223 0 -376 153q-152 158 -152 393zM616 1022q-77 0 -124.5 -51t-47.5 -131v-269q0 -76 51 -127t128 -51q69 0 115 37t46 92v23h86v-25q0 -80 -71 -151q-71 -68 -176 -68q-115 0 -191 74.5t-76 181.5v303q0 102 74 176q77 74 193 74q105 0 172 -70t67 -145v-25h-88v21
q0 51 -46 91t-112 40z" />
    <glyph glyph-name="ordfeminine" unicode="&#xaa;" 
d="M842 819h-94v39q-57 -51 -148 -51q-87 2 -151 59t-64 138q0 79 61 135.5t152 62.5l150 10v35q0 52 -33.5 90.5t-85.5 38.5q-42 0 -75.5 -29.5t-41.5 -72.5h-98q12 82 70.5 131t144.5 49q98 0 155.5 -56.5t57.5 -144.5v-434zM604 889q59 0 101.5 32t42.5 74v135l-148 -8
q-51 -5 -86 -37.5t-35 -78.5q0 -44 39 -80.5t86 -36.5zM403 696h439v-82h-439v82z" />
    <glyph glyph-name="guillemotleft" unicode="&#xab;" 
d="M377 598l241 -311h-108l-240 311l240 311h108zM715 598l241 -311h-108l-242 311l242 311h108z" />
    <glyph glyph-name="logicalnot" unicode="&#xac;" 
d="M190 797h846v-430h-100v327h-746v103z" />
    <glyph glyph-name="uni00AD" unicode="&#xad;" 
 />
    <glyph glyph-name="registered" unicode="&#xae;" 
d="M823 532h-80l-106 248h-137v-248h-72v654h227q57 0 102.5 -45t45.5 -105v-104q0 -42 -26.5 -81.5t-63.5 -57.5zM733 928v110q0 32 -24.5 56t-55.5 24h-153v-272h153q31 0 55.5 25t24.5 57zM250 993v-282q0 -162 104 -269q104 -104 260 -104q155 0 256 104
q105 108 105 269v282q0 167 -105 275q-100 106 -256 106q-157 0 -260 -106q-104 -107 -104 -275zM166 715v274q0 202 129 334q128 131 319 131q193 0 318 -131q129 -132 129 -334v-274q0 -199 -129 -328t-318 -129q-190 0 -319 129t-129 328z" />
    <glyph glyph-name="overscore" unicode="&#xaf;" 
d="M881 1208h-533v92h533v-92z" />
    <glyph glyph-name="degree" unicode="&#xb0;" 
d="M412 967q-82 82 -82 202q0 119 82 201q84 84 202 84q117 0 201 -84t84 -201q0 -118 -84 -202q-82 -82 -201 -82q-120 0 -202 82zM471 1313q-60 -60 -60 -143.5t60 -143.5t143.5 -60t143.5 60t60 143.5t-60 143.5t-143.5 60t-143.5 -60z" />
    <glyph glyph-name="plusminus" unicode="&#xb1;" 
d="M561 702v322h105v-322h370v-102h-370v-315h-105v315h-371v102h371zM190 195h848v-103h-848v103z" />
    <glyph glyph-name="twosuperior" unicode="&#xb2;" 
d="M842 764v-86h-455v72q0 79 52 149.5t126 116.5q77 49 128.5 109t51.5 122q0 57 -34 91t-88 34q-56 0 -95.5 -39.5t-40.5 -99.5h-86q0 91 63 156t163 65q90 0 150.5 -59.5t60.5 -147.5q0 -59 -26.5 -110.5t-66 -85.5t-86 -70t-86 -65t-66 -69t-26.5 -83h361z" />
    <glyph glyph-name="threesuperior" unicode="&#xb3;" 
d="M397 860h86q0 -48 36 -81.5t91 -33.5q65 0 101.5 38t36.5 102v100q0 45 -29.5 77t-71.5 32h-84v82l150 176h-277v82h381v-78l-149 -178q75 -12 122.5 -66.5t47.5 -126.5v-100q0 -96 -64.5 -158.5t-163.5 -62.5q-93 0 -153 55.5t-60 140.5z" />
    <glyph glyph-name="acute" unicode="&#xb4;" 
d="M799 1382l-260 -249h-111l223 249h148z" />
    <glyph glyph-name="mu" unicode="&#xb5;" 
d="M328 -369h-97v1393h97v-692q0 -117 65.5 -190.5t165.5 -73.5q105 0 180 69q80 71 80 168v719h96v-840q0 -39 23.5 -69.5t58.5 -36.5v-88q-55 1 -100.5 37.5t-65.5 93.5q-63 -75 -121.5 -108t-142.5 -33q-148 0 -239 131v-480z" />
    <glyph glyph-name="paragraph" unicode="&#xb6;" 
d="M737 -369h-92v1028q-156 15 -264 123q-107 107 -107 262q0 162 113 275q115 115 272 115h295v-1803h-92v1712h-125v-1712z" />
    <glyph glyph-name="middot" unicode="&#xb7;" 
d="M686 528h-143v144h143v-144z" />
    <glyph glyph-name="cedilla" unicode="&#xb8;" 
d="M592 -369h-115v84h105q35 0 55 17.5t20 46.5q0 57 -65 57h-92v164h82v-82h16q69 0 111.5 -39t42.5 -102q0 -62 -45.5 -104t-114.5 -42z" />
    <glyph glyph-name="onesuperior" unicode="&#xb9;" 
d="M496 1323v78l149 33h96v-756h-96v676z" />
    <glyph glyph-name="ordmasculine" unicode="&#xba;" 
d="M844 1253v-245q0 -85 -65 -143t-163 -58q-99 0 -165 58t-66 143v245q0 85 66 143t165 58q98 0 163 -58t65 -143zM750 1008v245q0 48 -40.5 83.5t-95.5 35.5q-54 0 -93.5 -36t-39.5 -83v-245q0 -48 40 -83.5t95 -35.5q54 0 94 36t40 83zM389 696h453v-82h-453v82z" />
    <glyph glyph-name="guillemotright" unicode="&#xbb;" 
d="M956 598l-239 -311h-109l242 311l-242 311h109zM621 598l-242 -311h-109l242 311l-242 311h109z" />
    <glyph glyph-name="onequarter" unicode="&#xbc;" 
d="M270 0h-84l719 1434h84zM950 160h-332v86l252 510h99l-256 -510h237v174h92v-174h76v-86h-76v-160h-92v160zM135 1323v78l150 33h96v-756h-96v676z" />
    <glyph glyph-name="onehalf" unicode="&#xbd;" 
d="M231 0h-84l719 1434h84zM123 1323v78l149 33h97v-756h-97v676zM1098 86v-86h-455v72q0 79 52 149.5t126 116.5q77 49 128.5 109t51.5 122q0 57 -34 91t-88 34q-56 0 -95.5 -39.5t-40.5 -99.5h-86q0 91 63 156t163 65q90 0 150.5 -59.5t60.5 -147.5q0 -59 -26.5 -110.5
t-66 -85.5t-86 -70t-86 -65t-66 -69t-26.5 -83h361z" />
    <glyph glyph-name="threequarters" unicode="&#xbe;" 
d="M322 0h-84l718 1434h84zM954 160h-331v86l251 510h99l-256 -510h237v174h93v-174h75v-86h-75v-160h-93v160zM80 860h86q0 -48 36 -81.5t91 -33.5q65 0 101 38t36 102v100q0 45 -29 77t-71 32h-84v82l149 176h-276v82h381v-78l-150 -178q75 -12 122.5 -66.5t47.5 -126.5
v-100q0 -96 -64 -158.5t-163 -62.5q-93 0 -153 55.5t-60 140.5z" />
    <glyph glyph-name="questiondown" unicode="&#xbf;" 
d="M872 -68h107q-3 -160 -109 -260q-105 -102 -256 -102q-157 0 -260 100q-104 98 -104 260q0 186 119 316q86 91 115 131q106 145 108 340h104q-1 -128 -34.5 -229.5t-86.5 -165.5q-17 -21 -57 -65.5t-61.5 -72t-48 -70.5t-38.5 -91t-12 -103q0 -105 74 -176
q78 -72 182 -72q108 0 180.5 74.5t77.5 185.5zM571 1024h144v-143h-144v143z" />
    <glyph glyph-name="Agrave" unicode="&#xc0;" 
d="M248 561l256 873h221l256 -873v-561h-107v489h-520v-489h-106v561zM365 588h499l-213 747h-73zM494 1792l223 -250h-111l-260 250h148z" />
    <glyph glyph-name="Aacute" unicode="&#xc1;" 
d="M248 561l256 873h221l256 -873v-561h-107v489h-520v-489h-106v561zM365 588h499l-213 747h-73zM903 1792l-260 -250h-111l224 250h147z" />
    <glyph glyph-name="Acircumflex" unicode="&#xc2;" 
d="M248 561l256 873h221l256 -873v-561h-107v489h-520v-489h-106v561zM365 588h499l-213 747h-73zM612 1720l-143 -178h-104l178 250h137l180 -250h-102z" />
    <glyph glyph-name="Atilde" unicode="&#xc3;" 
d="M248 561l256 873h221l256 -873v-561h-107v489h-520v-489h-106v561zM365 588h499l-213 747h-73zM496 1759q53 0 129 -43t110 -43q29 0 47.5 20t18.5 52v14h94v-14q0 -71 -46 -116.5t-114 -45.5q-53 0 -129 43t-110 43q-29 0 -48.5 -19.5t-19.5 -50.5v-16h-94v16
q0 71 46 115.5t116 44.5z" />
    <glyph glyph-name="Adieresis" unicode="&#xc4;" 
d="M248 561l256 873h221l256 -873v-561h-107v489h-520v-489h-106v561zM365 588h499l-213 747h-73zM502 1632h-119v144h119v-144zM844 1632h-119v144h119v-144z" />
    <glyph glyph-name="Aring" unicode="&#xc5;" 
d="M248 561l256 873h221l256 -873v-561h-107v489h-520v-489h-106v561zM365 588h499l-213 747h-73zM446 1686q0 69 49 117t117 48t118 -49t50 -116t-50 -115.5t-118 -48.5t-117 48.5t-49 115.5zM524 1686q0 -37 26 -64t62 -27q37 0 63.5 27t26.5 64q0 38 -26 65t-64 27
q-37 0 -62.5 -27t-25.5 -65z" />
    <glyph glyph-name="AE" unicode="&#xc6;" 
d="M184 569l256 865h625v-99h-360v-528h311v-98h-311v-611h374v-98h-481v489h-307v-489h-107v569zM598 1335h-88l-213 -747h301v747z" />
    <glyph glyph-name="Ccedilla" unicode="&#xc7;" 
d="M883 346h106v-8q0 -151 -106 -254q-107 -104 -258 -104v-62h16q69 0 111.5 -39t42.5 -102q0 -62 -45.5 -104t-114.5 -42h-115v84h105q35 0 55 17.5t20 46.5q0 57 -65 57h-92v154q-125 26 -205 124t-80 226v756q0 150 104 254t263 104q154 0 258 -104t104 -254h-104
q-3 109 -78 184q-73 76 -180 76q-110 0 -185 -76t-75 -186v-756q0 -108 73 -184q76 -76 187 -76q108 0 182 74q76 76 76 184v10z" />
    <glyph glyph-name="Egrave" unicode="&#xc8;" 
d="M301 0v1434h643v-99h-536v-528h487v-98h-487v-611h555v-98h-662zM528 1792l224 -250h-111l-260 250h147z" />
    <glyph glyph-name="Eacute" unicode="&#xc9;" 
d="M301 0v1434h643v-99h-536v-528h487v-98h-487v-611h555v-98h-662zM864 1792l-260 -250h-110l223 250h147z" />
    <glyph glyph-name="Ecircumflex" unicode="&#xca;" 
d="M301 0v1434h643v-99h-536v-528h487v-98h-487v-611h555v-98h-662zM623 1720l-144 -178h-104l178 250h137l180 -250h-102z" />
    <glyph glyph-name="Edieresis" unicode="&#xcb;" 
d="M301 0v1434h643v-99h-536v-528h487v-98h-487v-611h555v-98h-662zM512 1632h-119v144h119v-144zM854 1632h-119v144h119v-144z" />
    <glyph glyph-name="Igrave" unicode="&#xcc;" 
d="M563 1335h-319v99h741v-99h-315v-1237h315v-98h-741v98h319v1237zM524 1792l224 -250h-111l-260 250h147z" />
    <glyph glyph-name="Iacute" unicode="&#xcd;" 
d="M563 1335h-319v99h741v-99h-315v-1237h315v-98h-741v98h319v1237zM860 1792l-260 -250h-111l224 250h147z" />
    <glyph glyph-name="Icircumflex" unicode="&#xce;" 
d="M563 1335h-319v99h741v-99h-315v-1237h315v-98h-741v98h319v1237zM612 1720l-143 -178h-104l178 250h137l180 -250h-102z" />
    <glyph glyph-name="Idieresis" unicode="&#xcf;" 
d="M563 1335h-319v99h741v-99h-315v-1237h315v-98h-741v98h319v1237zM502 1632h-119v144h119v-144zM844 1632h-119v144h119v-144z" />
    <glyph glyph-name="Eth" unicode="&#xd0;" 
d="M279 709h-127v94h127v631h350q154 0 256 -105q104 -101 104 -256v-713q0 -152 -104 -256q-101 -104 -256 -104h-350v709zM883 356v715q0 113 -72.5 186.5t-187.5 73.5h-238v-528h233v-94h-233v-611h238q113 0 186.5 73t73.5 185z" />
    <glyph glyph-name="Ntilde" unicode="&#xd1;" 
d="M979 0h-102l-537 1221q8 -177 8 -476v-745h-98v1434h102l539 -1225q-10 218 -10 479v746h98v-1434zM502 1759q53 0 129 -43t110 -43q29 0 47.5 20t18.5 52v14h94v-14q0 -71 -46 -116.5t-114 -45.5q-53 0 -129 43t-110 43q-31 0 -49.5 -19.5t-18.5 -50.5v-16h-94v16
q0 71 46 115.5t116 44.5z" />
    <glyph glyph-name="Ograve" unicode="&#xd2;" 
d="M991 1096v-758q0 -153 -106 -256q-105 -102 -271 -102q-165 0 -272 104q-106 103 -106 256v756q0 154 106 254q107 104 272 104q167 0 271 -104q106 -100 106 -254zM885 336v758q0 112 -75.5 187t-195.5 75q-121 0 -196.5 -75t-75.5 -187v-756q0 -112 75.5 -186
t196.5 -74q120 0 195.5 73t75.5 185zM485 1792l224 -250h-111l-260 250h147z" />
    <glyph glyph-name="Oacute" unicode="&#xd3;" 
d="M991 1096v-758q0 -153 -106 -256q-105 -102 -271 -102q-165 0 -272 104q-106 103 -106 256v756q0 154 106 254q107 104 272 104q167 0 271 -104q106 -100 106 -254zM885 336v758q0 112 -75.5 187t-195.5 75q-121 0 -196.5 -75t-75.5 -187v-756q0 -112 75.5 -186
t196.5 -74q120 0 195.5 73t75.5 185zM895 1792l-260 -250h-111l224 250h147z" />
    <glyph glyph-name="Ocircumflex" unicode="&#xd4;" 
d="M991 1096v-758q0 -153 -106 -256q-105 -102 -271 -102q-165 0 -272 104q-106 103 -106 256v756q0 154 106 254q107 104 272 104q167 0 271 -104q106 -100 106 -254zM885 336v758q0 112 -75.5 187t-195.5 75q-121 0 -196.5 -75t-75.5 -187v-756q0 -112 75.5 -186
t196.5 -74q120 0 195.5 73t75.5 185zM612 1720l-143 -178h-104l178 250h137l180 -250h-102z" />
    <glyph glyph-name="Otilde" unicode="&#xd5;" 
d="M991 1096v-758q0 -153 -106 -256q-105 -102 -271 -102q-165 0 -272 104q-106 103 -106 256v756q0 154 106 254q107 104 272 104q167 0 271 -104q106 -100 106 -254zM885 336v758q0 112 -75.5 187t-195.5 75q-121 0 -196.5 -75t-75.5 -187v-756q0 -112 75.5 -186
t196.5 -74q120 0 195.5 73t75.5 185zM496 1759q53 0 129 -43t110 -43q29 0 47.5 20t18.5 52v14h94v-14q0 -71 -46 -116.5t-114 -45.5q-53 0 -129 43t-110 43q-29 0 -48.5 -19.5t-19.5 -50.5v-16h-94v16q0 71 46 115.5t116 44.5z" />
    <glyph glyph-name="Odieresis" unicode="&#xd6;" 
d="M991 1096v-758q0 -153 -106 -256q-105 -102 -271 -102q-165 0 -272 104q-106 103 -106 256v756q0 154 106 254q107 104 272 104q167 0 271 -104q106 -100 106 -254zM885 336v758q0 112 -75.5 187t-195.5 75q-121 0 -196.5 -75t-75.5 -187v-756q0 -112 75.5 -186
t196.5 -74q120 0 195.5 73t75.5 185zM502 1632h-119v144h119v-144zM844 1632h-119v144h119v-144z" />
    <glyph glyph-name="multiply" unicode="&#xd7;" 
d="M541 598l-303 303l71 72l305 -301l301 301l74 -72l-303 -303l303 -301l-74 -74l-301 303l-303 -301l-73 72z" />
    <glyph glyph-name="Oslash" unicode="&#xd8;" 
d="M238 -25l-76 48l100 174q-26 59 -26 143v756q0 154 106 254q107 104 272 104q188 0 299 -135l80 137l78 -43l-106 -182q26 -65 26 -135v-758q0 -153 -106 -256q-105 -102 -271 -102q-189 0 -299 131zM342 1094v-762l512 887q-31 63 -95 100t-145 37q-121 0 -196.5 -75
t-75.5 -187zM885 336v756l-512 -883q70 -131 241 -131q120 0 195.5 73t75.5 185z" />
    <glyph glyph-name="Ugrave" unicode="&#xd9;" 
d="M885 336v1098h106v-1096q0 -150 -104 -254t-254 -104h-39q-147 0 -254 104q-104 107 -104 256v1094h106v-1096q0 -107 74 -184q76 -76 186 -76h25q108 0 182 74q76 76 76 184zM483 1792l224 -250h-111l-260 250h147z" />
    <glyph glyph-name="Uacute" unicode="&#xda;" 
d="M885 336v1098h106v-1096q0 -150 -104 -254t-254 -104h-39q-147 0 -254 104q-104 107 -104 256v1094h106v-1096q0 -107 74 -184q76 -76 186 -76h25q108 0 182 74q76 76 76 184zM893 1792l-260 -250h-111l223 250h148z" />
    <glyph glyph-name="Ucircumflex" unicode="&#xdb;" 
d="M885 336v1098h106v-1096q0 -150 -104 -254t-254 -104h-39q-147 0 -254 104q-104 107 -104 256v1094h106v-1096q0 -107 74 -184q76 -76 186 -76h25q108 0 182 74q76 76 76 184zM612 1720l-143 -178h-104l178 250h137l180 -250h-102z" />
    <glyph glyph-name="Udieresis" unicode="&#xdc;" 
d="M885 336v1098h106v-1096q0 -150 -104 -254t-254 -104h-39q-147 0 -254 104q-104 107 -104 256v1094h106v-1096q0 -107 74 -184q76 -76 186 -76h25q108 0 182 74q76 76 76 184zM502 1632h-119v144h119v-144zM844 1632h-119v144h119v-144z" />
    <glyph glyph-name="Yacute" unicode="&#xdd;" 
d="M197 1434h118l301 -633l297 633h117l-362 -752v-682h-107v682zM858 1792l-260 -250h-111l224 250h147z" />
    <glyph glyph-name="Thorn" unicode="&#xde;" 
d="M410 0h-107v1434h107v-215h258q127 0 213 -86q86 -83 86 -213v-312q0 -129 -86 -215t-213 -86h-258v-307zM860 602v316q0 86 -56 142t-142 56h-252v-710h252q86 0 142 55t56 141z" />
    <glyph glyph-name="germandbls" unicode="&#xdf;" 
d="M494 250v24h98v-24q0 -75 53.5 -128.5t128.5 -53.5t127.5 53.5t52.5 128.5q0 50 -19 93.5t-48.5 77t-66 65.5t-73 66t-66 70.5t-48.5 86.5t-19 108q0 88 65 150t165 80v43q0 118 -72 196q-71 80 -176 80t-182 -80q-76 -76 -76 -196v-1090h-100v1092q0 151 102 256
q103 106 256 106q148 0 246 -98q98 -94 98 -230v-104q0 -17 -13.5 -30t-27.5 -15q-82 -14 -133 -55.5t-51 -98.5q0 -103 119 -209q34 -29 44 -38t41.5 -38.5t44 -45.5t34.5 -46.5t31.5 -55.5t17.5 -59t8 -69q0 -119 -82 -201q-81 -81 -203 -81q-113 0 -195 79
q-81 78 -81 191z" />
    <glyph glyph-name="agrave" unicode="&#xe0;" 
d="M961 0h-101v109q0 -2 -10.5 -14t-34 -31.5t-55 -38t-81.5 -31.5t-106 -14q-136 0 -231 86q-94 85 -94 219t95 220t245 97l272 19v94q0 107 -62 174t-167 67q-85 0 -144.5 -48.5t-78.5 -127.5h-101q19 118 107 191t217 73q156 0 243 -90.5t87 -240.5v-713zM586 66
q107 0 190 65q84 66 84 152v249l-248 -14q-124 -8 -194 -68.5t-70 -162.5q0 -95 66.5 -158t171.5 -63zM541 1382l223 -249h-111l-260 249h148z" />
    <glyph glyph-name="aacute" unicode="&#xe1;" 
d="M961 0h-101v109q0 -2 -10.5 -14t-34 -31.5t-55 -38t-81.5 -31.5t-106 -14q-136 0 -231 86q-94 85 -94 219t95 220t245 97l272 19v94q0 107 -62 174t-167 67q-85 0 -144.5 -48.5t-78.5 -127.5h-101q19 118 107 191t217 73q156 0 243 -90.5t87 -240.5v-713zM586 66
q107 0 190 65q84 66 84 152v249l-248 -14q-124 -8 -194 -68.5t-70 -162.5q0 -95 66.5 -158t171.5 -63zM934 1382l-260 -249h-111l223 249h148z" />
    <glyph glyph-name="acircumflex" unicode="&#xe2;" 
d="M961 0h-101v109q0 -2 -10.5 -14t-34 -31.5t-55 -38t-81.5 -31.5t-106 -14q-136 0 -231 86q-94 85 -94 219t95 220t245 97l272 19v94q0 107 -62 174t-167 67q-85 0 -144.5 -48.5t-78.5 -127.5h-101q19 118 107 191t217 73q156 0 243 -90.5t87 -240.5v-713zM586 66
q107 0 190 65q84 66 84 152v249l-248 -14q-124 -8 -194 -68.5t-70 -162.5q0 -95 66.5 -158t171.5 -63zM631 1311l-144 -178h-104l178 249h137l181 -249h-103z" />
    <glyph glyph-name="atilde" unicode="&#xe3;" 
d="M961 0h-101v109q0 -2 -10.5 -14t-34 -31.5t-55 -38t-81.5 -31.5t-106 -14q-136 0 -231 86q-94 85 -94 219t95 220t245 97l272 19v94q0 107 -62 174t-167 67q-85 0 -144.5 -48.5t-78.5 -127.5h-101q19 118 107 191t217 73q156 0 243 -90.5t87 -240.5v-713zM586 66
q107 0 190 65q84 66 84 152v249l-248 -14q-124 -8 -194 -68.5t-70 -162.5q0 -95 66.5 -158t171.5 -63zM510 1350q53 0 129 -43t111 -43q29 0 47 19.5t18 51.5v15h94v-15q0 -71 -45.5 -116t-113.5 -45q-53 0 -129 43t-111 43q-31 0 -49.5 -19.5t-18.5 -50.5v-16h-94v16
q0 71 46 115.5t116 44.5z" />
    <glyph glyph-name="adieresis" unicode="&#xe4;" 
d="M961 0h-101v109q0 -2 -10.5 -14t-34 -31.5t-55 -38t-81.5 -31.5t-106 -14q-136 0 -231 86q-94 85 -94 219t95 220t245 97l272 19v94q0 107 -62 174t-167 67q-85 0 -144.5 -48.5t-78.5 -127.5h-101q19 118 107 191t217 73q156 0 243 -90.5t87 -240.5v-713zM586 66
q107 0 190 65q84 66 84 152v249l-248 -14q-124 -8 -194 -68.5t-70 -162.5q0 -95 66.5 -158t171.5 -63zM522 1223h-119v143h119v-143zM864 1223h-119v143h119v-143z" />
    <glyph glyph-name="aring" unicode="&#xe5;" 
d="M961 0h-101v109q0 -2 -10.5 -14t-34 -31.5t-55 -38t-81.5 -31.5t-106 -14q-136 0 -231 86q-94 85 -94 219t95 220t245 97l272 19v94q0 107 -62 174t-167 67q-85 0 -144.5 -48.5t-78.5 -127.5h-101q19 118 107 191t217 73q156 0 243 -90.5t87 -240.5v-713zM586 66
q107 0 190 65q84 66 84 152v249l-248 -14q-124 -8 -194 -68.5t-70 -162.5q0 -95 66.5 -158t171.5 -63zM469 1276q0 69 49 117.5t117 48.5t118 -49.5t50 -116.5t-50 -115.5t-118 -48.5t-117 48.5t-49 115.5zM547 1276q0 -37 25.5 -63.5t62.5 -26.5t63.5 26.5t26.5 63.5
q0 38 -26 65t-64 27q-37 0 -62.5 -27t-25.5 -65z" />
    <glyph glyph-name="ae" unicode="&#xe6;" 
d="M408 -20q-111 0 -180.5 70t-69.5 177v105q0 117 68.5 188.5t172.5 71.5h168v205q0 66 -43.5 112.5t-103.5 46.5q-65 0 -100 -46.5t-35 -129.5h-99q0 116 67 190t167 74q127 0 198 -110l7 -14q2 5 6 13.5t20 30t37 37.5t59.5 29.5t83.5 13.5q102 0 170 -70t68 -175v-293
h-397v-268q0 -80 40.5 -125t118.5 -45q62 0 103 43t41 110v78h92v-78q0 -102 -70 -172q-69 -69 -172 -69q-82 0 -136.5 35.5t-65.5 66.5l-7 12q-4 -7 -22 -33q-12 -14 -68 -51q-52 -30 -118 -30zM831 956q-66 0 -112.5 -47t-46.5 -114v-203h305v194q0 73 -42 121.5
t-104 48.5zM408 68q69 0 114 48t45 122v268h-161q-64 0 -107 -48t-43 -126v-107q0 -68 42.5 -112.5t109.5 -44.5z" />
    <glyph glyph-name="ccedilla" unicode="&#xe7;" 
d="M354 715v-406q0 -104 74.5 -172.5t185.5 -68.5q107 0 180.5 64t77.5 167h97q-8 -138 -103 -228t-241 -91v-62h16q69 0 111.5 -39t42.5 -102q0 -62 -45.5 -104t-114.5 -42h-115v84h105q35 0 55 17.5t20 46.5q0 57 -65 57h-92v150q-133 20 -210 108.5t-77 218.5v398
q0 143 98 237q101 96 260 96q148 0 244 -90t105 -223h-101q-4 98 -74.5 161.5t-173.5 63.5q-111 0 -185.5 -68.5t-74.5 -172.5z" />
    <glyph glyph-name="egrave" unicode="&#xe8;" 
d="M872 299h99q-8 -141 -106 -230t-251 -89q-156 0 -260 90q-98 91 -98 227v430q0 137 98 225q103 92 260 92q156 0 256 -92q101 -91 101 -225v-244h-617v-170q0 -108 72.5 -176.5t185.5 -68.5t184.5 63.5t75.5 167.5zM354 709v-138h518v140q0 108 -74.5 176.5t-185.5 68.5
t-184.5 -69.5t-73.5 -177.5zM494 1382l223 -249h-111l-260 249h148z" />
    <glyph glyph-name="eacute" unicode="&#xe9;" 
d="M872 299h99q-8 -141 -106 -230t-251 -89q-156 0 -260 90q-98 91 -98 227v430q0 137 98 225q103 92 260 92q156 0 256 -92q101 -91 101 -225v-244h-617v-170q0 -108 72.5 -176.5t185.5 -68.5t184.5 63.5t75.5 167.5zM354 709v-138h518v140q0 108 -74.5 176.5t-185.5 68.5
t-184.5 -69.5t-73.5 -177.5zM864 1382l-260 -249h-110l223 249h147z" />
    <glyph glyph-name="ecircumflex" unicode="&#xea;" 
d="M872 299h99q-8 -141 -106 -230t-251 -89q-156 0 -260 90q-98 91 -98 227v430q0 137 98 225q103 92 260 92q156 0 256 -92q101 -91 101 -225v-244h-617v-170q0 -108 72.5 -176.5t185.5 -68.5t184.5 63.5t75.5 167.5zM354 709v-138h518v140q0 108 -74.5 176.5t-185.5 68.5
t-184.5 -69.5t-73.5 -177.5zM612 1311l-143 -178h-104l178 249h137l180 -249h-102z" />
    <glyph glyph-name="edieresis" unicode="&#xeb;" 
d="M872 299h99q-8 -141 -106 -230t-251 -89q-156 0 -260 90q-98 91 -98 227v430q0 137 98 225q103 92 260 92q156 0 256 -92q101 -91 101 -225v-244h-617v-170q0 -108 72.5 -176.5t185.5 -68.5t184.5 63.5t75.5 167.5zM354 709v-138h518v140q0 108 -74.5 176.5t-185.5 68.5
t-184.5 -69.5t-73.5 -177.5zM502 1223h-119v143h119v-143zM844 1223h-119v143h119v-143z" />
    <glyph glyph-name="igrave" unicode="&#xec;" 
d="M244 936v88h430v-936h291v-88h-721v88h327v848h-327zM485 1382l224 -249h-111l-260 249h147z" />
    <glyph glyph-name="iacute" unicode="&#xed;" 
d="M244 936v88h430v-936h291v-88h-721v88h327v848h-327zM860 1382l-260 -249h-111l224 249h147z" />
    <glyph glyph-name="icircumflex" unicode="&#xee;" 
d="M244 936v88h430v-936h291v-88h-721v88h327v848h-327zM614 1311l-143 -178h-104l178 249h137l180 -249h-102z" />
    <glyph glyph-name="idieresis" unicode="&#xef;" 
d="M244 936v88h430v-936h291v-88h-721v88h327v848h-327zM502 1223h-119v143h119v-143zM844 1223h-119v143h119v-143z" />
    <glyph glyph-name="eth" unicode="&#xf0;" 
d="M291 598v-268q0 -110 75 -186t185 -76t184 75t74 185v270q0 110 -73.5 182t-184.5 72t-185.5 -72t-74.5 -182zM1044 1305v-93l-141 -51q4 -28 4 -43v-805q0 -148 -100 -241q-100 -92 -256 -92q-160 0 -259 92.5t-99 240.5v291q0 149 99 242.5t259 93.5q75 0 141 -29.5
t94 -64.5l23 -31v264l-2 45l-203 -73v92l178 65q-24 61 -85 99.5t-138 38.5h-104v88h110q109 0 191.5 -53t122.5 -138z" />
    <glyph glyph-name="ntilde" unicode="&#xf1;" 
d="M983 717v-717h-100v696q0 122 -67 192t-179 70q-113 0 -193 -71q-79 -70 -79 -170v-717h-101v1024h96l5 -115q9 14 28 37q24 24 92 60q66 38 156 38q157 0 248 -94q94 -94 94 -233zM508 1350q53 0 129 -43t111 -43q29 0 47 19.5t18 51.5v15h94v-15q0 -71 -45.5 -116
t-113.5 -45q-54 0 -130 43t-110 43q-29 0 -48.5 -19.5t-19.5 -50.5v-16h-94v16q0 71 46 115.5t116 44.5z" />
    <glyph glyph-name="ograve" unicode="&#xf2;" 
d="M971 297q0 -134 -101 -225q-100 -92 -256 -92t-260 90q-98 91 -98 227v430q0 137 98 225q103 92 260 92q156 0 256 -92q101 -91 101 -225v-430zM872 715q0 103 -75 172t-185 69q-109 0 -184 -69q-74 -71 -74 -172v-406q0 -101 74 -172q75 -69 186 -69t183 69
q75 69 75 172v406zM518 1382l223 -249h-110l-260 249h147z" />
    <glyph glyph-name="oacute" unicode="&#xf3;" 
d="M971 297q0 -134 -101 -225q-100 -92 -256 -92t-260 90q-98 91 -98 227v430q0 137 98 225q103 92 260 92q156 0 256 -92q101 -91 101 -225v-430zM872 715q0 103 -75 172t-185 69q-109 0 -184 -69q-74 -71 -74 -172v-406q0 -101 74 -172q75 -69 186 -69t183 69
q75 69 75 172v406zM883 1382l-260 -249h-111l223 249h148z" />
    <glyph glyph-name="ocircumflex" unicode="&#xf4;" 
d="M971 297q0 -134 -101 -225q-100 -92 -256 -92t-260 90q-98 91 -98 227v430q0 137 98 225q103 92 260 92q156 0 256 -92q101 -91 101 -225v-430zM872 715q0 103 -75 172t-185 69q-109 0 -184 -69q-74 -71 -74 -172v-406q0 -101 74 -172q75 -69 186 -69t183 69
q75 69 75 172v406zM612 1311l-143 -178h-104l178 249h137l180 -249h-102z" />
    <glyph glyph-name="otilde" unicode="&#xf5;" 
d="M971 297q0 -134 -101 -225q-100 -92 -256 -92t-260 90q-98 91 -98 227v430q0 137 98 225q103 92 260 92q156 0 256 -92q101 -91 101 -225v-430zM872 715q0 103 -75 172t-185 69q-109 0 -184 -69q-74 -71 -74 -172v-406q0 -101 74 -172q75 -69 186 -69t183 69
q75 69 75 172v406zM496 1350q53 0 129 -43t110 -43q29 0 47.5 19.5t18.5 51.5v15h94v-15q0 -71 -46 -116t-114 -45q-53 0 -129 43t-110 43q-29 0 -48.5 -19.5t-19.5 -50.5v-16h-94v16q0 71 46 115.5t116 44.5z" />
    <glyph glyph-name="odieresis" unicode="&#xf6;" 
d="M971 297q0 -134 -101 -225q-100 -92 -256 -92t-260 90q-98 91 -98 227v430q0 137 98 225q103 92 260 92q156 0 256 -92q101 -91 101 -225v-430zM872 715q0 103 -75 172t-185 69q-109 0 -184 -69q-74 -71 -74 -172v-406q0 -101 74 -172q75 -69 186 -69t183 69
q75 69 75 172v406zM502 1223h-119v143h119v-143zM844 1223h-119v143h119v-143z" />
    <glyph glyph-name="divide" unicode="&#xf7;" 
d="M190 528v101h848v-101h-848zM684 162h-143v143h143v-143zM684 854h-143v143h143v-143z" />
    <glyph glyph-name="oslash" unicode="&#xf8;" 
d="M971 727v-430q0 -134 -101 -225q-100 -92 -256 -92q-131 0 -229 67l-41 -74l-65 39l49 86q-72 84 -72 199v430q0 137 98 225q103 92 260 92q129 0 224 -65l41 72l67 -37l-49 -86q74 -86 74 -201zM872 309v406q0 67 -30 119l-408 -703q69 -63 180 -63t183 69q75 69 75 172
zM354 715v-406q0 -58 29 -114l405 700q-70 61 -176 61q-109 0 -184 -69q-74 -71 -74 -172z" />
    <glyph glyph-name="ugrave" unicode="&#xf9;" 
d="M256 307v717h100v-696q0 -123 67 -192.5t179 -69.5q113 0 193 71q79 70 79 170v717h101v-1024h-96l-5 115q-10 -17 -30 -37q-17 -20 -90 -62q-68 -36 -156 -36q-154 0 -248 91.5t-94 235.5zM504 1382l223 -249h-111l-260 249h148z" />
    <glyph glyph-name="uacute" unicode="&#xfa;" 
d="M256 307v717h100v-696q0 -123 67 -192.5t179 -69.5q113 0 193 71q79 70 79 170v717h101v-1024h-96l-5 115q-10 -17 -30 -37q-17 -20 -90 -62q-68 -36 -156 -36q-154 0 -248 91.5t-94 235.5zM866 1382l-260 -249h-110l223 249h147z" />
    <glyph glyph-name="ucircumflex" unicode="&#xfb;" 
d="M256 307v717h100v-696q0 -123 67 -192.5t179 -69.5q113 0 193 71q79 70 79 170v717h101v-1024h-96l-5 115q-10 -17 -30 -37q-17 -20 -90 -62q-68 -36 -156 -36q-154 0 -248 91.5t-94 235.5zM612 1311l-143 -178h-104l178 249h137l180 -249h-102z" />
    <glyph glyph-name="udieresis" unicode="&#xfc;" 
d="M256 307v717h100v-696q0 -123 67 -192.5t179 -69.5q113 0 193 71q79 70 79 170v717h101v-1024h-96l-5 115q-10 -17 -30 -37q-17 -20 -90 -62q-68 -36 -156 -36q-154 0 -248 91.5t-94 235.5zM502 1223h-119v143h119v-143zM844 1223h-119v143h119v-143z" />
    <glyph glyph-name="yacute" unicode="&#xfd;" 
d="M186 1024h113l311 -870l316 870h112l-526 -1393h-102l145 383zM872 1382l-260 -249h-110l223 249h147z" />
    <glyph glyph-name="thorn" unicode="&#xfe;" 
d="M885 326v372q0 120 -68.5 189t-177.5 69q-117 0 -194.5 -74t-77.5 -184v-372q0 -110 77.5 -184t194.5 -74q107 0 176.5 69.5t69.5 188.5zM393 80l-26 33v-482h-101v1803h101v-523q9 14 28 37q26 26 90 60q68 36 154 36q156 0 250 -94q96 -93 96 -231v-414
q0 -137 -96 -233q-95 -92 -250 -92q-76 0 -146 31.5t-100 68.5z" />
    <glyph glyph-name="ydieresis" unicode="&#xff;" 
d="M186 1024h113l311 -870l316 870h112l-526 -1393h-102l145 383zM502 1223h-119v143h119v-143zM844 1223h-119v143h119v-143z" />
    <glyph glyph-name="Amacron" unicode="&#x100;" 
d="M248 561l256 873h221l256 -873v-561h-107v489h-520v-489h-106v561zM365 588h499l-213 747h-73zM881 1618h-533v92h533v-92z" />
    <glyph glyph-name="amacron" unicode="&#x101;" 
d="M961 0h-101v109q0 -2 -10.5 -14t-34 -31.5t-55 -38t-81.5 -31.5t-106 -14q-136 0 -231 86q-94 85 -94 219t95 220t245 97l272 19v94q0 107 -62 174t-167 67q-85 0 -144.5 -48.5t-78.5 -127.5h-101q19 118 107 191t217 73q156 0 243 -90.5t87 -240.5v-713zM586 66
q107 0 190 65q84 66 84 152v249l-248 -14q-124 -8 -194 -68.5t-70 -162.5q0 -95 66.5 -158t171.5 -63zM895 1208h-533v92h533v-92z" />
    <glyph glyph-name="Abreve" unicode="&#x102;" 
d="M248 561l256 873h221l256 -873v-561h-107v489h-520v-489h-106v561zM365 588h499l-213 747h-73zM770 1784h100q0 -22 -5 -47t-21.5 -59.5t-42.5 -61t-75 -45.5t-112 -19t-112 19t-75 45.5t-42.5 61t-21.5 59.5t-5 47h101q0 -29 20 -78q14 -30 50 -49t85 -19q50 0 86 19
t48 49q22 48 22 78z" />
    <glyph glyph-name="abreve" unicode="&#x103;" 
d="M961 0h-101v109q0 -2 -10.5 -14t-34 -31.5t-55 -38t-81.5 -31.5t-106 -14q-136 0 -231 86q-94 85 -94 219t95 220t245 97l272 19v94q0 107 -62 174t-167 67q-85 0 -144.5 -48.5t-78.5 -127.5h-101q19 118 107 191t217 73q156 0 243 -90.5t87 -240.5v-713zM586 66
q107 0 190 65q84 66 84 152v249l-248 -14q-124 -8 -194 -68.5t-70 -162.5q0 -95 66.5 -158t171.5 -63zM791 1374h100q0 -15 -2.5 -31.5t-9.5 -40t-18.5 -44.5t-31.5 -42.5t-45.5 -37t-64 -25.5t-84.5 -10t-84.5 10t-64 25.5t-45.5 37t-31.5 42.5t-18.5 44.5t-9.5 40
t-2.5 31.5h100q0 -27 21 -78q14 -30 49.5 -48.5t85.5 -18.5t85.5 18.5t47.5 48.5q23 50 23 78z" />
    <glyph glyph-name="Aogonek" unicode="&#x104;" 
d="M248 561l256 873h221l256 -873v-561l-41 -33q-22 -19 -68 -78q-41 -59 -41 -100q0 -36 23 -56t59 -20h93v-82h-105q-74 0 -119 40t-45 106q0 49 35.5 103t79.5 91l39 29h-17v489h-520v-489h-106v561zM365 588h499l-213 747h-73z" />
    <glyph glyph-name="aogonek" unicode="&#x105;" 
d="M823 -29l37 29v109q0 -2 -10.5 -14t-34 -31.5t-55 -38t-81.5 -31.5t-106 -14q-136 0 -231 86q-94 85 -94 219t95 220t245 97l272 19v94q0 107 -62 174t-167 67q-85 0 -144.5 -48.5t-78.5 -127.5h-101q19 118 107 191t217 73q156 0 243 -90.5t87 -240.5v-713l-41 -33
q-22 -19 -68 -78q-41 -59 -41 -100q0 -36 23 -56t59 -20h92v-82h-104q-74 0 -119 40t-45 106q0 50 32.5 104t73.5 90zM586 66q107 0 190 65q84 66 84 152v249l-248 -14q-124 -8 -194 -68.5t-70 -162.5q0 -95 66.5 -158t171.5 -63z" />
    <glyph glyph-name="Cacute" unicode="&#x106;" 
d="M883 346h106v-8q0 -151 -106 -254q-107 -104 -258 -104q-153 0 -260 104q-107 107 -107 256v756q0 150 104 254t263 104q154 0 258 -104t104 -254h-104q-3 109 -78 184q-78 78 -182 78q-110 0 -184 -76.5t-74 -187.5v-752q0 -109 77 -186q78 -78 183 -78q108 0 182 74
q76 76 76 184v10zM881 1792l-260 -250h-111l223 250h148z" />
    <glyph glyph-name="cacute" unicode="&#x107;" 
d="M354 715v-406q0 -104 74.5 -172.5t185.5 -68.5q107 0 180.5 64t77.5 167h97q-9 -138 -107 -229q-96 -90 -248 -90q-162 0 -260 94t-98 239v398q0 143 98 237q101 96 260 96q148 0 244 -90t105 -223h-101q-4 98 -74.5 161.5t-173.5 63.5q-111 0 -185.5 -68.5t-74.5 -172.5
zM883 1382l-260 -249h-111l223 249h148z" />
    <glyph glyph-name="Ccircumflex" unicode="&#x108;" 
d="M883 346h106v-8q0 -151 -106 -254q-107 -104 -258 -104q-153 0 -260 104q-107 107 -107 256v756q0 150 104 254t263 104q154 0 258 -104t104 -254h-104q-3 109 -78 184q-78 78 -182 78q-110 0 -184 -76.5t-74 -187.5v-752q0 -109 77 -186q78 -78 183 -78q108 0 182 74
q76 76 76 184v10zM623 1720l-144 -178h-104l178 250h137l180 -250h-102z" />
    <glyph glyph-name="ccircumflex" unicode="&#x109;" 
d="M354 715v-406q0 -104 74.5 -172.5t185.5 -68.5q107 0 180.5 64t77.5 167h97q-9 -138 -107 -229q-96 -90 -248 -90q-162 0 -260 94t-98 239v398q0 143 98 237q101 96 260 96q148 0 244 -90t105 -223h-101q-4 98 -74.5 161.5t-173.5 63.5q-111 0 -185.5 -68.5t-74.5 -172.5
zM614 1311l-143 -178h-104l178 249h137l180 -249h-102z" />
    <glyph glyph-name="Cdotaccent" unicode="&#x10a;" 
d="M883 346h106v-8q0 -151 -106 -254q-107 -104 -258 -104q-153 0 -260 104q-107 107 -107 256v756q0 150 104 254t263 104q154 0 258 -104t104 -254h-104q-3 109 -78 184q-78 78 -182 78q-110 0 -184 -76.5t-74 -187.5v-752q0 -109 77 -186q78 -78 183 -78q108 0 182 74
q76 76 76 184v10zM692 1632h-135v144h135v-144z" />
    <glyph glyph-name="cdotaccent" unicode="&#x10b;" 
d="M354 715v-406q0 -104 74.5 -172.5t185.5 -68.5q107 0 180.5 64t77.5 167h97q-9 -138 -107 -229q-96 -90 -248 -90q-162 0 -260 94t-98 239v398q0 143 98 237q101 96 260 96q148 0 244 -90t105 -223h-101q-4 98 -74.5 161.5t-173.5 63.5q-111 0 -185.5 -68.5t-74.5 -172.5
zM682 1223h-135v143h135v-143z" />
    <glyph glyph-name="Ccaron" unicode="&#x10c;" 
d="M883 346h106v-8q0 -151 -106 -254q-107 -104 -258 -104q-153 0 -260 104q-107 107 -107 256v756q0 150 104 254t263 104q154 0 258 -104t104 -254h-104q-3 109 -78 184q-78 78 -182 78q-110 0 -184 -76.5t-74 -187.5v-752q0 -109 77 -186q78 -78 183 -78q108 0 182 74
q76 76 76 184v10zM553 1542l-178 250h104l144 -178l145 178h102l-180 -250h-137z" />
    <glyph glyph-name="ccaron" unicode="&#x10d;" 
d="M354 715v-406q0 -104 74.5 -172.5t185.5 -68.5q107 0 180.5 64t77.5 167h97q-9 -138 -107 -229q-96 -90 -248 -90q-162 0 -260 94t-98 239v398q0 143 98 237q101 96 260 96q148 0 244 -90t105 -223h-101q-4 98 -74.5 161.5t-173.5 63.5q-111 0 -185.5 -68.5t-74.5 -172.5
zM545 1133l-178 249h104l143 -178l146 178h102l-180 -249h-137z" />
    <glyph glyph-name="Dcaron" unicode="&#x10e;" 
d="M979 1073v-713q0 -151 -105 -256q-101 -104 -256 -104h-350v1434h350q154 0 256 -105q105 -102 105 -256zM872 356v715q0 113 -74 186.5t-186 73.5h-237v-1233h237q113 0 186.5 73t73.5 185zM543 1542l-178 250h104l143 -178l146 178h102l-180 -250h-137z" />
    <glyph glyph-name="dcaron" unicode="&#x10f;" 
d="M791 950l24 -32v516h100v-1434h-100v111q-9 -15 -31 -37q-19 -19 -92 -58q-68 -36 -149 -36q-155 0 -250 92q-96 96 -96 233v414q0 135 94 229q96 96 252 96q78 0 148 -29.5t100 -64.5zM297 711v-398q0 -106 71 -175.5t181 -69.5q106 0 186 71q80 74 80 170v406
q0 98 -78 170q-77 71 -186 71q-112 0 -183 -69.5t-71 -175.5zM1294 1434l-170 -252h-84l109 252h145z" />
    <glyph glyph-name="Dcroat" unicode="&#x110;" 
d="M279 709h-127v94h127v631h350q154 0 256 -105q104 -101 104 -256v-713q0 -152 -104 -256q-101 -104 -256 -104h-350v709zM883 356v715q0 113 -72.5 186.5t-187.5 73.5h-238v-528h233v-94h-233v-611h238q113 0 186.5 73t73.5 185z" />
    <glyph glyph-name="dslash" unicode="&#x111;" 
d="M836 950l26 -32v258h-262v90h262v168h101v-168h122v-90h-122v-1176h-101v111q-9 -15 -31 -37q-19 -19 -92 -58q-68 -36 -149 -36q-155 0 -250 92q-96 96 -96 233v414q0 135 94 229q96 96 252 96q79 0 148.5 -29.5t97.5 -64.5zM344 711v-398q0 -106 71 -175.5t181 -69.5
q106 0 186 71q80 74 80 170v406q0 98 -78 170q-77 71 -186 71q-112 0 -183 -69.5t-71 -175.5z" />
    <glyph glyph-name="Emacron" unicode="&#x112;" 
d="M301 0v1434h643v-99h-536v-528h487v-98h-487v-611h555v-98h-662zM891 1618h-533v92h533v-92z" />
    <glyph glyph-name="emacron" unicode="&#x113;" 
d="M872 299h99q-8 -141 -106 -230t-251 -89q-156 0 -260 90q-98 91 -98 227v430q0 137 98 225q103 92 260 92q156 0 256 -92q101 -91 101 -225v-244h-617v-170q0 -108 72.5 -176.5t185.5 -68.5t184.5 63.5t75.5 167.5zM354 709v-138h518v140q0 108 -74.5 176.5t-185.5 68.5
t-184.5 -69.5t-73.5 -177.5zM881 1208h-533v92h533v-92z" />
    <glyph glyph-name="Ebreve" unicode="&#x114;" 
d="M301 0v1434h643v-99h-536v-528h487v-98h-487v-611h555v-98h-662zM778 1784h101q0 -22 -5 -47t-21.5 -59.5t-42.5 -61t-75 -45.5t-112 -19t-112 19t-75 45.5t-42.5 61t-21.5 59.5t-5 47h100q0 -29 20 -78q14 -30 50 -49t86 -19t85.5 19t47.5 49q22 48 22 78z" />
    <glyph glyph-name="ebreve" unicode="&#x115;" 
d="M872 299h99q-8 -141 -106 -230t-251 -89q-156 0 -260 90q-98 91 -98 227v430q0 137 98 225q103 92 260 92q156 0 256 -92q101 -91 101 -225v-244h-617v-170q0 -108 72.5 -176.5t185.5 -68.5t184.5 63.5t75.5 167.5zM354 709v-138h518v140q0 108 -74.5 176.5t-185.5 68.5
t-184.5 -69.5t-73.5 -177.5zM770 1374h100q0 -15 -2.5 -31.5t-9.5 -40t-18.5 -44.5t-31.5 -42.5t-45.5 -37t-64 -25.5t-84.5 -10t-84.5 10t-64 25.5t-45.5 37t-31.5 42.5t-18.5 44.5t-9.5 40t-2.5 31.5h101q0 -29 20 -78q14 -30 49.5 -48.5t85.5 -18.5t86 18.5t48 48.5
q22 48 22 78z" />
    <glyph glyph-name="Edotaccent" unicode="&#x116;" 
d="M301 0v1434h643v-99h-536v-528h487v-98h-487v-611h555v-98h-662zM692 1632h-135v144h135v-144z" />
    <glyph glyph-name="edotaccent" unicode="&#x117;" 
d="M872 299h99q-8 -141 -106 -230t-251 -89q-156 0 -260 90q-98 91 -98 227v430q0 137 98 225q103 92 260 92q156 0 256 -92q101 -91 101 -225v-244h-617v-170q0 -108 72.5 -176.5t185.5 -68.5t184.5 63.5t75.5 167.5zM354 709v-138h518v140q0 108 -74.5 176.5t-185.5 68.5
t-184.5 -69.5t-73.5 -177.5zM682 1223h-135v143h135v-143z" />
    <glyph glyph-name="Eogonek" unicode="&#x118;" 
d="M301 0v1434h643v-99h-536v-528h487v-98h-487v-611h555v-98l-41 -33q-22 -19 -68 -78q-41 -59 -41 -100q0 -36 23 -56t59 -20h92v-82h-104q-74 0 -119 40t-45 106q0 50 32.5 104t73.5 90l35 29h-559z" />
    <glyph glyph-name="eogonek" unicode="&#x119;" 
d="M614 -20q-156 0 -260 90q-98 91 -98 227v430q0 137 98 225q103 92 260 92q156 0 256 -92q101 -91 101 -225v-244h-617v-174q0 -102 71.5 -171.5t186.5 -69.5q113 0 184.5 63.5t75.5 167.5h99q-6 -149 -119 -240q-40 -34 -104 -116q-62 -86 -62 -154q0 -36 23 -56t59 -20
h92v-82h-104q-74 0 -119 40t-45 106q0 114 119 215q-47 -12 -97 -12zM354 715v-144h518v144q0 101 -75 170q-77 71 -185 71q-111 0 -184.5 -68.5t-73.5 -172.5z" />
    <glyph glyph-name="Ecaron" unicode="&#x11a;" 
d="M301 0v1434h643v-99h-536v-528h487v-98h-487v-611h555v-98h-662zM553 1542l-178 250h104l144 -178l145 178h102l-180 -250h-137z" />
    <glyph glyph-name="ecaron" unicode="&#x11b;" 
d="M872 299h99q-8 -141 -106 -230t-251 -89q-156 0 -260 90q-98 91 -98 227v430q0 137 98 225q103 92 260 92q156 0 256 -92q101 -91 101 -225v-244h-617v-170q0 -108 72.5 -176.5t185.5 -68.5t184.5 63.5t75.5 167.5zM354 709v-138h518v140q0 108 -74.5 176.5t-185.5 68.5
t-184.5 -69.5t-73.5 -177.5zM545 1133l-178 249h104l143 -178l146 178h102l-180 -249h-137z" />
    <glyph glyph-name="Gcircumflex" unicode="&#x11c;" 
d="M682 702h319v-364q0 -153 -106 -256q-105 -102 -268 -102q-168 0 -275 104q-106 103 -106 256v756q0 154 106 254q107 104 275 104q162 0 264 -102q100 -100 100 -256h-106q-2 110 -74.5 183t-183.5 73q-122 0 -198.5 -73.5t-76.5 -184.5v-756q0 -112 76.5 -186
t198.5 -74q118 0 193 73.5t75 184.5v268h-213v98zM623 1720l-144 -178h-104l178 250h137l180 -250h-102z" />
    <glyph glyph-name="gcircumflex" unicode="&#x11d;" 
d="M840 37h-451q-63 0 -107 -45.5t-44 -112.5t43.5 -111t107.5 -44h451q64 0 109.5 45t45.5 110q0 67 -44.5 112.5t-110.5 45.5zM803 606v139q0 87 -64.5 149t-152.5 62q-93 0 -156 -60.5t-63 -150.5v-139q0 -89 63 -149q66 -60 156 -60q86 0 151 62q66 63 66 147z
M1006 1051h-23q-66 0 -92 -39l-55 -78q71 -89 71 -186v-142q0 -121 -96 -211q-94 -88 -225 -88l-29 2v-180h305q97 0 168 -74q70 -70 70 -176q0 -104 -69.5 -176t-168.5 -72h-497q-98 0 -167 72t-69 176t69 177t167 73h81v209q-59 21 -122 90q-62 71 -62 178v142
q0 120 94 208t230 88q107 0 178 -53l78 94q47 56 141 56h23v-90zM584 1311l-144 -178h-104l178 249h137l180 -249h-102z" />
    <glyph glyph-name="Gbreve" unicode="&#x11e;" 
d="M682 702h319v-364q0 -153 -106 -256q-105 -102 -268 -102q-168 0 -275 104q-106 103 -106 256v756q0 154 106 254q107 104 275 104q162 0 264 -102q100 -100 100 -256h-106q-2 110 -74.5 183t-183.5 73q-122 0 -198.5 -73.5t-76.5 -184.5v-756q0 -112 76.5 -186
t198.5 -74q118 0 193 73.5t75 184.5v268h-213v98zM782 1784h101q0 -22 -5 -47t-21.5 -59.5t-42.5 -61t-75 -45.5t-112 -19t-112 19t-75 45.5t-42.5 61t-21.5 59.5t-5 47h100q0 -27 21 -78q14 -30 50 -49t85 -19q50 0 85.5 19t47.5 49q22 48 22 78z" />
    <glyph glyph-name="gbreve" unicode="&#x11f;" 
d="M840 37h-451q-63 0 -107 -45.5t-44 -112.5t43.5 -111t107.5 -44h451q64 0 109.5 45t45.5 110q0 67 -44.5 112.5t-110.5 45.5zM803 606v139q0 87 -64.5 149t-152.5 62q-93 0 -156 -60.5t-63 -150.5v-139q0 -89 63 -149q66 -60 156 -60q86 0 151 62q66 63 66 147z
M1006 1051h-23q-66 0 -92 -39l-55 -78q71 -89 71 -186v-142q0 -121 -96 -211q-94 -88 -225 -88l-29 2v-180h305q97 0 168 -74q70 -70 70 -176q0 -104 -69.5 -176t-168.5 -72h-497q-98 0 -167 72t-69 176t69 177t167 73h81v209q-59 21 -122 90q-62 71 -62 178v142
q0 120 94 208t230 88q107 0 178 -53l78 94q47 56 141 56h23v-90zM745 1374h101q0 -15 -2.5 -31.5t-9.5 -40t-18.5 -44.5t-31.5 -42.5t-45.5 -37t-64 -25.5t-84.5 -10t-84.5 10t-64 25.5t-45.5 37t-31.5 42.5t-18.5 44.5t-9.5 40t-2.5 31.5h100q0 -27 21 -78
q14 -30 49.5 -48.5t85.5 -18.5t85.5 18.5t47.5 48.5q22 48 22 78z" />
    <glyph glyph-name="Gdotaccent" unicode="&#x120;" 
d="M682 702h319v-364q0 -153 -106 -256q-105 -102 -268 -102q-168 0 -275 104q-106 103 -106 256v756q0 154 106 254q107 104 275 104q162 0 264 -102q100 -100 100 -256h-106q-2 110 -74.5 183t-183.5 73q-122 0 -198.5 -73.5t-76.5 -184.5v-756q0 -112 76.5 -186
t198.5 -74q118 0 193 73.5t75 184.5v268h-213v98zM694 1632h-135v144h135v-144z" />
    <glyph glyph-name="gdotaccent" unicode="&#x121;" 
d="M840 37h-451q-63 0 -107 -45.5t-44 -112.5t43.5 -111t107.5 -44h451q64 0 109.5 45t45.5 110q0 67 -44.5 112.5t-110.5 45.5zM803 606v139q0 87 -64.5 149t-152.5 62q-93 0 -156 -60.5t-63 -150.5v-139q0 -89 63 -149q66 -60 156 -60q86 0 151 62q66 63 66 147z
M1006 1051h-23q-66 0 -92 -39l-55 -78q71 -89 71 -186v-142q0 -121 -96 -211q-94 -88 -225 -88l-29 2v-180h305q97 0 168 -74q70 -70 70 -176q0 -104 -69.5 -176t-168.5 -72h-497q-98 0 -167 72t-69 176t69 177t167 73h81v209q-59 21 -122 90q-62 71 -62 178v142
q0 120 94 208t230 88q107 0 178 -53l78 94q47 56 141 56h23v-90zM657 1223h-135v143h135v-143z" />
    <glyph glyph-name="uni0122" unicode="&#x122;" 
d="M682 702h319v-364q0 -153 -106 -256q-105 -102 -268 -102q-168 0 -275 104q-106 103 -106 256v756q0 154 106 254q107 104 275 104q162 0 264 -102q100 -100 100 -256h-106q-2 110 -74.5 183t-183.5 73q-122 0 -198.5 -73.5t-76.5 -184.5v-756q0 -112 76.5 -186
t198.5 -74q118 0 193 73.5t75 184.5v268h-213v98zM711 -102l-170 -252h-84l108 252h146z" />
    <glyph glyph-name="uni0123" unicode="&#x123;" 
d="M840 37h-451q-63 0 -107 -45.5t-44 -112.5t43.5 -111t107.5 -44h451q64 0 109.5 45t45.5 110q0 67 -44.5 112.5t-110.5 45.5zM803 606v139q0 87 -64.5 149t-152.5 62q-93 0 -156 -60.5t-63 -150.5v-139q0 -89 63 -149q66 -60 156 -60q86 0 151 62q66 63 66 147z
M1006 1051h-23q-66 0 -92 -39l-55 -78q71 -89 71 -186v-142q0 -121 -96 -211q-94 -88 -225 -88l-29 2v-180h305q97 0 168 -74q70 -70 70 -176q0 -104 -69.5 -176t-168.5 -72h-497q-98 0 -167 72t-69 176t69 177t167 73h81v209q-59 21 -122 90q-62 71 -62 178v142
q0 120 94 208t230 88q107 0 178 -53l78 94q47 56 141 56h23v-90zM496 1139l170 252h84l-109 -252h-145z" />
    <glyph glyph-name="Hcircumflex" unicode="&#x124;" 
d="M874 807v627h107v-1434h-107v709h-520v-709h-106v1434h106v-627h520zM612 1720l-143 -178h-104l178 250h137l180 -250h-102z" />
    <glyph glyph-name="hcircumflex" unicode="&#x125;" 
d="M983 717v-717h-100v696q0 122 -67 192t-179 70q-113 0 -193 -71q-79 -70 -79 -170v-717h-101v1434h101v-525q9 14 28 37q24 24 92 60q66 38 156 38q157 0 248 -94q94 -94 94 -233zM625 1718l-144 -178h-104l178 250h137l180 -250h-102z" />
    <glyph glyph-name="Hbar" unicode="&#x126;" 
d="M874 1161v273h107v-273h104v-88h-104v-1073h-107v709h-520v-709h-106v1073h-105v88h105v273h106v-273h520zM354 1073v-266h520v266h-520z" />
    <glyph glyph-name="hbar" unicode="&#x127;" 
d="M264 1178h-125v88h125v168h101v-168h262v-88h-262v-269q9 14 28 37q24 24 92 60q66 38 156 38q157 0 248 -94q94 -94 94 -233v-717h-100v696q0 122 -67 192t-179 70q-113 0 -193 -71q-79 -70 -79 -170v-717h-101v1178z" />
    <glyph glyph-name="Itilde" unicode="&#x128;" 
d="M563 1335h-319v99h741v-99h-315v-1237h315v-98h-741v98h319v1237zM496 1759q53 0 129 -43t110 -43q29 0 47.5 20t18.5 52v14h94v-14q0 -71 -46 -116.5t-114 -45.5q-53 0 -129 43t-110 43q-29 0 -48.5 -19.5t-19.5 -50.5v-16h-94v16q0 71 46 115.5t116 44.5z" />
    <glyph glyph-name="itilde" unicode="&#x129;" 
d="M244 936v88h430v-936h291v-88h-721v88h327v848h-327zM496 1350q53 0 129 -43t110 -43q29 0 47.5 19.5t18.5 51.5v15h94v-15q0 -71 -46 -116t-114 -45q-53 0 -129 43t-110 43q-29 0 -48.5 -19.5t-19.5 -50.5v-16h-94v16q0 71 46 115.5t116 44.5z" />
    <glyph glyph-name="Imacron" unicode="&#x12a;" 
d="M563 1335h-319v99h741v-99h-315v-1237h315v-98h-741v98h319v1237zM881 1618h-533v92h533v-92z" />
    <glyph glyph-name="imacron" unicode="&#x12b;" 
d="M244 936v88h430v-936h291v-88h-721v88h327v848h-327zM881 1208h-533v92h533v-92z" />
    <glyph glyph-name="Iogonek" unicode="&#x12e;" 
d="M563 1335h-319v99h741v-99h-315v-1237h315v-98l-41 -33q-19 -16 -67 -78q-41 -59 -41 -100q0 -36 23 -56t59 -20h92v-82h-105q-74 0 -119 40t-45 106q0 50 35.5 104t79.5 90l37 29h-649v98h319v1237z" />
    <glyph glyph-name="iogonek" unicode="&#x12f;" 
d="M244 936v88h430v-936h291v-88l-41 -33q-22 -19 -68 -78q-41 -59 -41 -100q0 -36 23 -56t59 -20h92v-82h-104q-74 0 -119 40t-45 106q0 50 32.5 105t73.5 89l35 29h-618v88h327v848h-327zM684 1223h-135v143h135v-143z" />
    <glyph glyph-name="Idot" unicode="&#x130;" 
d="M563 1335h-319v99h741v-99h-315v-1237h315v-98h-741v98h319v1237zM682 1632h-135v144h135v-144z" />
    <glyph glyph-name="dotlessi" unicode="&#x131;" 
d="M244 936v88h430v-936h291v-88h-721v88h327v848h-327z" />
    <glyph glyph-name="IJ" unicode="&#x132;" 
d="M502 98v-98h-439v98h164v1237h-164v99h439v-99h-168v-1237h168zM578 377h102v-121q0 -85 41 -131.5t110 -46.5q70 0 112 46.5t42 131.5v1079h-227v99h334v-1174q0 -126 -73.5 -203t-187.5 -77q-113 0 -183 75.5t-70 202.5v119z" />
    <glyph glyph-name="ij" unicode="&#x133;" horiz-adv-x="1230" 
d="M131 936v88h287v-936h180v-88h-467v88h184v848h-184zM428 1223h-135v143h135v-143zM709 1024h286v-1106q0 -137 -84 -222t-225 -85q-136 0 -219 59l51 76q65 -47 168 -47q96 0 151.5 61t55.5 162v1014h-184v88zM999 1223h-131v143h131v-143z" />
    <glyph glyph-name="Jcircumflex" unicode="&#x134;" 
d="M238 338v129h106v-131q0 -107 74 -184q77 -74 184 -74q111 0 184 76q76 76 76 184v997h-555v99h662v-1094q0 -149 -107 -256q-104 -104 -252 -104h-14q-150 0 -254 104t-104 254zM647 1720l-143 -178h-105l179 250h137l180 -250h-102z" />
    <glyph glyph-name="jcircumflex" unicode="&#x135;" 
d="M283 1024h587v-1106q0 -137 -84 -222t-225 -85q-136 0 -219 59l51 76q65 -47 168 -47q96 0 151.5 61t55.5 162v1014h-485v88zM700 1311l-143 -178h-104l178 249h137l180 -249h-102z" />
    <glyph glyph-name="uni0136" unicode="&#x136;" 
d="M287 1434h106v-664l506 664h123l-516 -672l547 -762h-127l-533 748v-748h-106v1434zM700 -102l-170 -252h-84l109 252h145z" />
    <glyph glyph-name="uni0137" unicode="&#x137;" 
d="M1016 0h-129l-457 530v-530h-98v1434h98v-875l422 465h131l-442 -477z" />
    <glyph glyph-name="kgreenlandic" unicode="&#x138;" 
d="M1016 0h-129l-457 530v-530h-98v1024h98v-465l422 465h131l-442 -477zM705 -102l-170 -252h-84l108 252h146z" />
    <glyph glyph-name="Lacute" unicode="&#x139;" 
d="M317 0v1434h107v-1336h596v-98h-703zM799 1792l-260 -250h-111l223 250h148z" />
    <glyph glyph-name="lacute" unicode="&#x13a;" 
d="M346 1346v88h330v-1346h311v-88h-704v88h290v1258h-227zM842 1790l-260 -250h-111l223 250h148z" />
    <glyph glyph-name="uni013B" unicode="&#x13b;" 
d="M741 -102l-170 -252h-84l109 252h145zM317 0v1434h107v-1336h596v-98h-703z" />
    <glyph glyph-name="uni013C" unicode="&#x13c;" 
d="M346 1346v88h330v-1346h311v-88h-704v88h290v1258h-227zM721 -102l-170 -252h-84l108 252h146z" />
    <glyph glyph-name="Lcaron" unicode="&#x13d;" 
d="M317 0v1434h107v-1336h596v-98h-703zM1022 1434l-170 -252h-84l109 252h145z" />
    <glyph glyph-name="lcaron" unicode="&#x13e;" 
d="M346 1346v88h330v-1346h311v-88h-704v88h290v1258h-227zM1155 1434l-170 -252h-84l109 252h145z" />
    <glyph glyph-name="Ldot" unicode="&#x13f;" 
d="M317 0v1434h107v-1336h596v-98h-703zM983 672h-143v143h143v-143z" />
    <glyph glyph-name="ldot" unicode="&#x140;" 
d="M346 1346v88h330v-1346h311v-88h-704v88h290v1258h-227zM1116 528h-143v144h143v-144z" />
    <glyph glyph-name="Lslash" unicode="&#x141;" 
d="M455 754l309 180l-2 -107l-307 -180v-549h594v-98h-701v586l-127 -74v106l127 74v742h107v-680z" />
    <glyph glyph-name="lslash" unicode="&#x142;" 
d="M573 690l-153 -88v94l153 88v562h-227v88h330v-592l203 116v-94l-203 -114v-662h311v-88h-704v88h290v602z" />
    <glyph glyph-name="Nacute" unicode="&#x143;" 
d="M979 0h-102l-537 1221q8 -177 8 -476v-745h-98v1434h102l539 -1225q-10 218 -10 479v746h98v-1434zM920 1792l-261 -250h-110l223 250h148z" />
    <glyph glyph-name="nacute" unicode="&#x144;" 
d="M983 717v-717h-100v696q0 122 -67 192t-179 70q-113 0 -193 -71q-79 -70 -79 -170v-717h-101v1024h96l5 -115q9 14 28 37q24 24 92 60q66 38 156 38q157 0 248 -94q94 -94 94 -233zM891 1382l-260 -249h-111l223 249h148z" />
    <glyph glyph-name="uni0145" unicode="&#x145;" 
d="M709 -102l-170 -252h-84l108 252h146zM979 0h-102l-537 1221q8 -177 8 -476v-745h-98v1434h102l539 -1225q-10 218 -10 479v746h98v-1434z" />
    <glyph glyph-name="uni0146" unicode="&#x146;" 
d="M983 717v-717h-100v696q0 122 -67 192t-179 70q-113 0 -193 -71q-79 -70 -79 -170v-717h-101v1024h96l5 -115q9 14 28 37q24 24 92 60q66 38 156 38q157 0 248 -94q94 -94 94 -233zM711 -102l-170 -252h-84l108 252h146z" />
    <glyph glyph-name="Ncaron" unicode="&#x147;" 
d="M979 0h-102l-537 1221q8 -177 8 -476v-745h-98v1434h102l539 -1225q-10 218 -10 479v746h98v-1434zM543 1542l-178 250h104l143 -178l146 178h102l-180 -250h-137z" />
    <glyph glyph-name="ncaron" unicode="&#x148;" 
d="M983 717v-717h-100v696q0 122 -67 192t-179 70q-113 0 -193 -71q-79 -70 -79 -170v-717h-101v1024h96l5 -115q9 14 28 37q24 24 92 60q66 38 156 38q157 0 248 -94q94 -94 94 -233zM561 1133l-178 249h104l144 -178l145 178h103l-181 -249h-137z" />
    <glyph glyph-name="napostrophe" unicode="&#x149;" 
d="M983 717v-717h-100v696q0 122 -67 192t-179 70q-113 0 -193 -71q-79 -70 -79 -170v-717h-101v1024h96l5 -115q9 14 28 37q24 24 92 60q66 38 156 38q157 0 248 -94q94 -94 94 -233zM297 1434l-170 -252h-84l109 252h145z" />
    <glyph glyph-name="Omacron" unicode="&#x14c;" 
d="M991 1096v-758q0 -153 -106 -256q-105 -102 -271 -102q-165 0 -272 104q-106 103 -106 256v756q0 154 106 254q107 104 272 104q167 0 271 -104q106 -100 106 -254zM885 336v758q0 112 -75.5 187t-195.5 75q-121 0 -196.5 -75t-75.5 -187v-756q0 -112 75.5 -186
t196.5 -74q120 0 195.5 73t75.5 185zM881 1618h-533v92h533v-92z" />
    <glyph glyph-name="omacron" unicode="&#x14d;" 
d="M971 297q0 -134 -101 -225q-100 -92 -256 -92t-260 90q-98 91 -98 227v430q0 137 98 225q103 92 260 92q156 0 256 -92q101 -91 101 -225v-430zM872 715q0 103 -75 172t-185 69q-109 0 -184 -69q-74 -71 -74 -172v-406q0 -101 74 -172q75 -69 186 -69t183 69
q75 69 75 172v406zM881 1208h-533v92h533v-92z" />
    <glyph glyph-name="Obreve" unicode="&#x14e;" 
d="M991 1096v-758q0 -153 -106 -256q-105 -102 -271 -102q-165 0 -272 104q-106 103 -106 256v756q0 154 106 254q107 104 272 104q167 0 271 -104q106 -100 106 -254zM885 336v758q0 112 -75.5 187t-195.5 75q-121 0 -196.5 -75t-75.5 -187v-756q0 -112 75.5 -186
t196.5 -74q120 0 195.5 73t75.5 185zM770 1784h100q0 -22 -5 -47t-21.5 -59.5t-42.5 -61t-75 -45.5t-112 -19t-112 19t-75 45.5t-42.5 61t-21.5 59.5t-5 47h101q0 -29 20 -78q14 -30 50 -49t85 -19q50 0 86 19t48 49q22 48 22 78z" />
    <glyph glyph-name="obreve" unicode="&#x14f;" 
d="M971 297q0 -134 -101 -225q-100 -92 -256 -92t-260 90q-98 91 -98 227v430q0 137 98 225q103 92 260 92q156 0 256 -92q101 -91 101 -225v-430zM872 715q0 103 -75 172t-185 69q-109 0 -184 -69q-74 -71 -74 -172v-406q0 -101 74 -172q75 -69 186 -69t183 69
q75 69 75 172v406zM770 1374h100q0 -15 -2.5 -31.5t-9.5 -40t-18.5 -44.5t-31.5 -42.5t-45.5 -37t-64 -25.5t-84.5 -10t-84.5 10t-64 25.5t-45.5 37t-31.5 42.5t-18.5 44.5t-9.5 40t-2.5 31.5h101q0 -29 20 -78q14 -30 49.5 -48.5t85.5 -18.5t86 18.5t48 48.5q22 48 22 78z
" />
    <glyph glyph-name="Ohungarumlaut" unicode="&#x150;" 
d="M991 1096v-758q0 -153 -106 -256q-105 -102 -271 -102q-165 0 -272 104q-106 103 -106 256v756q0 154 106 254q107 104 272 104q167 0 271 -104q106 -100 106 -254zM885 336v758q0 112 -75.5 187t-195.5 75q-121 0 -196.5 -75t-75.5 -187v-756q0 -112 75.5 -186
t196.5 -74q120 0 195.5 73t75.5 185zM752 1792l-238 -250h-94l192 250h140zM1020 1792l-238 -250h-94l193 250h139z" />
    <glyph glyph-name="ohungarumlaut" unicode="&#x151;" 
d="M971 297q0 -134 -101 -225q-100 -92 -256 -92t-260 90q-98 91 -98 227v430q0 137 98 225q103 92 260 92q156 0 256 -92q101 -91 101 -225v-430zM872 715q0 103 -75 172t-185 69q-109 0 -184 -69q-74 -71 -74 -172v-406q0 -101 74 -172q75 -69 186 -69t183 69
q75 69 75 172v406zM750 1382l-238 -249h-94l192 249h140zM1018 1382l-238 -249h-94l193 249h139z" />
    <glyph glyph-name="OE" unicode="&#x152;" 
d="M535 1434h559v-99h-365v-528h315v-98h-315v-611h375v-98h-569q-150 0 -250 106q-101 107 -101 256v711q0 150 101 254q101 107 250 107zM291 1071v-711q0 -113 71 -187.5t179 -74.5h82v1233h-82q-110 0 -180 -73.5t-70 -186.5z" />
    <glyph glyph-name="oe" unicode="&#x153;" 
d="M967 223v76h92v-76q0 -103 -68 -174q-66 -69 -166 -69q-151 0 -213 120q-70 -120 -206 -120q-106 0 -177 71t-71 174v576q0 101 71 172t177 71q63 0 116 -28t74 -62l18 -28q4 9 21 32q17 26 73.5 56t116.5 30q102 0 169 -69t67 -174v-316h-399v-247q0 -76 43.5 -123
t117.5 -47q67 0 105.5 41t38.5 114zM559 238v559q0 69 -42.5 114t-110.5 45q-67 0 -108.5 -47t-41.5 -121v-550q0 -74 42 -122t108 -48q67 0 110 48t43 122zM662 797v-226h307v222q0 71 -42 117t-104 46q-66 0 -113.5 -46.5t-47.5 -112.5z" />
    <glyph glyph-name="Racute" unicode="&#x154;" 
d="M991 0h-114l-228 547h-246v-547h-106v1434h344q145 0 232.5 -83.5t87.5 -215.5v-287q0 -98 -56 -177t-147 -108zM854 842v291q0 89 -58 143.5t-157 54.5h-236v-686h252q86 0 142.5 55.5t56.5 141.5zM850 1792l-260 -250h-111l223 250h148z" />
    <glyph glyph-name="racute" unicode="&#x155;" 
d="M397 88v936h97l4 -117l5 7q5 8 15 19.5t24.5 26t35.5 28.5t46 25.5t58.5 19t69.5 7.5q139 0 209 -82q72 -85 81 -186h-104q-5 81 -57.5 132.5t-137.5 51.5q-91 0 -168 -71q-75 -69 -75 -162v-635h407v-88h-723v88h213zM981 1382l-260 -249h-111l224 249h147z" />
    <glyph glyph-name="uni0156" unicode="&#x156;" 
d="M991 0h-114l-228 547h-246v-547h-106v1434h344q145 0 232.5 -83.5t87.5 -215.5v-287q0 -98 -56 -177t-147 -108zM854 842v291q0 89 -58 143.5t-157 54.5h-236v-686h252q86 0 142.5 55.5t56.5 141.5zM690 -102l-170 -252h-84l109 252h145z" />
    <glyph glyph-name="uni0157" unicode="&#x157;" 
d="M397 88v936h97l4 -117l5 7q5 8 15 19.5t24.5 26t35.5 28.5t46 25.5t58.5 19t69.5 7.5q139 0 209 -82q72 -85 81 -186h-104q-5 81 -57.5 132.5t-137.5 51.5q-91 0 -168 -71q-75 -69 -75 -162v-635h407v-88h-723v88h213zM594 -102l-170 -252h-84l109 252h145z" />
    <glyph glyph-name="Rcaron" unicode="&#x158;" 
d="M991 0h-114l-228 547h-246v-547h-106v1434h344q145 0 232.5 -83.5t87.5 -215.5v-287q0 -98 -56 -177t-147 -108zM854 842v291q0 89 -58 143.5t-157 54.5h-236v-686h252q86 0 142.5 55.5t56.5 141.5zM543 1542l-178 250h104l143 -178l146 178h102l-180 -250h-137z" />
    <glyph glyph-name="rcaron" unicode="&#x159;" 
d="M397 88v936h97l4 -117l5 7q5 8 15 19.5t24.5 26t35.5 28.5t46 25.5t58.5 19t69.5 7.5q139 0 209 -82q72 -85 81 -186h-104q-5 81 -57.5 132.5t-137.5 51.5q-91 0 -168 -71q-75 -69 -75 -162v-635h407v-88h-723v88h213zM647 1133l-178 249h104l144 -178l145 178h103
l-181 -249h-137z" />
    <glyph glyph-name="Sacute" unicode="&#x15a;" 
d="M977 1096h-105q-5 111 -77.5 185.5t-180.5 74.5q-103 0 -178 -72q-74 -71 -74 -176q0 -29 4.5 -55.5t17 -50t23.5 -42t34 -39t38.5 -33.5t46 -32.5t47 -29t52.5 -29.5t51 -29q72 -41 151 -96q75 -49 119.5 -135t44.5 -193q0 -152 -108 -260q-107 -104 -269 -104
q-164 0 -272 102q-106 103 -106 256v49h106v-49q0 -111 77 -185.5t195 -74.5t194.5 72.5t76.5 183.5q0 107 -61 188.5t-162 132.5q-16 9 -54 28.5t-57.5 30t-54.5 31t-54.5 35t-48.5 38t-46 43.5t-36.5 48.5t-30 56.5t-17.5 63t-7 73q0 149 104 250q108 102 254 102
q151 0 254 -100q106 -100 109 -258zM885 1792l-260 -250h-111l223 250h148z" />
    <glyph glyph-name="sacute" unicode="&#x15b;" 
d="M942 772h-104q-1 77 -65 130.5t-152 53.5q-78 0 -142 -49q-61 -46 -62 -116.5t54 -116.5q33 -26 78.5 -48.5t114 -50t98.5 -40.5q83 -34 134.5 -104.5t51.5 -168.5q0 -119 -94 -201q-93 -81 -233 -81q-155 0 -248 90q-92 92 -92 217h100q2 -93 70 -156t170 -63
q98 0 161.5 54.5t63.5 139.5q0 131 -187 201q-9 3 -26 10q-43 16 -65 25t-61 27.5t-61 33.5t-50 39t-43 49t-25.5 59t-10.5 72q0 117 91 193q88 73 221 73q138 0 221 -86t92 -186zM897 1382l-260 -249h-111l224 249h147z" />
    <glyph glyph-name="Scircumflex" unicode="&#x15c;" 
d="M977 1096h-105q-5 111 -77.5 185.5t-180.5 74.5q-103 0 -178 -72q-74 -71 -74 -176q0 -29 4.5 -55.5t17 -50t23.5 -42t34 -39t38.5 -33.5t46 -32.5t47 -29t52.5 -29.5t51 -29q72 -41 151 -96q75 -49 119.5 -135t44.5 -193q0 -152 -108 -260q-107 -104 -269 -104
q-164 0 -272 102q-106 103 -106 256v49h106v-49q0 -111 77 -185.5t195 -74.5t194.5 72.5t76.5 183.5q0 107 -61 188.5t-162 132.5q-16 9 -54 28.5t-57.5 30t-54.5 31t-54.5 35t-48.5 38t-46 43.5t-36.5 48.5t-30 56.5t-17.5 63t-7 73q0 149 104 250q108 102 254 102
q151 0 254 -100q106 -100 109 -258zM625 1720l-144 -178h-104l178 250h137l180 -250h-102z" />
    <glyph glyph-name="scircumflex" unicode="&#x15d;" 
d="M942 772h-104q-1 77 -65 130.5t-152 53.5q-78 0 -142 -49q-61 -46 -62 -116.5t54 -116.5q33 -26 78.5 -48.5t114 -50t98.5 -40.5q83 -34 134.5 -104.5t51.5 -168.5q0 -119 -94 -201q-93 -81 -233 -81q-155 0 -248 90q-92 92 -92 217h100q2 -93 70 -156t170 -63
q98 0 161.5 54.5t63.5 139.5q0 131 -187 201q-9 3 -26 10q-43 16 -65 25t-61 27.5t-61 33.5t-50 39t-43 49t-25.5 59t-10.5 72q0 117 91 193q88 73 221 73q138 0 221 -86t92 -186zM621 1311l-144 -178h-104l178 249h137l180 -249h-102z" />
    <glyph glyph-name="Scedilla" unicode="&#x15e;" 
d="M977 1096h-105q-5 111 -77.5 185.5t-180.5 74.5q-103 0 -178 -72q-74 -71 -74 -176q0 -29 4.5 -55.5t17 -50t23.5 -42t34 -39t38.5 -33.5t46 -32.5t47 -29t52.5 -29.5t51 -29q72 -41 151 -96q75 -49 119.5 -135t44.5 -193q0 -149 -102 -254q-101 -104 -256 -110v-62h16
q69 0 111.5 -39t42.5 -102q0 -62 -45.5 -104t-114.5 -42h-115v84h105q35 0 55.5 17.5t20.5 46.5q0 57 -66 57h-92v150q-140 19 -227.5 117t-87.5 235v49h106v-49q0 -111 77 -185.5t195 -74.5t194.5 72.5t76.5 183.5q0 107 -61 188.5t-162 132.5q-16 9 -54 28.5t-57.5 30
t-54.5 31t-54.5 35t-48.5 38t-46 43.5t-36.5 48.5t-30 56.5t-17.5 63t-7 73q0 149 104 250q108 102 254 102q151 0 254 -100q106 -100 109 -258z" />
    <glyph glyph-name="scedilla" unicode="&#x15f;" 
d="M942 772h-104q-1 77 -65 130.5t-152 53.5q-78 0 -142 -49q-61 -46 -62 -116.5t54 -116.5q33 -26 78.5 -48.5t114 -50t98.5 -40.5q83 -34 134.5 -104.5t51.5 -168.5q0 -115 -90 -196q-89 -80 -221 -86v-62h16q69 0 111.5 -39t42.5 -102q0 -62 -45.5 -104t-114.5 -42h-115
v84h105q35 0 55.5 17.5t20.5 46.5q0 57 -66 57h-92v150q-125 18 -199.5 103t-74.5 198h100q2 -93 70 -156t170 -63q98 0 161.5 54.5t63.5 139.5q0 131 -187 201q-9 3 -26 10q-43 16 -65 25t-61 27.5t-61 33.5t-50 39t-43 49t-25.5 59t-10.5 72q0 117 91 193q88 73 221 73
q138 0 221 -86t92 -186z" />
    <glyph glyph-name="Scaron" unicode="&#x160;" 
d="M977 1096h-105q-5 111 -77.5 185.5t-180.5 74.5q-103 0 -178 -72q-74 -71 -74 -176q0 -29 4.5 -55.5t17 -50t23.5 -42t34 -39t38.5 -33.5t46 -32.5t47 -29t52.5 -29.5t51 -29q72 -41 151 -96q75 -49 119.5 -135t44.5 -193q0 -152 -108 -260q-107 -104 -269 -104
q-164 0 -272 102q-106 103 -106 256v49h106v-49q0 -111 77 -185.5t195 -74.5t194.5 72.5t76.5 183.5q0 107 -61 188.5t-162 132.5q-16 9 -54 28.5t-57.5 30t-54.5 31t-54.5 35t-48.5 38t-46 43.5t-36.5 48.5t-30 56.5t-17.5 63t-7 73q0 149 104 250q108 102 254 102
q151 0 254 -100q106 -100 109 -258zM557 1542l-178 250h104l144 -178l145 178h102l-180 -250h-137z" />
    <glyph glyph-name="scaron" unicode="&#x161;" 
d="M942 772h-104q-1 77 -65 130.5t-152 53.5q-78 0 -142 -49q-61 -46 -62 -116.5t54 -116.5q33 -26 78.5 -48.5t114 -50t98.5 -40.5q83 -34 134.5 -104.5t51.5 -168.5q0 -119 -94 -201q-93 -81 -233 -81q-155 0 -248 90q-92 92 -92 217h100q2 -93 70 -156t170 -63
q98 0 161.5 54.5t63.5 139.5q0 131 -187 201q-9 3 -26 10q-43 16 -65 25t-61 27.5t-61 33.5t-50 39t-43 49t-25.5 59t-10.5 72q0 117 91 193q88 73 221 73q138 0 221 -86t92 -186zM551 1133l-178 249h104l144 -178l145 178h102l-180 -249h-137z" />
    <glyph glyph-name="uni0162" unicode="&#x162;" 
d="M561 1335h-354v99h815v-99h-354v-1335h-107v1335zM700 -102l-170 -252h-84l109 252h145z" />
    <glyph glyph-name="uni0163" unicode="&#x163;" 
d="M385 936h-158v88h158v287h98v-287h496v-88h-496v-647q0 -95 59 -157t160 -62q85 0 144 57t61 129h90q-3 -111 -88 -193q-86 -83 -209 -83q-146 0 -230.5 85.5t-84.5 227.5v643zM741 -102l-170 -252h-84l109 252h145z" />
    <glyph glyph-name="Tcaron" unicode="&#x164;" 
d="M561 1335h-354v99h815v-99h-354v-1335h-107v1335zM543 1542l-178 250h104l143 -178l146 178h102l-180 -250h-137z" />
    <glyph glyph-name="tcaron" unicode="&#x165;" 
d="M385 936h-158v88h158v287h98v-287h496v-88h-496v-647q0 -95 59 -157t160 -62q85 0 144 57t61 129h90q-3 -111 -88 -193q-86 -83 -209 -83q-146 0 -230.5 85.5t-84.5 227.5v643zM1137 1434l-170 -252h-84l108 252h146z" />
    <glyph glyph-name="Tbar" unicode="&#x166;" 
d="M561 1335h-354v99h815v-99h-354v-530h280v-94h-280v-711h-107v711h-276v94h276v530z" />
    <glyph glyph-name="tbar" unicode="&#x167;" 
d="M385 936h-158v88h158v287h98v-287h496v-88h-496v-315h267v-86h-267v-246q0 -95 59 -157t160 -62q85 0 144 57t61 129h90q-3 -111 -88 -193q-86 -83 -209 -83q-146 0 -230.5 85.5t-84.5 227.5v242h-149v86h149v315z" />
    <glyph glyph-name="Utilde" unicode="&#x168;" 
d="M885 336v1098h106v-1096q0 -150 -104 -254t-254 -104h-39q-147 0 -254 104q-104 107 -104 256v1094h106v-1096q0 -107 74 -184q76 -76 186 -76h25q108 0 182 74q76 76 76 184zM496 1759q53 0 129 -43t110 -43q29 0 47.5 20t18.5 52v14h94v-14q0 -71 -46 -116.5
t-114 -45.5q-53 0 -129 43t-110 43q-29 0 -48.5 -19.5t-19.5 -50.5v-16h-94v16q0 71 46 115.5t116 44.5z" />
    <glyph glyph-name="utilde" unicode="&#x169;" 
d="M256 307v717h100v-696q0 -123 67 -192.5t179 -69.5q113 0 193 71q79 70 79 170v717h101v-1024h-96l-5 115q-10 -17 -30 -37q-17 -20 -90 -62q-68 -36 -156 -36q-154 0 -248 91.5t-94 235.5zM496 1350q53 0 129 -43t110 -43q29 0 47.5 19.5t18.5 51.5v15h94v-15
q0 -71 -46 -116t-114 -45q-53 0 -129 43t-110 43q-29 0 -48.5 -19.5t-19.5 -50.5v-16h-94v16q0 71 46 115.5t116 44.5z" />
    <glyph glyph-name="Umacron" unicode="&#x16a;" 
d="M885 336v1098h106v-1096q0 -150 -104 -254t-254 -104h-39q-147 0 -254 104q-104 107 -104 256v1094h106v-1096q0 -107 74 -184q76 -76 186 -76h25q108 0 182 74q76 76 76 184zM881 1618h-533v92h533v-92z" />
    <glyph glyph-name="umacron" unicode="&#x16b;" 
d="M256 307v717h100v-696q0 -123 67 -192.5t179 -69.5q113 0 193 71q79 70 79 170v717h101v-1024h-96l-5 115q-10 -17 -30 -37q-17 -20 -90 -62q-68 -36 -156 -36q-154 0 -248 91.5t-94 235.5zM881 1208h-533v92h533v-92z" />
    <glyph glyph-name="Ubreve" unicode="&#x16c;" 
d="M885 336v1098h106v-1096q0 -150 -104 -254t-254 -104h-39q-147 0 -254 104q-104 107 -104 256v1094h106v-1096q0 -107 74 -184q76 -76 186 -76h25q108 0 182 74q76 76 76 184zM770 1784h100q0 -22 -5 -47t-21.5 -59.5t-42.5 -61t-75 -45.5t-112 -19t-112 19t-75 45.5
t-42.5 61t-21.5 59.5t-5 47h101q0 -29 20 -78q14 -30 50 -49t85 -19q50 0 86 19t48 49q22 48 22 78z" />
    <glyph glyph-name="ubreve" unicode="&#x16d;" 
d="M256 307v717h100v-696q0 -123 67 -192.5t179 -69.5q113 0 193 71q79 70 79 170v717h101v-1024h-96l-5 115q-10 -17 -30 -37q-17 -20 -90 -62q-68 -36 -156 -36q-154 0 -248 91.5t-94 235.5zM770 1374h100q0 -15 -2.5 -31.5t-9.5 -40t-18.5 -44.5t-31.5 -42.5t-45.5 -37
t-64 -25.5t-84.5 -10t-84.5 10t-64 25.5t-45.5 37t-31.5 42.5t-18.5 44.5t-9.5 40t-2.5 31.5h101q0 -29 20 -78q14 -30 49.5 -48.5t85.5 -18.5t86 18.5t48 48.5q22 48 22 78z" />
    <glyph glyph-name="Uring" unicode="&#x16e;" 
d="M885 336v1098h106v-1096q0 -150 -104 -254t-254 -104h-39q-147 0 -254 104q-104 107 -104 256v1094h106v-1096q0 -107 74 -184q76 -76 186 -76h25q108 0 182 74q76 76 76 184zM446 1686q0 69 49 117t117 48t118 -49t50 -116t-50 -115.5t-118 -48.5t-117 48.5t-49 115.5z
M524 1686q0 -37 26 -64t62 -27q37 0 63.5 27t26.5 64q0 38 -26 65t-64 27q-37 0 -62.5 -27t-25.5 -65z" />
    <glyph glyph-name="uring" unicode="&#x16f;" 
d="M256 307v717h100v-696q0 -123 67 -192.5t179 -69.5q113 0 193 71q79 70 79 170v717h101v-1024h-96l-5 115q-10 -17 -30 -37q-17 -20 -90 -62q-68 -36 -156 -36q-154 0 -248 91.5t-94 235.5zM446 1276q0 69 49 117.5t117 48.5t118 -49.5t50 -116.5t-50 -115.5t-118 -48.5
t-117 48.5t-49 115.5zM524 1276q0 -37 25.5 -63.5t62.5 -26.5t63.5 26.5t26.5 63.5q0 38 -26 65t-64 27q-37 0 -62.5 -27t-25.5 -65z" />
    <glyph glyph-name="Uhungarumlaut" unicode="&#x170;" 
d="M885 336v1098h106v-1096q0 -150 -104 -254t-254 -104h-39q-147 0 -254 104q-104 107 -104 256v1094h106v-1096q0 -107 74 -184q76 -76 186 -76h25q108 0 182 74q76 76 76 184zM750 1792l-238 -250h-94l192 250h140zM1018 1792l-238 -250h-94l193 250h139z" />
    <glyph glyph-name="uhungarumlaut" unicode="&#x171;" 
d="M256 307v717h100v-696q0 -123 67 -192.5t179 -69.5q113 0 193 71q79 70 79 170v717h101v-1024h-96l-5 115q-10 -17 -30 -37q-17 -20 -90 -62q-68 -36 -156 -36q-154 0 -248 91.5t-94 235.5zM739 1382l-237 -249h-94l192 249h139zM1008 1382l-238 -249h-94l192 249h140z
" />
    <glyph glyph-name="Uogonek" unicode="&#x172;" 
d="M885 1434h106v-1096q0 -91 -39.5 -168.5t-111.5 -124.5q-54 -37 -115 -113q-66 -81 -66 -143q0 -36 23 -56t59 -20h93v-82h-105q-74 0 -119 40t-45 106q0 104 123 209q-38 -6 -74 -6q-165 0 -272 104q-106 103 -106 256v1094h106v-1096q0 -112 75.5 -186t196.5 -74
q120 0 195.5 73t75.5 185v1098z" />
    <glyph glyph-name="uogonek" unicode="&#x173;" 
d="M256 307v717h100v-696q0 -123 67 -192.5t179 -69.5q113 0 193 71q79 70 79 170v717h101v-1024l-41 -33q-22 -19 -68 -78q-41 -59 -41 -100q0 -36 23 -56t59 -20h92v-82h-104q-74 0 -119 40t-45 106q0 50 34 104t77 90l37 29l-5 115q-10 -17 -30 -37q-17 -20 -90 -62
q-68 -36 -156 -36q-154 0 -248 91.5t-94 235.5z" />
    <glyph glyph-name="Wcircumflex" unicode="&#x174;" 
d="M856 98l70 772v564h106v-570l-86 -864h-196l-127 645h-19l-129 -645h-194l-86 864v570h106v-564l70 -772h28l142 680h147l139 -680h29zM612 1720l-143 -178h-104l178 250h137l180 -250h-102z" />
    <glyph glyph-name="wcircumflex" unicode="&#x175;" 
d="M838 86l104 565v373h98v-383l-125 -641h-182l-112 555h-15l-110 -555h-183l-125 641v383h99v-373l108 -565h29l119 573h145l121 -573h29zM614 1311l-143 -178h-104l178 249h137l180 -249h-102z" />
    <glyph glyph-name="Ycircumflex" unicode="&#x176;" 
d="M197 1434h118l301 -633l297 633h117l-362 -752v-682h-107v682zM612 1720l-143 -178h-104l178 250h137l180 -250h-102z" />
    <glyph glyph-name="ycircumflex" unicode="&#x177;" 
d="M186 1024h113l311 -870l316 870h112l-526 -1393h-102l145 383zM614 1311l-143 -178h-104l178 249h137l180 -249h-102z" />
    <glyph glyph-name="Ydieresis" unicode="&#x178;" 
d="M197 1434h118l301 -633l297 633h117l-362 -752v-682h-107v682zM502 1632h-119v144h119v-144zM844 1632h-119v144h119v-144z" />
    <glyph glyph-name="Zacute" unicode="&#x179;" 
d="M983 1434v-109l-621 -1227h619v-98h-735v109l620 1226h-590v99h707zM899 1792l-260 -250h-111l224 250h147z" />
    <glyph glyph-name="zacute" unicode="&#x17a;" 
d="M934 1024v-96l-543 -840h551v-88h-655v98l544 838h-512v88h615zM893 1382l-260 -249h-111l223 249h148z" />
    <glyph glyph-name="Zdotaccent" unicode="&#x17b;" 
d="M983 1434v-109l-621 -1227h619v-98h-735v109l620 1226h-590v99h707zM700 1632h-135v144h135v-144z" />
    <glyph glyph-name="zdotaccent" unicode="&#x17c;" 
d="M934 1024v-96l-543 -840h551v-88h-655v98l544 838h-512v88h615zM696 1223h-135v143h135v-143z" />
    <glyph glyph-name="Zcaron" unicode="&#x17d;" 
d="M983 1434v-109l-621 -1227h619v-98h-735v109l620 1226h-590v99h707zM575 1542l-178 250h105l143 -178l146 178h102l-180 -250h-138z" />
    <glyph glyph-name="zcaron" unicode="&#x17e;" 
d="M934 1024v-96l-543 -840h551v-88h-655v98l544 838h-512v88h615zM561 1133l-178 249h104l144 -178l145 178h103l-181 -249h-137z" />
    <glyph glyph-name="florin" unicode="&#x192;" 
d="M657 713v-1084h-100v1084h-313v90h313v356q0 133 81.5 214t211.5 81q99 0 174 -35l-55 -78q-41 27 -119 27q-87 0 -140 -58.5t-53 -152.5v-354h406v-90h-406z" />
    <glyph glyph-name="uni01F4" unicode="&#x1f4;" 
d="M682 702h319v-364q0 -153 -106 -256q-105 -102 -268 -102q-168 0 -275 104q-106 103 -106 256v756q0 154 106 254q107 104 275 104q162 0 264 -102q100 -100 100 -256h-106q-2 110 -74.5 183t-183.5 73q-122 0 -198.5 -73.5t-76.5 -184.5v-756q0 -112 76.5 -186
t198.5 -74q118 0 193 73.5t75 184.5v268h-213v98zM864 1792l-260 -250h-110l223 250h147z" />
    <glyph glyph-name="uni01F5" unicode="&#x1f5;" 
d="M840 37h-451q-63 0 -107 -45.5t-44 -112.5t43.5 -111t107.5 -44h451q64 0 109.5 45t45.5 110q0 67 -44.5 112.5t-110.5 45.5zM803 606v139q0 87 -64.5 149t-152.5 62q-93 0 -156 -60.5t-63 -150.5v-139q0 -89 63 -149q66 -60 156 -60q86 0 151 62q66 63 66 147z
M1006 1051h-23q-66 0 -92 -39l-55 -78q71 -89 71 -186v-142q0 -121 -96 -211q-94 -88 -225 -88l-29 2v-180h305q97 0 168 -74q70 -70 70 -176q0 -104 -69.5 -176t-168.5 -72h-497q-98 0 -167 72t-69 176t69 177t167 73h81v209q-59 21 -122 90q-62 71 -62 178v142
q0 120 94 208t230 88q107 0 178 -53l78 94q47 56 141 56h23v-90zM799 1382l-260 -249h-111l223 249h148z" />
    <glyph glyph-name="uni0218" unicode="&#x218;" 
d="M977 1096h-105q-5 111 -77.5 185.5t-180.5 74.5q-103 0 -178 -72q-74 -71 -74 -176q0 -29 4.5 -55.5t17 -50t23.5 -42t34 -39t38.5 -33.5t46 -32.5t47 -29t52.5 -29.5t51 -29q72 -41 151 -96q75 -49 119.5 -135t44.5 -193q0 -152 -108 -260q-107 -104 -269 -104
q-164 0 -272 102q-106 103 -106 256v49h106v-49q0 -111 77 -185.5t195 -74.5t194.5 72.5t76.5 183.5q0 107 -61 188.5t-162 132.5q-16 9 -54 28.5t-57.5 30t-54.5 31t-54.5 35t-48.5 38t-46 43.5t-36.5 48.5t-30 56.5t-17.5 63t-7 73q0 149 104 250q108 102 254 102
q151 0 254 -100q106 -100 109 -258zM711 -102l-170 -252h-84l108 252h146z" />
    <glyph glyph-name="uni0219" unicode="&#x219;" 
d="M942 772h-104q-1 77 -65 130.5t-152 53.5q-78 0 -142 -49q-61 -46 -62 -116.5t54 -116.5q33 -26 78.5 -48.5t114 -50t98.5 -40.5q83 -34 134.5 -104.5t51.5 -168.5q0 -119 -94 -201q-93 -81 -233 -81q-155 0 -248 90q-92 92 -92 217h100q2 -93 70 -156t170 -63
q98 0 161.5 54.5t63.5 139.5q0 131 -187 201q-9 3 -26 10q-43 16 -65 25t-61 27.5t-61 33.5t-50 39t-43 49t-25.5 59t-10.5 72q0 117 91 193q88 73 221 73q138 0 221 -86t92 -186zM711 -102l-170 -252h-84l108 252h146z" />
    <glyph glyph-name="uni021A" unicode="&#x21a;" 
d="M561 1335h-354v99h815v-99h-354v-1335h-107v1335zM700 -102l-170 -252h-84l109 252h145z" />
    <glyph glyph-name="uni021B" unicode="&#x21b;" 
d="M385 936h-158v88h158v287h98v-287h496v-88h-496v-647q0 -95 59 -157t160 -62q85 0 144 57t61 129h90q-3 -111 -88 -193q-86 -83 -209 -83q-146 0 -230.5 85.5t-84.5 227.5v643zM741 -102l-170 -252h-84l109 252h145z" />
    <glyph glyph-name="uni02BC" unicode="&#x2bc;" 
d="M760 1382l-221 -249h-111l184 249h148z" />
    <glyph glyph-name="circumflex" unicode="&#x2c6;" 
d="M612 1311l-143 -178h-104l178 249h137l180 -249h-102z" />
    <glyph glyph-name="caron" unicode="&#x2c7;" 
d="M543 1133l-178 249h104l143 -178l146 178h102l-180 -249h-137z" />
    <glyph glyph-name="breve" unicode="&#x2d8;" 
d="M770 1374h100q0 -15 -2.5 -31.5t-9.5 -40t-18.5 -44.5t-31.5 -42.5t-45.5 -37t-64 -25.5t-84.5 -10t-84.5 10t-64 25.5t-45.5 37t-31.5 42.5t-18.5 44.5t-9.5 40t-2.5 31.5h101q0 -29 20 -78q14 -30 49.5 -48.5t85.5 -18.5t86 18.5t48 48.5q22 48 22 78z" />
    <glyph glyph-name="dotaccent" unicode="&#x2d9;" 
d="M682 1223h-135v143h135v-143z" />
    <glyph glyph-name="ring" unicode="&#x2da;" 
d="M446 1276q0 69 49 117.5t117 48.5t118 -49.5t50 -116.5t-50 -115.5t-118 -48.5t-117 48.5t-49 115.5zM524 1276q0 -37 25.5 -63.5t62.5 -26.5t63.5 26.5t26.5 63.5q0 38 -26 65t-64 27q-37 0 -62.5 -27t-25.5 -65z" />
    <glyph glyph-name="ogonek" unicode="&#x2db;" 
d="M748 -287v-82h-105q-74 0 -119 40t-45 106q0 50 33 104.5t74 89.5l35 29h102l-41 -33q-22 -19 -68 -78q-41 -59 -41 -100q0 -36 23 -56t59 -20h93z" />
    <glyph glyph-name="tilde" unicode="&#x2dc;" 
d="M496 1350q53 0 129 -43t110 -43q29 0 47.5 19.5t18.5 51.5v15h94v-15q0 -71 -46 -116t-114 -45q-53 0 -129 43t-110 43q-29 0 -48.5 -19.5t-19.5 -50.5v-16h-94v16q0 71 46 115.5t116 44.5z" />
    <glyph glyph-name="hungarumlaut" unicode="&#x2dd;" 
d="M647 1382l-237 -249h-95l193 249h139zM915 1382l-237 -249h-94l192 249h139z" />
    <glyph glyph-name="acutecomb" unicode="&#x301;" 
d="M799 1382l-260 -249h-111l223 249h148z" />
    <glyph glyph-name="uni0394" unicode="&#x394;" 
d="M508 1434h209l293 -1434h-795zM643 1335h-61l-242 -1237h545z" />
    <glyph glyph-name="uni03A9" unicode="&#x3a9;" 
d="M745 223q63 32 101.5 94.5t38.5 135.5v641q0 112 -75.5 185t-195.5 73q-121 0 -196.5 -73t-75.5 -185v-639q0 -76 37 -138t102 -94q25 -13 25 -41v-182h-277v98h179v54q-80 48 -126 128.5t-46 176.5v639q0 154 106 254q107 104 272 104q167 0 271 -104q106 -100 106 -254
v-641q0 -94 -46 -175t-126 -128v-54h178v-98h-276v182q0 29 24 41z" />
    <glyph glyph-name="uni03BC" unicode="&#x3bc;" 
d="M356 111v-480h-100v1393h100v-702q0 -106 66 -181q64 -73 162 -73q107 0 182 69q78 72 78 180v707h100v-840q0 -46 21 -73.5t61 -28.5v-90q-124 0 -170 129q-105 -141 -266 -141q-80 0 -143 38t-91 93z" />
    <glyph glyph-name="pi" unicode="&#x3c0;" 
d="M918 0h-105v936h-401v-936h-103v936h-108v88h823v-88h-106v-936z" />
    <glyph glyph-name="uni0401" unicode="&#x401;" 
d="M301 0v1434h643v-99h-536v-528h487v-98h-487v-611h555v-98h-662zM528 1632h-118v144h118v-144zM870 1632h-118v144h118v-144z" />
    <glyph glyph-name="uni0402" unicode="&#x402;" 
d="M117 1335v99h684v-99h-316v-497q109 65 236 65q142 0 231.5 -89t89.5 -234v-281q0 -126 -81 -213q-80 -86 -201 -86h-90v98h84q79 0 130.5 58.5t51.5 144.5v264q0 110 -64 175t-170 65q-50 0 -103 -17.5t-87 -39.5l-27 -19v-729h-106v1335h-262z" />
    <glyph glyph-name="uni0403" unicode="&#x403;" 
d="M530 1335v-1335h-106v1434h643v-99h-537zM989 1792l-260 -250h-111l224 250h147z" />
    <glyph glyph-name="uni0404" unicode="&#x404;" 
d="M362 797h365v-99h-365v-348q0 -111 74 -188q76 -76 187 -76q108 0 182 74q76 76 76 184v10h106v-8q0 -151 -106 -254q-107 -104 -258 -104q-154 0 -261 104q-106 106 -106 256v739q0 150 104 254q105 105 263 105q152 0 254 -105t102 -254h-105q-3 110 -75 185
q-72 78 -178 78q-110 0 -184.5 -77t-74.5 -188v-288z" />
    <glyph glyph-name="uni0405" unicode="&#x405;" 
d="M977 1087h-105q-5 111 -77.5 186t-180.5 75q-103 0 -178 -72q-74 -71 -74 -176q0 -57 21.5 -103.5t58 -80.5t83.5 -63.5t99 -56.5t104.5 -55.5t99.5 -65t83.5 -80t58 -106t21.5 -137.5q0 -152 -108 -260q-107 -104 -269 -104q-164 0 -272 102q-106 103 -106 256v49h106
v-49q0 -111 77 -185.5t195 -74.5t194.5 72.5t76.5 183.5q0 66 -21.5 119.5t-58 91t-83.5 69t-99 58t-104.5 53.5t-99.5 60.5t-83.5 73.5t-58 98t-21.5 129q0 148 104 249q109 103 254 103q151 0 254 -100q106 -100 109 -259z" />
    <glyph glyph-name="uni0406" unicode="&#x406;" 
d="M563 1335h-319v99h741v-99h-315v-1237h315v-98h-741v98h319v1237z" />
    <glyph glyph-name="uni0407" unicode="&#x407;" 
d="M563 1335h-319v99h741v-99h-315v-1237h315v-98h-741v98h319v1237zM502 1632h-119v144h119v-144zM844 1632h-119v144h119v-144z" />
    <glyph glyph-name="uni0408" unicode="&#x408;" 
d="M238 344v123h106v-125q0 -107 74 -184q77 -74 184 -74q111 0 184 76q76 76 76 184v991h-555v99h662v-1088q0 -145 -109 -254q-107 -104 -254 -104q-161 0 -266 102q-102 102 -102 254z" />
    <glyph glyph-name="uni0409" unicode="&#x409;" horiz-adv-x="1226" 
d="M1036 301v211q0 82 -55.5 139.5t-134.5 57.5h-146v-607h146q79 0 134.5 58.5t55.5 140.5zM268 1434h432v-627h152q125 0 207 -88q84 -87 84 -213v-207q0 -123 -84 -213q-83 -86 -207 -86h-258v1335h-223q-21 -450 -56 -1013q-11 -147 -78 -235.5t-171 -88.5l-29 2v94
q157 0 172 240q26 427 59 1100z" />
    <glyph glyph-name="uni040A" unicode="&#x40a;" 
d="M610 1434h107v-627h151q125 0 207 -88q84 -87 84 -213v-207q0 -123 -84 -213q-83 -86 -207 -86h-258v709h-366v-709h-107v1434h107v-627h366v627zM1053 301v211q0 82 -56 139.5t-135 57.5h-145v-607h145q79 0 135 58.5t56 140.5z" />
    <glyph glyph-name="uni040B" unicode="&#x40b;" 
d="M1042 580v-580h-106v565q0 110 -64 175t-170 65q-50 0 -103 -17.5t-87 -39.5l-27 -19v-729h-106v1335h-262v99h684v-99h-316v-497q109 65 236 65q142 0 231.5 -89t89.5 -234z" />
    <glyph glyph-name="uni040C" unicode="&#x40c;" 
d="M948 0l-452 709h-82v-709h-107v1434h107v-629h80l432 629h114l-462 -668l491 -766h-121zM915 1792l-260 -250h-110l223 250h147z" />
    <glyph glyph-name="uni040E" unicode="&#x40e;" 
d="M788 1784h105q0 -26 -4 -51.5t-19.5 -60t-41.5 -59.5t-74 -43t-113 -18t-113 18t-74 43t-41.5 59.5t-19.5 60t-4 51.5h105q0 -150 147 -150t147 150zM938 1434h117l-580 -1434h-117l224 539l-359 895h123l293 -752z" />
    <glyph glyph-name="uni040F" unicode="&#x40f;" 
d="M561 -305v305h-313v1434h106v-1336h520v1336h107v-1434h-313v-305h-107z" />
    <glyph glyph-name="uni0410" unicode="&#x410;" 
d="M248 561l256 873h221l256 -873v-561h-107v489h-520v-489h-106v561zM365 588h499l-213 747h-73z" />
    <glyph glyph-name="uni0411" unicode="&#x411;" 
d="M668 0h-365v1434h578v-99h-471v-528h258q121 0 211 -90q88 -88 88 -213v-205q0 -125 -88 -213q-89 -86 -211 -86zM860 301v209q0 82 -58 140.5t-140 58.5h-252v-607h252q82 0 140 58.5t58 140.5z" />
    <glyph glyph-name="uni0412" unicode="&#x412;" 
d="M291 1434h348q133 0 221 -88q88 -85 88 -211v-119q0 -90 -46 -155.5t-91 -90.5l-16 -10q1 -1 8.5 -5t19.5 -13t29 -25q111 -89 111 -236v-155q0 -140 -101 -234q-100 -92 -231 -92h-340v1434zM645 1331h-248v-528h248q85 0 145 60t60 145v118q0 85 -60 145t-145 60z
M631 709h-234v-611h234q97 0 162 67t65 161v155q0 78 -59 152q-58 76 -168 76z" />
    <glyph glyph-name="uni0413" unicode="&#x413;" 
d="M530 1335v-1335h-106v1434h643v-99h-537z" />
    <glyph glyph-name="uni0414" unicode="&#x414;" horiz-adv-x="1226" 
d="M823 1335h-291l-126 -1104q-8 -73 -37 -120l-11 -13h465v1237zM248 -305h-107v403h72q32 0 58 46t34 114l133 1176h492v-1336h129v-403h-107v305h-704v-305z" />
    <glyph glyph-name="uni0415" unicode="&#x415;" 
d="M301 0v1434h643v-99h-536v-528h487v-98h-487v-611h555v-98h-662z" />
    <glyph glyph-name="uni0416" unicode="&#x416;" 
d="M666 805h36l285 629h109l-303 -672l323 -762h-108l-306 709h-36v-709h-105v709h-37l-307 -709h-108l325 762l-303 672h111l282 -629h37v629h105v-629z" />
    <glyph glyph-name="uni0417" unicode="&#x417;" 
d="M612 1446q157 0 252 -103q97 -105 97 -256v-40q0 -78 -33.5 -148t-73.5 -100l-35 -29q6 -3 16.5 -9t36.5 -29t46 -50.5t36.5 -74t16.5 -99.5v-160q0 -153 -105 -258q-105 -102 -266 -102q-156 0 -256 100q-101 101 -104 242v24h104v-24q3 -91 76 -170q71 -74 184 -74
q116 0 187 73t71 187v148q0 96 -59.5 155.5t-161.5 59.5h-137v98h123q118 0 170 76q55 76 55 168v39q0 115 -66 186.5t-180 71.5q-116 0 -180 -76t-64 -150h-98q0 123 96 224q97 100 252 100z" />
    <glyph glyph-name="uni0418" unicode="&#x418;" 
d="M883 745l6 494l-537 -1239h-104v1434h98v-746l-6 -500l537 1246h104v-1434h-98v745z" />
    <glyph glyph-name="uni0419" unicode="&#x419;" 
d="M762 1784h104q0 -26 -4 -51.5t-19.5 -60t-41.5 -59.5t-74 -43t-113 -18t-113 18t-74 43t-41.5 59.5t-19.5 60t-4 51.5h105q0 -150 147 -150q148 0 148 150zM883 745l6 494l-537 -1239h-104v1434h98v-746l-6 -500l537 1246h104v-1434h-98v745z" />
    <glyph glyph-name="uni041A" unicode="&#x41a;" 
d="M948 0l-452 709h-82v-709h-107v1434h107v-629h80l432 629h114l-462 -668l491 -766h-121z" />
    <glyph glyph-name="uni041B" unicode="&#x41b;" horiz-adv-x="1226" 
d="M934 1434v-1434h-107v1335h-292q-74 -724 -117 -1046q-15 -114 -82 -203q-65 -86 -199 -86v94q79 0 123 57t57 183l121 1100h496z" />
    <glyph glyph-name="uni041C" unicode="&#x41c;" 
d="M313 1434l301 -689l304 689h106v-1434h-102v735l10 522l-266 -606h-105l-264 606q8 -227 8 -520v-737h-100v1434h108z" />
    <glyph glyph-name="uni041D" unicode="&#x41d;" 
d="M874 807v627h107v-1434h-107v709h-520v-709h-106v1434h106v-627h520z" />
    <glyph glyph-name="uni041E" unicode="&#x41e;" 
d="M991 1087v-741q0 -153 -106 -256q-105 -102 -271 -102q-165 0 -272 104q-106 103 -106 256v739q0 154 106 254q108 105 272 105q166 0 271 -105q106 -100 106 -254zM885 344v741q0 112 -75.5 187.5t-195.5 75.5q-121 0 -196.5 -75.5t-75.5 -187.5v-739q0 -112 75.5 -186
t196.5 -74q120 0 195.5 73t75.5 185z" />
    <glyph glyph-name="uni041F" unicode="&#x41f;" 
d="M248 1434h733v-1434h-107v1335h-520v-1335h-106v1434z" />
    <glyph glyph-name="uni0420" unicode="&#x420;" 
d="M410 0h-107v1434h365q127 0 213 -86q86 -83 86 -213v-312q0 -131 -86 -217q-87 -84 -213 -84h-258v-522zM860 817v316q0 86 -56 142t-142 56h-252v-710h252q86 0 142 55t56 141z" />
    <glyph glyph-name="uni0421" unicode="&#x421;" 
d="M883 354h106v-8q0 -151 -106 -254q-107 -104 -258 -104q-153 0 -260 104q-107 107 -107 256v739q0 150 104 254q105 105 263 105q153 0 258 -105q104 -104 104 -254h-104q-3 110 -78 185q-78 78 -182 78q-110 0 -184 -77t-74 -188v-735q0 -109 77 -186q78 -78 183 -78
q108 0 182 74q76 76 76 184v10z" />
    <glyph glyph-name="uni0422" unicode="&#x422;" 
d="M561 1335h-354v99h815v-99h-354v-1335h-107v1335z" />
    <glyph glyph-name="uni0423" unicode="&#x423;" 
d="M938 1434h117l-580 -1434h-117l224 539l-359 895h123l293 -752z" />
    <glyph glyph-name="uni0424" unicode="&#x424;" 
d="M1028 944v-422q0 -153 -106 -250q-103 -97 -254 -106v-166h-107v166q-155 9 -258 106q-104 98 -104 252v420q0 154 104 252t258 107v131h107v-131q151 -9 254 -109q106 -97 106 -250zM305 944v-422q0 -108 73 -179.5t183 -76.5v936q-110 -5 -183 -77t-73 -181zM922 520
v424q0 108 -74 180.5t-180 77.5v-936q102 3 178 76q76 70 76 178z" />
    <glyph glyph-name="uni0425" unicode="&#x425;" 
d="M221 1434h121l270 -580l273 580h121l-330 -689l362 -745h-125l-301 639l-299 -639h-125l361 745z" />
    <glyph glyph-name="uni0426" unicode="&#x426;" 
d="M963 -305v305h-715v1434h106v-1336h520v1336h107v-1336h88v-403h-106z" />
    <glyph glyph-name="uni0427" unicode="&#x427;" 
d="M825 1434h107v-1434h-107v580q-122 -58 -280 -58q-132 0 -221 86q-86 89 -86 232v594h106v-580q0 -108 63.5 -170.5t170.5 -62.5q61 0 122.5 16t94.5 35l30 18v744z" />
    <glyph glyph-name="uni0428" unicode="&#x428;" 
d="M938 1434h106v-1434h-860v1434h107v-1336h270v1336h107v-1336h270v1336z" />
    <glyph glyph-name="uni0429" unicode="&#x429;" 
d="M1020 -305v305h-842v1434h107v-1336h270v1336h107v-1336h270v1336h106v-1336h88v-403h-106z" />
    <glyph glyph-name="uni042A" unicode="&#x42a;" 
d="M135 1434h330v-627h299q123 0 211 -88t88 -213v-207q0 -125 -88 -213q-89 -86 -211 -86h-406v1335h-223v99zM956 301v211q0 82 -58 139.5t-140 57.5h-293v-607h293q82 0 140 58.5t58 140.5z" />
    <glyph glyph-name="uni042B" unicode="&#x42b;" 
d="M690 301v211q0 82 -58 139.5t-140 57.5h-228v-607h228q82 0 140 58.5t58 140.5zM158 1434h106v-627h234q123 0 211 -88t88 -213v-207q0 -125 -88 -213q-89 -86 -211 -86h-340v1434zM967 1434h106v-1434h-106v1434z" />
    <glyph glyph-name="uni042C" unicode="&#x42c;" 
d="M932 301v211q0 82 -58.5 139.5t-140.5 57.5h-293v-607h293q82 0 140.5 58.5t58.5 140.5zM334 1434h106v-627h299q123 0 211 -88t88 -213v-207q0 -125 -88 -213q-89 -86 -211 -86h-405v1434z" />
    <glyph glyph-name="uni042D" unicode="&#x42d;" 
d="M846 698h-365v99h365v288q0 111 -74 188t-184 77q-105 0 -180 -78q-71 -77 -74 -185h-105q0 148 103 254q102 105 254 105q157 0 262 -105q104 -104 104 -254v-739q0 -150 -106 -256q-107 -104 -260 -104q-151 0 -258 104t-107 254v8h107v-10q0 -108 73 -184
q77 -74 185 -74q111 0 184 76q76 76 76 188v348z" />
    <glyph glyph-name="uni042E" unicode="&#x42e;" 
d="M1102 1085v-735q0 -151 -90 -258q-88 -104 -236 -104q-146 0 -237 104q-90 110 -90 260v357h-179v-709h-106v1434h106v-627h179v278q0 152 90 256q91 105 237 105q148 0 236 -105q90 -104 90 -256zM997 348v735q0 117 -61 192t-160 75q-102 0 -162.5 -74.5t-60.5 -192.5
v-733q0 -117 60 -190.5t163 -73.5q99 0 160 74t61 188z" />
    <glyph glyph-name="uni042F" unicode="&#x42f;" 
d="M815 547h-246l-227 -547h-115l234 563q-91 29 -147 108t-56 177v287q0 132 87.5 215.5t232.5 83.5h344v-1434h-107v547zM365 1133v-291q0 -86 56 -141.5t142 -55.5h252v686h-235q-99 0 -157 -54.5t-58 -143.5z" />
    <glyph glyph-name="uni0430" unicode="&#x430;" 
d="M961 0h-101v109q-4 -5 -11 -13t-33 -29t-56.5 -37t-81 -29t-105.5 -13q-137 0 -231 82t-94 215q0 132 92 215t248 102q108 11 272 19v86q0 107 -62 174t-167 67q-85 0 -144.5 -48.5t-78.5 -127.5h-101q19 118 107 191t217 73q156 0 243 -90.5t87 -240.5v-705zM586 74
q110 0 192 61t82 148v249q-143 -3 -248 -14q-264 -34 -264 -231q0 -94 66 -153.5t172 -59.5z" />
    <glyph glyph-name="uni0431" unicode="&#x431;" 
d="M856 338v307q0 127 -72 202t-184 75t-187 -78.5t-75 -210.5v-295q0 -120 73 -191t187 -71q112 0 185 72.5t73 189.5zM954 672v-342q0 -154 -98 -248q-101 -96 -258 -96q-163 0 -260.5 94.5t-97.5 249.5v553q0 262 135 397q138 135 338 141q90 5 149 19v-90
q-47 -16 -135 -19q-389 -18 -389 -461l5 8q5 8 15.5 20.5t25.5 27.5t38.5 30t50.5 27.5t65 20.5t80 8q143 0 240 -97q96 -96 96 -243z" />
    <glyph glyph-name="uni0432" unicode="&#x432;" 
d="M618 0h-352v1024h389q150 0 228 -68.5t78 -191.5q0 -70 -33.5 -128t-73.5 -79l-35 -18q16 -4 58 -33q110 -75 110 -219q0 -287 -369 -287zM664 936h-297v-363h288q94 0 150.5 51t56.5 138q0 77 -53 125.5t-145 48.5zM655 485h-288v-397h282q116 0 176 52.5t60 148.5
q0 91 -57.5 143.5t-172.5 52.5z" />
    <glyph glyph-name="uni0433" unicode="&#x433;" 
d="M545 936v-936h-103v1024h602v-88h-499z" />
    <glyph glyph-name="uni0434" unicode="&#x434;" 
d="M180 -215v303h53q30 0 57.5 46t37.5 114l102 776h490v-936h98v-303h-98v215h-641v-215h-99zM821 88v848h-301q-66 -504 -98 -723q-13 -81 -45 -113l-10 -12h454z" />
    <glyph glyph-name="uni0435" unicode="&#x435;" 
d="M872 307h99q-8 -141 -106 -230t-251 -89q-156 0 -260 90q-98 91 -98 227v404q0 137 98 231q104 96 260 96q155 0 256 -96q101 -94 101 -231v-236h-617v-151q0 -108 72.5 -177t185.5 -69t184.5 63.5t75.5 167.5zM354 690v-129h518v131q0 110 -75 182q-77 74 -185 74
q-107 0 -184 -74q-74 -74 -74 -184z" />
    <glyph glyph-name="uni0436" unicode="&#x436;" 
d="M967 0l-277 500h-28v-500h-95v500h-28l-277 -500h-112l305 543l-289 481h108l261 -438h32v438h95v-438h32l260 438h107l-287 -481l305 -543h-112z" />
    <glyph glyph-name="uni0437" unicode="&#x437;" 
d="M604 76q115 0 184.5 60t69.5 159q0 91 -56.5 141.5t-150.5 50.5h-121v91h115q86 0 141.5 51.5t55.5 126.5q0 80 -65 136t-161 56q-97 0 -164 -54t-75 -134h-92q6 110 96 194q91 82 237 82q147 0 232 -82q88 -79 88 -194q0 -61 -31 -115.5t-67 -77.5l-31 -20q6 -3 16 -8.5
t35 -26.5t44.5 -47t35.5 -71t16 -97q0 -133 -98 -221q-94 -88 -252 -88q-150 0 -254 90q-97 90 -106 229h96q4 -103 79 -167t183 -64z" />
    <glyph glyph-name="uni0438" unicode="&#x438;" 
d="M979 0h-100v514l6 350l-541 -864h-96v1024h100v-512l-6 -352l541 864h96v-1024z" />
    <glyph glyph-name="uni0439" unicode="&#x439;" 
d="M762 1374h104q0 -26 -4 -51.5t-19.5 -59.5t-41.5 -59t-74 -43t-113 -18t-113 18t-74 43t-41.5 59t-19.5 59.5t-4 51.5h105q0 -149 147 -149q148 0 148 149zM979 0h-100v514l6 350l-541 -864h-96v1024h100v-512l-6 -352l541 864h96v-1024z" />
    <glyph glyph-name="uni043A" unicode="&#x43a;" 
d="M905 0l-397 500h-78v-500h-98v1024h98v-438h78l369 438h120l-411 -477l446 -547h-127z" />
    <glyph glyph-name="uni043B" unicode="&#x43b;" 
d="M514 936l-98 -725q-27 -221 -203 -221l-39 2v78h31q68 3 88 53q21 53 31 121l104 780h535v-1024h-101v936h-348z" />
    <glyph glyph-name="uni043C" unicode="&#x43c;" 
d="M659 457h-90l-241 428q4 -188 4 -371v-514h-96v1024h112l268 -487l263 487h114v-1024h-98v512l4 373z" />
    <glyph glyph-name="uni043D" unicode="&#x43d;" 
d="M356 500v-500h-100v1024h100v-436h518v436h101v-1024h-101v500h-518z" />
    <glyph glyph-name="uni043E" unicode="&#x43e;" 
d="M971 727v-430q0 -134 -101 -225q-100 -92 -256 -92t-260 90q-98 91 -98 227v430q0 137 98 225q103 92 260 92q156 0 256 -92q101 -91 101 -225zM872 309v406q0 103 -75 172t-185 69q-109 0 -184 -69q-74 -71 -74 -172v-406q0 -101 74 -172q75 -69 186 -69t183 69
q75 69 75 172z" />
    <glyph glyph-name="uni043F" unicode="&#x43f;" 
d="M256 0v1024h719v-1024h-101v936h-518v-936h-100z" />
    <glyph glyph-name="uni0440" unicode="&#x440;" 
d="M885 326v372q0 120 -68.5 189t-177.5 69q-117 0 -194.5 -74t-77.5 -184v-372q0 -110 77.5 -184t194.5 -74q107 0 176.5 69.5t69.5 188.5zM393 80l-26 33v-482h-101v1393h96l5 -113q9 14 28 37q26 26 90 60q68 36 154 36q156 0 250 -94q96 -93 96 -231v-414
q0 -137 -96 -233q-95 -92 -250 -92q-76 0 -146 31.5t-100 68.5z" />
    <glyph glyph-name="uni0441" unicode="&#x441;" 
d="M354 715v-406q0 -104 74.5 -172.5t185.5 -68.5q107 0 180.5 64t77.5 167h97q-9 -138 -107 -229q-96 -90 -248 -90q-162 0 -260 94t-98 239v398q0 143 98 237q101 96 260 96q148 0 244 -90t105 -223h-101q-4 98 -74.5 161.5t-173.5 63.5q-111 0 -185.5 -68.5t-74.5 -172.5
z" />
    <glyph glyph-name="uni0442" unicode="&#x442;" 
d="M201 936v88h823v-88h-360v-936h-103v936h-360z" />
    <glyph glyph-name="uni0443" unicode="&#x443;" 
d="M522 -156l66 170l-367 1010h111l313 -866l316 866h108l-457 -1217q-67 -178 -274 -178l-39 2v84h31q84 5 125 31.5t67 97.5z" />
    <glyph glyph-name="uni0444" unicode="&#x444;" 
d="M565 1434h101v-406q168 -3 282 -102q113 -94 113 -240v-348q0 -144 -115 -244q-113 -98 -280 -98v-365h-101v365q-169 0 -282 98t-113 244v348q0 146 113 240q114 99 282 102v406zM963 350v324q0 114 -82 189.5t-215 76.5v-856q133 0 215 76t82 190zM268 674v-324
q0 -117 81.5 -191.5t215.5 -74.5v856q-133 -1 -215 -76.5t-82 -189.5z" />
    <glyph glyph-name="uni0445" unicode="&#x445;" 
d="M258 1024h119l237 -416l238 416h119l-297 -500l309 -524h-117l-252 438l-252 -438h-118l309 524z" />
    <glyph glyph-name="uni0446" unicode="&#x446;" 
d="M975 -215v215h-719v1024h100v-936h518v936h101v-936h98v-303h-98z" />
    <glyph glyph-name="uni0447" unicode="&#x447;" 
d="M233 594v430h101v-410q0 -225 209 -225q64 0 141.5 27t124.5 59l43 31v518h100v-1024h-100v406q-14 -11 -47 -31q-44 -22 -117 -45q-92 -29 -162 -29q-139 0 -216 78t-77 215z" />
    <glyph glyph-name="uni0448" unicode="&#x448;" 
d="M565 1024h101v-936h254v936h100v-1024h-809v1024h100v-936h254v936z" />
    <glyph glyph-name="uni0449" unicode="&#x449;" 
d="M1010 -215v215h-809v1024h100v-936h254v936h100v-936h254v936h101v-936h98v-303h-98z" />
    <glyph glyph-name="uni044A" unicode="&#x44a;" 
d="M152 936v88h323v-436h225q147 0 230 -86q86 -86 86 -205q0 -120 -86 -209q-82 -88 -230 -88h-325v936h-223zM915 297q0 84 -56 143.5t-152 59.5h-232v-412h232q96 0 152 61.5t56 147.5z" />
    <glyph glyph-name="uni044B" unicode="&#x44b;" 
d="M176 1024h100v-436h226q146 0 229 -86q86 -86 86 -205q0 -120 -86 -209q-82 -88 -229 -88h-326v1024zM717 297q0 84 -56.5 143.5t-152.5 59.5h-232v-412h232q96 0 152.5 61.5t56.5 147.5zM950 1024h101v-1024h-101v1024z" />
    <glyph glyph-name="uni044C" unicode="&#x44c;" 
d="M362 1024h101v-436h225q147 0 230 -86q86 -86 86 -205q0 -120 -86 -209q-82 -88 -230 -88h-326v1024zM903 297q0 84 -56.5 143.5t-152.5 59.5h-231v-412h231q96 0 152.5 61.5t56.5 147.5z" />
    <glyph glyph-name="uni044D" unicode="&#x44d;" 
d="M864 485h-334v88h334v142q0 104 -74.5 172.5t-185.5 68.5q-103 0 -173.5 -63.5t-74.5 -161.5h-100q9 134 104 223q96 90 244 90q159 0 260 -96q99 -94 99 -237v-398q0 -145 -99 -239q-98 -94 -260 -94q-149 0 -250 90q-95 92 -104 229h96q4 -103 77.5 -167t180.5 -64
q111 0 185.5 68.5t74.5 172.5v176z" />
    <glyph glyph-name="uni044E" unicode="&#x44e;" 
d="M1081 715v-408q0 -137 -84 -233q-82 -94 -231 -94q-152 0 -234 94q-81 93 -81 233v193h-156v-500h-100v1024h100v-436h156v127q0 140 81 233q84 96 234 96q147 0 231 -96t84 -233zM987 319v383q0 110 -61 182t-160 72q-101 0 -161 -71.5t-60 -182.5v-383q0 -111 60 -181
t161 -70t161 70t60 181z" />
    <glyph glyph-name="uni044F" unicode="&#x44f;" 
d="M938 0h-100v416h-236l-254 -416h-117l267 428q-102 29 -162 109t-60 180q0 120 84 213q85 94 232 94h346v-1024zM377 717q0 -85 57 -149t152 -64h252v432h-252q-99 0 -154 -70q-55 -67 -55 -149z" />
    <glyph glyph-name="uni0451" unicode="&#x451;" 
d="M872 299h99q-8 -141 -106 -230t-251 -89q-156 0 -260 90q-98 91 -98 227v430q0 137 98 225q103 92 260 92q156 0 256 -92q101 -91 101 -225v-244h-617v-170q0 -108 72.5 -176.5t185.5 -68.5t184.5 63.5t75.5 167.5zM354 709v-138h518v140q0 108 -74.5 176.5t-185.5 68.5
t-184.5 -69.5t-73.5 -177.5zM502 1223h-119v143h119v-143zM844 1223h-119v143h119v-143z" />
    <glyph glyph-name="uni0452" unicode="&#x452;" 
d="M989 700v-700q0 -161 -88.5 -260t-245.5 -100v90q110 0 172 72.5t62 197.5v680q0 120 -67 189t-179 69q-109 0 -192 -68q-80 -68 -80 -159v-711h-101v1178h-123v88h123v168h101v-168h262v-88h-262v-279q12 15 32 35q19 19 93 55q72 35 147 35q157 0 252 -92
q94 -91 94 -232z" />
    <glyph glyph-name="uni0453" unicode="&#x453;" 
d="M545 936v-936h-103v1024h602v-88h-499zM1034 1382l-260 -249h-110l223 249h147z" />
    <glyph glyph-name="uni0454" unicode="&#x454;" 
d="M365 573h333v-88h-333v-176q0 -104 74.5 -172.5t185.5 -68.5q107 0 180.5 64t77.5 167h96q-9 -138 -107 -229q-96 -90 -247 -90q-162 0 -260 94q-99 94 -99 239v398q0 143 99 237q101 96 260 96q147 0 243 -90t105 -223h-101q-4 98 -74 161.5t-173 63.5
q-111 0 -185.5 -68.5t-74.5 -172.5v-142z" />
    <glyph glyph-name="uni0455" unicode="&#x455;" 
d="M942 772h-104q-1 77 -65 130.5t-152 53.5q-78 0 -142 -49q-61 -46 -62 -116.5t54 -116.5q33 -26 78.5 -48.5t114 -50t98.5 -40.5q83 -34 134.5 -104.5t51.5 -168.5q0 -119 -94 -201q-93 -81 -233 -81q-155 0 -248 90q-92 92 -92 217h100q2 -93 70 -156t170 -63
q98 0 161.5 54.5t63.5 139.5q0 131 -187 201q-9 3 -26 10q-43 16 -65 25t-61 27.5t-61 33.5t-50 39t-43 49t-25.5 59t-10.5 72q0 117 91 193q88 73 221 73q138 0 221 -86t92 -186z" />
    <glyph glyph-name="uni0456" unicode="&#x456;" 
d="M244 936v88h430v-936h291v-88h-721v88h327v848h-327zM684 1167h-135v144h135v-144z" />
    <glyph glyph-name="uni0457" unicode="&#x457;" 
d="M244 936v88h430v-936h291v-88h-721v88h327v848h-327zM502 1167h-119v144h119v-144zM844 1167h-119v144h119v-144z" />
    <glyph glyph-name="uni0458" unicode="&#x458;" 
d="M283 1024h587v-1106q0 -137 -84 -222t-225 -85q-136 0 -219 59l51 76q65 -47 168 -47q96 0 151.5 61t55.5 162v1014h-485v88zM874 1167h-131v144h131v-144z" />
    <glyph glyph-name="uni0459" unicode="&#x459;" 
d="M326 211q-8 -98 -58.5 -159.5t-144.5 -61.5l-39 2v84h31q61 1 86.5 42t31.5 130q33 375 56 776h436v-436h92q147 0 230 -86q86 -86 86 -205q0 -120 -86 -209q-82 -88 -230 -88h-192v936h-246q-25 -397 -53 -725zM823 500h-98v-412h98q96 0 152.5 61.5t56.5 147.5
q0 84 -56.5 143.5t-152.5 59.5z" />
    <glyph glyph-name="uni045A" unicode="&#x45a;" 
d="M817 0h-192v500h-340v-500h-101v1024h101v-436h340v436h100v-436h92q147 0 230 -86q86 -86 86 -205q0 -120 -86 -209q-82 -88 -230 -88zM823 500h-98v-412h98q96 0 152.5 61.5t56.5 147.5q0 84 -56.5 143.5t-152.5 59.5z" />
    <glyph glyph-name="uni045B" unicode="&#x45b;" 
d="M264 1178h-125v88h125v168h101v-168h262v-88h-262v-287q9 14 28 37q21 22 92 59q68 39 156 39q157 0 248 -94q94 -94 94 -234v-698h-100v678q0 122 -67 192t-179 70t-193 -72q-79 -70 -79 -170v-698h-101v1178z" />
    <glyph glyph-name="uni045C" unicode="&#x45c;" 
d="M905 0l-397 500h-78v-500h-98v1024h98v-438h78l369 438h120l-411 -477l446 -547h-127zM915 1382l-260 -249h-110l223 249h147z" />
    <glyph glyph-name="uni045E" unicode="&#x45e;" 
d="M522 -156l66 170l-367 1010h111l313 -866l316 866h108l-457 -1217q-67 -178 -274 -178l-39 2v84h31q84 5 125 31.5t67 97.5zM803 1374h100q0 -15 -2.5 -31.5t-9.5 -40t-18.5 -44.5t-31.5 -42.5t-45.5 -37t-64 -25.5t-84.5 -10t-84.5 10t-64 25.5t-45.5 37t-31.5 42.5
t-18.5 44.5t-9.5 40t-2.5 31.5h101q0 -29 20 -78q14 -30 49.5 -48.5t85.5 -18.5t85.5 18.5t47.5 48.5q23 50 23 78z" />
    <glyph glyph-name="uni045F" unicode="&#x45f;" 
d="M664 -215h-99v215h-309v1024h100v-936h518v936h101v-1024h-311v-215z" />
    <glyph glyph-name="uni0462" unicode="&#x462;" 
d="M778 1204v-96h-313v-301h299q123 0 211 -88t88 -213v-207q0 -125 -88 -213q-89 -86 -211 -86h-406v1108h-217v96h217v230h107v-230h313zM956 301v211q0 82 -58 139.5t-140 57.5h-293v-607h293q82 0 140 58.5t58 140.5z" />
    <glyph glyph-name="uni0463" unicode="&#x463;" 
d="M377 936h-195v88h195v410h98v-410h268v-88h-268v-348h225q147 0 230 -86q86 -86 86 -205q0 -120 -86 -209q-82 -88 -230 -88h-323v936zM915 297q0 84 -56 143.5t-152 59.5h-232v-412h232q96 0 152 61.5t56 147.5z" />
    <glyph glyph-name="uni0472" unicode="&#x472;" 
d="M991 1096v-758q0 -153 -106 -256q-105 -102 -271 -102q-165 0 -272 104q-106 103 -106 256v756q0 154 106 254q107 104 272 104q167 0 271 -104q106 -100 106 -254zM735 651q-53 0 -129 43t-110 43q-72 0 -154 -82v-317q0 -112 75.5 -186t196.5 -74q120 0 195.5 73
t75.5 185v375q-78 -60 -150 -60zM342 1094v-326q69 63 154 63q53 0 129 -43t110 -43q72 0 150 78v271q0 112 -75.5 185t-195.5 73q-121 0 -196.5 -73t-75.5 -185z" />
    <glyph glyph-name="uni0473" unicode="&#x473;" 
d="M971 727v-430q0 -134 -101 -225q-100 -92 -256 -92t-260 90q-98 91 -98 227v430q0 137 98 225q103 92 260 92q156 0 256 -92q101 -91 101 -225zM354 715v-164q58 49 135 49q56 0 132 -43q77 -41 112 -41q38 0 73.5 21t51.5 45l14 22v111q0 101 -75 170q-77 71 -185 71
q-107 0 -184 -71q-74 -71 -74 -170zM735 424q-54 0 -131 41q-76 43 -112 43t-74 -23q-47 -31 -64 -65v-111q0 -100 76 -170q77 -71 184 -71q106 0 183 71q75 69 75 170v164q-55 -49 -137 -49z" />
    <glyph glyph-name="uni0474" unicode="&#x474;" 
d="M944 1143l-233 -1143h-209l-293 1434h110l263 -1336h53l207 1059q30 150 86.5 219.5t154.5 69.5l35 -2v-86q-19 0 -47 -4q-45 -8 -74 -53.5t-53 -157.5z" />
    <glyph glyph-name="uni0475" unicode="&#x475;" 
d="M874 807l-206 -807h-189l-264 1024h104l234 -938h39l182 731q19 79 53 148q42 75 150 75l39 -2v-84h-31q-48 -1 -69 -31t-42 -116z" />
    <glyph glyph-name="uni0490" unicode="&#x490;" 
d="M530 1335v-1335h-106v1434h549v208h94v-307h-537z" />
    <glyph glyph-name="uni0491" unicode="&#x491;" 
d="M543 936v-936h-103v1024h506v195h98v-283h-501z" />
    <glyph glyph-name="uni0492" unicode="&#x492;" 
d="M444 709h-192v98h192v627h643v-99h-536v-528h336v-98h-336v-709h-107v709z" />
    <glyph glyph-name="uni0493" unicode="&#x493;" 
d="M442 494h-188v88h188v442h582v-88h-479v-354h295v-88h-295v-494h-103v494z" />
    <glyph glyph-name="uni0494" unicode="&#x494;" 
d="M512 709h-84v-709h-106v1434h577v-99h-471v-528h94q252 0 365.5 -115t113.5 -377q0 -291 -141 -485q-138 -197 -309 -197v97q124 0 235 159q111 156 111 412q0 232 -88 320t-297 88z" />
    <glyph glyph-name="uni0495" unicode="&#x495;" 
d="M524 -334l-2 88q115 0 228 137q114 135 114 326q0 185 -116 236q-58 28 -116 37.5t-153 9.5h-59v-500h-98v1024h538v-88h-440v-348h104q439 0 439 -369q0 -118 -45 -226.5t-117 -178.5q-70 -68 -144 -108t-133 -40z" />
    <glyph glyph-name="uni0496" unicode="&#x496;" 
d="M1055 -305v305h-47l-306 709h-36v-709h-105v709h-37l-307 -709h-108l325 762l-303 672h111l282 -629h37v629h105v-629h36l285 629h109l-303 -672l280 -664h88v-403h-106z" />
    <glyph glyph-name="uni0497" unicode="&#x497;" 
d="M1020 -215v215h-64l-276 500h-29v-500h-94v500h-29l-276 -500h-113l305 543l-288 481h108l260 -438h33v438h94v-438h33l260 438h107l-287 -481l256 -455h98v-303h-98z" />
    <glyph glyph-name="uni0498" unicode="&#x498;" 
d="M612 1446q157 0 252 -103q97 -105 97 -256v-40q0 -78 -33.5 -148t-73.5 -100l-35 -29q6 -3 16.5 -9t36.5 -29t46 -50.5t36.5 -74t16.5 -99.5v-160q0 -136 -83.5 -235t-217.5 -119v-299h-107v295q-143 16 -229 112q-91 102 -94 228v24h104v-24q3 -91 76 -170
q71 -74 184 -74q116 0 187 73t71 187v148q0 96 -59.5 155.5t-161.5 59.5h-137v98h123q118 0 170 76q55 76 55 168v39q0 115 -66 186.5t-180 71.5q-116 0 -180 -76t-64 -150h-98q0 123 96 224q97 100 252 100z" />
    <glyph glyph-name="uni0499" unicode="&#x499;" 
d="M604 76q115 0 184.5 60t69.5 159q0 91 -56.5 141.5t-150.5 50.5h-121v91h115q86 0 141.5 51.5t55.5 126.5q0 80 -65 136t-161 56q-97 0 -164 -54t-75 -134h-92q6 110 96 194q91 82 237 82q147 0 232 -82q88 -79 88 -194q0 -67 -33 -117q-20 -34 -39 -55t-30 -28t-27 -13
l2 -1q95 -54 130 -154q15 -44 15 -95q0 -122 -82 -207t-215 -98v-207h-98v205q-136 13 -222.5 101t-92.5 216h96q4 -103 79 -167t183 -64z" />
    <glyph glyph-name="uni049A" unicode="&#x49a;" 
d="M983 -305v305h-35l-452 709h-82v-709h-107v1434h107v-629h80l432 629h114l-462 -668l428 -668h84v-403h-107z" />
    <glyph glyph-name="uni049B" unicode="&#x49b;" 
d="M934 -215v215h-43l-397 500h-78v-500h-99v1024h99v-438h78l368 438h121l-412 -477l375 -459h86v-303h-98z" />
    <glyph glyph-name="uni049C" unicode="&#x49c;" 
d="M575 475h-96v234h-65v-709h-107v1434h107v-629h65v221h96v-221h33l318 629h114l-344 -668l373 -766h-121l-338 709h-35v-234z" />
    <glyph glyph-name="uni049D" unicode="&#x49d;" 
d="M580 276h-91v224h-59v-500h-98v1024h98v-438h59v213h91v-213h20l277 438h120l-309 -477l344 -547h-127l-307 500h-18v-224z" />
    <glyph glyph-name="uni04A0" unicode="&#x4a0;" 
d="M354 1341h-295v93h402v-629h80l432 629h114l-462 -668l491 -766h-121l-452 709h-82v-709h-107v1341z" />
    <glyph glyph-name="uni04A1" unicode="&#x4a1;" 
d="M350 936h-293v88h392v-438h77l369 438h121l-412 -477l447 -547h-127l-398 500h-77v-500h-99v936z" />
    <glyph glyph-name="uni04A2" unicode="&#x4a2;" 
d="M940 -305v305h-82v709h-520v-709h-107v1434h107v-627h520v627h107v-1336h82v-403h-107z" />
    <glyph glyph-name="uni04A3" unicode="&#x4a3;" 
d="M950 -215v215h-88v500h-518v-500h-100v1024h100v-436h518v436h101v-936h86v-303h-99z" />
    <glyph glyph-name="uni04A4" unicode="&#x4a4;" 
d="M838 807v627h350v-97h-244v-1337h-106v709h-484v-709h-106v1434h106v-627h484z" />
    <glyph glyph-name="uni04A5" unicode="&#x4a5;" 
d="M338 500v-500h-100v1024h100v-436h496v436h340v-88h-240v-936h-100v500h-496z" />
    <glyph glyph-name="uni04AA" unicode="&#x4aa;" 
d="M883 354h106v-8q0 -131 -90 -235q-87 -101 -221 -119v-297h-107v297q-138 18 -225 119q-88 101 -88 237v739q0 150 104 254q105 105 263 105q153 0 258 -105q104 -104 104 -254h-104q-3 110 -78 185q-78 78 -182 78q-110 0 -184 -77t-74 -188v-735q0 -109 77 -186
q78 -78 183 -78q108 0 182 74q76 76 76 184v10z" />
    <glyph glyph-name="uni04AB" unicode="&#x4ab;" 
d="M354 715v-406q0 -104 74.5 -172.5t185.5 -68.5q107 0 180.5 64t77.5 167h97q-8 -128 -92.5 -216t-217.5 -101v-197h-98v199q-139 13 -222 104t-83 225v398q0 143 98 237q101 96 260 96q148 0 244 -90t105 -223h-101q-4 98 -74.5 161.5t-173.5 63.5q-111 0 -185.5 -68.5
t-74.5 -172.5z" />
    <glyph glyph-name="uni04AC" unicode="&#x4ac;" 
d="M639 -305v305h-78v1335h-354v99h815v-99h-354v-1237h77v-403h-106z" />
    <glyph glyph-name="uni04AD" unicode="&#x4ad;" 
d="M633 -215v215h-72v936h-360v88h823v-88h-360v-848h67v-303h-98z" />
    <glyph glyph-name="uni04AE" unicode="&#x4ae;" 
d="M197 1434h118l301 -633l297 633h117l-362 -752v-682h-107v682z" />
    <glyph glyph-name="uni04AF" unicode="&#x4af;" 
d="M205 1024h112l299 -805l297 805h113l-360 -940v-453h-101v453z" />
    <glyph glyph-name="uni04B0" unicode="&#x4b0;" 
d="M561 553h-334v96h334v33l-364 752h118l301 -633l297 633h117l-362 -752v-33h333v-96h-333v-553h-107v553z" />
    <glyph glyph-name="uni04B1" unicode="&#x4b1;" 
d="M565 23h-282v94h282l-360 907h112l299 -772l297 772h113l-360 -907h284v-94h-284v-392h-101v392z" />
    <glyph glyph-name="uni04B2" unicode="&#x4b2;" 
d="M973 -305v305h-60l-301 639l-299 -639h-125l361 745l-328 689h121l270 -580l273 580h121l-330 -689l315 -647h88v-403h-106z" />
    <glyph glyph-name="uni04B3" unicode="&#x4b3;" 
d="M930 -215v215h-64l-252 438l-252 -438h-118l309 524l-295 500h119l237 -416l238 416h119l-297 -500l256 -436h98v-303h-98z" />
    <glyph glyph-name="uni04B6" unicode="&#x4b6;" 
d="M903 -305v305h-78v580q-122 -58 -280 -58q-132 0 -221 86q-86 89 -86 232v594h106v-580q0 -108 63.5 -170.5t170.5 -62.5q61 0 122.5 16t94.5 35l30 18v744h107v-1336h78v-403h-107z" />
    <glyph glyph-name="uni04B7" unicode="&#x4b7;" 
d="M926 -215v215h-74v406q-14 -11 -47 -31q-44 -22 -117 -45q-92 -29 -162 -29q-139 0 -216 78t-77 215v430h101v-410q0 -225 209 -225q64 0 141.5 27t124.5 59l43 31v518h100v-936h72v-303h-98z" />
    <glyph glyph-name="uni04B8" unicode="&#x4b8;" 
d="M639 305h-100v217q-132 2 -216.5 89.5t-84.5 228.5v594h106v-580q0 -98 52 -159t143 -72v233h100v-231q45 6 92.5 21.5t71.5 29.5l22 14v744h107v-1434h-107v580q-74 -37 -186 -52v-223z" />
    <glyph glyph-name="uni04B9" unicode="&#x4b9;" 
d="M635 102h-94v199h-15q-139 0 -216 78t-77 215v430h101v-410q0 -225 207 -225v236h94v-224q50 11 104 37t84 49l29 19v518h100v-1024h-100v406q-97 -66 -217 -93v-211z" />
    <glyph glyph-name="uni04BA" unicode="&#x4ba;" 
d="M1006 698v-698h-107v674q0 128 -68 201t-180 73q-106 0 -188 -76q-84 -75 -84 -170v-702h-107v1434h107v-525q6 11 29 37q24 24 92 60q66 38 155 38q160 0 254 -98q97 -97 97 -248z" />
    <glyph glyph-name="uni04BB" unicode="&#x4bb;" 
d="M983 647v-647h-100v627q0 122 -67 192t-179 70t-193 -72q-79 -70 -79 -170v-647h-101v1434h101v-594q9 14 28 37q21 21 92 59q68 39 156 39q157 0 248 -94q94 -94 94 -234z" />
    <glyph glyph-name="uni04C0" unicode="&#x4c0;" 
d="M563 1335h-319v99h741v-99h-315v-1237h315v-98h-741v98h319v1237z" />
    <glyph glyph-name="uni04C3" unicode="&#x4c3;" 
d="M915 1434h115l-395 -637q373 -59 373 -482q0 -291 -144 -485q-141 -197 -311 -197v91q126 0 238 161t112 416q0 221 -104 314.5t-326 93.5h-59v-709h-107v1434h107v-627h108z" />
    <glyph glyph-name="uni04C4" unicode="&#x4c4;" 
d="M532 -350l-2 84q132 0 236 125q106 124 106 329q0 198 -108 258q-53 30 -111.5 42t-146.5 12h-76v-500h-98v1024h98v-436h117l323 436h121l-338 -444q318 -56 318 -394q0 -242 -144 -389t-295 -147z" />
    <glyph glyph-name="uni04C7" unicode="&#x4c7;" 
d="M874 1434h107v-1434q0 -161 -96 -260t-256 -100v90q114 0 179.5 71t65.5 199v709h-520v-709h-106v1434h106v-627h520v627z" />
    <glyph glyph-name="uni04C8" unicode="&#x4c8;" 
d="M874 1024h101v-1024q0 -161 -88.5 -260t-245.5 -100v86q110 0 171.5 75.5t61.5 210.5v488h-518v-500h-100v1024h100v-436h518v436z" />
    <glyph glyph-name="uni04D0" unicode="&#x4d0;" 
d="M248 561l256 873h221l256 -873v-561h-107v489h-520v-489h-106v561zM365 588h499l-213 747h-73zM762 1774h104q0 -26 -4 -51.5t-19.5 -60t-41.5 -59.5t-74 -43t-113 -18t-113 18t-74 43t-41.5 59.5t-19.5 60t-4 51.5h105q0 -150 147 -150q148 0 148 150z" />
    <glyph glyph-name="uni04D1" unicode="&#x4d1;" 
d="M961 0h-101v109q-4 -5 -11 -13t-33 -29t-56.5 -37t-81 -29t-105.5 -13q-137 0 -231 82t-94 215q0 132 92 215t248 102q108 11 272 19v86q0 107 -62 174t-167 67q-85 0 -144.5 -48.5t-78.5 -127.5h-101q19 118 107 191t217 73q156 0 243 -90.5t87 -240.5v-705zM586 74
q110 0 192 61t82 148v249q-143 -3 -248 -14q-264 -34 -264 -231q0 -94 66 -153.5t172 -59.5zM762 1374h104q0 -26 -4 -51.5t-19.5 -59.5t-41.5 -59t-74 -43t-113 -18t-113 18t-74 43t-41.5 59t-19.5 59.5t-4 51.5h105q0 -149 147 -149q148 0 148 149z" />
    <glyph glyph-name="uni04D2" unicode="&#x4d2;" 
d="M248 561l256 873h221l256 -873v-561h-107v489h-520v-489h-106v561zM365 588h499l-213 747h-73zM502 1632h-119v144h119v-144zM844 1632h-119v144h119v-144z" />
    <glyph glyph-name="uni04D3" unicode="&#x4d3;" 
d="M961 0h-101v109q0 -2 -10.5 -14t-34 -31.5t-55 -38t-81.5 -31.5t-106 -14q-136 0 -231 86q-94 85 -94 219t95 220t245 97l272 19v94q0 107 -62 174t-167 67q-85 0 -144.5 -48.5t-78.5 -127.5h-101q19 118 107 191t217 73q156 0 243 -90.5t87 -240.5v-713zM586 66
q107 0 190 65q84 66 84 152v249l-248 -14q-124 -8 -194 -68.5t-70 -162.5q0 -95 66.5 -158t171.5 -63zM522 1223h-119v143h119v-143zM864 1223h-119v143h119v-143z" />
    <glyph glyph-name="uni04D4" unicode="&#x4d4;" 
d="M184 569l256 865h625v-99h-360v-528h311v-98h-311v-611h374v-98h-481v489h-307v-489h-107v569zM598 1335h-88l-213 -747h301v747z" />
    <glyph glyph-name="uni04D5" unicode="&#x4d5;" 
d="M408 -20q-111 0 -180.5 70t-69.5 177v105q0 117 68.5 188.5t172.5 71.5h168v205q0 66 -43.5 112.5t-103.5 46.5q-65 0 -100 -46.5t-35 -129.5h-99q0 116 67 190t167 74q127 0 198 -110l7 -14q2 5 6 13.5t20 30t37 37.5t59.5 29.5t83.5 13.5q102 0 170 -70t68 -175v-293
h-397v-268q0 -80 40.5 -125t118.5 -45q62 0 103 43t41 110v78h92v-78q0 -102 -70 -172q-69 -69 -172 -69q-82 0 -136.5 35.5t-65.5 66.5l-7 12q-4 -7 -22 -33q-12 -14 -68 -51q-52 -30 -118 -30zM831 956q-66 0 -112.5 -47t-46.5 -114v-203h305v194q0 73 -42 121.5
t-104 48.5zM408 68q69 0 114 48t45 122v268h-161q-64 0 -107 -48t-43 -126v-107q0 -68 42.5 -112.5t109.5 -44.5z" />
    <glyph glyph-name="uni04D6" unicode="&#x4d6;" 
d="M301 0v1434h643v-99h-536v-528h487v-98h-487v-611h555v-98h-662zM778 1784h101q0 -22 -5 -47t-21.5 -59.5t-42.5 -61t-75 -45.5t-112 -19t-112 19t-75 45.5t-42.5 61t-21.5 59.5t-5 47h100q0 -29 20 -78q14 -30 50 -49t86 -19t85.5 19t47.5 49q22 48 22 78z" />
    <glyph glyph-name="uni04D7" unicode="&#x4d7;" 
d="M872 299h99q-8 -141 -106 -230t-251 -89q-156 0 -260 90q-98 91 -98 227v430q0 137 98 225q103 92 260 92q156 0 256 -92q101 -91 101 -225v-244h-617v-170q0 -108 72.5 -176.5t185.5 -68.5t184.5 63.5t75.5 167.5zM354 709v-138h518v140q0 108 -74.5 176.5t-185.5 68.5
t-184.5 -69.5t-73.5 -177.5zM770 1374h100q0 -15 -2.5 -31.5t-9.5 -40t-18.5 -44.5t-31.5 -42.5t-45.5 -37t-64 -25.5t-84.5 -10t-84.5 10t-64 25.5t-45.5 37t-31.5 42.5t-18.5 44.5t-9.5 40t-2.5 31.5h101q0 -29 20 -78q14 -30 49.5 -48.5t85.5 -18.5t86 18.5t48 48.5
q22 48 22 78z" />
    <glyph glyph-name="uni04D8" unicode="&#x4d8;" 
d="M248 346v365q0 31 21 53t53 22h550v299q0 111 -74 188t-184 77q-105 0 -180 -78q-71 -77 -74 -185h-104q0 149 102 254t254 105q157 0 262 -105t105 -254v-739q0 -149 -107 -256q-107 -104 -260 -104q-151 0 -258 104q-106 103 -106 254zM872 350v338h-518v-344
q0 -107 74 -184q77 -74 184 -74q112 0 185 76q75 75 75 188z" />
    <glyph glyph-name="uni04D9" unicode="&#x4d9;" 
d="M879 309v144h-533v-144q0 -95 78 -170q80 -71 188 -71q110 0 187 71q80 74 80 170zM614 1044q160 0 263 -92q100 -90 100 -225v-430q0 -133 -103 -225t-264 -92q-157 0 -260 92q-102 91 -102 225v209q0 14 11 24.5t24 10.5h596v174q0 105 -76 173t-187 68
q-116 0 -186 -59.5t-74 -163.5h-98q8 140 105.5 225.5t250.5 85.5z" />
    <glyph glyph-name="uni04DA" unicode="&#x4da;" 
d="M248 346v365q0 31 21 53t53 22h550v299q0 111 -74 188t-184 77q-105 0 -180 -78q-71 -77 -74 -185h-104q0 149 102 254t254 105q157 0 262 -105t105 -254v-739q0 -149 -107 -256q-107 -104 -260 -104q-151 0 -258 104q-106 103 -106 254zM872 350v338h-518v-344
q0 -107 74 -184q77 -74 184 -74q112 0 185 76q75 75 75 188zM502 1632h-119v144h119v-144zM844 1632h-119v144h119v-144z" />
    <glyph glyph-name="uni04DB" unicode="&#x4db;" 
d="M879 309v144h-533v-144q0 -95 78 -170q80 -71 188 -71q110 0 187 71q80 74 80 170zM614 1044q160 0 263 -92q100 -90 100 -225v-430q0 -133 -103 -225t-264 -92q-157 0 -260 92q-102 91 -102 225v209q0 14 11 24.5t24 10.5h596v174q0 105 -76 173t-187 68
q-116 0 -186 -59.5t-74 -163.5h-98q8 140 105.5 225.5t250.5 85.5zM502 1223h-119v143h119v-143zM844 1223h-119v143h119v-143z" />
    <glyph glyph-name="uni04DC" unicode="&#x4dc;" 
d="M666 805h36l285 629h109l-303 -672l323 -762h-108l-306 709h-36v-709h-105v709h-37l-307 -709h-108l325 762l-303 672h111l282 -629h37v629h105v-629zM504 1632h-119v144h119v-144zM846 1632h-119v144h119v-144z" />
    <glyph glyph-name="uni04DD" unicode="&#x4dd;" 
d="M967 0l-277 500h-28v-500h-95v500h-28l-277 -500h-112l305 543l-289 481h108l261 -438h32v438h95v-438h32l260 438h107l-287 -481l305 -543h-112zM502 1223h-119v143h119v-143zM844 1223h-119v143h119v-143z" />
    <glyph glyph-name="uni04DE" unicode="&#x4de;" 
d="M612 1446q157 0 252 -103q97 -105 97 -256v-40q0 -78 -33.5 -148t-73.5 -100l-35 -29q6 -3 16.5 -9t36.5 -29t46 -50.5t36.5 -74t16.5 -99.5v-160q0 -153 -105 -258q-105 -102 -266 -102q-156 0 -256 100q-101 101 -104 242v24h104v-24q3 -91 76 -170q71 -74 184 -74
q116 0 187 73t71 187v148q0 96 -59.5 155.5t-161.5 59.5h-137v98h123q118 0 170 76q55 76 55 168v39q0 115 -66 186.5t-180 71.5q-116 0 -180 -76t-64 -150h-98q0 123 96 224q97 100 252 100zM502 1632h-119v144h119v-144zM844 1632h-119v144h119v-144z" />
    <glyph glyph-name="uni04DF" unicode="&#x4df;" 
d="M604 76q115 0 184.5 60t69.5 159q0 91 -56.5 141.5t-150.5 50.5h-121v91h115q86 0 141.5 51.5t55.5 126.5q0 80 -65 136t-161 56q-97 0 -164 -54t-75 -134h-92q6 110 96 194q91 82 237 82q147 0 232 -82q88 -79 88 -194q0 -61 -31 -115.5t-67 -77.5l-31 -20q6 -3 16 -8.5
t35 -26.5t44.5 -47t35.5 -71t16 -97q0 -133 -98 -221q-94 -88 -252 -88q-150 0 -254 90q-97 90 -106 229h96q4 -103 79 -167t183 -64zM502 1223h-119v143h119v-143zM844 1223h-119v143h119v-143z" />
    <glyph glyph-name="uni04E2" unicode="&#x4e2;" 
d="M883 745l6 494l-537 -1239h-104v1434h98v-746l-6 -500l537 1246h104v-1434h-98v745zM881 1618h-533v92h533v-92z" />
    <glyph glyph-name="uni04E3" unicode="&#x4e3;" 
d="M979 0h-100v514l6 350l-541 -864h-96v1024h100v-512l-6 -352l541 864h96v-1024zM881 1208h-533v92h533v-92z" />
    <glyph glyph-name="uni04E4" unicode="&#x4e4;" 
d="M883 745l6 494l-537 -1239h-104v1434h98v-746l-6 -500l537 1246h104v-1434h-98v745zM504 1632h-119v144h119v-144zM846 1632h-119v144h119v-144z" />
    <glyph glyph-name="uni04E5" unicode="&#x4e5;" 
d="M979 0h-100v514l6 350l-541 -864h-96v1024h100v-512l-6 -352l541 864h96v-1024zM502 1223h-119v143h119v-143zM844 1223h-119v143h119v-143z" />
    <glyph glyph-name="uni04E6" unicode="&#x4e6;" 
d="M991 1096v-758q0 -153 -106 -256q-105 -102 -271 -102q-165 0 -272 104q-106 103 -106 256v756q0 154 106 254q107 104 272 104q167 0 271 -104q106 -100 106 -254zM885 336v758q0 112 -75.5 187t-195.5 75q-121 0 -196.5 -75t-75.5 -187v-756q0 -112 75.5 -186
t196.5 -74q120 0 195.5 73t75.5 185zM502 1632h-119v144h119v-144zM844 1632h-119v144h119v-144z" />
    <glyph glyph-name="uni04E7" unicode="&#x4e7;" 
d="M971 297q0 -134 -101 -225q-100 -92 -256 -92t-260 90q-98 91 -98 227v430q0 137 98 225q103 92 260 92q156 0 256 -92q101 -91 101 -225v-430zM872 715q0 103 -75 172t-185 69q-109 0 -184 -69q-74 -71 -74 -172v-406q0 -101 74 -172q75 -69 186 -69t183 69
q75 69 75 172v406zM502 1223h-119v143h119v-143zM844 1223h-119v143h119v-143z" />
    <glyph glyph-name="uni04E8" unicode="&#x4e8;" 
d="M991 1096v-758q0 -153 -106 -256q-105 -102 -271 -102q-165 0 -272 104q-106 103 -106 256v756q0 154 106 254q107 104 272 104q167 0 271 -104q106 -100 106 -254zM735 651q-53 0 -129 43t-110 43q-72 0 -154 -82v-317q0 -112 75.5 -186t196.5 -74q120 0 195.5 73
t75.5 185v375q-78 -60 -150 -60zM342 1094v-326q69 63 154 63q53 0 129 -43t110 -43q72 0 150 78v271q0 112 -75.5 185t-195.5 73q-121 0 -196.5 -73t-75.5 -185z" />
    <glyph glyph-name="uni04E9" unicode="&#x4e9;" 
d="M971 727v-430q0 -134 -101 -225q-100 -92 -256 -92t-260 90q-98 91 -98 227v430q0 137 98 225q103 92 260 92q156 0 256 -92q101 -91 101 -225zM354 715v-164q58 49 135 49q56 0 132 -43q77 -41 112 -41q38 0 73.5 21t51.5 45l14 22v111q0 101 -75 170q-77 71 -185 71
q-107 0 -184 -71q-74 -71 -74 -170zM735 424q-54 0 -131 41q-76 43 -112 43t-74 -23q-47 -31 -64 -65v-111q0 -100 76 -170q77 -71 184 -71q106 0 183 71q75 69 75 170v164q-55 -49 -137 -49z" />
    <glyph glyph-name="uni04EA" unicode="&#x4ea;" 
d="M991 1096v-758q0 -153 -106 -256q-105 -102 -271 -102q-165 0 -272 104q-106 103 -106 256v756q0 154 106 254q107 104 272 104q167 0 271 -104q106 -100 106 -254zM735 651q-53 0 -129 43t-110 43q-72 0 -154 -82v-317q0 -112 75.5 -186t196.5 -74q120 0 195.5 73
t75.5 185v375q-78 -60 -150 -60zM342 1094v-326q69 63 154 63q53 0 129 -43t110 -43q72 0 150 78v271q0 112 -75.5 185t-195.5 73q-121 0 -196.5 -73t-75.5 -185zM502 1632h-119v144h119v-144zM844 1632h-119v144h119v-144z" />
    <glyph glyph-name="uni04EB" unicode="&#x4eb;" 
d="M971 727v-430q0 -134 -101 -225q-100 -92 -256 -92t-260 90q-98 91 -98 227v430q0 137 98 225q103 92 260 92q156 0 256 -92q101 -91 101 -225zM354 715v-164q58 49 135 49q56 0 132 -43q77 -41 112 -41q38 0 73.5 21t51.5 45l14 22v111q0 101 -75 170q-77 71 -185 71
q-107 0 -184 -71q-74 -71 -74 -170zM735 424q-54 0 -131 41q-76 43 -112 43t-74 -23q-47 -31 -64 -65v-111q0 -100 76 -170q77 -71 184 -71q106 0 183 71q75 69 75 170v164q-55 -49 -137 -49zM502 1223h-119v143h119v-143zM844 1223h-119v143h119v-143z" />
    <glyph glyph-name="uni04EC" unicode="&#x4ec;" 
d="M846 698h-365v99h365v288q0 111 -74 188t-184 77q-105 0 -180 -78q-71 -77 -74 -185h-105q0 148 103 254q102 105 254 105q157 0 262 -105q104 -104 104 -254v-739q0 -150 -106 -256q-107 -104 -260 -104q-151 0 -258 104t-107 254v8h107v-10q0 -108 73 -184
q77 -74 185 -74q111 0 184 76q76 76 76 188v348zM502 1632h-119v144h119v-144zM844 1632h-119v144h119v-144z" />
    <glyph glyph-name="uni04ED" unicode="&#x4ed;" 
d="M864 485h-334v88h334v142q0 104 -74.5 172.5t-185.5 68.5q-103 0 -173.5 -63.5t-74.5 -161.5h-100q9 134 104 223q96 90 244 90q159 0 260 -96q99 -94 99 -237v-398q0 -145 -99 -239q-98 -94 -260 -94q-149 0 -250 90q-95 92 -104 229h96q4 -103 77.5 -167t180.5 -64
q111 0 185.5 68.5t74.5 172.5v176zM502 1223h-119v143h119v-143zM844 1223h-119v143h119v-143z" />
    <glyph glyph-name="uni04EE" unicode="&#x4ee;" 
d="M938 1434h117l-580 -1434h-117l224 539l-359 895h123l293 -752zM911 1618h-532v92h532v-92z" />
    <glyph glyph-name="uni04EF" unicode="&#x4ef;" 
d="M522 -156l66 170l-367 1010h111l313 -866l316 866h108l-457 -1217q-67 -178 -274 -178l-39 2v84h31q84 5 125 31.5t67 97.5zM918 1208h-533v92h533v-92z" />
    <glyph glyph-name="uni04F0" unicode="&#x4f0;" 
d="M938 1434h117l-580 -1434h-117l224 539l-359 895h123l293 -752zM530 1632h-118v144h118v-144zM872 1632h-118v144h118v-144z" />
    <glyph glyph-name="uni04F1" unicode="&#x4f1;" 
d="M522 -156l66 170l-367 1010h111l313 -866l316 866h108l-457 -1217q-67 -178 -274 -178l-39 2v84h31q84 5 125 31.5t67 97.5zM522 1223h-119v143h119v-143zM864 1223h-119v143h119v-143z" />
    <glyph glyph-name="uni04F2" unicode="&#x4f2;" 
d="M938 1434h117l-580 -1434h-117l224 539l-359 895h123l293 -752zM776 1792l-237 -250h-95l193 250h139zM1044 1792l-237 -250h-94l192 250h139z" />
    <glyph glyph-name="uni04F3" unicode="&#x4f3;" 
d="M522 -156l66 170l-367 1010h111l313 -866l316 866h108l-457 -1217q-67 -178 -274 -178l-39 2v84h31q84 5 125 31.5t67 97.5zM756 1382l-238 -249h-94l192 249h140zM1024 1382l-238 -249h-94l193 249h139z" />
    <glyph glyph-name="uni04F4" unicode="&#x4f4;" 
d="M825 1434h107v-1434h-107v580q-122 -58 -280 -58q-132 0 -221 86q-86 89 -86 232v594h106v-580q0 -108 63.5 -170.5t170.5 -62.5q61 0 122.5 16t94.5 35l30 18v744zM471 1632h-119v144h119v-144zM813 1632h-119v144h119v-144z" />
    <glyph glyph-name="uni04F5" unicode="&#x4f5;" 
d="M233 594v430h101v-410q0 -225 209 -225q64 0 141.5 27t124.5 59l43 31v518h100v-1024h-100v406q-14 -11 -47 -31q-44 -22 -117 -45q-92 -29 -162 -29q-139 0 -216 78t-77 215zM487 1223h-118v143h118v-143zM829 1223h-118v143h118v-143z" />
    <glyph glyph-name="uni04F8" unicode="&#x4f8;" 
d="M690 301v211q0 82 -58 139.5t-140 57.5h-228v-607h228q82 0 140 58.5t58 140.5zM158 1434h106v-627h234q123 0 211 -88t88 -213v-207q0 -125 -88 -213q-89 -86 -211 -86h-340v1434zM967 1434h106v-1434h-106v1434zM504 1632h-119v144h119v-144zM846 1632h-119v144h119
v-144z" />
    <glyph glyph-name="uni04F9" unicode="&#x4f9;" 
d="M176 1024h100v-436h226q146 0 229 -86q86 -86 86 -205q0 -120 -86 -209q-82 -88 -229 -88h-326v1024zM717 297q0 84 -56.5 143.5t-152.5 59.5h-232v-412h232q96 0 152.5 61.5t56.5 147.5zM950 1024h101v-1024h-101v1024zM502 1223h-119v143h119v-143zM844 1223h-119v143
h119v-143z" />
    <glyph glyph-name="Wgrave" unicode="&#x1e80;" 
d="M856 98l70 772v564h106v-570l-86 -864h-196l-127 645h-19l-129 -645h-194l-86 864v570h106v-564l70 -772h28l142 680h147l139 -680h29zM489 1792l224 -250h-111l-260 250h147z" />
    <glyph glyph-name="wgrave" unicode="&#x1e81;" 
d="M838 86l104 565v373h98v-383l-125 -641h-182l-112 555h-15l-110 -555h-183l-125 641v383h99v-373l108 -565h29l119 573h145l121 -573h29zM506 1382l223 -249h-111l-260 249h148z" />
    <glyph glyph-name="Wacute" unicode="&#x1e82;" 
d="M856 98l70 772v564h106v-570l-86 -864h-196l-127 645h-19l-129 -645h-194l-86 864v570h106v-564l70 -772h28l142 680h147l139 -680h29zM897 1792l-260 -250h-111l224 250h147z" />
    <glyph glyph-name="wacute" unicode="&#x1e83;" 
d="M838 86l104 565v373h98v-383l-125 -641h-182l-112 555h-15l-110 -555h-183l-125 641v383h99v-373l108 -565h29l119 573h145l121 -573h29zM883 1382l-260 -249h-111l223 249h148z" />
    <glyph glyph-name="Wdieresis" unicode="&#x1e84;" 
d="M856 98l70 772v564h106v-570l-86 -864h-196l-127 645h-19l-129 -645h-194l-86 864v570h106v-564l70 -772h28l142 680h147l139 -680h29zM502 1632h-119v144h119v-144zM844 1632h-119v144h119v-144z" />
    <glyph glyph-name="wdieresis" unicode="&#x1e85;" 
d="M838 86l104 565v373h98v-383l-125 -641h-182l-112 555h-15l-110 -555h-183l-125 641v383h99v-373l108 -565h29l119 573h145l121 -573h29zM502 1223h-119v143h119v-143zM844 1223h-119v143h119v-143z" />
    <glyph glyph-name="endash" unicode="&#x2013;" 
d="M227 655h774v-98h-774v98z" />
    <glyph glyph-name="emdash" unicode="&#x2014;" horiz-adv-x="1226" 
d="M0 655h1227v-98h-1227v98z" />
    <glyph glyph-name="quoteleft" unicode="&#x2018;" 
d="M647 1434h72l-70 -392h-139z" />
    <glyph glyph-name="quoteright" unicode="&#x2019;" 
d="M580 1042h-70l70 392h139z" />
    <glyph glyph-name="quotesinglbase" unicode="&#x201a;" 
d="M580 -246h-70l70 389h139z" />
    <glyph glyph-name="quotedblleft" unicode="&#x201c;" 
d="M786 1434h72l-70 -392h-139zM506 1434h72l-70 -392h-139z" />
    <glyph glyph-name="quotedblright" unicode="&#x201d;" 
d="M438 1042h-69l69 392h140zM719 1042h-70l70 392h139z" />
    <glyph glyph-name="quotedblbase" unicode="&#x201e;" 
d="M438 -246h-69l69 389h140zM719 -246h-70l70 389h139z" />
    <glyph glyph-name="dagger" unicode="&#x2020;" 
d="M666 1024h245v-100h-245v-1313h-109v1313h-240v100h240v410h109v-410z" />
    <glyph glyph-name="daggerdbl" unicode="&#x2021;" 
d="M666 100h245v-100h-245v-389h-109v389h-240v100h240v824h-240v100h240v410h109v-410h245v-100h-245v-824z" />
    <glyph glyph-name="bullet" unicode="&#x2022;" 
d="M406 541q-87 90 -87 209t87 206q88 88 208 88q122 0 207 -88q88 -85 88 -206t-88 -209q-86 -86 -207 -86q-119 0 -208 86z" />
    <glyph glyph-name="ellipsis" unicode="&#x2026;" 
d="M276 0h-143v143h143v-143zM686 0h-143v143h143v-143zM1096 0h-144v143h144v-143z" />
    <glyph glyph-name="perthousand" unicode="&#x2030;" 
d="M586 1249v-207q0 -88 -64.5 -149.5t-156.5 -61.5q-91 0 -154.5 61.5t-63.5 149.5v207q0 87 63 145t155 58q94 0 157.5 -58t63.5 -145zM494 1049v184q0 56 -37 93.5t-92 37.5t-91 -37.5t-36 -93.5v-182q0 -56 37 -93.5t94 -37.5q51 0 88 37.5t37 91.5zM1087 397v-207
q0 -88 -64.5 -149t-156.5 -61q-91 0 -154 61t-63 149v207q0 87 63 145t154 58q94 0 157.5 -58t63.5 -145zM995 197v184q0 56 -37 93.5t-92 37.5t-91 -37.5t-36 -93.5v-182q0 -56 37 -93.5t94 -37.5q51 0 88 37.5t37 91.5zM586 397v-207q0 -88 -64.5 -149t-156.5 -61
q-91 0 -154.5 61t-63.5 149v207q0 87 63 145t155 58q94 0 157.5 -58t63.5 -145zM494 197v184q0 56 -37 93.5t-92 37.5t-91 -37.5t-36 -93.5v-182q0 -56 37 -93.5t94 -37.5q51 0 88 37.5t37 91.5zM100 590v96l1026 348v-96z" />
    <glyph glyph-name="guilsinglleft" unicode="&#x2039;" 
d="M545 598l243 -311h-110l-240 311l240 311h110z" />
    <glyph glyph-name="guilsinglright" unicode="&#x203a;" 
d="M788 598l-241 -311h-109l242 311l-242 311h109z" />
    <glyph glyph-name="fraction" unicode="&#x2044;" 
d="M297 0h-84l719 1434h84z" />
    <glyph glyph-name="foursuperior" unicode="&#x2074;" 
d="M698 838h-331v86l251 510h99l-256 -510h237v174h93v-174h75v-86h-75v-160h-93v160z" />
    <glyph glyph-name="uni2081" unicode="&#x2081;" 
d="M496 645v78l149 33h96v-756h-96v676z" />
    <glyph glyph-name="uni2082" unicode="&#x2082;" 
d="M842 86v-86h-455v72q0 79 52 149.5t126 116.5q77 49 128.5 109t51.5 122q0 57 -34 91t-88 34q-56 0 -95.5 -39.5t-40.5 -99.5h-86q0 91 63 156t163 65q90 0 150.5 -59.5t60.5 -147.5q0 -59 -26.5 -110.5t-66 -85.5t-86 -70t-86 -65t-66 -69t-26.5 -83h361z" />
    <glyph glyph-name="uni2083" unicode="&#x2083;" 
d="M397 178h86q0 -48 36 -81.5t91 -33.5q65 0 101.5 38t36.5 102v100q0 45 -29.5 77t-71.5 32h-84v82l150 176h-277v82h381v-78l-149 -178q75 -12 122.5 -66.5t47.5 -126.5v-100q0 -96 -64.5 -158.5t-163.5 -62.5q-93 0 -153 55.5t-60 140.5z" />
    <glyph glyph-name="uni2084" unicode="&#x2084;" 
d="M698 160h-331v86l251 510h99l-256 -510h237v174h93v-174h75v-86h-75v-160h-93v160z" />
    <glyph glyph-name="Euro" unicode="&#x20ac;" 
d="M403 887h455v-99h-455v-153h390v-98h-390v-195q0 -111 74 -188q76 -76 187 -76q110 0 186 76t76 186v10h104v-8q0 -152 -106 -258q-104 -104 -254 -104h-13q-150 0 -256 106t-106 258v193h-121v98h121v153h-121v99h121v205q0 150 106 256t256 106h13q151 0 254 -106
q106 -103 106 -256h-104q-3 109 -78 184q-76 76 -184 76q-110 0 -185.5 -76t-75.5 -186v-203z" />
    <glyph glyph-name="trademark" unicode="&#x2122;" 
d="M496 1370h-158v-618h-74v618h-158v64h390v-64zM1053 752h-74v579l-127 -274h-68l-127 274v-579h-73v682h98l137 -308l135 308h99v-682z" />
    <glyph glyph-name="Omega" unicode="&#x2126;" 
d="M745 223q63 32 101.5 94.5t38.5 135.5v641q0 112 -75.5 185t-195.5 73q-121 0 -196.5 -73t-75.5 -185v-639q0 -76 37 -138t102 -94q25 -13 25 -41v-182h-277v98h179v54q-80 48 -126 128.5t-46 176.5v639q0 154 106 254q107 104 272 104q167 0 271 -104q106 -100 106 -254
v-641q0 -94 -46 -175t-126 -128v-54h178v-98h-276v182q0 29 24 41z" />
    <glyph glyph-name="increment" unicode="&#x2206;" 
d="M508 1434h209l293 -1434h-795zM643 1335h-61l-242 -1237h545z" />
    <glyph glyph-name="product" unicode="&#x220f;" 
d="M248 1434h733v-1616h-107v1517h-520v-1517h-106v1616z" />
    <glyph glyph-name="summation" unicode="&#x2211;" 
d="M688 680v-51l-309 -713h622v-98h-735v102l318 735l-318 691v88h715v-99h-590z" />
    <glyph glyph-name="minus" unicode="&#x2212;" 
d="M190 528v103h848v-103h-848z" />
    <glyph glyph-name="uni2215" unicode="&#x2215;" 
d="M297 0h-84l719 1434h84z" />
    <glyph glyph-name="uni2219" unicode="&#x2219;" 
d="M686 528h-143v144h143v-144z" />
    <glyph glyph-name="radical" unicode="&#x221a;" 
d="M631 -188h-180l-195 796q-16 64 -46 85.5t-91 21.5v92q106 0 161.5 -39t75.5 -129l172 -748h27l537 1770h106z" />
    <glyph glyph-name="infinity" unicode="&#x221e;" 
d="M856 381q-108 0 -240 141q-120 -141 -239 -141q-92 0 -158 63q-65 65 -65 150q0 91 64.5 154t158.5 63q118 0 237 -143q128 143 242 143q91 0 154 -63q65 -62 65 -148q0 -91 -63.5 -155t-155.5 -64zM854 723q-74 0 -186 -127q109 -127 188 -127q54 0 93.5 38t39.5 89
t-40.5 89t-94.5 38zM379 473q77 0 180 127q-112 127 -182 127q-55 0 -94 -39.5t-39 -91.5q0 -54 38.5 -88.5t96.5 -34.5z" />
    <glyph glyph-name="integral" unicode="&#x222b;" 
d="M295 -369v93h94q75 0 123.5 50t48.5 128v1263q0 114 80 191q81 78 199 78h92v-95h-94q-75 0 -123.5 -50t-48.5 -128v-1263q0 -114 -80 -191q-79 -76 -199 -76h-92z" />
    <glyph glyph-name="approxequal" unicode="&#x2248;" 
d="M416 838q78 0 211 -62q136 -59 186 -59q61 0 98 30t37 74h92q0 -83 -64.5 -141.5t-162.5 -58.5q-77 0 -213 59q-131 61 -184 61q-61 0 -98 -30t-37 -74h-93q0 83 65 142t163 59zM416 573q80 0 211 -61q136 -59 186 -59q61 0 98 30t37 74h92q0 -83 -64.5 -142t-162.5 -59
q-75 0 -213 60q-131 61 -184 61q-61 0 -98 -30t-37 -74h-93q0 83 65 141.5t163 58.5z" />
    <glyph glyph-name="notequal" unicode="&#x2260;" 
d="M727 797h309v-103h-348l-86 -225h434v-102h-473l-108 -287h-80l108 287h-293v102h332l86 225h-418v103h457l121 315h80z" />
    <glyph glyph-name="lessequal" unicode="&#x2264;" 
d="M1038 266l-848 330v125l848 332v-111l-749 -283l749 -278v-115zM190 195h848v-103h-848v103z" />
    <glyph glyph-name="greaterequal" unicode="&#x2265;" 
d="M1038 92h-848v103h848v-103zM190 1053l848 -332v-125l-848 -330v115l750 278l-750 283v111z" />
    <glyph glyph-name="lozenge" unicode="&#x25ca;" 
d="M678 1434l321 -717l-317 -717h-127l-324 717l320 717h127zM629 1335h-27l-260 -618l260 -619h27l260 619z" />
    <glyph glyph-name="commaaccent" unicode="&#xf6c3;" 
d="M741 -102l-170 -252h-84l109 252h145z" />
    <glyph glyph-name="cyrbreve" unicode="&#xf6d4;" 
d="M762 1374h104q0 -26 -4 -51.5t-19.5 -59.5t-41.5 -59t-74 -43t-113 -18t-113 18t-74 43t-41.5 59t-19.5 59.5t-4 51.5h105q0 -149 147 -149q148 0 148 149z" />
    <glyph glyph-name="NULL" horiz-adv-x="0" 
 />
    <glyph glyph-name="CR" horiz-adv-x="681" 
 />
  </font>
</defs>
</svg>
