<?xml version="1.0" standalone="no"?>
<!DOCTYPE svg PUBLIC "-//W3C//DTD SVG 1.1//EN" "http://www.w3.org/Graphics/SVG/1.1/DTD/svg11.dtd" >
<svg xmlns="http://www.w3.org/2000/svg" xmlns:xlink="http://www.w3.org/1999/xlink" version="1.1">
<metadata>
Created by FontForge 20170731 at Mon Oct 12 08:08:44 2020
 By Aleksey,,,
Copyright (c) 2017 by Ramiz Guseynov. All rights reserved. |DCNT
</metadata>
<defs>
<font id="DecimaMonoCyr-Bold" horiz-adv-x="1228" >
  <font-face 
    font-family="Decima Mono Cyr"
    font-weight="700"
    font-stretch="normal"
    units-per-em="2048"
    panose-1="2 0 5 9 0 0 0 2 0 4"
    ascent="1616"
    descent="-432"
    x-height="1024"
    cap-height="1434"
    bbox="-115 -457 1444 1935"
    underline-thickness="102"
    underline-position="-307"
    unicode-range="U+0020-FB02"
  />
<missing-glyph 
 />
    <glyph glyph-name="fi" unicode="fi" 
d="M416 809v-809h-240v809h-131v215h131v127q0 127 88 215t219 88q113 0 234 -80l-137 -180q-145 102 -164 -25v-145h635v-807h133v-217h-535v217h160v592h-393zM1061 1171h-260v263h260v-263z" />
    <glyph glyph-name="fl" unicode="fl" 
d="M418 809v-809h-240v809h-131v215h131v106q0 128 88 216t219 88h564v-1221h135v-213h-535v213h158v1006h-322q-30 0 -48.5 -19.5t-18.5 -50.5v-125h233v-215h-233z" />
    <glyph glyph-name=".notdef" 
 />
    <glyph glyph-name=".null" horiz-adv-x="0" 
 />
    <glyph glyph-name="nonmarkingreturn" horiz-adv-x="682" 
 />
    <glyph glyph-name="space" unicode=" " 
 />
    <glyph glyph-name="exclam" unicode="!" 
d="M754 0h-279v279h279v-279zM741 457h-256v977h256v-977z" />
    <glyph glyph-name="quotedbl" unicode="&#x22;" 
d="M477 971h-149v483h229zM817 971h-147v483h229z" />
    <glyph glyph-name="numbersign" unicode="#" 
d="M874 590h177v-234h-207l-51 -356h-193l53 356h-184l-51 -356h-187l52 356h-168v234h198l31 201h-170v233h203l61 410h187l-62 -410h182l62 410h190l-63 -410h176v-233h-207zM528 791l-26 -201h182l29 201h-185z" />
    <glyph glyph-name="dollar" unicode="$" 
d="M737 -143h-248v149q-130 35 -210 138t-80 237v63h239v-63q0 -67 50 -112.5t122 -45.5q73 0 122.5 46.5t49.5 105.5q0 27 -7 51t-17 42.5t-29 38t-35 32t-44 29.5t-46.5 27t-52.5 28t-53 28q-89 53 -138 88q-66 46 -106.5 129.5t-40.5 188.5q0 123 77.5 225t198.5 145v150
h248v-147q275 -86 275 -406h-246q0 88 -43 137t-111 49q-61 0 -106 -40.5t-45 -96.5q0 -40 19.5 -74.5t53 -60.5t76 -50t90.5 -49.5t95.5 -53.5t90 -66t76 -83.5t53 -110t19.5 -140.5q0 -131 -84 -238q-81 -101 -213 -141v-149z" />
    <glyph glyph-name="percent" unicode="%" 
d="M690 1235v-168q0 -92 -69.5 -154.5t-169.5 -62.5q-101 0 -170 63q-70 64 -70 154v168q0 92 70 155.5t170 63.5q99 0 169 -63.5t70 -155.5zM518 1067v168q0 29 -21.5 45.5t-47 16.5t-47 -16.5t-21.5 -45.5v-168q0 -29 21.5 -45.5t47 -16.5t47 16.5t21.5 45.5zM1020 362
v-167q0 -92 -70 -155t-170 -63t-170 64q-69 63 -69 154v167q0 92 69.5 156t169.5 64q99 0 169.5 -64t70.5 -156zM848 195v167q0 29 -21.5 45.5t-47 16.5t-47 -16.5t-21.5 -45.5v-167q0 -29 21.5 -45.5t47 -16.5t47 16.5t21.5 45.5zM147 434v166l934 393v-159z" />
    <glyph glyph-name="ampersand" unicode="&#x26;" 
d="M236 1434h684v-205h-451l248 -561l108 -301v299h226v-297q0 -59 -27.5 -127.5t-69.5 -116.5l45 -98l-200 -88l-39 84q-64 -43 -170 -43h-12q-165 0 -285 114q-117 114 -117 277v295q0 191 168 292l-108 238v238zM586 184q57 0 88 25l-240 543q-33 -44 -33 -88v-295
q0 -76 54 -130.5t131 -54.5z" />
    <glyph glyph-name="quotesingle" unicode="'" 
d="M649 971h-149v483h229z" />
    <glyph glyph-name="parenleft" unicode="(" 
d="M842 -154v-237q-196 0 -328 117q-129 114 -129 280v1055q0 164 129 278q133 115 328 115v-240q-91 0 -149 -42.5t-58 -106.5v-1069q0 -66 57.5 -108t149.5 -42z" />
    <glyph glyph-name="parenright" unicode=")" 
d="M385 -389v237q92 0 149.5 42t57.5 108v1067q0 64 -58.5 106.5t-148.5 42.5v240q193 0 326 -115q131 -113 131 -278v-1053q0 -164 -131 -280q-132 -117 -326 -117z" />
    <glyph glyph-name="asterisk" unicode="*" 
d="M516 1272v162h193v-154l159 49l60 -176l-162 -61l100 -131l-157 -109l-95 125l-82 -125l-161 102l84 133l-156 50l61 184z" />
    <glyph glyph-name="plus" unicode="+" 
d="M494 707v331h237v-331h334v-236h-334v-334h-237v334h-328v236h328z" />
    <glyph glyph-name="comma" unicode="," 
d="M565 0h-90v279h279v-222l-95 -303h-165z" />
    <glyph glyph-name="hyphen" unicode="-" 
d="M330 684h569v-240h-569v240z" />
    <glyph glyph-name="period" unicode="." 
d="M754 0h-279v279h279v-279z" />
    <glyph glyph-name="slash" unicode="/" 
d="M379 -371h-240l697 1805h241z" />
    <glyph glyph-name="zero" unicode="0" 
d="M1024 1042v-651q0 -172 -121 -293q-118 -118 -291 -118q-172 0 -290 118q-119 119 -119 293v651q0 174 119 293t290 119q170 0 291 -121t121 -291zM768 373v688q0 67 -45 112.5t-111 45.5t-110.5 -45.5t-44.5 -112.5v-688q0 -68 45 -113t112 -45q66 0 110 45t44 113z" />
    <glyph glyph-name="one" unicode="1" 
d="M526 233v990l-274 -43v213l266 41h260v-1201h299v-233h-862v233h311z" />
    <glyph glyph-name="two" unicode="2" 
d="M465 1006h-246q0 206 119 325q120 123 293 123q178 0 291 -113q114 -114 114 -282q0 -71 -23 -136.5t-67 -124.5t-88.5 -104t-107.5 -98q-14 -12 -59 -50t-61.5 -53t-52 -48t-50.5 -52.5t-35 -48.5t-28 -55t-9 -53h575v-236h-833v164q0 128 56.5 245.5t147.5 202.5
q32 30 85.5 76.5t88.5 77t77.5 74t67.5 78t42.5 76.5t17.5 81q0 65 -43.5 104.5t-107.5 39.5q-72 0 -118 -59.5t-46 -153.5z" />
    <glyph glyph-name="three" unicode="3" 
d="M168 395v29h252l2 -49q1 -72 45 -111t108 -39q78 0 123 41.5t45 110.5v272q0 43 -29 74t-71 31h-192v192l188 252h-389v236h721v-193l-193 -260q103 -38 164.5 -124.5t61.5 -205.5v-272q0 -165 -121 -283q-119 -116 -295 -116q-188 0 -303 112q-117 114 -117 303z" />
    <glyph glyph-name="four" unicode="4" 
d="M717 281h-549v249l434 904h277l-441 -916h279v307h250v-307h108v-237h-108v-281h-250v281z" />
    <glyph glyph-name="five" unicode="5" 
d="M205 377v41h254v-43q0 -72 42 -115t109 -43q69 0 114.5 44.5t45.5 111.5v233q0 69 -42 110.5t-110 41.5q-56 0 -96 -34t-51 -81l-231 64l63 727h678v-236h-449l-20 -248q60 45 164 45q157 0 254.5 -105t97.5 -282v-229q0 -167 -121 -285q-120 -114 -295 -114
q-180 0 -293 110q-114 114 -114 287z" />
    <glyph glyph-name="six" unicode="6" 
d="M618 743q-69 0 -113 -43.5t-44 -111.5v-223q0 -64 45 -108t112 -44t110.5 44t43.5 108v223q0 68 -43.5 111.5t-110.5 43.5zM1012 1063h-248q0 66 -43.5 111t-106.5 45q-69 0 -111 -44.5t-42 -121.5v-142q70 64 192 64q162 0 269 -113q108 -111 108 -278v-209
q0 -166 -121 -281q-120 -114 -299 -114t-291 112q-114 114 -114 281v686q0 164 114 278q117 117 291 117q184 0 293 -108t109 -283z" />
    <glyph glyph-name="seven" unicode="7" 
d="M684 0h-256q0 205 61 440q61 236 142 457q83 219 98 301h-508v236h768v-185q0 -79 -49 -227q-52 -167 -104 -301q-54 -147 -105 -354q-47 -202 -47 -367z" />
    <glyph glyph-name="eight" unicode="8" 
d="M1006 1083v-82q0 -149 -97 -251q117 -111 117 -277v-100q0 -166 -119 -279q-117 -114 -284 -114h-17q-169 0 -289 114q-116 116 -116 281v98q0 165 118 277q-98 107 -98 254v79q0 155 111 263q114 108 272 108h19q159 0 270 -108q113 -107 113 -263zM768 367v104
q0 63 -45.5 107.5t-108.5 44.5t-109 -44.5t-46 -107.5v-104q0 -63 46 -106.5t113 -43.5q62 0 106 43.5t44 106.5zM752 991v86q0 60 -40 101t-100 41t-98.5 -40.5t-38.5 -101.5v-86q0 -56 38 -94.5t95 -38.5h17q54 0 90.5 38t36.5 95z" />
    <glyph glyph-name="nine" unicode="9" 
d="M770 846v223q0 63 -45.5 107.5t-112.5 44.5t-110 -44t-43 -108v-223q0 -68 43 -112t110 -44q68 0 113 44.5t45 111.5zM219 371h248q0 -66 43 -111t106 -45q69 0 111.5 44.5t42.5 121.5v141q-69 -63 -192 -63q-162 0 -269 110q-108 114 -108 281v209q0 168 118 280
q121 115 302 115q175 0 290 -115t115 -278v-686q0 -164 -117 -281q-114 -114 -288 -114q-184 0 -293 108t-109 283z" />
    <glyph glyph-name="colon" unicode=":" 
d="M754 0h-279v279h279v-279zM754 745h-279v279h279v-279z" />
    <glyph glyph-name="semicolon" unicode=";" 
d="M754 745h-279v279h279v-279zM565 0h-90v279h279v-222l-95 -303h-165z" />
    <glyph glyph-name="less" unicode="&#x3c;" 
d="M1061 100l-895 389v199l895 389v-264l-563 -225l563 -223v-265z" />
    <glyph glyph-name="equal" unicode="=" 
d="M164 907h901v-235h-901v235zM164 485h901v-235h-901v235z" />
    <glyph glyph-name="greater" unicode="&#x3e;" 
d="M166 1077l895 -389v-199l-895 -389v267l563 221l-563 223v266z" />
    <glyph glyph-name="question" unicode="?" 
d="M717 457h-258q4 117 35 207t77 137q20 21 64.5 62t66 63.5t41 63t19.5 85.5q0 60 -43 102t-105 42q-68 0 -110.5 -55t-42.5 -146h-256q0 202 117 319t292 117q176 0 293 -108t117 -283q0 -157 -102 -248q-6 -6 -35.5 -32t-40 -37t-35 -37.5t-35.5 -48.5t-26.5 -54
t-23 -69t-9.5 -80zM733 0h-289v281h289v-281z" />
    <glyph glyph-name="at" unicode="@" 
d="M676 698v-397q0 -58 30 -93.5t80 -35.5q48 0 80.5 37t32.5 92v397q0 56 -32 93.5t-79 37.5q-50 0 -81 -36.5t-31 -94.5zM911 0l-8 57l-18 -22q-14 -16 -57 -35.5t-87 -19.5q-115 0 -184.5 90t-69.5 239v383q0 149 69.5 239.5t184.5 90.5q45 0 84.5 -12.5t59.5 -28.5
l14 -14q0 126 -78 213q-77 86 -200 86q-122 0 -207 -88q-84 -87 -84 -211v-865q0 -124 82 -206q84 -84 202 -84h103v-181h-103q-193 0 -331 138q-136 139 -136 337v861q0 210 138 348q139 139 336 139q203 0 331 -137q129 -135 129 -350v-967h-170z" />
    <glyph glyph-name="A" unicode="A" 
d="M186 627l234 807h389l233 -807v-627h-241v426h-373v-426h-242v627zM451 666h327l-143 528h-41z" />
    <glyph glyph-name="B" unicode="B" 
d="M647 1194h-186v-324h186q44 0 76.5 30t32.5 71v123q0 41 -32.5 70.5t-76.5 29.5zM639 631h-178v-391h178q51 0 87 34.5t36 83.5v152q0 43 -35 82t-88 39zM213 0v1434h432q150 0 252 -99q102 -95 102 -237v-119q0 -57 -21.5 -113t-47.5 -84l-25 -26q17 -13 29 -27
q21 -17 47 -80q31 -67 31 -137v-154q0 -156 -111 -258q-109 -100 -262 -100h-426z" />
    <glyph glyph-name="C" unicode="C" 
d="M807 446h242v-61q0 -167 -123 -287q-121 -118 -297 -118t-297 118q-123 120 -123 285v670q0 162 123 282q125 119 295 119q88 0 159.5 -27t117.5 -69.5t77 -98.5t44 -111.5t13 -111.5h-245q0 77 -44.5 131t-119.5 54q-73 0 -120.5 -47t-47.5 -115v-682q0 -74 47.5 -119
t120.5 -45t125.5 47t52.5 125v61z" />
    <glyph glyph-name="D" unicode="D" 
d="M621 0h-408v1434h408q165 0 282 -117t117 -283v-635q0 -165 -117 -282t-282 -117zM766 389v653q0 63 -44.5 107.5t-107.5 44.5h-155v-954h155q63 0 107.5 43t44.5 106z" />
    <glyph glyph-name="E" unicode="E" 
d="M246 0v1434h731v-240h-488v-328h445v-237h-445v-389h502v-240h-745z" />
    <glyph glyph-name="F" unicode="F" 
d="M268 0v1434h738v-240h-496v-328h446v-237h-446v-629h-242z" />
    <glyph glyph-name="G" unicode="G" 
d="M621 543v231h417v-393q0 -165 -123 -285q-119 -116 -297 -116q-175 0 -296 118q-123 120 -123 285v670q0 162 123 282q125 119 294 119q87 0 159 -27t118 -70t78 -99.5t45.5 -113.5t13.5 -114h-244q0 77 -46.5 134t-121.5 57q-67 0 -117 -46.5t-50 -109.5v-694
q0 -63 50 -110.5t117 -47.5q65 0 119 45q58 46 58 113v172h-174z" />
    <glyph glyph-name="H" unicode="H" 
d="M784 872v562h244v-1434h-244v629h-340v-629h-243v1434h243v-562h340z" />
    <glyph glyph-name="I" unicode="I" 
d="M489 1204h-278v230h805v-230h-277v-975h277v-229h-805v229h278v975z" />
    <glyph glyph-name="J" unicode="J" 
d="M735 1204h-497v230h745v-1057q0 -163 -121 -281q-120 -114 -289 -114q-170 0 -290 114q-117 114 -117 281v110h242v-112q0 -67 48.5 -115.5t116.5 -48.5q69 0 115.5 48.5t46.5 117.5v827z" />
    <glyph glyph-name="K" unicode="K" 
d="M199 1434h245v-658l418 658h260l-438 -676l469 -758h-276l-433 737v-737h-245v1434z" />
    <glyph glyph-name="L" unicode="L" 
d="M281 0v1434h245v-1194h551v-240h-796z" />
    <glyph glyph-name="M" unicode="M" 
d="M881 1063l-7 2l-157 -416h-203l-162 416l-6 -2q19 -275 19 -713v-350h-230v1434h271l215 -566l206 566h267v-1434h-232v352q0 139 4 377l11 256z" />
    <glyph glyph-name="N" unicode="N" 
d="M1038 0h-219l-420 948l-6 -2q23 -250 23 -444v-502h-226v1434h218l421 -949l7 2q-23 235 -23 459v488h225v-1434z" />
    <glyph glyph-name="O" unicode="O" 
d="M1038 1053v-672q0 -165 -123 -285q-119 -116 -301 -116t-303 118q-123 120 -123 285v670q0 165 123 282q122 119 303 119q182 0 301 -119q123 -117 123 -282zM795 369v696q0 63 -54 110.5t-127 47.5t-126.5 -47.5t-53.5 -110.5v-694q0 -64 53.5 -112t126.5 -48t127 47.5
t54 110.5z" />
    <glyph glyph-name="P" unicode="P" 
d="M688 465h-184v-465h-244v1434h428q143 0 244 -101q102 -102 102 -246v-274q0 -148 -100 -248t-246 -100zM786 797v301q0 41 -29.5 68.5t-72.5 27.5h-180v-492h180q42 0 72 28t30 67z" />
    <glyph glyph-name="Q" unicode="Q" 
d="M1094 41l-150 -143l-125 133q-92 -51 -211 -51q-182 0 -303 118q-123 120 -123 285v670q0 165 123 282q122 119 303 119q182 0 301 -119q123 -117 123 -282v-672q0 -118 -63 -215zM788 369v696q0 63 -53.5 110.5t-126.5 47.5t-126.5 -47.5t-53.5 -110.5v-694
q0 -64 53.5 -112t126.5 -48q31 0 39 2l-108 117l137 133l110 -113q2 4 2 19z" />
    <glyph glyph-name="R" unicode="R" 
d="M1069 0h-270l-197 487h-131v-487h-246v1434h432q149 0 248 -99t99 -248v-256q0 -88 -43 -166.5t-117 -125.5zM754 823v275q0 38 -30 67t-71 29h-182v-467h182q41 0 71 29t30 67z" />
    <glyph glyph-name="S" unicode="S" 
d="M616 1221q-63 0 -109 -44t-46 -104q0 -107 203 -213q58 -28 102.5 -54t98.5 -70t89.5 -91.5t59 -116.5t22.5 -147q0 -163 -123 -283q-121 -118 -297 -118q-182 0 -301 116q-118 118 -118 289v61h241v-61q0 -78 51 -125t121 -47q77 0 124.5 45t47.5 109q0 140 -200 241
q-46 23 -72.5 37t-71 41t-72 50t-60.5 58.5t-51 72.5t-30.5 85.5t-11.5 102.5q0 170 117 284q121 115 286 115q187 0 293 -127q105 -126 105 -293h-246q0 82 -42 134.5t-110 52.5z" />
    <glyph glyph-name="T" unicode="T" 
d="M487 1194h-297v240h846v-240h-299v-1194h-250v1194z" />
    <glyph glyph-name="U" unicode="U" 
d="M795 1434h243v-1053q0 -165 -123 -285q-119 -116 -301 -116t-303 118q-123 120 -123 285v1051h244v-1063q0 -63 54.5 -111.5t127.5 -48.5t127 47.5t54 110.5v1065z" />
    <glyph glyph-name="V" unicode="V" 
d="M188 1434h240v-594l170 -613h33l170 613v594h241v-627l-243 -807h-369l-242 807v627z" />
    <glyph glyph-name="W" unicode="W" 
d="M850 223l22 611v600h236v-623l-76 -811h-323l-82 557h-27l-80 -557h-323l-78 811v623h235v-600l23 -611h31l90 580h231l90 -580h31z" />
    <glyph glyph-name="X" unicode="X" 
d="M162 1434h272l180 -422l181 422h272l-317 -686l346 -748h-275l-207 473l-208 -473h-275l346 748z" />
    <glyph glyph-name="Y" unicode="Y" 
d="M129 1434h270l215 -492l213 492h273l-361 -762v-672h-252v672z" />
    <glyph glyph-name="Z" unicode="Z" 
d="M1022 1434v-236l-528 -958h532v-240h-825v238l532 956h-502v240h791z" />
    <glyph glyph-name="bracketleft" unicode="[" 
d="M629 -133h223v-236h-467v1805h467v-236h-223v-1333z" />
    <glyph glyph-name="backslash" unicode="\" 
d="M139 1434h242l696 -1805h-239z" />
    <glyph glyph-name="bracketright" unicode="]" 
d="M842 -369h-467v236h223v1331h-223v236h467v-1803z" />
    <glyph glyph-name="asciicircum" unicode="^" 
d="M207 666l311 768h195l309 -768h-246l-162 442h-8l-153 -442h-246z" />
    <glyph glyph-name="underscore" unicode="_" 
d="M0 -307v198h1229v-198h-1229z" />
    <glyph glyph-name="grave" unicode="`" 
d="M649 1454l244 -317h-236l-323 317h315z" />
    <glyph glyph-name="a" unicode="a" 
d="M575 180q76 0 134 43q59 47 59 94v129l-190 -18q-59 -5 -98.5 -38t-39.5 -83q0 -55 37 -91t98 -36zM492 719h-240q0 115 98 219q97 106 291 106q171 0 271 -99t100 -259v-686h-224l-4 80l-10 -10q-9 -11 -16 -17q-24 -20 -84 -45q-62 -26 -142 -26q-140 0 -241 90
q-98 91 -98 231t106 221q112 85 272 97l197 16v43q0 75 -41 114.5t-104 39.5q-51 0 -87 -32t-44 -83z" />
    <glyph glyph-name="b" unicode="b" 
d="M446 0h-231v1434h256v-459q81 69 215 69q151 0 254 -100q107 -98 107 -252v-360q0 -146 -105 -248q-103 -100 -260 -100q-143 0 -231 88zM791 334v356q0 57 -45 100.5t-111 43.5q-69 0 -116.5 -44t-47.5 -106v-344q0 -58 48.5 -101.5t115.5 -43.5q66 0 111 41t45 98z" />
    <glyph glyph-name="c" unicode="c" 
d="M473 680v-346q0 -63 44 -102t112 -39q73 0 115 47t42 131h261q0 -179 -115 -285t-303 -106q-184 0 -299 100q-115 103 -115 262v336q0 160 117 262q116 104 299 104q185 0 296 -104.5t111 -280.5h-254q0 79 -42.5 125.5t-114.5 46.5q-68 0 -111 -42t-43 -109z" />
    <glyph glyph-name="d" unicode="d" 
d="M758 1434h256v-1434h-232l-4 72q-88 -88 -231 -88q-157 0 -260 100q-105 102 -105 248v360q0 153 105 252q106 100 256 100q54 0 108.5 -16.5t81.5 -36.5l25 -16v459zM438 690v-356q0 -57 45 -98t111 -41q67 0 115.5 43.5t48.5 101.5v344q0 62 -47.5 106t-116.5 44
q-66 0 -111 -43.5t-45 -100.5z" />
    <glyph glyph-name="e" unicode="e" 
d="M768 301h250q0 -143 -117 -231q-116 -88 -285 -88q-180 0 -299 104q-116 104 -116 254v338q0 156 116 260q115 106 297 106t299 -102t117 -260v-244h-571v-102q0 -62 44.5 -102.5t117.5 -40.5q70 0 108.5 29.5t38.5 78.5zM459 688v-55h317v55q0 61 -45.5 104.5
t-116.5 43.5q-66 0 -110.5 -43.5t-44.5 -104.5z" />
    <glyph glyph-name="f" unicode="f" 
d="M674 811v-811h-250v811h-231v213h231v72q0 152 108 254q107 104 263 104h24q68 0 137 -23t105 -51l31 -22l-127 -176q-65 59 -152 59h-12q-56 0 -91.5 -40.5t-35.5 -98.5v-78h368v-213h-368z" />
    <glyph glyph-name="g" unicode="g" 
d="M705 580v145q0 46 -36.5 77.5t-95.5 31.5q-54 0 -89 -32t-35 -77v-145q0 -45 35 -77t89 -32q59 0 95.5 31.5t36.5 77.5zM776 -27h-385q-35 0 -58.5 -23t-23.5 -56q0 -31 23.5 -51.5t58.5 -20.5h383q35 0 58.5 21t23.5 53q0 31 -24 54t-56 23zM1012 1147v-209
q-76 0 -115 -51q53 -77 53 -176v-123q0 -121 -96 -217q-96 -93 -238 -105v-102h203q112 0 193 -78q82 -76 82 -192q0 -117 -77.5 -190t-199.5 -73h-434q-116 0 -191 73.5t-75 189.5q0 115 80 192q81 78 198 78v141q-87 43 -139.5 120t-52.5 163v123q0 144 112 237
q116 96 269 96q66 0 139 -28q49 71 112 101t177 30z" />
    <glyph glyph-name="h" unicode="h" 
d="M1047 0h-252v668q0 71 -46 116t-116 45q-72 0 -125 -46.5t-53 -112.5v-670h-250v1434h248v-478l30 25q22 15 82 39q64 24 125 24q152 0 252 -106q105 -108 105 -262v-676z" />
    <glyph glyph-name="i" unicode="i" 
d="M571 811h-340v213h588v-811h303v-213h-905v213h354v598zM829 1171h-266v263h266v-263z" />
    <glyph glyph-name="j" unicode="j" 
d="M705 -37v848h-480v213h729v-1040q0 -171 -98.5 -272t-269.5 -101q-79 0 -155 23t-112 51l-34 22l127 176q69 -57 163 -57q130 0 130 137zM963 1171h-269v263h269v-263z" />
    <glyph glyph-name="k" unicode="k" 
d="M1133 0h-279l-365 522v-522h-247v1434h247v-883l336 473h279l-369 -492z" />
    <glyph glyph-name="l" unicode="l" 
d="M532 1221h-303v213h553v-1221h305v-213h-903v213h348v1008z" />
    <glyph glyph-name="m" unicode="m" 
d="M733 711v-711h-223v752q0 35 -20 57t-50 22q-44 0 -74 -35t-30 -85v-711h-223v1024h204l5 -88q33 38 100 74q49 26 101.5 26t86.5 -16.5t49 -38.5l13 -18q69 75 190 75q114 0 186 -82t72 -206v-750h-221v752q0 34 -22 56.5t-50 22.5q-46 0 -70 -32t-24 -88z" />
    <glyph glyph-name="n" unicode="n" 
d="M1047 0h-252v659q0 78 -46.5 124t-117.5 46q-69 0 -122.5 -50t-53.5 -113v-666h-250v1024h233l6 -84q19 19 33 29q27 23 84 47q67 28 129 28q154 0 254 -106q103 -109 103 -274v-664z" />
    <glyph glyph-name="o" unicode="o" 
d="M1030 694v-364q0 -148 -117 -250q-112 -100 -297 -100q-186 0 -301 100q-116 101 -116 250v364q0 149 116 250q115 100 301 100q185 0 297 -100q117 -102 117 -250zM772 326v370q0 57 -44 96t-114 39q-67 0 -113 -40t-46 -95v-370q0 -55 46.5 -94t114.5 -39t112 38.5
t44 94.5z" />
    <glyph glyph-name="p" unicode="p" 
d="M471 -369h-256v1393h231l5 -72q88 88 231 88q157 0 260 -100q105 -102 105 -248v-360q0 -153 -107 -254q-104 -98 -254 -98q-54 0 -108.5 16.5t-81.5 36.5l-25 16v-418zM791 334v356q0 57 -45 98t-111 41q-67 0 -115.5 -43.5t-48.5 -101.5v-344q0 -62 47.5 -106
t116.5 -44q66 0 111 43.5t45 100.5z" />
    <glyph glyph-name="q" unicode="q" 
d="M782 1024h232v-1393h-256v418q-81 -69 -215 -69q-149 0 -256 98q-105 102 -105 254v360q0 146 105 248q103 100 260 100q143 0 231 -88zM438 690v-356q0 -57 45 -100.5t111 -43.5q69 0 116.5 44t47.5 106v344q0 58 -48.5 101.5t-115.5 43.5q-66 0 -111 -41t-45 -98z" />
    <glyph glyph-name="r" unicode="r" 
d="M838 1042q156 0 235 -110q82 -107 82 -254h-242q0 63 -34 108t-84 45q-69 0 -119.5 -51.5t-50.5 -120.5v-446h413v-213h-870v213h207v811h235l6 -84q12 16 25 29q27 22 76 45q61 28 121 28z" />
    <glyph glyph-name="s" unicode="s" 
d="M997 707h-254q0 57 -36.5 93t-90.5 36q-52 0 -85 -26t-33 -60q0 -39 46.5 -68.5t131.5 -58.5q52 -15 91 -30t87.5 -42.5t79 -59.5t52 -81.5t20.5 -108.5q0 -135 -117 -229q-115 -92 -275 -92q-186 0 -292 100q-107 101 -107 239h256q0 -53 39 -91t100 -38q65 0 99 28.5
t34 70.5q0 33 -27.5 58.5t-71 44t-96 37.5t-105.5 44t-96.5 57t-71 83t-27.5 116q0 139 110 227t263 88q174 0 274 -100q102 -99 102 -237z" />
    <glyph glyph-name="t" unicode="t" 
d="M299 330v481h-176v213h176v268h244v-268h501v-213h-501v-463q0 -74 39.5 -114.5t111.5 -40.5q68 0 111 43t43 110h242v-18q0 -152 -108.5 -250t-291.5 -98q-184 0 -287.5 93t-103.5 257z" />
    <glyph glyph-name="u" unicode="u" 
d="M190 1024h252v-659q0 -78 46.5 -124t117.5 -46q69 0 122.5 50t53.5 113v666h250v-1024h-233l-6 84l-33 -31q-30 -22 -86 -45q-67 -28 -127 -28q-156 0 -256 106q-101 107 -101 274v664z" />
    <glyph glyph-name="v" unicode="v" 
d="M205 1024h252v-393l145 -438h21l147 438v393h250v-401l-225 -623h-363l-227 623v401z" />
    <glyph glyph-name="w" unicode="w" 
d="M825 221l39 418v385h221v-418l-94 -606h-297l-71 442h-17l-76 -442h-299l-90 606v418h221v-385l39 -418h19l92 424h205l90 -424h18z" />
    <glyph glyph-name="x" unicode="x" 
d="M172 1024h285l157 -279l166 279h277l-303 -500l311 -524h-279l-172 299l-172 -299h-280l313 524z" />
    <glyph glyph-name="y" unicode="y" 
d="M113 1024h280l230 -651l225 651h274l-538 -1393h-265l166 424z" />
    <glyph glyph-name="z" unicode="z" 
d="M1004 1024v-207l-484 -604h494v-213h-799v203l487 608h-458v213h760z" />
    <glyph glyph-name="braceleft" unicode="{" 
d="M893 -152v-237q-191 0 -324 115t-133 278v334q0 35 -28.5 57.5t-71.5 22.5v231q42 0 71 23.5t29 56.5v334q0 159 133 274t324 115v-240q-87 0 -148 -44.5t-61 -106.5v-359q0 -100 -76 -170q76 -70 76 -170v-360q0 -66 60.5 -110t148.5 -44z" />
    <glyph glyph-name="bar" unicode="|" 
d="M735 -369h-243v1803h243v-1803z" />
    <glyph glyph-name="braceright" unicode="}" 
d="M336 -389v237q90 0 149.5 44t59.5 110v360q0 100 76 170q-76 79 -76 170v359q0 62 -60 106.5t-149 44.5v240q190 0 323 -115q134 -116 134 -274v-334q0 -33 29 -56.5t71 -23.5v-231q-43 0 -71.5 -22.5t-28.5 -57.5v-334q0 -162 -134 -278q-133 -115 -323 -115z" />
    <glyph glyph-name="asciitilde" unicode="~" 
d="M457 502q-70 0 -70 -74h-237v35q0 124 66 198t187 74q89 0 211 -43q125 -41 158 -41q70 0 70 74h237v-35q0 -124 -66.5 -198t-187.5 -74q-85 0 -213 41q-125 43 -155 43z" />
    <glyph glyph-name="exclamdown" unicode="&#xa1;" 
d="M754 743h-279v279h279v-279zM741 -412h-256v981h256v-981z" />
    <glyph glyph-name="cent" unicode="&#xa2;" 
d="M739 -147h-245v141q-127 31 -204 123.5t-77 214.5v364q0 119 77 210.5t204 123.5v146h245v-150q125 -27 193.5 -121t68.5 -246h-243q0 76 -39.5 123t-104.5 47q-61 0 -105 -39.5t-44 -93.5v-372q0 -54 44 -92.5t105 -38.5q72 0 110 46.5t38 131.5h254
q0 -138 -75.5 -238.5t-201.5 -136.5v-143z" />
    <glyph glyph-name="sterling" unicode="&#xa3;" 
d="M172 788h129v265q0 173 109 288q110 113 280 113q200 0 295 -123q94 -122 94 -287h-241q0 78 -40 127.5t-106 49.5q-65 0 -104 -42.5t-39 -109.5v-281h262v-235h-262v-315h510v-238h-879v238h121v315h-129v235z" />
    <glyph glyph-name="currency" unicode="&#xa4;" 
d="M1124 221l-168 -168l-129 123q-103 -59 -209 -59q-117 0 -219 57l-123 -123l-172 170l125 123q-53 95 -53 203q0 133 53 225l-125 127l175 172l122 -125q103 53 205 53q116 0 221 -51l127 119l170 -168l-120 -127q53 -103 53 -213q0 -101 -53 -213zM416 559
q0 -80 59 -139.5t143 -59.5q80 0 137.5 58.5t57.5 140.5q0 80 -56 139.5t-134 59.5q-87 0 -147 -57.5t-60 -141.5z" />
    <glyph glyph-name="yen" unicode="&#xa5;" 
d="M1059 496v-228h-320v-268h-250v268h-319v228h319v135h-319v227h231l-274 576h276l211 -492l211 492h277l-275 -576h232v-227h-320v-135h320z" />
    <glyph glyph-name="brokenbar" unicode="&#xa6;" 
d="M735 672h-243v762h243v-762zM735 -369h-243v756h243v-756z" />
    <glyph glyph-name="section" unicode="&#xa7;" 
d="M797 637q0 50 -52 80q-35 23 -147 71q-108 46 -152 76q-14 -17 -14 -69q0 -42 51 -76q46 -30 148 -74q99 -42 147 -74q19 16 19 66zM610 -20q-190 0 -286.5 99t-96.5 261h248q0 -56 40.5 -97.5t96.5 -41.5q57 0 83 25.5t26 62.5q0 32 -49 62.5t-142 68.5q-52 19 -96 40
t-93 53.5t-82.5 69t-55.5 87.5t-21 108q0 142 94 240q-30 52 -30 139q0 133 98.5 215t278.5 82q187 0 281.5 -99t94.5 -261h-247q0 56 -39 97.5t-95 41.5q-55 0 -81.5 -25.5t-26.5 -62.5q0 -32 49 -64t139 -69q353 -126 351 -355q0 -138 -97 -243q35 -65 35 -135
q0 -131 -100.5 -215t-276.5 -84z" />
    <glyph glyph-name="dieresis" unicode="&#xa8;" 
d="M522 1184h-231v237h231v-237zM938 1184h-233v237h233v-237z" />
    <glyph glyph-name="copyright" unicode="&#xa9;" 
d="M532 854v-262q0 -35 23.5 -61.5t62.5 -26.5q53 0 71 26.5t18 90.5h163v-31q0 -110 -69 -183t-178 -73q-117 0 -190 71t-73 181v274q0 108 73 180t190 72q100 0 169.5 -71t69.5 -175v-45h-164q0 119 -80 119q-39 0 -62.5 -26t-23.5 -60zM989 496v442q0 147 -110 248
q-108 102 -263 102q-152 0 -266 -102q-110 -101 -110 -248v-442q0 -147 110 -248q115 -103 266 -103q154 0 263 103q110 101 110 248zM1161 924v-416q0 -221 -160 -375q-156 -153 -385 -153q-228 0 -387 153t-159 375v416q0 221 159 374q160 154 387 154q228 0 385 -154
q160 -154 160 -374z" />
    <glyph glyph-name="ordfeminine" unicode="&#xaa;" 
d="M631 1327q-96 0 -111 -86h-170q0 105 76.5 160t204.5 55q137 0 216 -65t79 -170v-486h-162l-4 60q-78 -72 -197 -72t-191.5 62.5t-72.5 158.5t82.5 160t210.5 76l164 14v20q0 45 -35 79t-90 34zM596 856q59 0 109.5 33t50.5 69v107l-156 -14q-133 -12 -133 -109
q0 -36 33 -61t96 -25zM319 467v156h607v-156h-607z" />
    <glyph glyph-name="guillemotleft" unicode="&#xab;" 
d="M369 588l266 -342h-295l-264 342l264 344h291zM883 588l270 -342h-297l-264 342l264 344h291z" />
    <glyph glyph-name="logicalnot" unicode="&#xac;" 
d="M164 883h901v-609h-236v373h-665v236z" />
    <glyph glyph-name="uni00AD" unicode="&#xad;" 
 />
    <glyph glyph-name="registered" unicode="&#xae;" 
d="M700 860v107q0 21 -16 36t-39 15h-102v-207h102q23 0 39 14.5t16 34.5zM971 631v336q0 136 -105 235q-104 98 -250 98q-147 0 -254 -98q-104 -98 -104 -235v-336q0 -138 104 -236q107 -98 254 -98q146 0 250 98q105 99 105 236zM1135 952v-309q0 -209 -152 -358
q-152 -146 -367 -146q-216 0 -368 146q-152 149 -152 358v309q0 211 152 357q150 147 368 147q217 0 367 -147q152 -146 152 -357zM893 481h-168l-100 207h-76v-207h-154v662h262q84 0 140.5 -51.5t56.5 -126.5v-107q0 -38 -19.5 -73.5t-43.5 -55.5l-23 -14z" />
    <glyph glyph-name="overscore" unicode="&#xaf;" 
d="M909 1176h-592v206h592v-206z" />
    <glyph glyph-name="degree" unicode="&#xb0;" 
d="M375 881q-101 101 -101 239q0 139 101 240q100 100 239 100q140 0 240 -100t100 -240q0 -139 -100 -239q-101 -101 -240 -101q-138 0 -239 101zM612 991q54 0 92.5 37.5t38.5 91.5t-38.5 91.5t-92.5 37.5q-52 0 -89.5 -37.5t-37.5 -91.5t37.5 -91.5t89.5 -37.5z" />
    <glyph glyph-name="plusminus" unicode="&#xb1;" 
d="M496 801v241h235v-241h334v-236h-334v-239h-235v239h-332v236h332zM164 236h901v-236h-901v236z" />
    <glyph glyph-name="twosuperior" unicode="&#xb2;" 
d="M541 1192h-172q0 114 67 188t182 74q110 0 180 -64t70 -167q0 -62 -37 -124.5t-92 -109.5q-47 -39 -71.5 -60.5t-55.5 -54.5t-39 -55h291v-172h-502v98q0 74 46 150.5t110 132.5q67 56 112.5 109.5t45.5 89.5q0 23 -17 37t-41 14q-37 0 -57 -24.5t-20 -61.5z" />
    <glyph glyph-name="threesuperior" unicode="&#xb3;" 
d="M836 1434v-142l-105 -123q56 -14 91.5 -62.5t35.5 -111.5v-135q0 -91 -72 -160q-71 -65 -172 -65q-110 0 -178.5 74.5t-68.5 191.5h165q0 -90 74 -90q25 0 44.5 15.5t19.5 35.5v119q0 51 -49 51h-89v109l113 135h-246v158h437z" />
    <glyph glyph-name="acute" unicode="&#xb4;" 
d="M893 1454l-324 -317h-235l244 317h315z" />
    <glyph glyph-name="mu" unicode="&#xb5;" 
d="M422 -369h-248v1393h248v-692q0 -54 44.5 -95.5t104.5 -41.5t109 40t49 89v700h248v-766q0 -19 15.5 -36t35.5 -17h27v-215h-60q-118 0 -196 90q-115 -100 -248 -100q-78 0 -129 32v-381z" />
    <glyph glyph-name="paragraph" unicode="&#xb6;" 
d="M709 -369h-254v1000q-143 27 -244 137q-100 109 -100 256q0 172 122 291t295 119h476v-1803h-193v1571h-102v-1571z" />
    <glyph glyph-name="middot" unicode="&#xb7;" 
d="M754 449h-279v278h279v-278z" />
    <glyph glyph-name="cedilla" unicode="&#xb8;" 
d="M604 -389h-166v129h117q23 0 37 13t14 36q0 19 -14 33t-37 14h-96v164h174v-51q66 -6 112 -54t46 -114q0 -73 -53.5 -121.5t-133.5 -48.5z" />
    <glyph glyph-name="onesuperior" unicode="&#xb9;" 
d="M446 1239v166l162 29h174v-787h-194v613z" />
    <glyph glyph-name="ordmasculine" unicode="&#xba;" 
d="M922 1194v-209q0 -110 -88 -186q-85 -76 -211 -76q-125 0 -215 78q-91 79 -91 184v209q0 105 91 184q90 78 215 78q124 0 211 -78q88 -76 88 -184zM762 995v193q0 52 -41 91.5t-100 39.5q-57 0 -96.5 -38.5t-39.5 -92.5v-193q0 -56 39 -96.5t99 -40.5q57 0 98 41t41 96z
M319 467v156h603v-156h-603z" />
    <glyph glyph-name="guillemotright" unicode="&#xbb;" 
d="M1153 588l-264 -342h-295l266 342l-262 344h291zM637 588l-264 -342h-297l270 342l-264 344h291z" />
    <glyph glyph-name="onequarter" unicode="&#xbc;" 
d="M932 143h-332v144l240 497h194l-225 -481h123v131h190v-131h70v-160h-70v-143h-190v143zM301 0h-162l711 1432h160zM31 1239v166l162 29h174v-787h-195v613z" />
    <glyph glyph-name="onehalf" unicode="&#xbd;" 
d="M293 0h-162l711 1432h159zM31 1239v166l162 29h174v-787h-195v613zM864 545h-172q0 114 67.5 188t182.5 74q110 0 180 -64.5t70 -167.5q0 -62 -37 -124t-92 -109q-47 -39 -71.5 -60.5t-55.5 -54.5t-39 -55h291v-172h-502v98q0 74 46 150.5t110 132.5q157 130 157 199
q0 23 -16.5 37t-40.5 14q-37 0 -57.5 -24.5t-20.5 -61.5z" />
    <glyph glyph-name="threequarters" unicode="&#xbe;" 
d="M944 143h-332v144l240 497h195l-226 -481h123v131h191v-131h69v-160h-69v-143h-191v143zM356 0h-161l710 1432h160zM502 1434v-142l-105 -123q56 -14 91.5 -62.5t35.5 -111.5v-135q0 -92 -71 -160q-71 -65 -172 -65q-110 0 -179 74.5t-69 191.5h166q0 -90 73 -90
q25 0 44.5 15.5t19.5 35.5v119q0 51 -49 51h-88v109l112 135h-245v158h436z" />
    <glyph glyph-name="questiondown" unicode="&#xbf;" 
d="M512 565h258q-4 -117 -36 -206t-79 -140q-19 -20 -62.5 -60t-65 -63t-41 -63.5t-19.5 -85.5q0 -60 43 -102t104 -42q68 0 111 55t43 146h256q0 -202 -117 -319t-293 -117q-175 0 -292 108t-117 283q0 157 102 248q6 6 35.5 32t40 37t35 37.5t35.5 48.5t26.5 54t23 69
t9.5 80zM496 1022h288v-281h-288v281z" />
    <glyph glyph-name="Agrave" unicode="&#xc0;" 
d="M186 627l234 807h389l233 -807v-627h-241v426h-373v-426h-242v627zM451 666h327l-143 528h-41zM565 1864l244 -318h-236l-323 318h315z" />
    <glyph glyph-name="Aacute" unicode="&#xc1;" 
d="M186 627l234 807h389l233 -807v-627h-241v426h-373v-426h-242v627zM451 666h327l-143 528h-41zM1014 1864l-324 -318h-235l243 318h316z" />
    <glyph glyph-name="Acircumflex" unicode="&#xc2;" 
d="M186 627l234 807h389l233 -807v-627h-241v426h-373v-426h-242v627zM451 666h327l-143 528h-41zM614 1679l-118 -133h-260l270 318h219l266 -318h-256z" />
    <glyph glyph-name="Atilde" unicode="&#xc3;" 
d="M186 627l234 807h389l233 -807v-627h-241v426h-373v-426h-242v627zM451 666h327l-143 528h-41zM467 1544h-219q0 116 61 195q61 82 156 82q55 0 129 -39q75 -37 104 -37q26 0 44 19.5t18 43.5h219q0 -114 -64 -196q-62 -80 -153 -80q-56 0 -131 37q-74 39 -103 39
q-25 0 -42 -19t-19 -45z" />
    <glyph glyph-name="Adieresis" unicode="&#xc4;" 
d="M186 627l234 807h389l233 -807v-627h-241v426h-373v-426h-242v627zM451 666h327l-143 528h-41zM522 1593h-231v238h231v-238zM938 1593h-233v238h233v-238z" />
    <glyph glyph-name="Aring" unicode="&#xc5;" 
d="M186 627l234 807h389l233 -807v-627h-241v426h-373v-426h-242v627zM451 666h327l-143 528h-41zM616 1935q110 0 179 -56.5t69 -152.5q0 -93 -69.5 -150.5t-178.5 -57.5q-112 0 -181.5 56.5t-69.5 151.5q0 96 69.5 152.5t181.5 56.5zM616 1651q35 0 58.5 22.5t23.5 55.5
q0 31 -24 55t-58 24q-53 0 -75 -39t0 -78.5t75 -39.5z" />
    <glyph glyph-name="AE" unicode="&#xc6;" 
d="M76 627l225 807h860v-240h-344v-326h299v-239h-299v-389h359v-240h-598v426h-261v-426h-241v627zM578 1194h-109l-133 -532h242v532z" />
    <glyph glyph-name="Ccedilla" unicode="&#xc7;" 
d="M807 446h242v-61q0 -143 -97 -260q-93 -109 -243 -137v-39q66 -6 111.5 -54t45.5 -114q0 -73 -53 -121.5t-133 -48.5h-166v129h117q23 0 37 13t14 36q0 19 -14 33t-37 14h-96v154q-143 30 -234 141q-92 112 -92 252v670q0 162 123 282q125 119 295 119q88 0 159.5 -27
t117.5 -69.5t77 -98.5t44 -111.5t13 -111.5h-245q0 77 -44.5 131t-119.5 54q-73 0 -120.5 -47t-47.5 -115v-682q0 -74 47.5 -119t120.5 -45t125.5 47t52.5 125v61z" />
    <glyph glyph-name="Egrave" unicode="&#xc8;" 
d="M246 0v1434h731v-240h-488v-328h445v-237h-445v-389h502v-240h-745zM594 1864l244 -318h-236l-323 318h315z" />
    <glyph glyph-name="Eacute" unicode="&#xc9;" 
d="M246 0v1434h731v-240h-488v-328h445v-237h-445v-389h502v-240h-745zM989 1864l-323 -318h-236l244 318h315z" />
    <glyph glyph-name="Ecircumflex" unicode="&#xca;" 
d="M246 0v1434h731v-240h-488v-328h445v-237h-445v-389h502v-240h-745zM631 1679l-119 -133h-260l270 318h219l267 -318h-256z" />
    <glyph glyph-name="Edieresis" unicode="&#xcb;" 
d="M246 0v1434h731v-240h-488v-328h445v-237h-445v-389h502v-240h-745zM532 1593h-231v238h231v-238zM948 1593h-233v238h233v-238z" />
    <glyph glyph-name="Igrave" unicode="&#xcc;" 
d="M489 1204h-278v230h805v-230h-277v-975h277v-229h-805v229h278v975zM555 1864l244 -318h-236l-323 318h315z" />
    <glyph glyph-name="Iacute" unicode="&#xcd;" 
d="M489 1204h-278v230h805v-230h-277v-975h277v-229h-805v229h278v975zM1018 1864l-324 -318h-235l243 318h316z" />
    <glyph glyph-name="Icircumflex" unicode="&#xce;" 
d="M489 1204h-278v230h805v-230h-277v-975h277v-229h-805v229h278v975zM614 1679l-118 -133h-260l270 318h219l266 -318h-256z" />
    <glyph glyph-name="Idieresis" unicode="&#xcf;" 
d="M489 1204h-278v230h805v-230h-277v-975h277v-229h-805v229h278v975zM522 1593h-231v238h231v-238zM938 1593h-233v238h233v-238z" />
    <glyph glyph-name="Eth" unicode="&#xd0;" 
d="M256 635h-125v225h125v574h408q165 0 282 -117t117 -283v-635q0 -165 -117 -282t-282 -117h-408v635zM809 389v653q0 63 -44.5 107.5t-107.5 44.5h-155v-334h166v-225h-166v-395h155q63 0 107.5 43t44.5 106z" />
    <glyph glyph-name="Ntilde" unicode="&#xd1;" 
d="M1038 0h-219l-420 948l-6 -2q23 -250 23 -444v-502h-226v1434h218l421 -949l7 2q-23 235 -23 459v488h225v-1434zM467 1544h-219q0 116 61 195q61 82 156 82q55 0 129 -39q75 -37 104 -37q26 0 44 19.5t18 43.5h219q0 -114 -64 -196q-62 -80 -153 -80q-56 0 -131 37
q-74 39 -103 39q-25 0 -42 -19t-19 -45z" />
    <glyph glyph-name="Ograve" unicode="&#xd2;" 
d="M1038 1053v-672q0 -165 -123 -285q-119 -116 -301 -116t-303 118q-123 120 -123 285v670q0 165 123 282q122 119 303 119q182 0 301 -119q123 -117 123 -282zM795 369v696q0 63 -54 110.5t-127 47.5t-126.5 -47.5t-53.5 -110.5v-694q0 -64 53.5 -112t126.5 -48t127 47.5
t54 110.5zM565 1864l244 -318h-236l-323 318h315z" />
    <glyph glyph-name="Oacute" unicode="&#xd3;" 
d="M1038 1053v-672q0 -165 -123 -285q-119 -116 -301 -116t-303 118q-123 120 -123 285v670q0 165 123 282q122 119 303 119q182 0 301 -119q123 -117 123 -282zM795 369v696q0 63 -54 110.5t-127 47.5t-126.5 -47.5t-53.5 -110.5v-694q0 -64 53.5 -112t126.5 -48t127 47.5
t54 110.5zM1012 1864l-324 -318h-235l243 318h316z" />
    <glyph glyph-name="Ocircumflex" unicode="&#xd4;" 
d="M1038 1053v-672q0 -165 -123 -285q-119 -116 -301 -116t-303 118q-123 120 -123 285v670q0 165 123 282q122 119 303 119q182 0 301 -119q123 -117 123 -282zM795 369v696q0 63 -54 110.5t-127 47.5t-126.5 -47.5t-53.5 -110.5v-694q0 -64 53.5 -112t126.5 -48t127 47.5
t54 110.5zM614 1679l-118 -133h-260l270 318h219l266 -318h-256z" />
    <glyph glyph-name="Otilde" unicode="&#xd5;" 
d="M1038 1053v-672q0 -165 -123 -285q-119 -116 -301 -116t-303 118q-123 120 -123 285v670q0 165 123 282q122 119 303 119q182 0 301 -119q123 -117 123 -282zM795 369v696q0 63 -54 110.5t-127 47.5t-126.5 -47.5t-53.5 -110.5v-694q0 -64 53.5 -112t126.5 -48t127 47.5
t54 110.5zM467 1544h-219q0 116 61 195q61 82 156 82q55 0 129 -39q75 -37 104 -37q26 0 44 19.5t18 43.5h219q0 -114 -64 -196q-62 -80 -153 -80q-56 0 -131 37q-74 39 -103 39q-25 0 -42 -19t-19 -45z" />
    <glyph glyph-name="Odieresis" unicode="&#xd6;" 
d="M1038 1053v-672q0 -165 -123 -285q-119 -116 -301 -116t-303 118q-123 120 -123 285v670q0 165 123 282q122 119 303 119q182 0 301 -119q123 -117 123 -282zM795 369v696q0 63 -54 110.5t-127 47.5t-126.5 -47.5t-53.5 -110.5v-694q0 -64 53.5 -112t126.5 -48t127 47.5
t54 110.5zM522 1593h-231v238h231v-238zM938 1593h-233v238h233v-238z" />
    <glyph glyph-name="multiply" unicode="&#xd7;" 
d="M442 590l-256 258l170 170l258 -256l256 256l172 -172l-256 -258l254 -256l-170 -172l-256 258l-256 -254l-172 168z" />
    <glyph glyph-name="Oslash" unicode="&#xd8;" 
d="M883 1368l65 117l160 -92l-100 -172q41 -77 41 -168v-672q0 -164 -127 -285q-125 -116 -308 -116q-148 0 -272 86l-74 -127l-159 92l106 182q-41 77 -41 170v670q0 165 129 282q128 119 311 119q148 0 269 -86zM807 369v528l-55 -125l-289 -498q59 -65 151 -65
q75 0 134 48.5t59 111.5zM418 1065v-528l53 118l291 506q-58 64 -148 64q-75 0 -135.5 -48.5t-60.5 -111.5z" />
    <glyph glyph-name="Ugrave" unicode="&#xd9;" 
d="M795 1434h243v-1053q0 -165 -123 -285q-119 -116 -301 -116t-303 118q-123 120 -123 285v1051h244v-1063q0 -63 54.5 -111.5t127.5 -48.5t127 47.5t54 110.5v1065zM563 1864l244 -318h-236l-323 318h315z" />
    <glyph glyph-name="Uacute" unicode="&#xda;" 
d="M795 1434h243v-1053q0 -165 -123 -285q-119 -116 -301 -116t-303 118q-123 120 -123 285v1051h244v-1063q0 -63 54.5 -111.5t127.5 -48.5t127 47.5t54 110.5v1065zM999 1864l-323 -318h-236l244 318h315z" />
    <glyph glyph-name="Ucircumflex" unicode="&#xdb;" 
d="M795 1434h243v-1053q0 -165 -123 -285q-119 -116 -301 -116t-303 118q-123 120 -123 285v1051h244v-1063q0 -63 54.5 -111.5t127.5 -48.5t127 47.5t54 110.5v1065zM614 1679l-118 -133h-260l270 318h219l266 -318h-256z" />
    <glyph glyph-name="Udieresis" unicode="&#xdc;" 
d="M795 1434h243v-1053q0 -165 -123 -285q-119 -116 -301 -116t-303 118q-123 120 -123 285v1051h244v-1063q0 -63 54.5 -111.5t127.5 -48.5t127 47.5t54 110.5v1065zM522 1593h-231v238h231v-238zM938 1593h-233v238h233v-238z" />
    <glyph glyph-name="Yacute" unicode="&#xdd;" 
d="M129 1434h270l215 -492l213 492h273l-361 -762v-672h-252v672zM969 1864l-324 -318h-235l243 318h316z" />
    <glyph glyph-name="Thorn" unicode="&#xde;" 
d="M260 1434h246v-193h182q144 0 244 -100q102 -102 102 -246v-274q0 -148 -100 -248q-101 -101 -246 -101h-182v-272h-246v1434zM782 604v301q0 41 -29.5 68.5t-72.5 27.5h-174v-491h174q42 0 72 27.5t30 66.5z" />
    <glyph glyph-name="germandbls" unicode="&#xdf;" 
d="M410 1036v-1036h-242v1038q0 178 119 297t327 119q177 0 299 -119q125 -116 125 -286v-113q-39 -8 -69 -18q-131 -39 -131 -125q0 -71 157 -187q65 -48 111.5 -130.5t46.5 -170.5q0 -138 -96 -231q-95 -92 -236 -92q-150 0 -238.5 90.5t-88.5 232.5v21h225
q-2 -86 61 -113q49 -21 95 7q44 26 40 75q0 35 -24 70.5t-60 65t-78.5 68.5t-78.5 78.5t-60 99t-24 126.5q0 95 56 165.5t149 100.5q-11 75 -62 122.5t-133 47.5q-84 0 -137 -54t-53 -149z" />
    <glyph glyph-name="agrave" unicode="&#xe0;" 
d="M575 180q76 0 134 43q59 47 59 94v129l-190 -18q-59 -5 -98.5 -38t-39.5 -83q0 -55 37 -91t98 -36zM492 719h-240q0 115 98 219q97 106 291 106q171 0 271 -99t100 -259v-686h-224l-4 80l-10 -10q-9 -11 -16 -17q-24 -20 -84 -45q-62 -26 -142 -26q-140 0 -241 90
q-98 91 -98 231t106 221q112 85 272 97l197 16v43q0 75 -41 114.5t-104 39.5q-51 0 -87 -32t-44 -83zM565 1454l244 -317h-236l-323 317h315z" />
    <glyph glyph-name="aacute" unicode="&#xe1;" 
d="M575 180q76 0 134 43q59 47 59 94v129l-190 -18q-59 -5 -98.5 -38t-39.5 -83q0 -55 37 -91t98 -36zM492 719h-240q0 115 98 219q97 106 291 106q171 0 271 -99t100 -259v-686h-224l-4 80l-10 -10q-9 -11 -16 -17q-24 -20 -84 -45q-62 -26 -142 -26q-140 0 -241 90
q-98 91 -98 231t106 221q112 85 272 97l197 16v43q0 75 -41 114.5t-104 39.5q-51 0 -87 -32t-44 -83zM1044 1454l-323 -317h-236l244 317h315z" />
    <glyph glyph-name="acircumflex" unicode="&#xe2;" 
d="M575 180q76 0 134 43q59 47 59 94v129l-190 -18q-59 -5 -98.5 -38t-39.5 -83q0 -55 37 -91t98 -36zM492 719h-240q0 115 98 219q97 106 291 106q171 0 271 -99t100 -259v-686h-224l-4 80l-10 -10q-9 -11 -16 -17q-24 -20 -84 -45q-62 -26 -142 -26q-140 0 -241 90
q-98 91 -98 231t106 221q112 85 272 97l197 16v43q0 75 -41 114.5t-104 39.5q-51 0 -87 -32t-44 -83zM643 1270l-119 -133h-260l271 317h219l266 -317h-256z" />
    <glyph glyph-name="atilde" unicode="&#xe3;" 
d="M575 180q76 0 134 43q59 47 59 94v129l-190 -18q-59 -5 -98.5 -38t-39.5 -83q0 -55 37 -91t98 -36zM492 719h-240q0 115 98 219q97 106 291 106q171 0 271 -99t100 -259v-686h-224l-4 80l-10 -10q-9 -11 -16 -17q-24 -20 -84 -45q-62 -26 -142 -26q-140 0 -241 90
q-98 91 -98 231t106 221q112 85 272 97l197 16v43q0 75 -41 114.5t-104 39.5q-51 0 -87 -32t-44 -83zM496 1135h-220q0 114 62 194q61 82 156 82q55 0 129 -39q75 -37 104 -37q25 0 43 20t18 44h220q0 -115 -64 -197q-62 -80 -153 -80q-57 0 -132 37q-74 39 -102 39
q-25 0 -42 -18.5t-19 -44.5z" />
    <glyph glyph-name="adieresis" unicode="&#xe4;" 
d="M575 180q76 0 134 43q59 47 59 94v129l-190 -18q-59 -5 -98.5 -38t-39.5 -83q0 -55 37 -91t98 -36zM492 719h-240q0 115 98 219q97 106 291 106q171 0 271 -99t100 -259v-686h-224l-4 80l-10 -10q-9 -11 -16 -17q-24 -20 -84 -45q-62 -26 -142 -26q-140 0 -241 90
q-98 91 -98 231t106 221q112 85 272 97l197 16v43q0 75 -41 114.5t-104 39.5q-51 0 -87 -32t-44 -83zM553 1184h-231v237h231v-237zM969 1184h-234v237h234v-237z" />
    <glyph glyph-name="aring" unicode="&#xe5;" 
d="M575 180q76 0 134 43q59 47 59 94v129l-190 -18q-59 -5 -98.5 -38t-39.5 -83q0 -55 37 -91t98 -36zM492 719h-240q0 115 98 219q97 106 291 106q171 0 271 -99t100 -259v-686h-224l-4 80l-10 -10q-9 -11 -16 -17q-24 -20 -84 -45q-62 -26 -142 -26q-140 0 -241 90
q-98 91 -98 231t106 221q112 85 272 97l197 16v43q0 75 -41 114.5t-104 39.5q-51 0 -87 -32t-44 -83zM649 1526q110 0 179 -56.5t69 -152.5q0 -93 -69.5 -151t-178.5 -58q-112 0 -182 57t-70 152t70 152t182 57zM649 1241q35 0 58.5 22.5t23.5 55.5q0 32 -24 56t-58 24
q-53 0 -75 -39.5t0 -79t75 -39.5z" />
    <glyph glyph-name="ae" unicode="&#xe6;" 
d="M952 295h215q0 -139 -83.5 -227t-233.5 -88q-73 0 -134.5 25.5t-84.5 55.5l-21 29l-24 -31q-23 -25 -88 -52t-136 -27q-131 0 -219 94t-88 245q0 141 99 226q98 88 231 88h131v65q0 61 -28.5 98.5t-71.5 37.5q-42 0 -72.5 -28t-30.5 -71h-213q0 142 89 224.5t227 82.5
q132 0 217 -79q94 79 219 79q143 0 230 -97.5t87 -260.5v-256h-436v-100q0 -62 29.5 -98.5t85.5 -36.5q50 0 77 28t27 74zM377 190q62 0 100.5 35t38.5 86v117h-123q-54 0 -88.5 -34.5t-34.5 -88.5q0 -50 29 -82.5t78 -32.5zM848 831q-48 0 -81.5 -34t-33.5 -88v-76h221v67
q0 60 -30 95.5t-76 35.5z" />
    <glyph glyph-name="ccedilla" unicode="&#xe7;" 
d="M473 680v-346q0 -63 44 -102t112 -39q73 0 115 47t42 131h261q0 -165 -97.5 -268.5t-263.5 -120.5v-33q66 -6 112 -54t46 -114q0 -73 -53.5 -121.5t-133.5 -48.5h-165v129h116q23 0 37 13t14 36q0 19 -14 33t-37 14h-96v156q-137 29 -217 123t-80 227v336q0 160 117 262
q116 104 299 104q185 0 296 -104.5t111 -280.5h-254q0 79 -42.5 125.5t-114.5 46.5q-68 0 -111 -42t-43 -109z" />
    <glyph glyph-name="egrave" unicode="&#xe8;" 
d="M768 301h250q0 -143 -117 -231q-116 -88 -285 -88q-180 0 -299 104q-116 104 -116 254v338q0 156 116 260q115 106 297 106t299 -102t117 -260v-244h-571v-102q0 -62 44.5 -102.5t117.5 -40.5q70 0 108.5 29.5t38.5 78.5zM459 688v-55h317v55q0 61 -45.5 104.5
t-116.5 43.5q-66 0 -110.5 -43.5t-44.5 -104.5zM569 1454l244 -317h-235l-324 317h315z" />
    <glyph glyph-name="eacute" unicode="&#xe9;" 
d="M768 301h250q0 -143 -117 -231q-116 -88 -285 -88q-180 0 -299 104q-116 104 -116 254v338q0 156 116 260q115 106 297 106t299 -102t117 -260v-244h-571v-102q0 -62 44.5 -102.5t117.5 -40.5q70 0 108.5 29.5t38.5 78.5zM459 688v-55h317v55q0 61 -45.5 104.5
t-116.5 43.5q-66 0 -110.5 -43.5t-44.5 -104.5zM1020 1454l-324 -317h-235l244 317h315z" />
    <glyph glyph-name="ecircumflex" unicode="&#xea;" 
d="M768 301h250q0 -143 -117 -231q-116 -88 -285 -88q-180 0 -299 104q-116 104 -116 254v338q0 156 116 260q115 106 297 106t299 -102t117 -260v-244h-571v-102q0 -62 44.5 -102.5t117.5 -40.5q70 0 108.5 29.5t38.5 78.5zM459 688v-55h317v55q0 61 -45.5 104.5
t-116.5 43.5q-66 0 -110.5 -43.5t-44.5 -104.5zM629 1270l-119 -133h-260l270 317h219l267 -317h-256z" />
    <glyph glyph-name="edieresis" unicode="&#xeb;" 
d="M768 301h250q0 -143 -117 -231q-116 -88 -285 -88q-180 0 -299 104q-116 104 -116 254v338q0 156 116 260q115 106 297 106t299 -102t117 -260v-244h-571v-102q0 -62 44.5 -102.5t117.5 -40.5q70 0 108.5 29.5t38.5 78.5zM459 688v-55h317v55q0 61 -45.5 104.5
t-116.5 43.5q-66 0 -110.5 -43.5t-44.5 -104.5zM537 1184h-232v237h232v-237zM952 1184h-233v237h233v-237z" />
    <glyph glyph-name="igrave" unicode="&#xec;" 
d="M571 811h-340v213h588v-811h303v-213h-905v213h354v598zM616 1454l244 -317h-235l-324 317h315z" />
    <glyph glyph-name="iacute" unicode="&#xed;" 
d="M571 811h-340v213h588v-811h303v-213h-905v213h354v598zM1034 1454l-323 -317h-236l244 317h315z" />
    <glyph glyph-name="icircumflex" unicode="&#xee;" 
d="M571 811h-340v213h588v-811h303v-213h-905v213h354v598zM696 1270l-118 -133h-261l271 317h219l266 -317h-256z" />
    <glyph glyph-name="idieresis" unicode="&#xef;" 
d="M571 811h-340v213h588v-811h303v-213h-905v213h354v598zM606 1184h-231v237h231v-237zM1022 1184h-234v237h234v-237z" />
    <glyph glyph-name="eth" unicode="&#xf0;" 
d="M981 1044v-722q0 -146 -115 -246q-116 -96 -293 -96q-176 0 -288 100q-113 101 -113 250v295q0 140 107 241q109 103 256 103q51 0 99.5 -15t70.5 -34l22 -17v156l-145 -49v174l90 33q-21 24 -86 24h-160v213h168q210 0 324 -156l169 60v-182l-116 -39q10 -38 10 -93z
M727 324v307q0 53 -46 90t-110 37q-61 0 -105 -37t-44 -90v-307q0 -55 44.5 -92t106.5 -37t108 38t46 91z" />
    <glyph glyph-name="ntilde" unicode="&#xf1;" 
d="M1047 0h-252v659q0 78 -46.5 124t-117.5 46q-69 0 -122.5 -50t-53.5 -113v-666h-250v1024h233l6 -84q19 19 33 29q27 23 84 47q67 28 129 28q154 0 254 -106q103 -109 103 -274v-664zM469 1135h-219q0 115 61 194q61 82 156 82q55 0 129 -39q75 -37 104 -37q25 0 43.5 20
t18.5 44h219q0 -116 -63 -197q-62 -80 -154 -80q-56 0 -131 37q-74 39 -103 39q-25 0 -42 -18.5t-19 -44.5z" />
    <glyph glyph-name="ograve" unicode="&#xf2;" 
d="M1030 694v-364q0 -148 -117 -250q-112 -100 -297 -100q-186 0 -301 100q-116 101 -116 250v364q0 149 116 250q115 100 301 100q185 0 297 -100q117 -102 117 -250zM772 326v370q0 57 -44 96t-114 39q-67 0 -113 -40t-46 -95v-370q0 -55 46.5 -94t114.5 -39t112 38.5
t44 94.5zM592 1454l244 -317h-236l-324 317h316z" />
    <glyph glyph-name="oacute" unicode="&#xf3;" 
d="M1030 694v-364q0 -148 -117 -250q-112 -100 -297 -100q-186 0 -301 100q-116 101 -116 250v364q0 149 116 250q115 100 301 100q185 0 297 -100q117 -102 117 -250zM772 326v370q0 57 -44 96t-114 39q-67 0 -113 -40t-46 -95v-370q0 -55 46.5 -94t114.5 -39t112 38.5
t44 94.5zM973 1454l-324 -317h-235l243 317h316z" />
    <glyph glyph-name="ocircumflex" unicode="&#xf4;" 
d="M1030 694v-364q0 -148 -117 -250q-112 -100 -297 -100q-186 0 -301 100q-116 101 -116 250v364q0 149 116 250q115 100 301 100q185 0 297 -100q117 -102 117 -250zM772 326v370q0 57 -44 96t-114 39q-67 0 -113 -40t-46 -95v-370q0 -55 46.5 -94t114.5 -39t112 38.5
t44 94.5zM614 1270l-118 -133h-260l270 317h219l266 -317h-256z" />
    <glyph glyph-name="otilde" unicode="&#xf5;" 
d="M1030 694v-364q0 -148 -117 -250q-112 -100 -297 -100q-186 0 -301 100q-116 101 -116 250v364q0 149 116 250q115 100 301 100q185 0 297 -100q117 -102 117 -250zM772 326v370q0 57 -44 96t-114 39q-67 0 -113 -40t-46 -95v-370q0 -55 46.5 -94t114.5 -39t112 38.5
t44 94.5zM467 1135h-219q0 115 61 194q61 82 156 82q55 0 129 -39q75 -37 104 -37q25 0 43.5 20t18.5 44h219q0 -115 -64 -197q-62 -80 -153 -80q-56 0 -131 37q-74 39 -103 39q-25 0 -42 -18.5t-19 -44.5z" />
    <glyph glyph-name="odieresis" unicode="&#xf6;" 
d="M1030 694v-364q0 -148 -117 -250q-112 -100 -297 -100q-186 0 -301 100q-116 101 -116 250v364q0 149 116 250q115 100 301 100q185 0 297 -100q117 -102 117 -250zM772 326v370q0 57 -44 96t-114 39q-67 0 -113 -40t-46 -95v-370q0 -55 46.5 -94t114.5 -39t112 38.5
t44 94.5zM522 1184h-231v237h231v-237zM938 1184h-233v237h233v-237z" />
    <glyph glyph-name="divide" unicode="&#xf7;" 
d="M164 471v236h901v-236h-901zM752 94h-277v268h277v-268zM752 813h-277v270h277v-270z" />
    <glyph glyph-name="oslash" unicode="&#xf8;" 
d="M840 991l67 92l137 -102l-73 -102q59 -83 59 -187v-364q0 -148 -117 -250q-116 -101 -301 -101q-124 0 -229 54l-72 -101l-141 103l82 114q-53 83 -53 181v364q0 148 114 250q115 100 299 100q132 0 228 -51zM614 193q68 0 119 39.5t51 93.5v305l-268 -412q42 -26 98 -26
zM446 696v-288l261 395q-42 26 -95 26q-69 0 -117.5 -39.5t-48.5 -93.5z" />
    <glyph glyph-name="ugrave" unicode="&#xf9;" 
d="M190 1024h252v-659q0 -78 46.5 -124t117.5 -46q69 0 122.5 50t53.5 113v666h250v-1024h-233l-6 84l-33 -31q-30 -22 -86 -45q-67 -28 -127 -28q-156 0 -256 106q-101 107 -101 274v664zM588 1454l243 -317h-235l-324 317h316z" />
    <glyph glyph-name="uacute" unicode="&#xfa;" 
d="M190 1024h252v-659q0 -78 46.5 -124t117.5 -46q69 0 122.5 50t53.5 113v666h250v-1024h-233l-6 84l-33 -31q-30 -22 -86 -45q-67 -28 -127 -28q-156 0 -256 106q-101 107 -101 274v664zM981 1454l-324 -317h-235l244 317h315z" />
    <glyph glyph-name="ucircumflex" unicode="&#xfb;" 
d="M190 1024h252v-659q0 -78 46.5 -124t117.5 -46q69 0 122.5 50t53.5 113v666h250v-1024h-233l-6 84l-33 -31q-30 -22 -86 -45q-67 -28 -127 -28q-156 0 -256 106q-101 107 -101 274v664zM623 1270l-119 -133h-260l270 317h219l266 -317h-256z" />
    <glyph glyph-name="udieresis" unicode="&#xfc;" 
d="M190 1024h252v-659q0 -78 46.5 -124t117.5 -46q69 0 122.5 50t53.5 113v666h250v-1024h-233l-6 84l-33 -31q-30 -22 -86 -45q-67 -28 -127 -28q-156 0 -256 106q-101 107 -101 274v664zM530 1184h-231v237h231v-237zM946 1184h-233v237h233v-237z" />
    <glyph glyph-name="yacute" unicode="&#xfd;" 
d="M113 1024h280l230 -651l225 651h274l-538 -1393h-265l166 424zM1022 1454l-324 -317h-235l244 317h315z" />
    <glyph glyph-name="thorn" unicode="&#xfe;" 
d="M471 -369h-256v1803h256v-482l25 25q28 20 83 41.5t109 21.5q156 0 256 -100q103 -103 103 -248v-360q0 -153 -107 -254q-104 -98 -254 -98q-54 0 -108.5 16.5t-81.5 36.5l-25 16v-418zM791 334v348q0 62 -44.5 104.5t-111.5 42.5q-70 0 -117 -46t-47 -119v-324
q0 -62 47.5 -106t116.5 -44q68 0 112 41.5t44 102.5z" />
    <glyph glyph-name="ydieresis" unicode="&#xff;" 
d="M113 1024h280l230 -651l225 651h274l-538 -1393h-265l166 424zM530 1184h-231v237h231v-237zM946 1184h-233v237h233v-237z" />
    <glyph glyph-name="Amacron" unicode="&#x100;" 
d="M186 627l234 807h389l233 -807v-627h-241v426h-373v-426h-242v627zM451 666h327l-143 528h-41zM909 1585h-592v207h592v-207z" />
    <glyph glyph-name="amacron" unicode="&#x101;" 
d="M575 180q76 0 134 43q59 47 59 94v129l-190 -18q-59 -5 -98.5 -38t-39.5 -83q0 -55 37 -91t98 -36zM492 719h-240q0 115 98 219q97 106 291 106q171 0 271 -99t100 -259v-686h-224l-4 80l-10 -10q-9 -11 -16 -17q-24 -20 -84 -45q-62 -26 -142 -26q-140 0 -241 90
q-98 91 -98 231t106 221q112 85 272 97l197 16v43q0 75 -41 114.5t-104 39.5q-51 0 -87 -32t-44 -83zM942 1176h-592v206h592v-206z" />
    <glyph glyph-name="Abreve" unicode="&#x102;" 
d="M186 627l234 807h389l233 -807v-627h-241v426h-373v-426h-242v627zM451 666h327l-143 528h-41zM303 1864h201q0 -60 27 -97.5t81 -37.5q113 0 113 135h201q0 -137 -86.5 -227.5t-225.5 -90.5t-225 90.5t-86 227.5z" />
    <glyph glyph-name="abreve" unicode="&#x103;" 
d="M575 180q76 0 134 43q59 47 59 94v129l-190 -18q-59 -5 -98.5 -38t-39.5 -83q0 -55 37 -91t98 -36zM492 719h-240q0 115 98 219q97 106 291 106q171 0 271 -99t100 -259v-686h-224l-4 80l-10 -10q-9 -11 -16 -17q-24 -20 -84 -45q-62 -26 -142 -26q-140 0 -241 90
q-98 91 -98 231t106 221q112 85 272 97l197 16v43q0 75 -41 114.5t-104 39.5q-51 0 -87 -32t-44 -83zM334 1454h201q0 -60 27 -97.5t81 -37.5q113 0 113 135h200q0 -137 -86 -227t-225 -90t-225 90t-86 227z" />
    <glyph glyph-name="Aogonek" unicode="&#x104;" 
d="M1034 -209v-180h-180q-83 0 -132.5 50t-49.5 120q0 51 25.5 98.5t50 70.5t51.5 42l14 8h-12v426h-373v-426h-242v627l234 807h389l233 -807v-627l-47 -31q-27 -21 -71 -65q-45 -45 -45 -76q0 -37 51 -37h104zM451 666h327l-143 528h-41z" />
    <glyph glyph-name="aogonek" unicode="&#x105;" 
d="M492 719h-240q0 115 98 219q97 106 291 106q171 0 271 -99t100 -259v-686l-47 -31q-31 -25 -72 -65q-45 -45 -45 -76q0 -37 51 -37h105v-180h-181q-83 0 -132.5 50t-49.5 120q0 62 37 117q23 34 49 59t41 34t20 9l-4 80l-10 -10q-9 -11 -16 -17q-24 -20 -84 -45
q-62 -26 -142 -26q-140 0 -241 90q-98 91 -98 231t106 221q112 85 272 97l197 16v43q0 75 -41 114.5t-104 39.5q-51 0 -87 -32t-44 -83zM575 180q76 0 134 43q59 47 59 94v129l-190 -18q-59 -5 -98.5 -38t-39.5 -83q0 -55 37 -91t98 -36z" />
    <glyph glyph-name="Cacute" unicode="&#x106;" 
d="M807 446h242v-61q0 -167 -123 -287q-121 -118 -297 -118t-297 118q-123 120 -123 285v670q0 162 123 282q125 119 295 119q88 0 159.5 -27t117.5 -69.5t77 -98.5t44 -111.5t13 -111.5h-245q0 77 -44.5 131t-119.5 54q-73 0 -120.5 -47t-47.5 -115v-682q0 -74 47.5 -119
t120.5 -45t125.5 47t52.5 125v61zM1022 1864l-324 -318h-235l244 318h315z" />
    <glyph glyph-name="cacute" unicode="&#x107;" 
d="M473 680v-346q0 -63 44 -102t112 -39q73 0 115 47t42 131h261q0 -179 -115 -285t-303 -106q-184 0 -299 100q-115 103 -115 262v336q0 160 117 262q116 104 299 104q185 0 296 -104.5t111 -280.5h-254q0 79 -42.5 125.5t-114.5 46.5q-68 0 -111 -42t-43 -109zM1036 1454
l-323 -317h-236l244 317h315z" />
    <glyph glyph-name="Ccircumflex" unicode="&#x108;" 
d="M807 446h242v-61q0 -167 -123 -287q-121 -118 -297 -118t-297 118q-123 120 -123 285v670q0 162 123 282q125 119 295 119q88 0 159.5 -27t117.5 -69.5t77 -98.5t44 -111.5t13 -111.5h-245q0 77 -44.5 131t-119.5 54q-73 0 -120.5 -47t-47.5 -115v-682q0 -74 47.5 -119
t120.5 -45t125.5 47t52.5 125v61zM633 1679l-119 -133h-260l270 318h219l267 -318h-256z" />
    <glyph glyph-name="ccircumflex" unicode="&#x109;" 
d="M473 680v-346q0 -63 44 -102t112 -39q73 0 115 47t42 131h261q0 -179 -115 -285t-303 -106q-184 0 -299 100q-115 103 -115 262v336q0 160 117 262q116 104 299 104q185 0 296 -104.5t111 -280.5h-254q0 79 -42.5 125.5t-114.5 46.5q-68 0 -111 -42t-43 -109zM643 1270
l-119 -133h-260l271 317h219l266 -317h-256z" />
    <glyph glyph-name="Cdotaccent" unicode="&#x10a;" 
d="M807 446h242v-61q0 -167 -123 -287q-121 -118 -297 -118t-297 118q-123 120 -123 285v670q0 162 123 282q125 119 295 119q88 0 159.5 -27t117.5 -69.5t77 -98.5t44 -111.5t13 -111.5h-245q0 77 -44.5 131t-119.5 54q-73 0 -120.5 -47t-47.5 -115v-682q0 -74 47.5 -119
t120.5 -45t125.5 47t52.5 125v61zM760 1581h-258v262h258v-262z" />
    <glyph glyph-name="cdotaccent" unicode="&#x10b;" 
d="M473 680v-346q0 -63 44 -102t112 -39q73 0 115 47t42 131h261q0 -179 -115 -285t-303 -106q-184 0 -299 100q-115 103 -115 262v336q0 160 117 262q116 104 299 104q185 0 296 -104.5t111 -280.5h-254q0 79 -42.5 125.5t-114.5 46.5q-68 0 -111 -42t-43 -109zM766 1171
h-258v263h258v-263z" />
    <glyph glyph-name="Ccaron" unicode="&#x10c;" 
d="M807 446h242v-61q0 -167 -123 -287q-121 -118 -297 -118t-297 118q-123 120 -123 285v670q0 162 123 282q125 119 295 119q88 0 159.5 -27t117.5 -69.5t77 -98.5t44 -111.5t13 -111.5h-245q0 77 -44.5 131t-119.5 54q-73 0 -120.5 -47t-47.5 -115v-682q0 -74 47.5 -119
t120.5 -45t125.5 47t52.5 125v61zM528 1546l-270 318h260l119 -133l121 133h256l-266 -318h-220z" />
    <glyph glyph-name="ccaron" unicode="&#x10d;" 
d="M473 680v-346q0 -63 44 -102t112 -39q73 0 115 47t42 131h261q0 -179 -115 -285t-303 -106q-184 0 -299 100q-115 103 -115 262v336q0 160 117 262q116 104 299 104q185 0 296 -104.5t111 -280.5h-254q0 79 -42.5 125.5t-114.5 46.5q-68 0 -111 -42t-43 -109zM532 1137
l-270 317h260l119 -133l121 133h256l-266 -317h-220z" />
    <glyph glyph-name="Dcaron" unicode="&#x10e;" 
d="M621 0h-408v1434h408q165 0 282 -117t117 -283v-635q0 -165 -117 -282t-282 -117zM766 389v653q0 63 -44.5 107.5t-107.5 44.5h-155v-954h155q63 0 107.5 43t44.5 106zM506 1546l-270 318h260l118 -133l121 133h256l-266 -318h-219z" />
    <glyph glyph-name="dcaron" unicode="&#x10f;" horiz-adv-x="1159" 
d="M688 1434h256v-1434h-231l-4 72q-88 -88 -232 -88q-157 0 -260 100q-104 101 -104 248v360q0 154 104 252q106 100 256 100q54 0 109 -16.5t82 -36.5l24 -16v459zM369 690v-356q0 -57 44.5 -98t110.5 -41q67 0 115.5 43.5t48.5 101.5v344q0 62 -47.5 106t-116.5 44
q-66 0 -110.5 -43.5t-44.5 -100.5zM1444 1434l-230 -347h-198l149 347h279z" />
    <glyph glyph-name="Dcroat" unicode="&#x110;" 
d="M256 635h-125v225h125v574h408q165 0 282 -117t117 -283v-635q0 -165 -117 -282t-282 -117h-408v635zM809 389v653q0 63 -44.5 107.5t-107.5 44.5h-155v-334h166v-225h-166v-395h155q63 0 107.5 43t44.5 106z" />
    <glyph glyph-name="dslash" unicode="&#x111;" 
d="M758 1434h256v-115h119v-193h-119v-1126h-232l-4 72q-88 -88 -231 -88q-157 0 -260 100q-105 102 -105 248v342q0 153 105 252q106 100 256 100q53 0 108 -16t82 -35l25 -19v170h-223v193h223v115zM438 672v-338q0 -57 45 -98t111 -41q67 0 115.5 43.5t48.5 101.5v326
q0 62 -47.5 105.5t-116.5 43.5q-66 0 -111 -43t-45 -100z" />
    <glyph glyph-name="Emacron" unicode="&#x112;" 
d="M246 0v1434h731v-240h-488v-328h445v-237h-445v-389h502v-240h-745zM920 1585h-592v207h592v-207z" />
    <glyph glyph-name="emacron" unicode="&#x113;" 
d="M768 301h250q0 -143 -117 -231q-116 -88 -285 -88q-180 0 -299 104q-116 104 -116 254v338q0 156 116 260q115 106 297 106t299 -102t117 -260v-244h-571v-102q0 -62 44.5 -102.5t117.5 -40.5q70 0 108.5 29.5t38.5 78.5zM459 688v-55h317v55q0 61 -45.5 104.5
t-116.5 43.5q-66 0 -110.5 -43.5t-44.5 -104.5zM922 1176h-592v206h592v-206z" />
    <glyph glyph-name="Ebreve" unicode="&#x114;" 
d="M246 0v1434h731v-240h-488v-328h445v-237h-445v-389h502v-240h-745zM313 1864h201q0 -59 27.5 -97t81.5 -38q112 0 112 135h201q0 -137 -86 -227.5t-225 -90.5t-225.5 90.5t-86.5 227.5z" />
    <glyph glyph-name="ebreve" unicode="&#x115;" 
d="M768 301h250q0 -143 -117 -231q-116 -88 -285 -88q-180 0 -299 104q-116 104 -116 254v338q0 156 116 260q115 106 297 106t299 -102t117 -260v-244h-571v-102q0 -62 44.5 -102.5t117.5 -40.5q70 0 108.5 29.5t38.5 78.5zM459 688v-55h317v55q0 61 -45.5 104.5
t-116.5 43.5q-66 0 -110.5 -43.5t-44.5 -104.5zM319 1454h201q0 -59 27.5 -97t81.5 -38q112 0 112 135h201q0 -137 -86 -227t-225 -90t-225.5 90t-86.5 227z" />
    <glyph glyph-name="Edotaccent" unicode="&#x116;" 
d="M246 0v1434h731v-240h-488v-328h445v-237h-445v-389h502v-240h-745zM754 1581h-258v262h258v-262z" />
    <glyph glyph-name="edotaccent" unicode="&#x117;" 
d="M768 301h250q0 -143 -117 -231q-116 -88 -285 -88q-180 0 -299 104q-116 104 -116 254v338q0 156 116 260q115 106 297 106t299 -102t117 -260v-244h-571v-102q0 -62 44.5 -102.5t117.5 -40.5q70 0 108.5 29.5t38.5 78.5zM459 688v-55h317v55q0 61 -45.5 104.5
t-116.5 43.5q-66 0 -110.5 -43.5t-44.5 -104.5zM758 1171h-258v263h258v-263z" />
    <glyph glyph-name="Eogonek" unicode="&#x118;" 
d="M983 -209v-180h-180q-83 0 -132.5 50t-49.5 120q0 57 33 112.5t73 81.5l35 25h-516v1434h731v-240h-488v-328h445v-237h-445v-389h502v-240l-47 -31q-32 -25 -72 -65q-45 -45 -45 -76q0 -37 52 -37h104z" />
    <glyph glyph-name="eogonek" unicode="&#x119;" 
d="M899 -209v-180h-180q-83 0 -132.5 50t-49.5 120q0 117 114 203q-8 -2 -35 -2q-180 0 -299 104q-116 104 -116 254v338q0 156 116 260q115 106 297 106t299 -102t117 -260v-244h-571v-102q0 -62 44.5 -102.5t117.5 -40.5q70 0 108.5 29.5t38.5 78.5h250q0 -143 -131 -244
q-146 -116 -146 -217q0 -49 54 -49h104zM459 688v-55h317v55q0 61 -45.5 104.5t-116.5 43.5q-66 0 -110.5 -43.5t-44.5 -104.5z" />
    <glyph glyph-name="Ecaron" unicode="&#x11a;" 
d="M246 0v1434h731v-240h-488v-328h445v-237h-445v-389h502v-240h-745zM520 1546l-270 318h260l119 -133l121 133h256l-267 -318h-219z" />
    <glyph glyph-name="ecaron" unicode="&#x11b;" 
d="M768 301h250q0 -143 -117 -231q-116 -88 -285 -88q-180 0 -299 104q-116 104 -116 254v338q0 156 116 260q115 106 297 106t299 -102t117 -260v-244h-571v-102q0 -62 44.5 -102.5t117.5 -40.5q70 0 108.5 29.5t38.5 78.5zM459 688v-55h317v55q0 61 -45.5 104.5
t-116.5 43.5q-66 0 -110.5 -43.5t-44.5 -104.5zM520 1137l-270 317h260l119 -133l121 133h256l-267 -317h-219z" />
    <glyph glyph-name="Gcircumflex" unicode="&#x11c;" 
d="M621 543v231h417v-393q0 -165 -123 -285q-119 -116 -297 -116q-175 0 -296 118q-123 120 -123 285v670q0 162 123 282q125 119 294 119q87 0 159 -27t118 -70t78 -99.5t45.5 -113.5t13.5 -114h-244q0 77 -46.5 134t-121.5 57q-67 0 -117 -46.5t-50 -109.5v-694
q0 -63 50 -110.5t117 -47.5q65 0 119 45q58 46 58 113v172h-174zM627 1679l-119 -133h-260l270 318h219l267 -318h-256z" />
    <glyph glyph-name="gcircumflex" unicode="&#x11d;" 
d="M563 1282l-112 -127h-248l258 301h207l254 -301h-244zM705 580v145q0 46 -36.5 77.5t-95.5 31.5q-54 0 -89 -32t-35 -77v-145q0 -45 35 -77t89 -32q59 0 95.5 31.5t36.5 77.5zM776 -27h-385q-35 0 -58.5 -23t-23.5 -56q0 -31 23.5 -51.5t58.5 -20.5h383q35 0 58.5 21
t23.5 53q0 31 -24 54t-56 23zM1012 1124v-190q-77 0 -115 -47q53 -77 53 -176v-123q0 -121 -96 -217q-96 -93 -238 -105v-102h203q112 0 193 -78q82 -76 82 -192q0 -117 -77.5 -190t-199.5 -73h-434q-116 0 -191 73.5t-75 189.5q0 115 80 192q81 78 198 78v141
q-87 43 -139.5 120t-52.5 163v123q0 144 112 237q116 96 269 96q66 0 139 -28q43 62 103 85t186 23z" />
    <glyph glyph-name="Gbreve" unicode="&#x11e;" 
d="M621 543v231h417v-393q0 -165 -123 -285q-119 -116 -297 -116q-175 0 -296 118q-123 120 -123 285v670q0 162 123 282q125 119 294 119q87 0 159 -27t118 -70t78 -99.5t45.5 -113.5t13.5 -114h-244q0 77 -46.5 134t-121.5 57q-67 0 -117 -46.5t-50 -109.5v-694
q0 -63 50 -110.5t117 -47.5q65 0 119 45q58 46 58 113v172h-174zM311 1864h201q0 -59 27.5 -97t81.5 -38q112 0 112 135h201q0 -137 -86 -227.5t-225 -90.5t-225.5 90.5t-86.5 227.5z" />
    <glyph glyph-name="gbreve" unicode="&#x11f;" 
d="M705 580v145q0 46 -36.5 77.5t-95.5 31.5q-54 0 -89 -32t-35 -77v-145q0 -45 35 -77t89 -32q59 0 95.5 31.5t36.5 77.5zM776 -27h-385q-35 0 -58.5 -23t-23.5 -56q0 -31 23.5 -51.5t58.5 -20.5h383q35 0 58.5 21t23.5 53q0 31 -24 54t-56 23zM1012 1147v-209
q-76 0 -115 -51q53 -77 53 -176v-123q0 -121 -96 -217q-96 -93 -238 -105v-102h203q112 0 193 -78q82 -76 82 -192q0 -117 -77.5 -190t-199.5 -73h-434q-116 0 -191 73.5t-75 189.5q0 115 80 192q81 78 198 78v141q-87 43 -139.5 120t-52.5 163v123q0 144 112 237
q116 96 269 96q66 0 139 -28q49 71 112 101t177 30zM270 1454h201q0 -59 27.5 -97t81.5 -38q112 0 112 135h201q0 -137 -86 -227t-225 -90t-225.5 90t-86.5 227z" />
    <glyph glyph-name="Gdotaccent" unicode="&#x120;" 
d="M621 543v231h417v-393q0 -165 -123 -285q-119 -116 -297 -116q-175 0 -296 118q-123 120 -123 285v670q0 162 123 282q125 119 294 119q87 0 159 -27t118 -70t78 -99.5t45.5 -113.5t13.5 -114h-244q0 77 -46.5 134t-121.5 57q-67 0 -117 -46.5t-50 -109.5v-694
q0 -63 50 -110.5t117 -47.5q65 0 119 45q58 46 58 113v172h-174zM754 1581h-258v262h258v-262z" />
    <glyph glyph-name="gdotaccent" unicode="&#x121;" 
d="M705 580v145q0 46 -36.5 77.5t-95.5 31.5q-54 0 -89 -32t-35 -77v-145q0 -45 35 -77t89 -32q59 0 95.5 31.5t36.5 77.5zM776 -27h-385q-35 0 -58.5 -23t-23.5 -56q0 -31 23.5 -51.5t58.5 -20.5h383q35 0 58.5 21t23.5 53q0 31 -24 54t-56 23zM1012 1147v-209
q-76 0 -115 -51q53 -77 53 -176v-123q0 -121 -96 -217q-96 -93 -238 -105v-102h203q112 0 193 -78q82 -76 82 -192q0 -117 -77.5 -190t-199.5 -73h-434q-116 0 -191 73.5t-75 189.5q0 115 80 192q81 78 198 78v141q-87 43 -139.5 120t-52.5 163v123q0 144 112 237
q116 96 269 96q66 0 139 -28q49 71 112 101t177 30zM709 1171h-258v263h258v-263z" />
    <glyph glyph-name="uni0122" unicode="&#x122;" 
d="M621 543v231h417v-393q0 -165 -123 -285q-119 -116 -297 -116q-175 0 -296 118q-123 120 -123 285v670q0 162 123 282q125 119 294 119q87 0 159 -27t118 -70t78 -99.5t45.5 -113.5t13.5 -114h-244q0 77 -46.5 134t-121.5 57q-67 0 -117 -46.5t-50 -109.5v-694
q0 -63 50 -110.5t117 -47.5q65 0 119 45q58 46 58 113v172h-174zM803 -111l-230 -346h-198l149 346h279z" />
    <glyph glyph-name="uni0123" unicode="&#x123;" 
d="M705 580v145q0 46 -36.5 77.5t-95.5 31.5q-54 0 -89 -32t-35 -77v-145q0 -45 35 -77t89 -32q59 0 95.5 31.5t36.5 77.5zM776 -27h-385q-35 0 -58.5 -23t-23.5 -56q0 -31 23.5 -51.5t58.5 -20.5h383q35 0 58.5 21t23.5 53q0 31 -24 54t-56 23zM1012 1147v-209
q-76 0 -115 -51q53 -77 53 -176v-123q0 -121 -96 -217q-96 -93 -238 -105v-102h203q112 0 193 -78q82 -76 82 -192q0 -117 -77.5 -190t-199.5 -73h-434q-116 0 -191 73.5t-75 189.5q0 115 80 192q81 78 198 78v141q-87 43 -139.5 120t-52.5 163v123q0 144 112 237
q116 96 269 96q66 0 139 -28q49 71 112 101t177 30zM401 1128l230 347h198l-149 -347h-279z" />
    <glyph glyph-name="Hcircumflex" unicode="&#x124;" 
d="M784 872v562h244v-1434h-244v629h-340v-629h-243v1434h243v-562h340zM614 1679l-118 -133h-260l270 318h219l266 -318h-256z" />
    <glyph glyph-name="hcircumflex" unicode="&#x125;" 
d="M1047 0h-252v668q0 71 -46 116t-116 45q-72 0 -125 -46.5t-53 -112.5v-670h-250v1434h248v-478l30 25q22 15 82 39q64 24 125 24q152 0 252 -106q105 -108 105 -262v-676zM614 1681l-118 -133h-260l270 318h219l266 -318h-256z" />
    <glyph glyph-name="Hbar" unicode="&#x126;" 
d="M784 1237v197h244v-197h98v-195h-98v-1042h-244v629h-340v-629h-243v1042h-101v195h101v197h243v-197h340zM444 1042v-170h340v170h-340z" />
    <glyph glyph-name="hbar" unicode="&#x127;" 
d="M205 1130h-125v193h125v111h248v-111h219v-193h-219v-194l30 25q19 13 82 38q67 25 125 25q152 0 252 -106q105 -108 105 -263v-655h-252v647q0 71 -46 116.5t-116 45.5q-72 0 -125 -47t-53 -113v-649h-250v1130z" />
    <glyph glyph-name="Itilde" unicode="&#x128;" 
d="M489 1204h-278v230h805v-230h-277v-975h277v-229h-805v229h278v975zM467 1544h-219q0 116 61 195q61 82 156 82q55 0 129 -39q75 -37 104 -37q26 0 44 19.5t18 43.5h219q0 -114 -64 -196q-62 -80 -153 -80q-56 0 -131 37q-74 39 -103 39q-25 0 -42 -19t-19 -45z" />
    <glyph glyph-name="itilde" unicode="&#x129;" 
d="M571 811h-340v213h588v-811h303v-213h-905v213h354v598zM535 1135h-220q0 114 62 194q61 82 155 82q56 0 130 -39q75 -37 104 -37q25 0 43 20t18 44h220q0 -115 -64 -197q-62 -80 -154 -80q-56 0 -131 37q-74 39 -102 39q-25 0 -42 -18.5t-19 -44.5z" />
    <glyph glyph-name="Imacron" unicode="&#x12a;" 
d="M489 1204h-278v230h805v-230h-277v-975h277v-229h-805v229h278v975zM909 1585h-592v207h592v-207z" />
    <glyph glyph-name="imacron" unicode="&#x12b;" 
d="M571 811h-340v213h588v-811h303v-213h-905v213h354v598zM993 1176h-592v206h592v-206z" />
    <glyph glyph-name="Iogonek" unicode="&#x12e;" 
d="M1008 -209v-180h-181q-83 0 -132.5 50t-49.5 120q0 57 33.5 112.5t73.5 81.5l34 25h-575v229h278v975h-278v230h805v-230h-277v-975h277v-229l-47 -31q-31 -25 -72 -65q-45 -45 -45 -76q0 -37 51 -37h105z" />
    <glyph glyph-name="iogonek" unicode="&#x12f;" 
d="M1114 -209v-180h-180q-83 0 -132.5 50t-49.5 120q0 57 33 112.5t73 81.5l35 25h-676v213h354v598h-340v213h588v-811h303v-213l-47 -31q-27 -21 -71 -65q-46 -46 -46 -76q0 -37 52 -37h104zM829 1171h-266v263h266v-263z" />
    <glyph glyph-name="Idot" unicode="&#x130;" 
d="M489 1204h-278v230h805v-230h-277v-975h277v-229h-805v229h278v975zM743 1581h-258v262h258v-262z" />
    <glyph glyph-name="dotlessi" unicode="&#x131;" 
d="M571 811h-340v213h588v-811h303v-213h-905v213h354v598z" />
    <glyph glyph-name="IJ" unicode="&#x132;" 
d="M195 1204h-127v230h489v-230h-113v-975h113v-229h-489v229h127v975zM686 0h-51v229h39q170 0 170 158v819h-185v230h433v-1049q0 -174 -119 -281q-115 -106 -287 -106z" />
    <glyph glyph-name="ij" unicode="&#x133;" 
d="M213 811h-123v213h371v-811h149v-213h-532v213h135v598zM471 1171h-266v263h266v-263zM834 -37v848h-134v213h377v-1081q0 -145 -90 -238q-88 -94 -229 -94q-68 0 -135.5 19t-102.5 42l-28 21l96 184q71 -53 149 -53q97 0 97 139zM1087 1171h-266v263h266v-263z" />
    <glyph glyph-name="Jcircumflex" unicode="&#x134;" 
d="M735 1204h-497v230h745v-1057q0 -163 -121 -281q-120 -114 -289 -114q-170 0 -290 114q-117 114 -117 281v110h242v-112q0 -67 48.5 -115.5t116.5 -48.5q69 0 115.5 48.5t46.5 117.5v827zM621 1679l-119 -133h-260l270 318h219l266 -318h-256z" />
    <glyph glyph-name="jcircumflex" unicode="&#x135;" 
d="M705 -37v848h-480v213h729v-1040q0 -171 -98.5 -272t-269.5 -101q-79 0 -155 23t-112 51l-34 22l127 176q69 -57 163 -57q130 0 130 137zM772 1270l-119 -133h-260l271 317h219l266 -317h-256z" />
    <glyph glyph-name="uni0136" unicode="&#x136;" 
d="M199 1434h245v-658l418 658h260l-438 -676l469 -758h-276l-433 737v-737h-245v1434zM803 -111l-230 -346h-198l149 346h279z" />
    <glyph glyph-name="uni0137" unicode="&#x137;" 
d="M1133 0h-279l-365 522v-522h-247v1434h247v-883l336 473h279l-369 -492zM801 -111l-230 -346h-198l149 346h279z" />
    <glyph glyph-name="kgreenlandic" unicode="&#x138;" 
d="M1133 0h-279l-365 522v-522h-247v1024h247v-473l336 473h279l-369 -492z" />
    <glyph glyph-name="Lacute" unicode="&#x139;" 
d="M281 0v1434h245v-1194h551v-240h-796zM928 1864l-324 -318h-235l243 318h316z" />
    <glyph glyph-name="lacute" unicode="&#x13a;" 
d="M532 1221h-303v213h553v-1221h305v-213h-903v213h348v1008zM1028 1868l-323 -318h-236l244 318h315z" />
    <glyph glyph-name="uni013B" unicode="&#x13b;" 
d="M281 0v1434h245v-1194h551v-240h-796zM864 -111l-229 -346h-199l150 346h278z" />
    <glyph glyph-name="uni013C" unicode="&#x13c;" 
d="M532 1221h-303v213h553v-1221h305v-213h-903v213h348v1008zM815 -111l-229 -346h-199l150 346h278z" />
    <glyph glyph-name="Lcaron" unicode="&#x13d;" 
d="M281 0v1434h245v-1194h551v-240h-796zM1200 1434l-229 -347h-199l150 347h278z" />
    <glyph glyph-name="lcaron" unicode="&#x13e;" 
d="M532 1221h-303v213h553v-1221h305v-213h-903v213h348v1008zM1307 1434l-230 -347h-198l149 347h279z" />
    <glyph glyph-name="Ldot" unicode="&#x13f;" 
d="M281 0v1434h245v-1194h551v-240h-796zM1135 492h-279v278h279v-278z" />
    <glyph glyph-name="ldot" unicode="&#x140;" 
d="M475 1221h-303v213h553v-1221h305v-213h-903v213h348v1008zM1227 449h-279v278h279v-278z" />
    <glyph glyph-name="Lslash" unicode="&#x141;" 
d="M524 864l303 162v-268l-303 -160v-358h553v-240h-796v469l-115 -61v266l115 63v697h243v-570z" />
    <glyph glyph-name="lslash" unicode="&#x142;" 
d="M514 557l-154 -84v256l154 84v408h-303v213h543v-486l239 131v-256l-239 -131v-479h305v-213h-893v213h348v344z" />
    <glyph glyph-name="Nacute" unicode="&#x143;" 
d="M1038 0h-219l-420 948l-6 -2q23 -250 23 -444v-502h-226v1434h218l421 -949l7 2q-23 235 -23 459v488h225v-1434zM993 1864l-323 -318h-236l244 318h315z" />
    <glyph glyph-name="nacute" unicode="&#x144;" 
d="M1047 0h-252v659q0 78 -46.5 124t-117.5 46q-69 0 -122.5 -50t-53.5 -113v-666h-250v1024h233l6 -84q19 19 33 29q27 23 84 47q67 28 129 28q154 0 254 -106q103 -109 103 -274v-664zM1024 1454l-324 -317h-235l244 317h315z" />
    <glyph glyph-name="uni0145" unicode="&#x145;" 
d="M1038 0h-219l-420 948l-6 -2q23 -250 23 -444v-502h-226v1434h218l421 -949l7 2q-23 235 -23 459v488h225v-1434zM778 -111l-229 -346h-199l150 346h278z" />
    <glyph glyph-name="uni0146" unicode="&#x146;" 
d="M1047 0h-252v659q0 78 -46.5 124t-117.5 46q-69 0 -122.5 -50t-53.5 -113v-666h-250v1024h233l6 -84q19 19 33 29q27 23 84 47q67 28 129 28q154 0 254 -106q103 -109 103 -274v-664zM782 -111l-229 -346h-199l150 346h278z" />
    <glyph glyph-name="Ncaron" unicode="&#x147;" 
d="M1038 0h-219l-420 948l-6 -2q23 -250 23 -444v-502h-226v1434h218l421 -949l7 2q-23 235 -23 459v488h225v-1434zM506 1546l-270 318h260l118 -133l121 133h256l-266 -318h-219z" />
    <glyph glyph-name="ncaron" unicode="&#x148;" 
d="M1047 0h-252v659q0 78 -46.5 124t-117.5 46q-69 0 -122.5 -50t-53.5 -113v-666h-250v1024h233l6 -84q19 19 33 29q27 23 84 47q67 28 129 28q154 0 254 -106q103 -109 103 -274v-664zM514 1137l-270 317h260l119 -133l120 133h256l-266 -317h-219z" />
    <glyph glyph-name="napostrophe" unicode="&#x149;" 
d="M1065 0h-252v659q0 78 -46.5 124t-117.5 46q-69 0 -122.5 -50t-53.5 -113v-666h-250v1024h234l6 -84q19 19 33 29q27 23 84 47q67 28 129 28q154 0 254 -106q102 -108 102 -274v-664zM369 1434l-230 -347h-198l149 347h279z" />
    <glyph glyph-name="Omacron" unicode="&#x14c;" 
d="M1038 1053v-672q0 -165 -123 -285q-119 -116 -301 -116t-303 118q-123 120 -123 285v670q0 165 123 282q122 119 303 119q182 0 301 -119q123 -117 123 -282zM795 369v696q0 63 -54 110.5t-127 47.5t-126.5 -47.5t-53.5 -110.5v-694q0 -64 53.5 -112t126.5 -48t127 47.5
t54 110.5zM909 1585h-592v207h592v-207z" />
    <glyph glyph-name="omacron" unicode="&#x14d;" 
d="M1030 694v-364q0 -148 -117 -250q-112 -100 -297 -100q-186 0 -301 100q-116 101 -116 250v364q0 149 116 250q115 100 301 100q185 0 297 -100q117 -102 117 -250zM772 326v370q0 57 -44 96t-114 39q-67 0 -113 -40t-46 -95v-370q0 -55 46.5 -94t114.5 -39t112 38.5
t44 94.5zM909 1176h-592v206h592v-206z" />
    <glyph glyph-name="Obreve" unicode="&#x14e;" 
d="M1038 1053v-672q0 -165 -123 -285q-119 -116 -301 -116t-303 118q-123 120 -123 285v670q0 165 123 282q122 119 303 119q182 0 301 -119q123 -117 123 -282zM795 369v696q0 63 -54 110.5t-127 47.5t-126.5 -47.5t-53.5 -110.5v-694q0 -64 53.5 -112t126.5 -48t127 47.5
t54 110.5zM303 1864h201q0 -60 27 -97.5t81 -37.5q113 0 113 135h201q0 -137 -86.5 -227.5t-225.5 -90.5t-225 90.5t-86 227.5z" />
    <glyph glyph-name="obreve" unicode="&#x14f;" 
d="M1030 694v-364q0 -148 -117 -250q-112 -100 -297 -100q-186 0 -301 100q-116 101 -116 250v364q0 149 116 250q115 100 301 100q185 0 297 -100q117 -102 117 -250zM772 326v370q0 57 -44 96t-114 39q-67 0 -113 -40t-46 -95v-370q0 -55 46.5 -94t114.5 -39t112 38.5
t44 94.5zM303 1454h201q0 -60 27 -97.5t81 -37.5q113 0 113 135h201q0 -137 -86.5 -227t-225.5 -90t-225 90t-86 227z" />
    <glyph glyph-name="Ohungarumlaut" unicode="&#x150;" 
d="M1038 1053v-672q0 -165 -123 -285q-119 -116 -301 -116t-303 118q-123 120 -123 285v670q0 165 123 282q122 119 303 119q182 0 301 -119q123 -117 123 -282zM795 369v696q0 63 -54 110.5t-127 47.5t-126.5 -47.5t-53.5 -110.5v-694q0 -64 53.5 -112t126.5 -48t127 47.5
t54 110.5zM807 1847l-291 -284h-213l219 284h285zM1229 1847l-291 -284h-213l219 284h285z" />
    <glyph glyph-name="ohungarumlaut" unicode="&#x151;" 
d="M1030 694v-364q0 -148 -117 -250q-112 -100 -297 -100q-186 0 -301 100q-116 101 -116 250v364q0 149 116 250q115 100 301 100q185 0 297 -100q117 -102 117 -250zM772 326v370q0 57 -44 96t-114 39q-67 0 -113 -40t-46 -95v-370q0 -55 46.5 -94t114.5 -39t112 38.5
t44 94.5zM793 1438l-291 -285h-213l219 285h285zM1214 1438l-290 -285h-213l219 285h284z" />
    <glyph glyph-name="OE" unicode="&#x152;" 
d="M500 1434h657v-240h-332v-326h285v-237h-285v-391h349v-240h-674q-176 0 -301 119q-123 120 -123 287v624q0 168 123 285q125 119 301 119zM336 1038v-645q0 -63 47.5 -108t114.5 -45h86v950h-86q-67 0 -114.5 -44.5t-47.5 -107.5z" />
    <glyph glyph-name="oe" unicode="&#x153;" 
d="M942 301h213q0 -62 -31 -135q-32 -75 -110 -130.5t-176 -55.5q-135 0 -224 83q-83 -83 -217 -83q-148 0 -235 100q-90 104 -90 250v362q0 146 90 250q88 102 235 102q114 0 215 -90q96 90 226 90q138 0 227 -102q90 -104 90 -250v-262h-436v-100q0 -52 35.5 -94.5
t81.5 -42.5q44 0 75 31t31 77zM504 322v391q0 49 -32.5 85t-76.5 36t-76 -39t-32 -90v-383q0 -51 33 -90t77 -39q43 0 75 39t32 90zM719 713v-78h223v70q0 51 -31.5 90t-74.5 39q-47 0 -82 -36t-35 -85z" />
    <glyph glyph-name="Racute" unicode="&#x154;" 
d="M1069 0h-270l-197 487h-131v-487h-246v1434h432q149 0 248 -99t99 -248v-256q0 -88 -43 -166.5t-117 -125.5zM754 823v275q0 38 -30 67t-71 29h-182v-467h182q41 0 71 29t30 67zM987 1864l-323 -318h-236l244 318h315z" />
    <glyph glyph-name="racute" unicode="&#x155;" 
d="M838 1042q156 0 235 -110q82 -107 82 -254h-242q0 63 -34 108t-84 45q-69 0 -119.5 -51.5t-50.5 -120.5v-446h413v-213h-870v213h207v811h235l6 -84q12 16 25 29q27 22 76 45q61 28 121 28zM1112 1454l-324 -317h-235l244 317h315z" />
    <glyph glyph-name="uni0156" unicode="&#x156;" 
d="M1069 0h-270l-197 487h-131v-487h-246v1434h432q149 0 248 -99t99 -248v-256q0 -88 -43 -166.5t-117 -125.5zM754 823v275q0 38 -30 67t-71 29h-182v-467h182q41 0 71 29t30 67zM786 -111l-229 -346h-199l150 346h278z" />
    <glyph glyph-name="uni0157" unicode="&#x157;" 
d="M838 1042q156 0 235 -110q82 -107 82 -254h-242q0 63 -34 108t-84 45q-69 0 -119.5 -51.5t-50.5 -120.5v-446h413v-213h-870v213h207v811h235l6 -84q12 16 25 29q27 22 76 45q61 28 121 28zM797 -111l-230 -346h-198l149 346h279z" />
    <glyph glyph-name="Rcaron" unicode="&#x158;" 
d="M1069 0h-270l-197 487h-131v-487h-246v1434h432q149 0 248 -99t99 -248v-256q0 -88 -43 -166.5t-117 -125.5zM754 823v275q0 38 -30 67t-71 29h-182v-467h182q41 0 71 29t30 67zM506 1546l-270 318h260l118 -133l121 133h256l-266 -318h-219z" />
    <glyph glyph-name="rcaron" unicode="&#x159;" 
d="M838 1042q156 0 235 -110q82 -107 82 -254h-242q0 63 -34 108t-84 45q-69 0 -119.5 -51.5t-50.5 -120.5v-446h413v-213h-870v213h207v811h235l6 -84q12 16 25 29q27 22 76 45q61 28 121 28zM641 1137l-270 317h260l119 -133l120 133h256l-266 -317h-219z" />
    <glyph glyph-name="Sacute" unicode="&#x15a;" 
d="M616 1221q-63 0 -109 -44t-46 -104q0 -107 203 -213q58 -28 102.5 -54t98.5 -70t89.5 -91.5t59 -116.5t22.5 -147q0 -163 -123 -283q-121 -118 -297 -118q-182 0 -301 116q-118 118 -118 289v61h241v-61q0 -78 51 -125t121 -47q77 0 124.5 45t47.5 109q0 140 -200 241
q-46 23 -72.5 37t-71 41t-72 50t-60.5 58.5t-51 72.5t-30.5 85.5t-11.5 102.5q0 170 117 284q121 115 286 115q187 0 293 -127q105 -126 105 -293h-246q0 82 -42 134.5t-110 52.5zM1024 1864l-324 -318h-235l244 318h315z" />
    <glyph glyph-name="sacute" unicode="&#x15b;" 
d="M997 707h-254q0 57 -36.5 93t-90.5 36q-52 0 -85 -26t-33 -60q0 -39 46.5 -68.5t131.5 -58.5q52 -15 91 -30t87.5 -42.5t79 -59.5t52 -81.5t20.5 -108.5q0 -135 -117 -229q-115 -92 -275 -92q-186 0 -292 100q-107 101 -107 239h256q0 -53 39 -91t100 -38q65 0 99 28.5
t34 70.5q0 33 -27.5 58.5t-71 44t-96 37.5t-105.5 44t-96.5 57t-71 83t-27.5 116q0 139 110 227t263 88q174 0 274 -100q102 -99 102 -237zM1012 1454l-324 -317h-235l243 317h316z" />
    <glyph glyph-name="Scircumflex" unicode="&#x15c;" 
d="M616 1221q-63 0 -109 -44t-46 -104q0 -107 203 -213q58 -28 102.5 -54t98.5 -70t89.5 -91.5t59 -116.5t22.5 -147q0 -163 -123 -283q-121 -118 -297 -118q-182 0 -301 116q-118 118 -118 289v61h241v-61q0 -78 51 -125t121 -47q77 0 124.5 45t47.5 109q0 140 -200 241
q-46 23 -72.5 37t-71 41t-72 50t-60.5 58.5t-51 72.5t-30.5 85.5t-11.5 102.5q0 170 117 284q121 115 286 115q187 0 293 -127q105 -126 105 -293h-246q0 82 -42 134.5t-110 52.5zM618 1679l-118 -133h-260l270 318h219l266 -318h-256z" />
    <glyph glyph-name="scircumflex" unicode="&#x15d;" 
d="M997 707h-254q0 57 -36.5 93t-90.5 36q-52 0 -85 -26t-33 -60q0 -39 46.5 -68.5t131.5 -58.5q52 -15 91 -30t87.5 -42.5t79 -59.5t52 -81.5t20.5 -108.5q0 -135 -117 -229q-115 -92 -275 -92q-186 0 -292 100q-107 101 -107 239h256q0 -53 39 -91t100 -38q65 0 99 28.5
t34 70.5q0 33 -27.5 58.5t-71 44t-96 37.5t-105.5 44t-96.5 57t-71 83t-27.5 116q0 139 110 227t263 88q174 0 274 -100q102 -99 102 -237zM625 1270l-119 -133h-260l270 317h219l266 -317h-256z" />
    <glyph glyph-name="Scedilla" unicode="&#x15e;" 
d="M616 1221q-63 0 -109 -44t-46 -104q0 -107 203 -213q58 -28 102.5 -54t98.5 -70t89.5 -91.5t59 -116.5t22.5 -147q0 -146 -102 -260t-252 -135v-37q66 -6 112 -54t46 -114q0 -73 -53.5 -121.5t-133.5 -48.5h-166v129h117q23 0 37 13t14 36q0 19 -14 33t-37 14h-96v158
q-139 32 -225 140.5t-86 250.5v61h241v-61q0 -78 51 -125t121 -47q77 0 124.5 45t47.5 109q0 140 -200 241q-46 23 -72.5 37t-71 41t-72 50t-60.5 58.5t-51 72.5t-30.5 85.5t-11.5 102.5q0 170 117 284q121 115 286 115q187 0 293 -127q105 -126 105 -293h-246
q0 82 -42 134.5t-110 52.5z" />
    <glyph glyph-name="scedilla" unicode="&#x15f;" 
d="M997 707h-254q0 57 -36.5 93t-90.5 36q-52 0 -85 -26t-33 -60q0 -39 46.5 -68.5t131.5 -58.5q52 -15 91 -30t87.5 -42.5t79 -59.5t52 -81.5t20.5 -108.5q0 -122 -95 -211q-94 -88 -233 -106v-35q66 -6 112 -54t46 -114q0 -73 -53.5 -121.5t-133.5 -48.5h-166v129h117
q23 0 37 13t14 36q0 19 -14 33t-37 14h-96v156q-133 29 -211 119.5t-78 207.5h256q0 -53 39 -91t100 -38q65 0 99 28.5t34 70.5q0 33 -27.5 58.5t-71 44t-96 37.5t-105.5 44t-96.5 57t-71 83t-27.5 116q0 139 110 227t263 88q174 0 274 -100q102 -99 102 -237z" />
    <glyph glyph-name="Scaron" unicode="&#x160;" 
d="M616 1221q-63 0 -109 -44t-46 -104q0 -107 203 -213q58 -28 102.5 -54t98.5 -70t89.5 -91.5t59 -116.5t22.5 -147q0 -163 -123 -283q-121 -118 -297 -118q-182 0 -301 116q-118 118 -118 289v61h241v-61q0 -78 51 -125t121 -47q77 0 124.5 45t47.5 109q0 140 -200 241
q-46 23 -72.5 37t-71 41t-72 50t-60.5 58.5t-51 72.5t-30.5 85.5t-11.5 102.5q0 170 117 284q121 115 286 115q187 0 293 -127q105 -126 105 -293h-246q0 82 -42 134.5t-110 52.5zM512 1546l-270 318h260l119 -133l120 133h256l-266 -318h-219z" />
    <glyph glyph-name="scaron" unicode="&#x161;" 
d="M997 707h-254q0 57 -36.5 93t-90.5 36q-52 0 -85 -26t-33 -60q0 -39 46.5 -68.5t131.5 -58.5q52 -15 91 -30t87.5 -42.5t79 -59.5t52 -81.5t20.5 -108.5q0 -135 -117 -229q-115 -92 -275 -92q-186 0 -292 100q-107 101 -107 239h256q0 -53 39 -91t100 -38q65 0 99 28.5
t34 70.5q0 33 -27.5 58.5t-71 44t-96 37.5t-105.5 44t-96.5 57t-71 83t-27.5 116q0 139 110 227t263 88q174 0 274 -100q102 -99 102 -237zM516 1137l-270 317h260l119 -133l120 133h256l-266 -317h-219z" />
    <glyph glyph-name="uni0162" unicode="&#x162;" 
d="M487 1194h-297v240h846v-240h-299v-1194h-250v1194zM780 -111l-229 -346h-199l150 346h278z" />
    <glyph glyph-name="uni0163" unicode="&#x163;" 
d="M299 330v481h-176v213h176v268h244v-268h501v-213h-501v-463q0 -74 39.5 -114.5t111.5 -40.5q68 0 111 43t43 110h242v-18q0 -152 -108.5 -250t-291.5 -98q-184 0 -287.5 93t-103.5 257zM786 -111l-229 -346h-199l150 346h278z" />
    <glyph glyph-name="Tcaron" unicode="&#x164;" 
d="M487 1194h-297v240h846v-240h-299v-1194h-250v1194zM506 1546l-270 318h260l118 -133l121 133h256l-266 -318h-219z" />
    <glyph glyph-name="tcaron" unicode="&#x165;" 
d="M299 330v481h-176v213h176v268h244v-268h501v-213h-501v-463q0 -74 39.5 -114.5t111.5 -40.5q68 0 111 43t43 110h242v-18q0 -152 -108.5 -250t-291.5 -98q-184 0 -287.5 93t-103.5 257zM1257 1436l-229 -346h-199l150 346h278z" />
    <glyph glyph-name="Tbar" unicode="&#x166;" 
d="M487 1194h-297v240h846v-240h-299v-330h215v-225h-215v-639h-250v639h-213v225h213v330z" />
    <glyph glyph-name="tbar" unicode="&#x167;" 
d="M319 463h-165v207h165v141h-176v213h176v268h244v-268h502v-213h-502v-141h279v-207h-279v-115q0 -73 40 -114t112 -41q68 0 110.5 43t42.5 110h242v-18q0 -152 -108 -250t-291 -98q-184 0 -288 93t-104 257v133z" />
    <glyph glyph-name="Utilde" unicode="&#x168;" 
d="M795 1434h243v-1053q0 -165 -123 -285q-119 -116 -301 -116t-303 118q-123 120 -123 285v1051h244v-1063q0 -63 54.5 -111.5t127.5 -48.5t127 47.5t54 110.5v1065zM467 1544h-219q0 116 61 195q61 82 156 82q55 0 129 -39q75 -37 104 -37q26 0 44 19.5t18 43.5h219
q0 -114 -64 -196q-62 -80 -153 -80q-56 0 -131 37q-74 39 -103 39q-25 0 -42 -19t-19 -45z" />
    <glyph glyph-name="utilde" unicode="&#x169;" 
d="M190 1024h252v-659q0 -78 46.5 -124t117.5 -46q69 0 122.5 50t53.5 113v666h250v-1024h-233l-6 84l-33 -31q-30 -22 -86 -45q-67 -28 -127 -28q-156 0 -256 106q-101 107 -101 274v664zM467 1135h-219q0 115 61 194q61 82 156 82q55 0 129 -39q75 -37 104 -37
q25 0 43.5 20t18.5 44h219q0 -115 -64 -197q-62 -80 -153 -80q-56 0 -131 37q-74 39 -103 39q-25 0 -42 -18.5t-19 -44.5z" />
    <glyph glyph-name="Umacron" unicode="&#x16a;" 
d="M795 1434h243v-1053q0 -165 -123 -285q-119 -116 -301 -116t-303 118q-123 120 -123 285v1051h244v-1063q0 -63 54.5 -111.5t127.5 -48.5t127 47.5t54 110.5v1065zM909 1585h-592v207h592v-207z" />
    <glyph glyph-name="umacron" unicode="&#x16b;" 
d="M190 1024h252v-659q0 -78 46.5 -124t117.5 -46q69 0 122.5 50t53.5 113v666h250v-1024h-233l-6 84l-33 -31q-30 -22 -86 -45q-67 -28 -127 -28q-156 0 -256 106q-101 107 -101 274v664zM909 1176h-592v206h592v-206z" />
    <glyph glyph-name="Ubreve" unicode="&#x16c;" 
d="M795 1434h243v-1053q0 -165 -123 -285q-119 -116 -301 -116t-303 118q-123 120 -123 285v1051h244v-1063q0 -63 54.5 -111.5t127.5 -48.5t127 47.5t54 110.5v1065zM303 1864h201q0 -60 27 -97.5t81 -37.5q113 0 113 135h201q0 -137 -86.5 -227.5t-225.5 -90.5t-225 90.5
t-86 227.5z" />
    <glyph glyph-name="ubreve" unicode="&#x16d;" 
d="M190 1024h252v-659q0 -78 46.5 -124t117.5 -46q69 0 122.5 50t53.5 113v666h250v-1024h-233l-6 84l-33 -31q-30 -22 -86 -45q-67 -28 -127 -28q-156 0 -256 106q-101 107 -101 274v664zM303 1454h201q0 -60 27 -97.5t81 -37.5q113 0 113 135h201q0 -137 -86.5 -227
t-225.5 -90t-225 90t-86 227z" />
    <glyph glyph-name="Uring" unicode="&#x16e;" 
d="M795 1434h243v-1053q0 -165 -123 -285q-119 -116 -301 -116t-303 118q-123 120 -123 285v1051h244v-1063q0 -63 54.5 -111.5t127.5 -48.5t127 47.5t54 110.5v1065zM616 1935q110 0 179 -56.5t69 -152.5q0 -93 -69.5 -150.5t-178.5 -57.5q-112 0 -181.5 56.5t-69.5 151.5
q0 96 69.5 152.5t181.5 56.5zM616 1651q35 0 58.5 22.5t23.5 55.5q0 31 -24 55t-58 24q-53 0 -75 -39t0 -78.5t75 -39.5z" />
    <glyph glyph-name="uring" unicode="&#x16f;" 
d="M190 1024h252v-659q0 -78 46.5 -124t117.5 -46q69 0 122.5 50t53.5 113v666h250v-1024h-233l-6 84l-33 -31q-30 -22 -86 -45q-67 -28 -127 -28q-156 0 -256 106q-101 107 -101 274v664zM616 1526q110 0 179 -56.5t69 -152.5q0 -93 -69.5 -151t-178.5 -58
q-112 0 -181.5 56.5t-69.5 152.5t69.5 152.5t181.5 56.5zM616 1241q35 0 58.5 22.5t23.5 55.5q0 32 -24 56t-58 24q-53 0 -75 -39.5t0 -79t75 -39.5z" />
    <glyph glyph-name="Uhungarumlaut" unicode="&#x170;" 
d="M795 1434h243v-1053q0 -165 -123 -285q-119 -116 -301 -116t-303 118q-123 120 -123 285v1051h244v-1063q0 -63 54.5 -111.5t127.5 -48.5t127 47.5t54 110.5v1065zM801 1847l-291 -284h-213l219 284h285zM1223 1847l-291 -284h-213l219 284h285z" />
    <glyph glyph-name="uhungarumlaut" unicode="&#x171;" 
d="M190 1024h252v-659q0 -78 46.5 -124t117.5 -46q69 0 122.5 50t53.5 113v666h250v-1024h-233l-6 84l-33 -31q-30 -22 -86 -45q-67 -28 -127 -28q-156 0 -256 106q-101 107 -101 274v664zM793 1438l-291 -285h-213l219 285h285zM1214 1438l-290 -285h-213l219 285h284z" />
    <glyph glyph-name="Uogonek" unicode="&#x172;" 
d="M795 1434h243v-1053q0 -169 -118 -281q-181 -169 -181 -258q0 -51 41 -51h115v-180h-180q-77 0 -130 52t-53 118q0 117 105 199h-23q-182 0 -303 118q-123 120 -123 285v1051h244v-1063q0 -63 54.5 -111.5t127.5 -48.5t127 47.5t54 110.5v1065z" />
    <glyph glyph-name="uogonek" unicode="&#x173;" 
d="M1024 -209v-180h-180q-83 0 -132.5 50t-49.5 120q0 35 10.5 66.5t29 56t34 40.5t35 32.5t22.5 19.5l6 4l-6 84l-33 -31q-30 -22 -86 -45q-67 -28 -127 -28q-156 0 -256 106q-101 107 -101 274v664h252v-659q0 -78 46.5 -124t117.5 -46q69 0 122.5 50t53.5 113v666h250
v-1024l-47 -31q-31 -25 -72 -65q-45 -45 -45 -76q0 -37 52 -37h104z" />
    <glyph glyph-name="Wcircumflex" unicode="&#x174;" 
d="M850 223l22 611v600h236v-623l-76 -811h-323l-82 557h-27l-80 -557h-323l-78 811v623h235v-600l23 -611h31l90 580h231l90 -580h31zM614 1679l-118 -133h-260l270 318h219l266 -318h-256z" />
    <glyph glyph-name="wcircumflex" unicode="&#x175;" 
d="M825 221l39 418v385h221v-418l-94 -606h-297l-71 442h-17l-76 -442h-299l-90 606v418h221v-385l39 -418h19l92 424h205l90 -424h18zM614 1270l-118 -133h-260l270 317h219l266 -317h-256z" />
    <glyph glyph-name="Ycircumflex" unicode="&#x176;" 
d="M129 1434h270l215 -492l213 492h273l-361 -762v-672h-252v672zM614 1679l-118 -133h-260l270 318h219l266 -318h-256z" />
    <glyph glyph-name="ycircumflex" unicode="&#x177;" 
d="M113 1024h280l230 -651l225 651h274l-538 -1393h-265l166 424zM623 1270l-119 -133h-260l270 317h219l266 -317h-256z" />
    <glyph glyph-name="Ydieresis" unicode="&#x178;" 
d="M129 1434h270l215 -492l213 492h273l-361 -762v-672h-252v672zM522 1593h-231v238h231v-238zM938 1593h-233v238h233v-238z" />
    <glyph glyph-name="Zacute" unicode="&#x179;" 
d="M1022 1434v-236l-528 -958h532v-240h-825v238l532 956h-502v240h791zM1012 1864l-324 -318h-235l243 318h316z" />
    <glyph glyph-name="zacute" unicode="&#x17a;" 
d="M1004 1024v-207l-484 -604h494v-213h-799v203l487 608h-458v213h760zM1008 1454l-324 -317h-235l243 317h316z" />
    <glyph glyph-name="Zdotaccent" unicode="&#x17b;" 
d="M1022 1434v-236l-528 -958h532v-240h-825v238l532 956h-502v240h791zM766 1581h-258v262h258v-262z" />
    <glyph glyph-name="zdotaccent" unicode="&#x17c;" 
d="M1004 1024v-207l-484 -604h494v-213h-799v203l487 608h-458v213h760zM762 1171h-258v263h258v-263z" />
    <glyph glyph-name="Zcaron" unicode="&#x17d;" 
d="M1022 1434v-236l-528 -958h532v-240h-825v238l532 956h-502v240h791zM532 1546l-270 318h260l119 -133l121 133h256l-266 -318h-220z" />
    <glyph glyph-name="zcaron" unicode="&#x17e;" 
d="M1004 1024v-207l-484 -604h494v-213h-799v203l487 608h-458v213h760zM539 1137l-271 317h260l119 -133l121 133h256l-266 -317h-219z" />
    <glyph glyph-name="florin" unicode="&#x192;" 
d="M692 645v-1012h-250v1012h-276v213h276v238q0 151 109 254q107 104 262 104h25q68 0 136 -23t103 -51l33 -22l-127 -176q-65 59 -152 59h-12q-56 0 -91.5 -40.5t-35.5 -98.5v-244h379v-213h-379z" />
    <glyph glyph-name="uni01F4" unicode="&#x1f4;" 
d="M621 543v231h417v-393q0 -165 -123 -285q-119 -116 -297 -116q-175 0 -296 118q-123 120 -123 285v670q0 162 123 282q125 119 294 119q87 0 159 -27t118 -70t78 -99.5t45.5 -113.5t13.5 -114h-244q0 77 -46.5 134t-121.5 57q-67 0 -117 -46.5t-50 -109.5v-694
q0 -63 50 -110.5t117 -47.5q65 0 119 45q58 46 58 113v172h-174zM989 1864l-323 -318h-236l244 318h315z" />
    <glyph glyph-name="uni01F5" unicode="&#x1f5;" 
d="M705 580v145q0 46 -36.5 77.5t-95.5 31.5q-54 0 -89 -32t-35 -77v-145q0 -45 35 -77t89 -32q59 0 95.5 31.5t36.5 77.5zM776 -27h-385q-35 0 -58.5 -23t-23.5 -56q0 -31 23.5 -51.5t58.5 -20.5h383q35 0 58.5 21t23.5 53q0 31 -24 54t-56 23zM1012 1147v-209
q-76 0 -115 -51q53 -77 53 -176v-123q0 -121 -96 -217q-96 -93 -238 -105v-102h203q112 0 193 -78q82 -76 82 -192q0 -117 -77.5 -190t-199.5 -73h-434q-116 0 -191 73.5t-75 189.5q0 115 80 192q81 78 198 78v141q-87 43 -139.5 120t-52.5 163v123q0 144 112 237
q116 96 269 96q66 0 139 -28q49 71 112 101t177 30zM956 1454l-323 -317h-236l244 317h315z" />
    <glyph glyph-name="uni0218" unicode="&#x218;" 
d="M616 1221q-63 0 -109 -44t-46 -104q0 -107 203 -213q58 -28 102.5 -54t98.5 -70t89.5 -91.5t59 -116.5t22.5 -147q0 -163 -123 -283q-121 -118 -297 -118q-182 0 -301 116q-118 118 -118 289v61h241v-61q0 -78 51 -125t121 -47q77 0 124.5 45t47.5 109q0 140 -200 241
q-46 23 -72.5 37t-71 41t-72 50t-60.5 58.5t-51 72.5t-30.5 85.5t-11.5 102.5q0 170 117 284q121 115 286 115q187 0 293 -127q105 -126 105 -293h-246q0 82 -42 134.5t-110 52.5zM778 -111l-229 -346h-199l150 346h278z" />
    <glyph glyph-name="uni0219" unicode="&#x219;" 
d="M997 707h-254q0 57 -36.5 93t-90.5 36q-52 0 -85 -26t-33 -60q0 -39 46.5 -68.5t131.5 -58.5q52 -15 91 -30t87.5 -42.5t79 -59.5t52 -81.5t20.5 -108.5q0 -135 -117 -229q-115 -92 -275 -92q-186 0 -292 100q-107 101 -107 239h256q0 -53 39 -91t100 -38q65 0 99 28.5
t34 70.5q0 33 -27.5 58.5t-71 44t-96 37.5t-105.5 44t-96.5 57t-71 83t-27.5 116q0 139 110 227t263 88q174 0 274 -100q102 -99 102 -237zM780 -111l-229 -346h-199l150 346h278z" />
    <glyph glyph-name="uni021A" unicode="&#x21a;" 
d="M487 1194h-297v240h846v-240h-299v-1194h-250v1194zM780 -111l-229 -346h-199l150 346h278z" />
    <glyph glyph-name="uni021B" unicode="&#x21b;" 
d="M299 330v481h-176v213h176v268h244v-268h501v-213h-501v-463q0 -74 39.5 -114.5t111.5 -40.5q68 0 111 43t43 110h242v-18q0 -152 -108.5 -250t-291.5 -98q-184 0 -287.5 93t-103.5 257zM786 -111l-229 -346h-199l150 346h278z" />
    <glyph glyph-name="uni02BC" unicode="&#x2bc;" 
d="M836 1434l-230 -347h-198l149 347h279z" />
    <glyph glyph-name="circumflex" unicode="&#x2c6;" 
d="M614 1270l-118 -133h-260l270 317h219l266 -317h-256z" />
    <glyph glyph-name="caron" unicode="&#x2c7;" 
d="M506 1137l-270 317h260l118 -133l121 133h256l-266 -317h-219z" />
    <glyph glyph-name="breve" unicode="&#x2d8;" 
d="M303 1454h201q0 -60 27 -97.5t81 -37.5q113 0 113 135h201q0 -137 -86.5 -227t-225.5 -90t-225 90t-86 227z" />
    <glyph glyph-name="dotaccent" unicode="&#x2d9;" 
d="M743 1171h-258v263h258v-263z" />
    <glyph glyph-name="ring" unicode="&#x2da;" 
d="M616 1526q110 0 179 -56.5t69 -152.5q0 -93 -69.5 -151t-178.5 -58q-112 0 -181.5 56.5t-69.5 152.5t69.5 152.5t181.5 56.5zM616 1241q35 0 58.5 22.5t23.5 55.5q0 32 -24 56t-58 24q-53 0 -75 -39.5t0 -79t75 -39.5z" />
    <glyph glyph-name="ogonek" unicode="&#x2db;" 
d="M791 -209v-180h-181q-83 0 -132.5 50t-49.5 120q0 118 127 211l14 8h230l-47 -31q-32 -25 -72 -65q-45 -45 -45 -76q0 -37 51 -37h105z" />
    <glyph glyph-name="tilde" unicode="&#x2dc;" 
d="M467 1135h-219q0 115 61 194q61 82 156 82q55 0 129 -39q75 -37 104 -37q25 0 43.5 20t18.5 44h219q0 -115 -64 -197q-62 -80 -153 -80q-56 0 -131 37q-74 39 -103 39q-25 0 -42 -18.5t-19 -44.5z" />
    <glyph glyph-name="hungarumlaut" unicode="&#x2dd;" 
d="M662 1438l-291 -285h-213l219 285h285zM1083 1438l-290 -285h-213l219 285h284z" />
    <glyph glyph-name="acutecomb" unicode="&#x301;" 
d="M893 1454l-324 -317h-235l244 317h315z" />
    <glyph glyph-name="uni0394" unicode="&#x394;" 
d="M1096 0h-963l283 1434h397zM635 1196h-41l-174 -950h389z" />
    <glyph glyph-name="uni03A9" unicode="&#x3a9;" 
d="M172 0v221h147v8q-126 108 -126 281v547q0 159 114 276q113 119 309 119q193 0 306 -119q116 -119 116 -276v-549q0 -171 -129 -279v-8h150v-221h-397v252q0 39 55 82q80 65 80 160v565q0 69 -49.5 116.5t-131.5 47.5q-83 0 -132.5 -47.5t-49.5 -116.5v-565
q0 -101 80 -160q55 -40 55 -82v-252h-397z" />
    <glyph glyph-name="uni03BC" unicode="&#x3bc;" 
d="M1040 205h45v-215h-96q-152 0 -203 100q-82 -110 -217 -110q-35 0 -71 11t-56 25l-16 13v-398h-252v1393h252v-692q0 -60 43 -98.5t106 -38.5t110.5 46.5t47.5 116.5v666h248v-766q0 -21 17.5 -37t41.5 -16z" />
    <glyph glyph-name="pi" unicode="&#x3c0;" 
d="M977 0h-240v811h-243v-811h-240v811h-96v213h915v-213h-96v-811z" />
    <glyph glyph-name="uni0401" unicode="&#x401;" 
d="M246 0v1434h731v-240h-488v-328h445v-237h-445v-389h502v-240h-745zM543 1593h-232v238h232v-238zM958 1593h-233v238h233v-238z" />
    <glyph glyph-name="uni0402" unicode="&#x402;" 
d="M721 0h-37v231h35q66 0 101.5 33.5t35.5 95.5v232q0 141 -123 141q-90 0 -160 -28l-20 -11v-694h-244v1194h-225v240h762v-240h-293v-258q76 29 209 29q149 0 243.5 -98t94.5 -261v-258q0 -165 -100.5 -256.5t-278.5 -91.5z" />
    <glyph glyph-name="uni0403" unicode="&#x403;" 
d="M1073 1194h-528v-1194h-244v1434h772v-240zM1085 1864l-323 -318h-236l244 318h315z" />
    <glyph glyph-name="uni0404" unicode="&#x404;" 
d="M461 864h332v-239h-332v-248q0 -74 47.5 -119t120.5 -45t125.5 47t52.5 125v61h242v-61q0 -167 -123 -287q-121 -118 -297 -118t-297 118q-123 120 -123 285v670q0 166 119 282q119 119 293 119q194 0 303 -133q106 -130 106 -285h-237q0 76 -47 130.5t-123 54.5
q-71 0 -116.5 -46t-45.5 -116v-195z" />
    <glyph glyph-name="uni0405" unicode="&#x405;" 
d="M616 1221q-63 0 -109 -44t-46 -104q0 -107 203 -213q58 -28 102.5 -54t98.5 -70t89.5 -91.5t59 -116.5t22.5 -147q0 -163 -123 -283q-121 -118 -297 -118q-182 0 -301 116q-118 118 -118 289v61h241v-61q0 -78 51 -125t121 -47q77 0 124.5 45t47.5 109q0 140 -200 241
q-46 23 -72.5 37t-71 41t-72 50t-60.5 58.5t-51 72.5t-30.5 85.5t-11.5 102.5q0 170 117 284q121 115 286 115q187 0 293 -127q105 -126 105 -293h-246q0 82 -42 134.5t-110 52.5z" />
    <glyph glyph-name="uni0406" unicode="&#x406;" 
d="M489 1204h-278v230h805v-230h-277v-975h277v-229h-805v229h278v975z" />
    <glyph glyph-name="uni0407" unicode="&#x407;" 
d="M489 1204h-278v230h805v-230h-277v-975h277v-229h-805v229h278v975zM522 1593h-231v238h231v-238zM938 1593h-233v238h233v-238z" />
    <glyph glyph-name="uni0408" unicode="&#x408;" 
d="M735 1204h-497v230h745v-1057q0 -163 -121 -281q-120 -114 -289 -114q-170 0 -290 114q-117 114 -117 281v110h242v-112q0 -67 48.5 -115.5t116.5 -48.5q69 0 115.5 48.5t46.5 117.5v827z" />
    <glyph glyph-name="uni0409" unicode="&#x409;" 
d="M205 1434h588v-564h38q162 0 259 -100q98 -98 98 -248v-176q0 -147 -98 -248q-98 -98 -259 -98h-278v1202h-135q-36 -813 -45 -905q-14 -143 -87.5 -226t-199.5 -83l-66 6v211q129 0 138 164q25 412 47 1065zM940 332v209q0 41 -31 69.5t-75 28.5h-41v-408h41q44 0 75 29
t31 72z" />
    <glyph glyph-name="uni040A" unicode="&#x40a;" 
d="M545 1434h231v-566h45q160 0 258 -98q99 -99 99 -248v-176q0 -146 -99 -248q-98 -98 -258 -98h-276v635h-219v-635h-236v1434h236v-566h219v566zM948 334v205q0 41 -31 69.5t-75 28.5h-66v-404h66q44 0 75 29t31 72z" />
    <glyph glyph-name="uni040B" unicode="&#x40b;" 
d="M1090 0h-244v592q0 66 -34 103.5t-97 37.5q-76 0 -152 -28l-20 -11v-694h-244v1200h-225v234h760v-234h-291v-268q79 33 196 33q164 0 257.5 -96.5t93.5 -262.5v-606z" />
    <glyph glyph-name="uni040C" unicode="&#x40c;" 
d="M199 1434h245v-564h60l358 564h260l-438 -676l469 -758h-276l-369 629h-64v-629h-245v1434zM1010 1864l-324 -318h-235l243 318h316z" />
    <glyph glyph-name="uni040E" unicode="&#x40e;" 
d="M868 1434h267l-580 -1434h-262l221 532l-373 902h279l225 -598zM332 1864h200q0 -152 109 -152q61 0 87 37t26 115h200q0 -145 -80.5 -231.5t-230.5 -86.5t-230.5 87t-80.5 231z" />
    <glyph glyph-name="uni040F" unicode="&#x40f;" 
d="M496 -305v305h-295v1432h243v-1188h340v1188h244v-1432h-295v-305h-237z" />
    <glyph glyph-name="uni0410" unicode="&#x410;" 
d="M186 627l234 807h389l233 -807v-627h-241v426h-373v-426h-242v627zM451 666h327l-143 528h-41z" />
    <glyph glyph-name="uni0411" unicode="&#x411;" 
d="M774 354v174q0 50 -32.5 85.5t-82.5 35.5h-176v-416h176q50 0 82.5 34.5t32.5 86.5zM934 1434v-240h-451v-309h185q148 0 247 -99q101 -94 101 -243v-203q0 -146 -101 -244q-101 -96 -247 -96h-428v1434h694z" />
    <glyph glyph-name="uni0412" unicode="&#x412;" 
d="M647 1194h-186v-324h186q44 0 76.5 30t32.5 71v123q0 41 -32.5 70.5t-76.5 29.5zM639 631h-178v-391h178q51 0 87 34.5t36 83.5v152q0 43 -35 82t-88 39zM213 0v1434h432q150 0 252 -99q102 -95 102 -237v-119q0 -57 -21.5 -113t-47.5 -84l-25 -26q17 -13 29 -27
q21 -17 47 -80q31 -67 31 -137v-154q0 -156 -111 -258q-109 -100 -262 -100h-426z" />
    <glyph glyph-name="uni0413" unicode="&#x413;" 
d="M1073 1194h-528v-1194h-244v1434h772v-240z" />
    <glyph glyph-name="uni0414" unicode="&#x414;" horiz-adv-x="1230" 
d="M891 0h-561v-305h-240v536h41q128 0 143 162l105 1041h635v-1203h116v-536h-239v305zM774 1202h-188l-78 -788q-12 -117 -41 -164l-8 -19h315v971z" />
    <glyph glyph-name="uni0415" unicode="&#x415;" 
d="M246 0v1434h731v-240h-488v-328h445v-237h-445v-389h502v-240h-745z" />
    <glyph glyph-name="uni0416" unicode="&#x416;" horiz-adv-x="1226" 
d="M1190 1434l-246 -676l262 -758h-245l-189 629h-45v-629h-227v629h-45l-189 -629h-243l260 758l-242 676h244l172 -562h43v562h227v-562h41l174 562h248z" />
    <glyph glyph-name="uni0417" unicode="&#x417;" 
d="M653 639h-184v229h166q58 0 90.5 40.5t32.5 95.5v61q0 73 -43.5 117.5t-116.5 44.5q-74 0 -114.5 -52t-45.5 -145h-239q0 173 112 297q115 127 301 127q181 0 288.5 -107.5t107.5 -295.5v-35q0 -70 -24.5 -133.5t-53.5 -91.5l-25 -25q5 -3 12.5 -9t27.5 -29.5t35 -52
t27.5 -79t12.5 -109.5v-100q0 -180 -121 -295q-118 -112 -297 -112q-182 0 -301 116q-121 121 -121 289l2 61h240v-61q0 -82 51 -128t129 -46q69 0 117.5 47.5t48.5 116.5v149q0 51 -31 83t-84 32z" />
    <glyph glyph-name="uni0418" unicode="&#x418;" 
d="M399 487l7 -2l413 949h219v-1434h-231v487q0 110 6 224l10 174l6 61l-6 2l-415 -948h-218v1434h232v-502q0 -95 -6 -209l-10 -174z" />
    <glyph glyph-name="uni0419" unicode="&#x419;" 
d="M303 1864h201q0 -152 108 -152q61 0 87 37t26 115h201q0 -145 -81 -231.5t-231 -86.5t-230.5 87t-80.5 231zM399 487l7 -2l413 949h219v-1434h-231v487q0 110 6 224l10 174l6 61l-6 2l-415 -948h-218v1434h232v-502q0 -95 -6 -209l-10 -174z" />
    <glyph glyph-name="uni041A" unicode="&#x41a;" 
d="M199 1434h245v-564h60l358 564h260l-438 -676l469 -758h-276l-369 629h-64v-629h-245v1434z" />
    <glyph glyph-name="uni041B" unicode="&#x41b;" 
d="M371 1434h635v-1434h-242v1202h-182q-82 -746 -103 -921q-17 -136 -103 -214.5t-220 -78.5l-78 6v205q157 0 178 166z" />
    <glyph glyph-name="uni041C" unicode="&#x41c;" 
d="M881 1063l-7 2l-157 -416h-203l-162 416l-6 -2q23 -286 23 -664v-399h-234v1434h271l215 -566l206 566h267v-1434h-236v393q0 122 4 348q6 169 12 246z" />
    <glyph glyph-name="uni041D" unicode="&#x41d;" 
d="M784 872v562h244v-1434h-244v629h-340v-629h-243v1434h243v-562h340z" />
    <glyph glyph-name="uni041E" unicode="&#x41e;" 
d="M1038 1053v-672q0 -165 -123 -285q-119 -116 -301 -116t-303 118q-123 120 -123 285v670q0 165 123 282q122 119 303 119q182 0 301 -119q123 -117 123 -282zM795 369v696q0 63 -54 110.5t-127 47.5t-126.5 -47.5t-53.5 -110.5v-694q0 -64 53.5 -112t126.5 -48t127 47.5
t54 110.5z" />
    <glyph glyph-name="uni041F" unicode="&#x41f;" 
d="M201 0v1434h827v-1434h-244v1190h-340v-1190h-243z" />
    <glyph glyph-name="uni0420" unicode="&#x420;" 
d="M688 465h-184v-465h-244v1434h428q143 0 244 -101q102 -102 102 -246v-274q0 -148 -100 -248t-246 -100zM786 797v301q0 41 -29.5 68.5t-72.5 27.5h-180v-492h180q42 0 72 28t30 67z" />
    <glyph glyph-name="uni0421" unicode="&#x421;" 
d="M807 446h242v-61q0 -167 -123 -287q-121 -118 -297 -118t-297 118q-123 120 -123 285v670q0 162 123 282q125 119 295 119q88 0 159.5 -27t117.5 -69.5t77 -98.5t44 -111.5t13 -111.5h-245q0 77 -44.5 131t-119.5 54q-73 0 -120.5 -47t-47.5 -115v-682q0 -74 47.5 -119
t120.5 -45t125.5 47t52.5 125v61z" />
    <glyph glyph-name="uni0422" unicode="&#x422;" 
d="M487 1194h-317v240h889v-240h-322v-1194h-250v1194z" />
    <glyph glyph-name="uni0423" unicode="&#x423;" 
d="M868 1434h267l-580 -1434h-262l221 532l-373 902h279l225 -598z" />
    <glyph glyph-name="uni0424" unicode="&#x424;" 
d="M494 1454h237v-131q169 -18 275 -133q106 -112 106 -258v-400q0 -146 -104 -262q-107 -116 -277 -131v-159h-237v159q-171 18 -277 133q-102 114 -102 260v400q0 140 106 252q109 115 273 139v131zM879 524v416q0 49 -47 95.5t-107 58.5v-725q60 12 107 59t47 96z
M348 940v-416q0 -51 45.5 -97t106.5 -58v725q-60 -12 -106 -58.5t-46 -95.5z" />
    <glyph glyph-name="uni0425" unicode="&#x425;" 
d="M162 1434h272l180 -422l181 422h272l-317 -686l346 -748h-275l-207 473l-208 -473h-275l346 748z" />
    <glyph glyph-name="uni0426" unicode="&#x426;" 
d="M870 -305v305h-682v1434h244v-1203h318v1203h243v-1203h117v-536h-240z" />
    <glyph glyph-name="uni0427" unicode="&#x427;" 
d="M756 1434h243v-1434h-243v498q-95 -29 -228 -29q-148 0 -249 98t-101 260v607h244v-592q0 -66 36 -104t99 -38q78 0 174 29l25 10v695z" />
    <glyph glyph-name="uni0428" unicode="&#x428;" 
d="M346 244h156v1190h225v-1190h156v1190h233v-1434h-1003v1434h233v-1190z" />
    <glyph glyph-name="uni0429" unicode="&#x429;" 
d="M1202 -305h-239v305h-861v1434h234v-1194h156v1194h225v-1194h155v1194h234v-1194h96v-545z" />
    <glyph glyph-name="uni042A" unicode="&#x42a;" 
d="M289 1192h-215v242h458v-564h191q192 0 297.5 -100t105.5 -270v-127q0 -173 -106 -273t-299 -100h-432v1192zM879 383v96q0 81 -36 117.5t-116 36.5h-195v-393h199q148 0 148 143z" />
    <glyph glyph-name="uni042B" unicode="&#x42b;" 
d="M1141 0h-240v1434h240v-1434zM86 1434h240v-564h75q192 0 298 -100t106 -270v-127q0 -172 -106.5 -272.5t-299.5 -100.5h-313v1434zM557 383v96q0 82 -35.5 118t-115.5 36h-80v-393h84q147 0 147 143z" />
    <glyph glyph-name="uni042C" unicode="&#x42c;" 
d="M242 1434h243v-564h191q192 0 297.5 -100t105.5 -270v-127q0 -173 -106 -273t-299 -100h-432v1434zM831 383v96q0 82 -35.5 118t-115.5 36h-195v-393h199q147 0 147 143z" />
    <glyph glyph-name="uni042D" unicode="&#x42d;" 
d="M768 625h-332v239h332v195q0 70 -45.5 116t-116.5 46q-76 0 -123 -54.5t-47 -130.5h-237q0 155 106 285q109 133 303 133q174 0 293 -119q119 -116 119 -282v-670q0 -165 -123 -285q-121 -118 -297 -118t-297 118q-123 120 -123 287v61h242v-61q0 -78 52.5 -125
t125.5 -47t120.5 45t47.5 119v248z" />
    <glyph glyph-name="uni042E" unicode="&#x42e;" 
d="M84 1434h229v-566h136v228q0 150 96 254q95 102 243 102q150 0 252 -102q105 -102 105 -254v-758q0 -152 -105 -254q-102 -102 -252 -102t-243 100q-96 104 -96 256v291h-136v-629h-229v1434zM911 330v774q0 50 -33.5 84.5t-84.5 34.5q-49 0 -82 -34.5t-33 -84.5v-774
q0 -50 33 -84.5t82 -34.5q51 0 84.5 34.5t33.5 84.5z" />
    <glyph glyph-name="uni042F" unicode="&#x42f;" 
d="M752 487h-134l-196 -487h-270l225 539q-74 47 -117 125.5t-43 166.5v256q0 150 98 248q99 99 248 99h432v-1434h-243v487zM467 1098v-275q0 -39 29.5 -67.5t70.5 -28.5h185v467h-185q-41 0 -70.5 -28.5t-29.5 -67.5z" />
    <glyph glyph-name="uni0430" unicode="&#x430;" 
d="M575 180q76 0 134 43q59 47 59 94v129l-190 -18q-59 -5 -98.5 -38t-39.5 -83q0 -55 37 -91t98 -36zM492 719h-240q0 115 98 219q97 106 291 106q171 0 271 -99t100 -259v-686h-224l-4 80l-10 -10q-9 -11 -16 -17q-24 -20 -84 -45q-62 -26 -142 -26q-140 0 -241 90
q-98 91 -98 231t106 221q112 85 272 97l197 16v43q0 75 -41 114.5t-104 39.5q-51 0 -87 -32t-44 -83z" />
    <glyph glyph-name="uni0431" unicode="&#x431;" 
d="M1036 649v-276q0 -173 -112 -285q-111 -111 -295 -111q-191 0 -307 113q-117 114 -117 285v475q0 262 135 412t324 168l286 32v-213q-81 -18 -182 -26q-136 -12 -211 -78t-88 -193q76 64 201 64q161 0 264 -103q102 -102 102 -264zM778 346v311q0 61 -43.5 102.5
t-113.5 41.5q-67 0 -113.5 -42t-46.5 -104v-309q0 -69 45 -112.5t117 -43.5t113.5 41.5t41.5 114.5z" />
    <glyph glyph-name="uni0432" unicode="&#x432;" 
d="M612 0h-413v1024h446q168 0 261 -76t93 -215q0 -53 -19 -102t-42 -70l-23 -20q16 -12 29 -25q23 -17 50.5 -78t27.5 -123q0 -153 -103.5 -234t-306.5 -81zM651 811h-209v-176h203q119 0 119 96q0 80 -113 80zM645 424h-203v-211h197q141 0 141 104q0 107 -135 107z" />
    <glyph glyph-name="uni0433" unicode="&#x433;" 
d="M326 0v1024h725v-213h-473v-811h-252z" />
    <glyph glyph-name="uni0434" unicode="&#x434;" 
d="M111 -252v465h28q108 0 123 109l88 702h641v-811h111v-465h-240v252h-510v-252h-241zM553 811l-64 -498q-11 -65 -34 -88l-9 -12h308v598h-201z" />
    <glyph glyph-name="uni0435" unicode="&#x435;" 
d="M768 301h250q0 -143 -117 -231q-116 -88 -285 -88q-180 0 -299 104q-116 104 -116 254v338q0 156 116 260q115 106 297 106t299 -102t117 -260v-244h-571v-102q0 -62 44.5 -102.5t117.5 -40.5q70 0 108.5 29.5t38.5 78.5zM459 688v-55h317v55q0 61 -45.5 104.5
t-116.5 43.5q-66 0 -110.5 -43.5t-44.5 -104.5z" />
    <glyph glyph-name="uni0436" unicode="&#x436;" 
d="M508 1024h211v-379h49l129 379h256l-209 -487l221 -537h-254l-149 438h-43v-438h-211v438h-45l-148 -438h-247l219 537l-209 487h250l129 -379h51v379z" />
    <glyph glyph-name="uni0437" unicode="&#x437;" 
d="M639 422h-98v213h90q100 0 100 98q0 43 -38 73t-95 30q-140 0 -158 -142h-235q0 40 12.5 84t42 92t73 86t112.5 63t153 25q169 0 272 -86q105 -83 105 -215q0 -121 -80 -198q100 -78 100 -234q0 -145 -114 -239q-115 -92 -295 -92q-59 0 -114 13.5t-107 44t-90.5 75
t-62.5 111t-26 147.5h248q0 -84 41 -132.5t117 -48.5q65 0 107 38t42 89q0 105 -102 105z" />
    <glyph glyph-name="uni0438" unicode="&#x438;" 
d="M426 680l-8 -320l379 664h237v-1024h-233v315l10 353l-379 -668h-237v1024h231v-344z" />
    <glyph glyph-name="uni0439" unicode="&#x439;" 
d="M303 1454h201q0 -151 108 -151q61 0 87 37t26 114h201q0 -145 -81 -231t-231 -86t-230.5 86.5t-80.5 230.5zM426 680l-8 -320l379 664h237v-1024h-233v315l10 353l-379 -668h-237v1024h231v-344z" />
    <glyph glyph-name="uni043A" unicode="&#x43a;" 
d="M1133 0h-279l-303 434h-62v-434h-247v1024h247v-377h68l268 377h279l-369 -492z" />
    <glyph glyph-name="uni043B" unicode="&#x43b;" 
d="M1024 0h-244v811h-225q-46 -401 -78 -596q-40 -227 -315 -227h-39v211q65 0 97 20.5t42 75.5q18 93 41 291q31 268 35 311l12 127h674v-1024z" />
    <glyph glyph-name="uni043C" unicode="&#x43c;" 
d="M872 739l-159 -329h-201l-158 327q15 -163 15 -348v-389h-232v1024h281l203 -414l190 414h281v-1024h-232v389z" />
    <glyph glyph-name="uni043D" unicode="&#x43d;" 
d="M195 1024h245v-377h348v377h246v-1024h-246v434h-348v-434h-245v1024z" />
    <glyph glyph-name="uni043E" unicode="&#x43e;" 
d="M1030 694v-364q0 -148 -117 -250q-112 -100 -297 -100q-186 0 -301 100q-116 101 -116 250v364q0 149 116 250q115 100 301 100q185 0 297 -100q117 -102 117 -250zM772 326v370q0 57 -44 96t-114 39q-67 0 -113 -40t-46 -95v-370q0 -55 46.5 -94t114.5 -39t112 38.5
t44 94.5z" />
    <glyph glyph-name="uni043F" unicode="&#x43f;" 
d="M195 0v1024h839v-1024h-246v811h-348v-811h-245z" />
    <glyph glyph-name="uni0440" unicode="&#x440;" 
d="M471 -369h-256v1393h231l5 -72q88 88 231 88q157 0 260 -100q105 -102 105 -248v-360q0 -153 -107 -254q-104 -98 -254 -98q-54 0 -108.5 16.5t-81.5 36.5l-25 16v-418zM791 334v356q0 57 -45 98t-111 41q-67 0 -115.5 -43.5t-48.5 -101.5v-344q0 -62 47.5 -106
t116.5 -44q66 0 111 43.5t45 100.5z" />
    <glyph glyph-name="uni0441" unicode="&#x441;" 
d="M473 680v-346q0 -63 44 -102t112 -39q73 0 115 47t42 131h261q0 -179 -115 -285t-303 -106q-184 0 -299 100q-115 103 -115 262v336q0 160 117 262q116 104 299 104q185 0 296 -104.5t111 -280.5h-254q0 79 -42.5 125.5t-114.5 46.5q-68 0 -111 -42t-43 -109z" />
    <glyph glyph-name="uni0442" unicode="&#x442;" 
d="M160 811v213h909v-213h-330v-811h-250v811h-329z" />
    <glyph glyph-name="uni0443" unicode="&#x443;" 
d="M453 -90l49 127l-371 987h266l240 -694l235 694h265l-475 -1241q-59 -152 -228 -152h-147v205h61q78 0 105 74z" />
    <glyph glyph-name="uni0444" unicode="&#x444;" 
d="M342 678v-334q0 -57 43 -93.5t115 -37.5v598q-72 -5 -115 -40.5t-43 -92.5zM885 344v334q0 56 -44 92t-114 41v-598q69 2 113.5 38t44.5 93zM727 2v-371h-227v371q-173 9 -289 113q-115 106 -115 256v284q0 146 115 252t289 115v412h227v-412q175 -9 287 -115
q116 -104 116 -252v-284q0 -151 -114 -256q-113 -104 -289 -113z" />
    <glyph glyph-name="uni0445" unicode="&#x445;" 
d="M172 1024h285l157 -279l166 279h277l-303 -500l311 -524h-279l-172 299l-172 -299h-280l313 524z" />
    <glyph glyph-name="uni0446" unicode="&#x446;" 
d="M877 -252v252h-713v1024h246v-811h348v811h246v-811h110v-465h-237z" />
    <glyph glyph-name="uni0447" unicode="&#x447;" 
d="M1020 0h-250v313q-124 -47 -248 -47q-151 0 -240 92t-89 260v406h251v-430q0 -117 119 -117q45 0 95.5 14.5t82.5 30.5l29 15v487h250v-1024z" />
    <glyph glyph-name="uni0448" unicode="&#x448;" 
d="M334 1024v-811h172v811h217v-811h172v811h233v-1024h-1028v1024h234z" />
    <glyph glyph-name="uni0449" unicode="&#x449;" 
d="M1221 -252h-222v252h-915v1024h233v-811h170v811h222v-811h170v811h233v-811h109v-465z" />
    <glyph glyph-name="uni044A" unicode="&#x44a;" 
d="M92 811v213h469v-381h172q158 0 248 -96q92 -95 92 -225q0 -133 -92 -228q-88 -94 -248 -94h-418v811h-223zM831 322q0 46 -32.5 78t-87.5 32h-150v-219h150q55 0 87.5 32t32.5 77z" />
    <glyph glyph-name="uni044B" unicode="&#x44b;" 
d="M422 432h-74v-219h74q54 0 84.5 34t30.5 75.5t-30.5 75.5t-84.5 34zM113 1024h235v-381h96q159 0 244 -94q88 -94 88 -227q0 -134 -88 -228q-85 -94 -244 -94h-331v1024zM1110 0h-233v1024h233v-1024z" />
    <glyph glyph-name="uni044C" unicode="&#x44c;" 
d="M795 322q0 46 -33 78t-88 32h-150v-219h150q55 0 88 32t33 77zM279 1024h245v-381h172q158 0 248 -96q92 -95 92 -225q0 -133 -92 -228q-88 -94 -248 -94h-417v1024z" />
    <glyph glyph-name="uni044D" unicode="&#x44d;" 
d="M756 414h-228v215h228v51q0 67 -43 109t-111 42q-72 0 -115 -43.5t-43 -115.5h-254q0 169 113 270q114 102 295 102q183 0 299 -104q117 -102 117 -262v-336q0 -160 -117 -262q-112 -100 -297 -100q-187 0 -302.5 103t-115.5 275h260q0 -77 42.5 -121t115.5 -44
q68 0 112 39t44 102v80z" />
    <glyph glyph-name="uni044E" unicode="&#x44e;" 
d="M1122 711v-400q0 -141 -96 -237q-95 -92 -235 -92q-139 0 -234 92q-94 94 -94 239v121h-115v-434h-235v1024h235v-377h115v64q0 139 94 233q96 96 234 96q139 0 235 -96t96 -233zM893 303v416q0 49 -29.5 80.5t-72.5 31.5q-45 0 -74 -31t-29 -81v-416q0 -49 30 -81
t73 -32t72.5 32t29.5 81z" />
    <glyph glyph-name="uni044F" unicode="&#x44f;" 
d="M766 0v338h-166l-203 -338h-274l242 381q-80 46 -125 128t-45 175q0 133 92 236q91 104 248 104h477v-1024h-246zM436 684q0 -56 39.5 -94.5t99.5 -38.5h191v262h-191q-59 0 -99 -38.5t-40 -90.5z" />
    <glyph glyph-name="uni0451" unicode="&#x451;" 
d="M768 301h250q0 -143 -117 -231q-116 -88 -285 -88q-180 0 -299 104q-116 104 -116 254v338q0 156 116 260q115 106 297 106t299 -102t117 -260v-244h-571v-102q0 -62 44.5 -102.5t117.5 -40.5q70 0 108.5 29.5t38.5 78.5zM459 688v-55h317v55q0 61 -45.5 104.5
t-116.5 43.5q-66 0 -110.5 -43.5t-44.5 -104.5zM522 1184h-231v237h231v-237zM938 1184h-233v237h233v-237z" />
    <glyph glyph-name="uni0452" unicode="&#x452;" 
d="M205 1130h-125v191h125v113h250v-113h217v-191h-217v-217q9 12 26 29q21 21 80 47q64 31 127 31q155 0 256 -107q103 -109 103 -274v-639q0 -164 -103 -270q-102 -105 -270 -105l-35 2v203q156 0 156 180v625q0 75 -46 122.5t-118 47.5t-124 -48.5t-52 -111.5v-645h-250
v1130z" />
    <glyph glyph-name="uni0453" unicode="&#x453;" 
d="M326 0v1024h725v-213h-473v-811h-252zM1085 1454l-323 -317h-236l244 317h315z" />
    <glyph glyph-name="uni0454" unicode="&#x454;" 
d="M463 629h227v-215h-227v-80q0 -63 43.5 -102t111.5 -39q73 0 115.5 44t42.5 121h260q0 -172 -115.5 -275t-302.5 -103q-184 0 -299 100q-114 102 -114 262v336q0 160 117 262q116 104 299 104q180 0 294 -102q113 -101 113 -270h-254q0 72 -43 115.5t-115 43.5
q-68 0 -110.5 -42t-42.5 -109v-51z" />
    <glyph glyph-name="uni0455" unicode="&#x455;" 
d="M997 707h-254q0 57 -36.5 93t-90.5 36q-52 0 -85 -26t-33 -60q0 -39 46.5 -68.5t131.5 -58.5q52 -15 91 -30t87.5 -42.5t79 -59.5t52 -81.5t20.5 -108.5q0 -135 -117 -229q-115 -92 -275 -92q-186 0 -292 100q-107 101 -107 239h256q0 -53 39 -91t100 -38q65 0 99 28.5
t34 70.5q0 33 -27.5 58.5t-71 44t-96 37.5t-105.5 44t-96.5 57t-71 83t-27.5 116q0 139 110 227t263 88q174 0 274 -100q102 -99 102 -237z" />
    <glyph glyph-name="uni0456" unicode="&#x456;" 
d="M571 811h-340v213h588v-811h303v-213h-905v213h354v598zM829 1171h-266v263h266v-263z" />
    <glyph glyph-name="uni0457" unicode="&#x457;" 
d="M571 811h-340v213h588v-811h303v-213h-905v213h354v598zM604 1184h-231v237h231v-237zM1020 1184h-234v237h234v-237z" />
    <glyph glyph-name="uni0458" unicode="&#x458;" 
d="M705 -37v848h-480v213h729v-1040q0 -171 -98.5 -272t-269.5 -101q-79 0 -155 23t-112 51l-34 22l127 176q69 -57 163 -57q130 0 130 137zM963 1171h-269v263h269v-263z" />
    <glyph glyph-name="uni0459" unicode="&#x459;" horiz-adv-x="1226" 
d="M223 1024h563v-381h72q160 0 242 -94q86 -95 86 -227q0 -133 -86 -228q-85 -94 -242 -94h-303v811h-133q-26 -416 -49 -596q-27 -227 -303 -227h-31v211q62 0 92.5 21t34.5 75q4 51 24 301.5t33 427.5zM952 328q0 47 -28 78.5t-82 31.5h-56v-229h56q53 0 81.5 34.5
t28.5 84.5z" />
    <glyph glyph-name="uni045A" unicode="&#x45a;" 
d="M567 1024h240v-381h67q159 0 244 -94q88 -94 88 -227q0 -134 -88 -228q-85 -94 -244 -94h-307v438h-209v-438h-237v1024h237v-381h209v381zM971 326q0 47 -29.5 79.5t-83.5 32.5h-51v-229h51q54 0 83.5 33.5t29.5 83.5z" />
    <glyph glyph-name="uni045B" unicode="&#x45b;" 
d="M205 1130h-125v193h125v111h248v-111h219v-193h-219v-194l30 25q19 13 82 38q67 25 125 25q152 0 252 -106q105 -108 105 -263v-655h-252v647q0 71 -46 116.5t-116 45.5q-72 0 -125 -47t-53 -113v-649h-250v1130z" />
    <glyph glyph-name="uni045C" unicode="&#x45c;" 
d="M1133 0h-279l-303 434h-62v-434h-247v1024h247v-377h68l268 377h279l-369 -492zM1024 1454l-324 -317h-235l244 317h315z" />
    <glyph glyph-name="uni045E" unicode="&#x45e;" 
d="M336 1454h201q0 -151 108 -151q61 0 87 37t26 114h200q0 -145 -80.5 -231t-230.5 -86t-230.5 86.5t-80.5 230.5zM453 -90l49 127l-371 987h266l240 -694l235 694h265l-475 -1241q-59 -152 -228 -152h-147v205h61q78 0 105 74z" />
    <glyph glyph-name="uni045F" unicode="&#x45f;" 
d="M492 -252v252h-297v1024h245v-811h348v811h246v-1024h-299v-252h-243z" />
    <glyph glyph-name="uni0462" unicode="&#x462;" 
d="M852 1257v-233h-299v-154h215q161 0 258 -100q98 -98 98 -248v-176q0 -147 -98 -248q-98 -98 -258 -98h-459v1024h-229v233h229v177h244v-177h299zM877 340v195q0 41 -31.5 69.5t-75.5 28.5h-217v-393h217q45 0 76 29t31 71z" />
    <glyph glyph-name="uni0463" unicode="&#x463;" 
d="M831 322q0 46 -32.5 78t-87.5 32h-150v-219h150q55 0 87.5 32t32.5 77zM829 817h-268v-174h172q158 0 248 -96q92 -95 92 -225q0 -133 -92 -228q-88 -94 -248 -94h-418v817h-184v207h184v410h246v-410h268v-207z" />
    <glyph glyph-name="uni0472" unicode="&#x472;" 
d="M1036 1057v-680q0 -160 -116 -279q-112 -118 -306 -118q-197 0 -309 118q-115 121 -115 279v680q0 157 115 278q113 119 309 119q191 0 306 -121q116 -119 116 -276zM442 637l-14 -8v-252q0 -71 51 -119.5t135 -48.5q83 0 134 48t51 118v254l-4 -2q-50 -31 -90 -31
q-34 0 -84 33t-91 33q-30 0 -88 -25zM530 883q41 0 91 -33t84 -33q36 0 81 25l13 8v209q0 68 -51.5 117t-133.5 49q-83 0 -134.5 -48.5t-51.5 -117.5v-209q56 33 102 33z" />
    <glyph glyph-name="uni0473" unicode="&#x473;" 
d="M1022 684v-346q0 -160 -112 -258t-296 -98q-188 0 -298.5 98t-110.5 260v344q0 160 112 259t297 99q183 0 295 -100q113 -101 113 -258zM801 358v39q-49 -30 -96 -30q-42 0 -103 34q-61 37 -94 37q-38 0 -70 -28l-14 -9v-41q0 -71 53 -119t137 -48q81 0 134 48t53 117z
M424 666v-39q50 30 102 30q43 0 99 -36q62 -35 92 -35q39 0 71 28l13 9v43q0 69 -53 117t-134 48q-83 0 -136.5 -48t-53.5 -117z" />
    <glyph glyph-name="uni0474" unicode="&#x474;" 
d="M801 0h-393l-287 1434h241l218 -1196h43l145 903q24 152 107 227.5t245 75.5h37v-215q-77 0 -114.5 -37t-49.5 -119z" />
    <glyph glyph-name="uni0475" unicode="&#x475;" 
d="M946 735l-180 -735h-350l-254 1024h252l166 -817h20l127 602q26 122 96.5 177.5t225.5 55.5h30v-208q-63 0 -91.5 -21t-41.5 -78z" />
    <glyph glyph-name="uni0490" unicode="&#x490;" 
d="M1075 1196h-530v-1196h-244v1434h553v221h221v-459z" />
    <glyph glyph-name="uni0491" unicode="&#x491;" 
d="M326 0v1024h501v195h213v-408h-462v-811h-252z" />
    <glyph glyph-name="uni0492" unicode="&#x492;" 
d="M360 629h-182v239h182v566h773v-240h-529v-326h338v-239h-338v-629h-244v629z" />
    <glyph glyph-name="uni0493" unicode="&#x493;" 
d="M377 418h-184v194h184v412h715v-213h-463v-199h280v-194h-280v-418h-252v418z" />
    <glyph glyph-name="uni0494" unicode="&#x494;" 
d="M575 -385v233q98 6 175 138q77 133 77 340q0 183 -79 256q-75 75 -193 75h-49v-657h-244v1434h694v-240h-450v-309h63q251 0 383.5 -138.5t132.5 -418.5q0 -284 -133 -482q-132 -197 -377 -231z" />
    <glyph glyph-name="uni0495" unicode="&#x495;" 
d="M571 -367v217q100 21 162 123q62 103 62 224q0 235 -240 235h-55v-432h-246v1024h629v-213h-383v-168h53q196 0 326 -80q149 -88 149 -358q0 -200 -121 -371t-336 -201z" />
    <glyph glyph-name="uni0496" unicode="&#x496;" 
d="M1026 -305v305h-65l-189 629h-45v-629h-227v629h-45l-189 -629h-243l260 758l-242 676h244l172 -562h43v562h227v-562h41l174 562h248l-246 -676l182 -527h101v-536h-201z" />
    <glyph glyph-name="uni0497" unicode="&#x497;" 
d="M977 -252v252h-66l-149 438h-37v-438h-217v438h-45l-148 -438h-247l219 537l-209 487h250l129 -379h51v379h217v-379h43l127 379h250l-207 -487l131 -324h109v-465h-201z" />
    <glyph glyph-name="uni0498" unicode="&#x498;" 
d="M735 -305h-239v297q-141 35 -228 141q-88 107 -88 252l2 61h240v-61q0 -82 51 -128t129 -46q69 0 117.5 47.5t48.5 116.5v149q0 47 -34 81t-81 34h-184v229h166q57 0 90 41t33 95v61q0 73 -43.5 117.5t-116.5 44.5q-74 0 -114.5 -52t-45.5 -145h-239q0 175 112 299
q113 125 303 125q177 0 285 -108q109 -109 109 -273v-57q0 -68 -24.5 -132t-53.5 -93l-25 -25q5 -3 12.5 -8.5t27.5 -28t35 -50t27.5 -75.5t12.5 -104v-125q0 -131 -79 -232t-206 -143v-305z" />
    <glyph glyph-name="uni0499" unicode="&#x499;" 
d="M719 -252h-238v244q-132 27 -213 125.5t-82 253.5h248q0 -84 41 -132.5t117 -48.5q65 0 107 38t42 89q0 105 -102 105h-98v213h90q100 0 100 98q0 43 -38 73t-95 30q-140 0 -158 -142h-235q0 40 12.5 84t42 92t73 86t112.5 63t153 25q169 0 272 -86q105 -83 105 -215
q0 -121 -80 -198q100 -78 100 -234q0 -115 -75 -199.5t-201 -115.5v-248z" />
    <glyph glyph-name="uni049A" unicode="&#x49a;" 
d="M924 -305v305h-47l-369 629h-64v-629h-245v1434h245v-564h60l358 564h260l-438 -676l320 -518h143v-545h-223z" />
    <glyph glyph-name="uni049B" unicode="&#x49b;" 
d="M889 0h-58l-303 434h-61v-434h-248v1024h248v-377h68l268 377h278l-368 -492l237 -319h146v-465h-207v252z" />
    <glyph glyph-name="uni049C" unicode="&#x49c;" 
d="M600 440h-121v189h-51v-629h-246v1434h246v-564h51v191h121v-191h33l250 564h260l-322 -676l353 -758h-277l-260 629h-37v-189z" />
    <glyph glyph-name="uni049D" unicode="&#x49d;" 
d="M580 254h-101v180h-45v-434h-248v1024h248v-377h45v164h101v-164h36l193 377h278l-280 -492l309 -532h-278l-228 434h-30v-180z" />
    <glyph glyph-name="uni04A0" unicode="&#x4a0;" 
d="M283 1204h-263v230h508v-564h60l315 564h260l-395 -676l426 -758h-276l-326 629h-64v-629h-245v1204z" />
    <glyph glyph-name="uni04A1" unicode="&#x4a1;" 
d="M279 815h-242v209h489v-377h68l268 377h279l-369 -492l397 -532h-278l-303 434h-62v-434h-247v815z" />
    <glyph glyph-name="uni04A2" unicode="&#x4a2;" 
d="M883 -305v305h-123v629h-340v-629h-244v1434h244v-562h340v562h244v-1203h112v-536h-233z" />
    <glyph glyph-name="uni04A3" unicode="&#x4a3;" 
d="M903 -252v252h-115v434h-348v-434h-245v1024h245v-377h348v377h246v-811h107v-465h-238z" />
    <glyph glyph-name="uni04A4" unicode="&#x4a4;" 
d="M725 872v562h487v-236h-243v-1198h-244v629h-311v-629h-244v1434h244v-562h311z" />
    <glyph glyph-name="uni04A5" unicode="&#x4a5;" 
d="M180 1024h246v-377h317v377h465v-203h-219v-821h-246v434h-317v-434h-246v1024z" />
    <glyph glyph-name="uni04AA" unicode="&#x4aa;" 
d="M760 -305h-240v299q-134 34 -223 143q-88 107 -88 246v670q0 162 123 282q125 119 295 119q88 0 159.5 -27t117.5 -69.5t77 -98.5t44 -111.5t13 -111.5h-245q0 77 -44.5 131t-119.5 54q-73 0 -120.5 -47t-47.5 -115v-682q0 -74 47.5 -119t120.5 -45t125.5 47t52.5 125v61
h242v-61q0 -133 -82 -240q-76 -103 -207 -145v-305z" />
    <glyph glyph-name="uni04AB" unicode="&#x4ab;" 
d="M750 -252h-238v244q-137 29 -217 123t-80 227v336q0 160 117 262q116 104 299 104q185 0 296 -104.5t111 -280.5h-254q0 79 -42.5 125.5t-114.5 46.5q-68 0 -111 -42t-43 -109v-346q0 -63 44 -102t112 -39q73 0 115 47t42 131h261q0 -148 -79.5 -247t-217.5 -130v-246z
" />
    <glyph glyph-name="uni04AC" unicode="&#x4ac;" 
d="M850 -305h-234v305h-129v1194h-297v240h846v-240h-299v-965h113v-534z" />
    <glyph glyph-name="uni04AD" unicode="&#x4ad;" 
d="M846 -252h-238v252h-119v811h-329v213h909v-213h-330v-602h107v-461z" />
    <glyph glyph-name="uni04AE" unicode="&#x4ae;" 
d="M129 1434h270l215 -492l213 492h273l-361 -762v-672h-252v672z" />
    <glyph glyph-name="uni04AF" unicode="&#x4af;" 
d="M121 1024h280l230 -547l225 547h274l-380 -825v-568h-256v568z" />
    <glyph glyph-name="uni04B0" unicode="&#x4b0;" 
d="M487 479h-325v238h303l-336 717h270l215 -492l213 492h273l-340 -717h307v-238h-328v-479h-252v479z" />
    <glyph glyph-name="uni04B1" unicode="&#x4b1;" 
d="M494 0h-275v211h275l-373 813h280l230 -541l225 541h274l-380 -813h274v-211h-274v-369h-256v369z" />
    <glyph glyph-name="uni04B2" unicode="&#x4b2;" 
d="M903 -305v305h-82l-207 473l-208 -473h-275l346 748l-315 686h272l180 -422l181 422h272l-317 -686l237 -517h150v-536h-234z" />
    <glyph glyph-name="uni04B3" unicode="&#x4b3;" 
d="M866 -252v252h-80l-172 299l-172 -299h-280l313 524l-303 500h285l157 -279l166 279h277l-303 -500l184 -311h147v-465h-219z" />
    <glyph glyph-name="uni04B6" unicode="&#x4b6;" 
d="M879 -305v305h-123v498q-95 -29 -228 -29q-148 0 -249 98t-101 260v607h244v-592q0 -66 36 -104t99 -38q78 0 174 29l25 10v695h243v-1205h113v-534h-233z" />
    <glyph glyph-name="uni04B7" unicode="&#x4b7;" 
d="M889 0h-119v313q-124 -47 -248 -47q-151 0 -240 92t-89 260v406h251v-430q0 -117 119 -117q45 0 95.5 14.5t82.5 30.5l29 15v487h250v-815h106v-461h-237v252z" />
    <glyph glyph-name="uni04B8" unicode="&#x4b8;" 
d="M664 289h-148v180q-145 3 -242 100q-96 101 -96 258v607h244v-592q0 -116 94 -137v188h148v-182q43 8 81 22l11 6v695h243v-1434h-243v498q-39 -12 -92 -21v-188z" />
    <glyph glyph-name="uni04B9" unicode="&#x4b9;" 
d="M678 102h-148v164h-8q-151 0 -240 92t-89 260v406h251v-430q0 -100 86 -115v176h148v-159q44 13 80 34l12 7v487h250v-1024h-250v313q-49 -20 -92 -28v-183z" />
    <glyph glyph-name="uni04BA" unicode="&#x4ba;" 
d="M1047 0h-256v657q0 71 -45 116.5t-113 45.5q-72 0 -125 -47t-53 -113v-659h-254v1434h252v-478q107 88 245 88q151 0 250 -102t99 -266v-676z" />
    <glyph glyph-name="uni04BB" unicode="&#x4bb;" 
d="M1047 0h-252v598q0 71 -46 116.5t-116 45.5q-72 0 -125 -47t-53 -113v-600h-250v1434h248v-547q107 88 245 88q158 0 253.5 -101t95.5 -268v-606z" />
    <glyph glyph-name="uni04C0" unicode="&#x4c0;" 
d="M489 1204h-278v230h805v-230h-277v-975h277v-229h-805v229h278v975z" />
    <glyph glyph-name="uni04C3" unicode="&#x4c3;" 
d="M201 1434h245v-564h52l327 564h271l-363 -600q330 -95 330 -506q0 -286 -135 -482q-132 -196 -379 -231v233q100 6 184 140t84 338q0 178 -86 243q-87 66 -223 66h-62v-635h-245v1434z" />
    <glyph glyph-name="uni04C4" unicode="&#x4c4;" 
d="M545 434h-37v-434h-248v1024h248v-377h49l240 377h268l-279 -420q105 -32 173.5 -131.5t68.5 -241.5q0 -222 -115 -387t-342 -211v226q102 23 163 123.5t61 242.5q0 95 -65 152t-185 57z" />
    <glyph glyph-name="uni04C7" unicode="&#x4c7;" 
d="M784 74v555h-340v-629h-243v1434h243v-562h340v562h246v-1354q0 -216 -119.5 -334.5t-341.5 -118.5v203q90 0 152.5 62t62.5 182z" />
    <glyph glyph-name="uni04C8" unicode="&#x4c8;" 
d="M788 1024h246v-944q0 -216 -119.5 -334.5t-341.5 -118.5v203q90 0 152.5 62t62.5 182v360h-348v-434h-245v1024h245v-377h348v377z" />
    <glyph glyph-name="uni04D0" unicode="&#x4d0;" 
d="M186 627l234 807h389l233 -807v-627h-241v426h-373v-426h-242v627zM451 666h327l-143 528h-41zM303 1855h201q0 -151 108 -151q61 0 87 37t26 114h201q0 -145 -81 -231t-231 -86t-230.5 86.5t-80.5 230.5z" />
    <glyph glyph-name="uni04D1" unicode="&#x4d1;" 
d="M575 180q76 0 134 43q59 47 59 94v129l-190 -18q-59 -5 -98.5 -38t-39.5 -83q0 -55 37 -91t98 -36zM492 719h-240q0 115 98 219q97 106 291 106q171 0 271 -99t100 -259v-686h-224l-4 80l-10 -10q-9 -11 -16 -17q-24 -20 -84 -45q-62 -26 -142 -26q-140 0 -241 90
q-98 91 -98 231t106 221q112 85 272 97l197 16v43q0 75 -41 114.5t-104 39.5q-51 0 -87 -32t-44 -83zM326 1454h200q0 -151 109 -151q61 0 87 37t26 114h200q0 -145 -80.5 -231t-230.5 -86t-230.5 86.5t-80.5 230.5z" />
    <glyph glyph-name="uni04D2" unicode="&#x4d2;" 
d="M186 627l234 807h389l233 -807v-627h-241v426h-373v-426h-242v627zM451 666h327l-143 528h-41zM522 1593h-231v238h231v-238zM938 1593h-233v238h233v-238z" />
    <glyph glyph-name="uni04D3" unicode="&#x4d3;" 
d="M575 180q76 0 134 43q59 47 59 94v129l-190 -18q-59 -5 -98.5 -38t-39.5 -83q0 -55 37 -91t98 -36zM492 719h-240q0 115 98 219q97 106 291 106q171 0 271 -99t100 -259v-686h-224l-4 80l-10 -10q-9 -11 -16 -17q-24 -20 -84 -45q-62 -26 -142 -26q-140 0 -241 90
q-98 91 -98 231t106 221q112 85 272 97l197 16v43q0 75 -41 114.5t-104 39.5q-51 0 -87 -32t-44 -83zM551 1184h-232v237h232v-237zM967 1184h-234v237h234v-237z" />
    <glyph glyph-name="uni04D4" unicode="&#x4d4;" 
d="M82 627l233 807h846v-240h-344v-326h299v-239h-299v-389h359v-240h-598v426h-261v-426h-235v627zM578 1194h-101l-141 -532h242v532z" />
    <glyph glyph-name="uni04D5" unicode="&#x4d5;" 
d="M952 295h215q0 -139 -83.5 -227t-233.5 -88q-73 0 -134.5 25.5t-84.5 55.5l-21 29l-24 -31q-23 -25 -88 -52t-136 -27q-131 0 -219 94t-88 245q0 141 99 226q98 88 231 88h131v65q0 61 -28.5 98.5t-71.5 37.5q-42 0 -72.5 -28t-30.5 -71h-213q0 142 89 224.5t227 82.5
q132 0 217 -79q94 79 219 79q143 0 230 -97.5t87 -260.5v-256h-436v-100q0 -62 29.5 -98.5t85.5 -36.5q50 0 77 28t27 74zM377 190q62 0 100.5 35t38.5 86v117h-123q-54 0 -88.5 -34.5t-34.5 -88.5q0 -50 29 -82.5t78 -32.5zM848 831q-48 0 -81.5 -34t-33.5 -88v-76h221v67
q0 60 -30 95.5t-76 35.5z" />
    <glyph glyph-name="uni04D6" unicode="&#x4d6;" 
d="M309 1866h201q0 -152 108 -152q61 0 87 37t26 115h201q0 -145 -80.5 -231.5t-230.5 -86.5t-231 87t-81 231zM246 0v1434h731v-240h-488v-328h445v-237h-445v-389h502v-240h-745z" />
    <glyph glyph-name="uni04D7" unicode="&#x4d7;" 
d="M768 301h250q0 -143 -117 -231q-116 -88 -285 -88q-180 0 -299 104q-116 104 -116 254v338q0 156 116 260q115 106 297 106t299 -102t117 -260v-244h-571v-102q0 -62 44.5 -102.5t117.5 -40.5q70 0 108.5 29.5t38.5 78.5zM459 688v-55h317v55q0 61 -45.5 104.5
t-116.5 43.5q-66 0 -110.5 -43.5t-44.5 -104.5zM303 1454h201q0 -151 108 -151q61 0 87 37t26 114h201q0 -145 -81 -231t-231 -86t-230.5 86.5t-80.5 230.5z" />
    <glyph glyph-name="uni04D8" unicode="&#x4d8;" 
d="M180 385v336q0 60 43.5 101.5t108.5 41.5h436v195q0 70 -45.5 116t-116.5 46q-76 0 -123 -54.5t-47 -130.5h-237q0 97 43 187q46 98 146.5 164.5t229.5 66.5q176 0 289 -113q113 -110 113 -288v-670q0 -165 -123 -285q-121 -118 -297 -118t-297 118q-123 120 -123 287z
M768 377v250h-346v-242q0 -78 52.5 -125t125.5 -47t120.5 45t47.5 119z" />
    <glyph glyph-name="uni04D9" unicode="&#x4d9;" 
d="M469 725h-248q0 142 115 231q113 88 280 88q182 0 295 -104q115 -106 115 -254v-338q0 -154 -117 -262q-116 -104 -297 -104q-182 0 -299 102q-116 101 -116 260v166q0 78 84 78h487v102q0 63 -42 103.5t-114 40.5q-70 0 -106.5 -30t-36.5 -79zM768 338v55h-317v-55
q0 -61 45.5 -104.5t115.5 -43.5q67 0 111.5 43.5t44.5 104.5z" />
    <glyph glyph-name="uni04DA" unicode="&#x4da;" 
d="M180 385v336q0 60 43.5 101.5t108.5 41.5h436v195q0 70 -45.5 116t-116.5 46q-76 0 -123 -54.5t-47 -130.5h-237q0 97 43 187q46 98 146.5 164.5t229.5 66.5q176 0 289 -113q113 -110 113 -288v-670q0 -165 -123 -285q-121 -118 -297 -118t-297 118q-123 120 -123 287z
M768 377v250h-346v-242q0 -78 52.5 -125t125.5 -47t120.5 45t47.5 119zM526 1593h-231v238h231v-238zM942 1593h-233v238h233v-238z" />
    <glyph glyph-name="uni04DB" unicode="&#x4db;" 
d="M522 1184h-231v237h231v-237zM938 1184h-233v237h233v-237zM469 725h-248q0 142 115 231q113 88 280 88q182 0 295 -104q115 -106 115 -254v-338q0 -154 -117 -262q-116 -104 -297 -104q-182 0 -299 102q-116 101 -116 260v166q0 78 84 78h487v102q0 63 -42 103.5
t-114 40.5q-70 0 -106.5 -30t-36.5 -79zM768 338v55h-317v-55q0 -61 45.5 -104.5t115.5 -43.5q67 0 111.5 43.5t44.5 104.5z" />
    <glyph glyph-name="uni04DC" unicode="&#x4dc;" horiz-adv-x="1226" 
d="M1190 1434l-246 -676l262 -758h-245l-189 629h-45v-629h-227v629h-45l-189 -629h-243l260 758l-242 676h244l172 -562h43v562h227v-562h41l174 562h248zM520 1593h-231v238h231v-238zM936 1593h-234v238h234v-238z" />
    <glyph glyph-name="uni04DD" unicode="&#x4dd;" 
d="M508 1024h211v-379h49l129 379h256l-209 -487l221 -537h-254l-149 438h-43v-438h-211v438h-45l-148 -438h-247l219 537l-209 487h250l129 -379h51v379zM522 1184h-231v237h231v-237zM938 1184h-233v237h233v-237z" />
    <glyph glyph-name="uni04DE" unicode="&#x4de;" 
d="M653 639h-184v229h166q58 0 90.5 40.5t32.5 95.5v61q0 73 -43.5 117.5t-116.5 44.5q-74 0 -114.5 -52t-45.5 -145h-239q0 173 112 297q115 127 301 127q181 0 288.5 -107.5t107.5 -295.5v-35q0 -70 -24.5 -133.5t-53.5 -91.5l-25 -25q5 -3 12.5 -9t27.5 -29.5t35 -52
t27.5 -79t12.5 -109.5v-100q0 -180 -121 -295q-118 -112 -297 -112q-182 0 -301 116q-121 121 -121 289l2 61h240v-61q0 -82 51 -128t129 -46q69 0 117.5 47.5t48.5 116.5v149q0 51 -31 83t-84 32zM526 1593h-231v238h231v-238zM942 1593h-233v238h233v-238z" />
    <glyph glyph-name="uni04DF" unicode="&#x4df;" 
d="M639 422h-98v213h90q100 0 100 98q0 43 -38 73t-95 30q-140 0 -158 -142h-235q0 40 12.5 84t42 92t73 86t112.5 63t153 25q169 0 272 -86q105 -83 105 -215q0 -121 -80 -198q100 -78 100 -234q0 -145 -114 -239q-115 -92 -295 -92q-59 0 -114 13.5t-107 44t-90.5 75
t-62.5 111t-26 147.5h248q0 -84 41 -132.5t117 -48.5q65 0 107 38t42 89q0 105 -102 105zM502 1184h-232v237h232v-237zM918 1184h-234v237h234v-237z" />
    <glyph glyph-name="uni04E2" unicode="&#x4e2;" 
d="M399 487l7 -2l413 949h219v-1434h-231v487q0 110 6 224l10 174l6 61l-6 2l-415 -948h-218v1434h232v-502q0 -95 -6 -209l-10 -174zM909 1585h-592v207h592v-207z" />
    <glyph glyph-name="uni04E3" unicode="&#x4e3;" 
d="M909 1176h-592v206h592v-206zM426 680l-8 -320l379 664h237v-1024h-233v315l10 353l-379 -668h-237v1024h231v-344z" />
    <glyph glyph-name="uni04E4" unicode="&#x4e4;" 
d="M399 487l7 -2l413 949h219v-1434h-231v487q0 110 6 224l10 174l6 61l-6 2l-415 -948h-218v1434h232v-502q0 -95 -6 -209l-10 -174zM522 1593h-231v238h231v-238zM938 1593h-233v238h233v-238z" />
    <glyph glyph-name="uni04E5" unicode="&#x4e5;" 
d="M522 1184h-231v237h231v-237zM938 1184h-233v237h233v-237zM426 680l-8 -320l379 664h237v-1024h-233v315l10 353l-379 -668h-237v1024h231v-344z" />
    <glyph glyph-name="uni04E6" unicode="&#x4e6;" 
d="M1038 1053v-672q0 -165 -123 -285q-119 -116 -301 -116t-303 118q-123 120 -123 285v670q0 165 123 282q122 119 303 119q182 0 301 -119q123 -117 123 -282zM795 369v696q0 63 -54 110.5t-127 47.5t-126.5 -47.5t-53.5 -110.5v-694q0 -64 53.5 -112t126.5 -48t127 47.5
t54 110.5zM522 1593h-231v238h231v-238zM938 1593h-233v238h233v-238z" />
    <glyph glyph-name="uni04E7" unicode="&#x4e7;" 
d="M1030 694v-364q0 -148 -117 -250q-112 -100 -297 -100q-186 0 -301 100q-116 101 -116 250v364q0 149 116 250q115 100 301 100q185 0 297 -100q117 -102 117 -250zM772 326v370q0 57 -44 96t-114 39q-67 0 -113 -40t-46 -95v-370q0 -55 46.5 -94t114.5 -39t112 38.5
t44 94.5zM522 1184h-231v237h231v-237zM938 1184h-233v237h233v-237z" />
    <glyph glyph-name="uni04E8" unicode="&#x4e8;" 
d="M1036 1057v-680q0 -160 -116 -279q-112 -118 -306 -118q-197 0 -309 118q-115 121 -115 279v680q0 157 115 278q113 119 309 119q191 0 306 -121q116 -119 116 -276zM442 637l-14 -8v-252q0 -71 51 -119.5t135 -48.5q83 0 134 48t51 118v254l-4 -2q-50 -31 -90 -31
q-34 0 -84 33t-91 33q-30 0 -88 -25zM530 883q41 0 91 -33t84 -33q36 0 81 25l13 8v209q0 68 -51.5 117t-133.5 49q-83 0 -134.5 -48.5t-51.5 -117.5v-209q56 33 102 33z" />
    <glyph glyph-name="uni04E9" unicode="&#x4e9;" 
d="M1022 684v-346q0 -160 -112 -258t-296 -98q-188 0 -298.5 98t-110.5 260v344q0 160 112 259t297 99q183 0 295 -100q113 -101 113 -258zM801 358v39q-49 -30 -96 -30q-42 0 -103 34q-61 37 -94 37q-38 0 -70 -28l-14 -9v-41q0 -71 53 -119t137 -48q81 0 134 48t53 117z
M424 666v-39q50 30 102 30q43 0 99 -36q62 -35 92 -35q39 0 71 28l13 9v43q0 69 -53 117t-134 48q-83 0 -136.5 -48t-53.5 -117z" />
    <glyph glyph-name="uni04EA" unicode="&#x4ea;" 
d="M526 1593h-231v238h231v-238zM942 1593h-233v238h233v-238zM1036 1057v-680q0 -160 -116 -279q-112 -118 -306 -118q-197 0 -309 118q-115 121 -115 279v680q0 157 115 278q113 119 309 119q191 0 306 -121q116 -119 116 -276zM442 637l-14 -8v-252q0 -71 51 -119.5
t135 -48.5q83 0 134 48t51 118v254l-4 -2q-50 -31 -90 -31q-34 0 -84 33t-91 33q-30 0 -88 -25zM530 883q41 0 91 -33t84 -33q36 0 81 25l13 8v209q0 68 -51.5 117t-133.5 49q-83 0 -134.5 -48.5t-51.5 -117.5v-209q56 33 102 33z" />
    <glyph glyph-name="uni04EB" unicode="&#x4eb;" 
d="M522 1184h-231v237h231v-237zM938 1184h-233v237h233v-237zM1022 684v-346q0 -160 -112 -258t-296 -98q-188 0 -298.5 98t-110.5 260v344q0 160 112 259t297 99q183 0 295 -100q113 -101 113 -258zM801 358v39q-49 -30 -96 -30q-42 0 -103 34q-61 37 -94 37
q-38 0 -70 -28l-14 -9v-41q0 -71 53 -119t137 -48q81 0 134 48t53 117zM424 666v-39q50 30 102 30q43 0 99 -36q62 -35 92 -35q39 0 71 28l13 9v43q0 69 -53 117t-134 48q-83 0 -136.5 -48t-53.5 -117z" />
    <glyph glyph-name="uni04EC" unicode="&#x4ec;" 
d="M768 625h-332v239h332v195q0 70 -45.5 116t-116.5 46q-76 0 -123 -54.5t-47 -130.5h-237q0 155 106 285q109 133 303 133q174 0 293 -119q119 -116 119 -282v-670q0 -165 -123 -285q-121 -118 -297 -118t-297 118q-123 120 -123 287v61h242v-61q0 -78 52.5 -125
t125.5 -47t120.5 45t47.5 119v248zM526 1593h-231v238h231v-238zM942 1593h-233v238h233v-238z" />
    <glyph glyph-name="uni04ED" unicode="&#x4ed;" 
d="M766 414h-227v215h227v51q0 67 -43 109t-111 42q-72 0 -114.5 -43.5t-42.5 -115.5h-254q0 170 112 270q114 102 295 102q183 0 299 -104q117 -102 117 -262v-336q0 -160 -117 -262q-112 -100 -297 -100q-187 0 -302 103t-115 275h260q0 -77 42 -121t115 -44q68 0 112 39
t44 102v80zM522 1184h-231v237h231v-237zM938 1184h-233v237h233v-237z" />
    <glyph glyph-name="uni04EE" unicode="&#x4ee;" 
d="M868 1434h267l-580 -1434h-262l221 532l-373 902h279l225 -598zM948 1585h-592v207h592v-207z" />
    <glyph glyph-name="uni04EF" unicode="&#x4ef;" 
d="M453 -90l49 127l-371 987h266l240 -694l235 694h265l-475 -1241q-59 -152 -228 -152h-147v205h61q78 0 105 74zM934 1176h-592v206h592v-206z" />
    <glyph glyph-name="uni04F0" unicode="&#x4f0;" 
d="M868 1434h267l-580 -1434h-262l221 532l-373 902h279l225 -598zM553 1593h-231v238h231v-238zM969 1593h-234v238h234v-238z" />
    <glyph glyph-name="uni04F1" unicode="&#x4f1;" 
d="M453 -90l49 127l-371 987h266l240 -694l235 694h265l-475 -1241q-59 -152 -228 -152h-147v205h61q78 0 105 74zM551 1184h-232v237h232v-237zM967 1184h-234v237h234v-237z" />
    <glyph glyph-name="uni04F2" unicode="&#x4f2;" 
d="M868 1434h267l-580 -1434h-262l221 532l-373 902h279l225 -598zM825 1847l-290 -284h-213l219 284h284zM1247 1847l-291 -284h-213l220 284h284z" />
    <glyph glyph-name="uni04F3" unicode="&#x4f3;" 
d="M453 -90l49 127l-371 987h266l240 -694l235 694h265l-475 -1241q-59 -152 -228 -152h-147v205h61q78 0 105 74zM823 1438l-291 -285h-213l220 285h284zM1245 1438l-291 -285h-213l220 285h284z" />
    <glyph glyph-name="uni04F4" unicode="&#x4f4;" 
d="M756 1434h243v-1434h-243v498q-95 -29 -228 -29q-148 0 -249 98t-101 260v607h244v-592q0 -66 36 -104t99 -38q78 0 174 29l25 10v695zM500 1593h-232v238h232v-238zM915 1593h-233v238h233v-238z" />
    <glyph glyph-name="uni04F5" unicode="&#x4f5;" 
d="M1020 0h-250v313q-124 -47 -248 -47q-151 0 -240 92t-89 260v406h251v-430q0 -117 119 -117q45 0 95.5 14.5t82.5 30.5l29 15v487h250v-1024zM522 1184h-231v237h231v-237zM938 1184h-233v237h233v-237z" />
    <glyph glyph-name="uni04F8" unicode="&#x4f8;" 
d="M524 1593h-231v238h231v-238zM940 1593h-233v238h233v-238zM1141 0h-240v1434h240v-1434zM86 1434h240v-564h75q192 0 298 -100t106 -270v-127q0 -172 -106.5 -272.5t-299.5 -100.5h-313v1434zM557 383v96q0 82 -35.5 118t-115.5 36h-80v-393h84q147 0 147 143z" />
    <glyph glyph-name="uni04F9" unicode="&#x4f9;" 
d="M522 1184h-231v237h231v-237zM938 1184h-233v237h233v-237zM422 432h-74v-219h74q54 0 84.5 34t30.5 75.5t-30.5 75.5t-84.5 34zM113 1024h235v-381h96q159 0 244 -94q88 -94 88 -227q0 -134 -88 -228q-85 -94 -244 -94h-331v1024zM1110 0h-233v1024h233v-1024z" />
    <glyph glyph-name="Wgrave" unicode="&#x1e80;" 
d="M850 223l22 611v600h236v-623l-76 -811h-323l-82 557h-27l-80 -557h-323l-78 811v623h235v-600l23 -611h31l90 580h231l90 -580h31zM549 1864l244 -318h-236l-324 318h316z" />
    <glyph glyph-name="wgrave" unicode="&#x1e81;" 
d="M825 221l39 418v385h221v-418l-94 -606h-297l-71 442h-17l-76 -442h-299l-90 606v418h221v-385l39 -418h19l92 424h205l90 -424h18zM578 1454l243 -317h-235l-324 317h316z" />
    <glyph glyph-name="Wacute" unicode="&#x1e82;" 
d="M850 223l22 611v600h236v-623l-76 -811h-323l-82 557h-27l-80 -557h-323l-78 811v623h235v-600l23 -611h31l90 580h231l90 -580h31zM1016 1864l-324 -318h-235l243 318h316z" />
    <glyph glyph-name="wacute" unicode="&#x1e83;" 
d="M825 221l39 418v385h221v-418l-94 -606h-297l-71 442h-17l-76 -442h-299l-90 606v418h221v-385l39 -418h19l92 424h205l90 -424h18zM1016 1454l-324 -317h-235l243 317h316z" />
    <glyph glyph-name="Wdieresis" unicode="&#x1e84;" 
d="M850 223l22 611v600h236v-623l-76 -811h-323l-82 557h-27l-80 -557h-323l-78 811v623h235v-600l23 -611h31l90 580h231l90 -580h31zM522 1593h-231v238h231v-238zM938 1593h-233v238h233v-238z" />
    <glyph glyph-name="wdieresis" unicode="&#x1e85;" 
d="M825 221l39 418v385h221v-418l-94 -606h-297l-71 442h-17l-76 -442h-299l-90 606v418h221v-385l39 -418h19l92 424h205l90 -424h18zM522 1184h-231v237h231v-237zM938 1184h-233v237h233v-237z" />
    <glyph glyph-name="endash" unicode="&#x2013;" 
d="M201 682h827v-236h-827v236z" />
    <glyph glyph-name="emdash" unicode="&#x2014;" 
d="M-115 682h1458v-236h-1458v236z" />
    <glyph glyph-name="quoteleft" unicode="&#x2018;" 
d="M610 1436h162l-76 -463h-239z" />
    <glyph glyph-name="quoteright" unicode="&#x2019;" 
d="M618 973h-161l75 463h240z" />
    <glyph glyph-name="quotesinglbase" unicode="&#x201a;" 
d="M618 -231h-161l75 462h240z" />
    <glyph glyph-name="quotedblleft" unicode="&#x201c;" 
d="M813 1436h162l-76 -463h-240zM408 1436h161l-75 -463h-240z" />
    <glyph glyph-name="quotedblright" unicode="&#x201d;" 
d="M416 973h-162l76 463h239zM821 973h-162l76 463h240z" />
    <glyph glyph-name="quotedblbase" unicode="&#x201e;" 
d="M416 -231h-162l76 462h239zM821 -231h-162l76 462h240z" />
    <glyph glyph-name="dagger" unicode="&#x2020;" 
d="M735 1024h297v-236h-297v-1157h-243v1157h-291v236h291v410h243v-410z" />
    <glyph glyph-name="daggerdbl" unicode="&#x2021;" 
d="M735 276h293v-235h-293v-410h-243v410h-289v235h289v512h-289v236h289v410h243v-410h293v-236h-293v-512z" />
    <glyph glyph-name="bullet" unicode="&#x2022;" 
d="M287 715q0 135 96 231t233 96q134 0 230 -96t96 -231q0 -133 -96 -234q-96 -96 -230 -96q-137 0 -233 96t-96 234z" />
    <glyph glyph-name="ellipsis" unicode="&#x2026;" 
d="M743 0h-237v279h237v-279zM1194 0h-238v279h238v-279zM287 0h-238v279h238v-279z" />
    <glyph glyph-name="perthousand" unicode="&#x2030;" 
d="M629 1245v-160q0 -87 -66.5 -146.5t-161.5 -59.5q-94 0 -160.5 60t-66.5 146v160q0 88 65.5 148.5t161.5 60.5q94 0 161 -61t67 -148zM465 1085v160q0 37 -32.5 52t-64.5 0t-32 -52v-160q0 -37 32 -52t64.5 0t32.5 52zM1094 1001v-153l-961 -283v156zM1124 346v-160
q0 -87 -66.5 -146.5t-160.5 -59.5t-160.5 60t-66.5 146v160q0 88 65 147.5t162 59.5q94 0 160.5 -60.5t66.5 -146.5zM961 186v160q5 37 -29 52t-69.5 0t-33.5 -52v-160q0 -26 19.5 -43.5t48.5 -17.5q27 0 45.5 17.5t18.5 43.5zM590 346v-160q0 -87 -66.5 -146.5
t-161.5 -59.5q-94 0 -160.5 60t-66.5 146v160q0 88 65 147.5t162 59.5q94 0 161 -60.5t67 -146.5zM426 186v160q0 37 -32 52t-64.5 0t-32.5 -52v-160q0 -27 18 -44t47 -17q27 0 45.5 17.5t18.5 43.5z" />
    <glyph glyph-name="guilsinglleft" unicode="&#x2039;" 
d="M627 588l266 -342h-293l-266 342l266 344h291z" />
    <glyph glyph-name="guilsinglright" unicode="&#x203a;" 
d="M893 588l-266 -342h-291l264 342l-266 344h293z" />
    <glyph glyph-name="fraction" unicode="&#x2044;" 
d="M340 0h-162l711 1432h160z" />
    <glyph glyph-name="foursuperior" unicode="&#x2074;" 
d="M664 793h-332v143l239 498h195l-225 -482h123v131h190v-131h70v-159h-70v-144h-190v144z" />
    <glyph glyph-name="uni2081" unicode="&#x2081;" 
d="M446 592v166l162 28h174v-786h-194v612z" />
    <glyph glyph-name="uni2082" unicode="&#x2082;" 
d="M541 545h-172q0 114 67 188t182 74q110 0 180 -64.5t70 -167.5q0 -62 -37 -124t-92 -109q-47 -39 -71.5 -60.5t-55.5 -54.5t-39 -55h291v-172h-502v98q0 74 46 150.5t110 132.5q67 56 112.5 109.5t45.5 89.5q0 23 -17 37t-41 14q-37 0 -57 -24.5t-20 -61.5z" />
    <glyph glyph-name="uni2083" unicode="&#x2083;" 
d="M836 778v-141l-105 -123q56 -14 91.5 -62.5t35.5 -111.5v-135q0 -91 -72 -160q-71 -65 -172 -65q-110 0 -178.5 74.5t-68.5 191.5h165q0 -90 74 -90q25 0 44.5 15.5t19.5 35.5v119q0 51 -49 51h-89v108l113 136h-246v157h437z" />
    <glyph glyph-name="uni2084" unicode="&#x2084;" 
d="M664 143h-332v144l239 497h195l-225 -481h123v131h190v-131h70v-160h-70v-143h-190v143z" />
    <glyph glyph-name="Euro" unicode="&#x20ac;" 
d="M512 954h332v-186h-332v-113h272v-188h-272v-98q0 -63 48.5 -109.5t117.5 -46.5q72 0 124 45.5t52 108.5v16h238v-14q0 -164 -119 -277q-115 -112 -293 -112q-175 0 -295 114q-119 116 -119 281v92h-110v188h110v113h-110v186h110v105q0 163 121 278t297 115
q172 0 287 -109q114 -108 114 -292h-239q0 73 -50 122.5t-118 49.5q-69 0 -117.5 -46t-48.5 -112v-111z" />
    <glyph glyph-name="trademark" unicode="&#x2122;" 
d="M164 1266h-125v168h436v-168h-131v-596h-180v596zM866 1208l121 226h182v-764h-176v407l8 105l-77 -164h-115l-78 164l10 -105v-407h-172v764h181z" />
    <glyph glyph-name="Omega" unicode="&#x2126;" 
d="M172 0v221h147v8q-126 108 -126 281v547q0 159 114 276q113 119 309 119q193 0 306 -119q116 -119 116 -276v-549q0 -171 -129 -279v-8h150v-221h-397v252q0 39 55 82q80 65 80 160v565q0 69 -49.5 116.5t-131.5 47.5q-83 0 -132.5 -47.5t-49.5 -116.5v-565
q0 -101 80 -160q55 -40 55 -82v-252h-397z" />
    <glyph glyph-name="increment" unicode="&#x2206;" 
d="M1096 0h-963l283 1434h397zM635 1196h-41l-174 -950h389z" />
    <glyph glyph-name="product" unicode="&#x220f;" 
d="M201 1434h827v-1616h-244v1378h-340v-1378h-243v1616z" />
    <glyph glyph-name="summation" unicode="&#x2211;" 
d="M215 35l303 610l-291 580v209h795v-240h-506l234 -471v-141l-256 -525h553v-239h-832v217z" />
    <glyph glyph-name="minus" unicode="&#x2212;" 
d="M166 471v236h899v-236h-899z" />
    <glyph glyph-name="uni2215" unicode="&#x2215;" 
d="M340 0h-162l711 1432h160z" />
    <glyph glyph-name="uni2219" unicode="&#x2219;" 
d="M754 449h-279v278h279v-278z" />
    <glyph glyph-name="radical" unicode="&#x221a;" 
d="M719 -182h-340l-186 803q-10 36 -39 47.5t-91 11.5v192h84q222 0 263 -206l131 -637h20l418 1595h233z" />
    <glyph glyph-name="infinity" unicode="&#x221e;" 
d="M850 334q-57 0 -116 26t-91 58l-29 28l-34 -30q-19 -16 -84 -51q-64 -31 -119 -31q-109 0 -180.5 73t-71.5 185q0 115 70.5 187.5t181.5 72.5q57 0 116.5 -26.5t92.5 -59.5l28 -27q9 12 31 31q24 21 82 49q59 33 123 33q104 0 178 -74t74 -186t-71.5 -185t-180.5 -73z
M838 672q-27 0 -56.5 -19.5t-44.5 -42.5l-14 -18q54 -78 117 -78q34 0 56 23.5t22 56.5q0 32 -23 55t-57 23zM389 672q-34 0 -57 -23t-23 -55q0 -33 22 -56.5t56 -23.5q28 0 57.5 18.5t44.5 40.5l15 19q-53 80 -115 80z" />
    <glyph glyph-name="integral" unicode="&#x222b;" 
d="M268 -369v213h150q35 0 58.5 26t23.5 64v1201q0 133 88 215q90 84 225 84h145v-213h-147q-35 0 -58.5 -26.5t-23.5 -64.5v-1198q0 -131 -90 -215q-89 -86 -223 -86h-148z" />
    <glyph glyph-name="approxequal" unicode="&#x2248;" 
d="M457 303q-70 0 -70 -74h-237v35q0 124 66 198.5t187 74.5q89 0 211 -43q125 -41 158 -41q70 0 70 73h237v-34q0 -124 -66.5 -198.5t-187.5 -74.5q-85 0 -213 41q-125 43 -155 43zM457 723q-70 0 -70 -74h-237v35q0 124 66 198t187 74q89 0 211 -43q125 -41 158 -41
q70 0 70 74h237v-35q0 -124 -66.5 -198t-187.5 -74q-85 0 -213 41q-125 43 -155 43z" />
    <glyph glyph-name="notequal" unicode="&#x2260;" 
d="M645 485h420v-235h-512l-78 -207h-143l80 207h-248v235h338l69 187h-407v235h500l79 211h146l-82 -211h258v-235h-348z" />
    <glyph glyph-name="lessequal" unicode="&#x2264;" 
d="M1065 569v-266l-901 346v199l901 344v-264l-584 -180zM164 236h901v-236h-901v236z" />
    <glyph glyph-name="greaterequal" unicode="&#x2265;" 
d="M1065 848v-199l-901 -346v266l584 179l-584 180v264zM1065 0h-901v236h901v-236z" />
    <glyph glyph-name="lozenge" unicode="&#x25ca;" 
d="M193 659v115l290 660h260l291 -660v-115l-295 -659h-256zM606 281h17l182 436l-182 436h-17l-184 -436z" />
    <glyph glyph-name="commaaccent" unicode="&#xf6c3;" 
d="M836 -111l-230 -346h-198l149 346h279z" />
    <glyph glyph-name="cyrbreve" unicode="&#xf6d4;" horiz-adv-x="1226" 
d="M303 1454h201q0 -151 108 -151q61 0 87 37t26 114h201q0 -145 -81 -231t-231 -86t-230.5 86.5t-80.5 230.5z" />
    <glyph glyph-name="NULL" horiz-adv-x="0" 
 />
    <glyph glyph-name="CR" horiz-adv-x="681" 
 />
  </font>
</defs>
</svg>
