<svg width="771" height="850" fill="none" xmlns="http://www.w3.org/2000/svg"><g filter="url(#filter0_diif)" fill="#1E1E1E"><path d="M837.893 485.92l-99.25-99.222c-11.887-11.879-14.141-17.664-34.733-15.367a116.262 116.262 0 00-30.403 7.683 250.572 250.572 0 00-26.204 13.866l-134.557 80.809-66.285 39.742c-34.777 20.886-67.831 33.03-97.217 35.988-46.09 4.725-69.112-9.229-98.277-38.329l-75.388-74.671c-15.687-15.896-15.731-30.557 2.165-47.778l30.933-30.911 99.25 99.179c11.887 11.878 14.185 17.663 34.733 15.367 17.941-1.811 40.08-10.378 65.003-25.347l65.356-39.256 127.045-76.305 3.889-2.296c28.105-16.515 60.584-31.22 92.312-34.444 36.015-3.709 57.977 4.019 79.541 21.417a178.472 178.472 0 0115.378 13.733l2.917 2.915 75.564 75.509c15.687 15.853 15.731 30.558-2.121 47.735-10.031 9.847-20.018 19.65-29.961 29.586l.31.397z"/><path d="M782.877 542.575L537.492 787.784a152.153 152.153 0 01-49.477 32.969 152.244 152.244 0 01-58.345 11.498 151.991 151.991 0 01-58.272-11.462 151.89 151.89 0 01-49.418-32.917L54.368 520.452A152.643 152.643 0 019.862 412.729a152.64 152.64 0 0144.506-107.723L327.68 31.933c30.226-29.983 70.306-30.248 101.99.84L105.76 356.404a79.988 79.988 0 00-23.198 56.324 79.984 79.984 0 0023.198 56.323l267.568 267.376a79.532 79.532 0 0025.851 17.244 79.595 79.595 0 0030.491 6.027 79.582 79.582 0 0030.48-5.986 79.533 79.533 0 0025.861-17.197l245.385-245.208 51.437 51.355.044-.088z"/><path d="M263.869 302.931L509.21 57.721a152.073 152.073 0 0149.474-32.975 152.154 152.154 0 0158.348-11.491 151.978 151.978 0 0158.247 11.36 151.88 151.88 0 0149.443 32.798l267.524 267.332a152.587 152.587 0 0144.504 107.701c0 40.368-16 79.092-44.504 107.701L719.11 813.572c-30.314 29.984-70.35 30.248-101.989-.839L940.986 489.1a79.983 79.983 0 0023.198-56.323 79.985 79.985 0 00-23.198-56.324L673.418 109.077a79.534 79.534 0 00-25.871-17.252 79.594 79.594 0 00-30.515-6.019 79.59 79.59 0 00-30.48 5.987 79.529 79.529 0 00-25.861 17.196L315.262 354.286l-51.393-51.355z"/><path d="M574.125 525.221L378.851 638.928l28.723 28.791c20.769 20.489 39.771 20.489 62.396-2.827 8.573-8.831 83.341-83.59 136.369-136.624-9.192-8.081-19.886-9.406-32.303-3.047h.089zM473.417 320.24L668.69 206.534l-28.767-28.747c-20.813-20.489-39.992-20.533-62.44 2.782-8.573 8.831-83.342 83.591-136.369 136.624 9.191 8.125 19.929 9.406 32.303 3.047z"/></g><defs><filter id="filter0_diif" x=".862" y=".451" width="1051.89" height="848.604" filterUnits="userSpaceOnUse" color-interpolation-filters="sRGB"><feFlood flood-opacity="0" result="BackgroundImageFix"/><feColorMatrix in="SourceAlpha" values="0 0 0 0 0 0 0 0 0 0 0 0 0 0 0 0 0 0 127 0"/><feOffset dy="4"/><feGaussianBlur stdDeviation="4.5"/><feColorMatrix values="0 0 0 0 0 0 0 0 0 0 0 0 0 0 0 0 0 0 0.35 0"/><feBlend in2="BackgroundImageFix" result="effect1_dropShadow"/><feBlend in="SourceGraphic" in2="effect1_dropShadow" result="shape"/><feColorMatrix in="SourceAlpha" values="0 0 0 0 0 0 0 0 0 0 0 0 0 0 0 0 0 0 127 0" result="hardAlpha"/><feOffset dx="16" dy="4"/><feGaussianBlur stdDeviation="12"/><feComposite in2="hardAlpha" operator="arithmetic" k2="-1" k3="1"/><feColorMatrix values="0 0 0 0 0.116667 0 0 0 0 0.116667 0 0 0 0 0.116667 0 0 0 0.76 0"/><feBlend in2="shape" result="effect2_innerShadow"/><feColorMatrix in="SourceAlpha" values="0 0 0 0 0 0 0 0 0 0 0 0 0 0 0 0 0 0 127 0" result="hardAlpha"/><feOffset dy="-5"/><feGaussianBlur stdDeviation="6"/><feComposite in2="hardAlpha" operator="arithmetic" k2="-1" k3="1"/><feColorMatrix values="0 0 0 0 0 0 0 0 0 0 0 0 0 0 0 0 0 0 0.6 0"/><feBlend in2="effect2_innerShadow" result="effect3_innerShadow"/><feGaussianBlur stdDeviation="4.5" result="effect4_foregroundBlur"/></filter></defs></svg>